<?xml version="1.0" encoding="UTF-8" standalone="no"?>
<!-- Created with Inkscape (http://www.inkscape.org/) -->

<svg
   width="35.047287mm"
   height="25.903008mm"
   viewBox="0 0 35.047287 25.903007"
   version="1.1"
   id="svg5"
   inkscape:version="1.2.1 (9c6d41e410, 2022-07-14)"
   sodipodi:docname="GSPMDv1.svg"
   xmlns:inkscape="http://www.inkscape.org/namespaces/inkscape"
   xmlns:sodipodi="http://sodipodi.sourceforge.net/DTD/sodipodi-0.dtd"
   xmlns="http://www.w3.org/2000/svg"
   xmlns:svg="http://www.w3.org/2000/svg">
  <sodipodi:namedview
     id="namedview7"
     pagecolor="#ffffff"
     bordercolor="#000000"
     borderopacity="0.25"
     inkscape:showpageshadow="2"
     inkscape:pageopacity="0.0"
     inkscape:pagecheckerboard="0"
     inkscape:deskcolor="#d1d1d1"
     inkscape:document-units="mm"
     showgrid="false"
     showguides="true"
     inkscape:zoom="3.7103498"
     inkscape:cx="69.400465"
     inkscape:cy="58.350294"
     inkscape:window-width="1278"
     inkscape:window-height="1360"
     inkscape:window-x="-7"
     inkscape:window-y="0"
     inkscape:window-maximized="0"
     inkscape:current-layer="layer1">
    <sodipodi:guide
       position="108.16113,28.144487"
       orientation="1,0"
       id="guide12779"
       inkscape:locked="false" />
    <sodipodi:guide
       position="95.492185,26.064207"
       orientation="1,0"
       id="guide12781"
       inkscape:locked="false" />
    <sodipodi:guide
       position="45.211881,17.039218"
       orientation="1,0"
       id="guide5330"
       inkscape:locked="false" />
    <sodipodi:guide
       position="44.383537,13.259818"
       orientation="0,-1"
       id="guide5560"
       inkscape:locked="false" />
  </sodipodi:namedview>
  <defs
     id="defs2">
    <linearGradient
       id="linearGradient5652"
       inkscape:swatch="gradient">
      <stop
         style="stop-color:#bf4141;stop-opacity:1;"
         offset="0"
         id="stop5648" />
      <stop
         style="stop-color:#bf4141;stop-opacity:0;"
         offset="1"
         id="stop5650" />
    </linearGradient>
    <rect
       x="63.46209"
       y="100.05285"
       width="22.488068"
       height="18.366688"
       id="rect2117" />
    <rect
       x="65.177284"
       y="76.99305"
       width="260.32797"
       height="27.061913"
       id="rect34099" />
    <inkscape:perspective
       sodipodi:type="inkscape:persp3d"
       inkscape:vp_x="43.293546 : -1.2973902 : 1"
       inkscape:vp_y="0 : 999.99995 : 0"
       inkscape:vp_z="142.7109 : -24.402719 : 1"
       inkscape:persp3d-origin="104.99999 : -172.09699 : 1"
       id="perspective16491" />
    <rect
       x="63.46209"
       y="100.05285"
       width="22.488068"
       height="18.366688"
       id="rect2117-8" />
    <rect
       x="63.46209"
       y="100.05285"
       width="22.488068"
       height="18.366688"
       id="rect2117-0" />
    <rect
       x="63.46209"
       y="100.05285"
       width="22.488068"
       height="18.366688"
       id="rect2117-0-5" />
    <g
       id="g7900">
      <g
         id="g7894" />
      <g
         id="g7898">
        <path
           d="m 2.9375,-1.640625 v 0.859375 c 0,0.359375 -0.03125,0.46875 -0.765625,0.46875 H 1.96875 V 0 C 2.375,-0.03125 2.890625,-0.03125 3.3125,-0.03125 c 0.421875,0 0.9375,0 1.359375,0.03125 v -0.3125 h -0.21875 c -0.734375,0 -0.75,-0.109375 -0.75,-0.46875 V -1.640625 H 4.6875 v -0.3125 H 3.703125 v -4.53125 c 0,-0.203125 0,-0.265625 -0.171875,-0.265625 -0.078125,0 -0.109375,0 -0.1875,0.125 l -3.0625,4.671875 v 0.3125 z m 0.046875,-0.3125 H 0.5625 l 2.421875,-3.71875 z m 0,0"
           id="path7896" />
      </g>
    </g>
  </defs>
  <g
     inkscape:label="Layer 1"
     inkscape:groupmode="layer"
     id="layer1"
     transform="translate(-26.284212,-28.645028)">
    <path
       style="color:#000000;fill:#000000;stroke-linecap:round;stroke-linejoin:bevel"
       d="m 31.299042,38.347578 a 0.075,0.075 0 0 0 -0.105469,0.002 l -4.888672,5.056641 a 0.075,0.075 0 0 0 0.002,0.105468 0.075,0.075 0 0 0 0.105469,-0.002 l 4.888672,-5.05664 a 0.075,0.075 0 0 0 -0.002,-0.105469 z"
       id="path5395-9" />
    <path
       style="color:#000000;fill:#000000;stroke-linecap:round;stroke-linejoin:bevel"
       d="m 26.408417,36.69914 a 0.075,0.075 0 0 0 -0.07422,0.07422 v 6.650391 a 0.075,0.075 0 0 0 0.07422,0.07422 0.075,0.075 0 0 0 0.07617,-0.07422 V 36.77336 a 0.075,0.075 0 0 0 -0.07617,-0.07422 z"
       id="path5558-8" />
    <g
       id="path5562-2"
       transform="translate(-8.025177,-26.386797)">
      <path
         style="color:#000000;fill:#000000;stroke-width:0.15;stroke-linecap:round;stroke-linejoin:bevel"
         d="m 44.973649,69.804999 -10.539793,0.0049"
         id="path918" />
      <path
         style="color:#000000;fill:#000000;stroke-linecap:round;stroke-linejoin:bevel"
         d="m 44.972656,69.730469 -10.539062,0.0039 a 0.075,0.075 0 0 0 -0.07422,0.07617 0.075,0.075 0 0 0 0.07422,0.07422 l 10.541015,-0.0039 a 0.075,0.075 0 0 0 0.07422,-0.07617 0.075,0.075 0 0 0 -0.07617,-0.07422 z"
         id="path920" />
    </g>
    <path
       style="color:#000000;fill:#7d7d7d;stroke-width:0.681458;stroke-linecap:round;stroke-linejoin:bevel;-inkscape-stroke:none"
       d="m 55.796848,28.754939 0.06788,-0.06788 H 61.2565 l 0.06788,0.06788 v 22.359016 l -0.06788,0.06921 h -5.391772 l -0.06788,-0.06921 z m 0.13709,0.06788 V 51.046076 H 61.18862 V 28.822819 Z"
       id="rect28023" />
    <g
       id="path31035"
       transform="matrix(0,0.6814582,0.6814582,0,33.554957,-7.2718393)">
      <path
         style="color:#000000;fill:#a0e536;stroke-width:0.217;stroke-linecap:round;stroke-linejoin:bevel;-inkscape-stroke:none"
         d="M 52.867147,36.694911 H 85.678478"
         id="path1282" />
      <path
         style="color:#000000;fill:#7d7d7d;stroke-linecap:round;stroke-linejoin:bevel;-inkscape-stroke:none"
         d="m 52.867187,36.585937 a 0.1085,0.1085 0 0 0 -0.109375,0.109375 0.1085,0.1085 0 0 0 0.109375,0.107422 h 32.810547 a 0.1085,0.1085 0 0 0 0.109375,-0.107422 0.1085,0.1085 0 0 0 -0.109375,-0.109375 z"
         id="path1284" />
    </g>
    <g
       id="path31037"
       transform="matrix(0,0.6814582,0.6814582,0,33.554957,-7.2718393)">
      <path
         style="color:#000000;fill:#a0e536;stroke-width:0.217;stroke-linecap:round;stroke-linejoin:bevel;-inkscape-stroke:none"
         d="m 69.272811,32.739248 v 7.911327"
         id="path1288" />
      <path
         style="color:#000000;fill:#7d7d7d;stroke-linecap:round;stroke-linejoin:bevel;-inkscape-stroke:none"
         d="m 69.273437,32.630859 a 0.1085,0.1085 0 0 0 -0.109375,0.107422 v 7.91211 a 0.1085,0.1085 0 0 0 0.109375,0.109375 0.1085,0.1085 0 0 0 0.107422,-0.109375 v -7.91211 a 0.1085,0.1085 0 0 0 -0.107422,-0.107422 z"
         id="path1290" />
    </g>
    <g
       id="path31039"
       transform="matrix(0,0.6814582,0.6814582,0,33.554957,-7.2718393)"
       style="stroke-width:0.999328;stroke-dasharray:none">
      <path
         style="color:#000000;fill:#a0e536;stroke-width:0.999328;stroke-linecap:round;stroke-linejoin:bevel;stroke-dasharray:none"
         d="m 52.867147,36.694911 h 8.202832"
         id="path1294" />
      <path
         style="color:#000000;fill:#7d7d7d;stroke-width:0.999328;stroke-linecap:round;stroke-linejoin:bevel;stroke-dasharray:none"
         d="m 52.867187,36.619141 a 0.076721,0.076721 0 0 0 -0.07617,0.07617 0.076721,0.076721 0 0 0 0.07617,0.07617 h 8.203125 a 0.076721,0.076721 0 0 0 0.07617,-0.07617 0.076721,0.076721 0 0 0 -0.07617,-0.07617 z"
         id="path1296" />
    </g>
    <g
       id="path31041"
       transform="matrix(0,0.6814582,0.6814582,0,33.554957,-7.2718393)">
      <path
         style="color:#000000;fill:#a0e536;stroke-width:0.217;stroke-linecap:round;stroke-linejoin:bevel;-inkscape-stroke:none"
         d="M 69.272811,36.694911 H 85.678478"
         id="path1300" />
      <path
         style="color:#000000;fill:#7d7d7d;stroke-linecap:round;stroke-linejoin:bevel;-inkscape-stroke:none"
         d="m 69.273437,36.585937 a 0.1085,0.1085 0 0 0 -0.109375,0.109375 0.1085,0.1085 0 0 0 0.109375,0.107422 h 16.404297 a 0.1085,0.1085 0 0 0 0.109375,-0.107422 0.1085,0.1085 0 0 0 -0.109375,-0.109375 z"
         id="path1302" />
    </g>
    <path
       style="color:#000000;fill:#7d7d7d;stroke-width:0.681458;stroke-linecap:round;stroke-linejoin:bevel;-inkscape-stroke:none"
       d="m 55.796848,34.345026 a 0.06814582,0.06814582 0 0 1 0.06788,-0.06788 h 2.696551 2.695221 a 0.06814582,0.06814582 0 0 1 0.06788,0.06788 0.06814582,0.06814582 0 0 1 -0.06788,0.06788 h -2.695221 -2.696551 a 0.06814582,0.06814582 0 0 1 -0.06788,-0.06788 z"
       id="path31047" />
    <path
       style="color:#000000;fill:#7d7d7d;stroke-width:0.681458;stroke-linecap:round;stroke-linejoin:bevel;-inkscape-stroke:none"
       d="m 55.796848,45.5252 a 0.06814582,0.06814582 0 0 1 0.06788,-0.06921 h 2.696551 2.695221 a 0.06814582,0.06814582 0 0 1 0.06788,0.06921 0.06814582,0.06814582 0 0 1 -0.06788,0.06788 h -2.695221 -2.696551 a 0.06814582,0.06814582 0 0 1 -0.06788,-0.06788 z"
       id="path31049" />
    <g
       id="path4678"
       transform="matrix(0,0.86420394,-1,0,97.133316,-15.115414)">
      <path
         style="color:#000000;fill:#000000;stroke-width:0.15;stroke-linecap:round;stroke-linejoin:bevel"
         d="M 50.711863,42.247355 H 77.458669"
         id="path934" />
      <path
         style="color:#000000;fill:#000000;fill-opacity:0.963731;stroke-linecap:round;stroke-linejoin:bevel"
         d="m 50.710937,42.171875 a 0.075,0.075 0 0 0 -0.07422,0.07617 0.075,0.075 0 0 0 0.07422,0.07422 h 26.748047 a 0.075,0.075 0 0 0 0.07422,-0.07422 0.075,0.075 0 0 0 -0.07422,-0.07617 z"
         id="path936" />
    </g>
    <path
       id="rect4736"
       style="fill:#ffffff;stroke-width:0.186398;stroke-linecap:round;stroke-linejoin:bevel;stroke-opacity:0.963731"
       d="m 55.467453,35.889801 v 2.494421 H 53.24614 v -2.494421 z" />
    <path
       style="color:#000000;fill:#d51a1a;fill-opacity:1;stroke-width:0.799404;stroke-linecap:round;stroke-linejoin:bevel"
       d="m 54.965347,38.294624 a 0.08,0.05112382 0 0 0 -0.08008,-0.05117 0.08,0.05112382 0 0 0 -0.08008,0.05117 v 1.662522 a 0.08,0.05112382 0 0 0 0.08008,0.05117 0.08,0.05112382 0 0 0 0.08008,-0.05117 z"
       id="path3258" />
    <path
       style="color:#000000;fill:#d51a1a;fill-opacity:1;stroke-width:0.80387;stroke-linecap:round;stroke-linejoin:bevel"
       d="m 54.965347,34.328891 a 0.08,0.05169655 0 0 0 -0.08008,-0.05175 0.08,0.05169655 0 0 0 -0.08008,0.05175 v 2.038327 a 0.08,0.05169655 0 0 0 0.08008,0.05175 0.08,0.05169655 0 0 0 0.08008,-0.05175 z"
       id="path3260" />
    <g
       id="path4682"
       transform="matrix(0,-1,0.67522828,0,32.772241,102.61569)">
      <path
         style="color:#000000;fill:#000000;stroke-width:0.15;stroke-linecap:round;stroke-linejoin:bevel;-inkscape-stroke:none"
         d="M 50.710247,42.21064 V 32.702772"
         id="path928" />
      <path
         style="color:#000000;fill:#000000;fill-opacity:0.963731;stroke-linecap:round;stroke-linejoin:bevel;-inkscape-stroke:none"
         d="m 50.710937,32.626953 a 0.075,0.075 0 0 0 -0.07617,0.07617 v 9.507812 a 0.075,0.075 0 0 0 0.07617,0.07422 0.075,0.075 0 0 0 0.07422,-0.07422 v -9.507812 a 0.075,0.075 0 0 0 -0.07422,-0.07617 z"
         id="path930" />
    </g>
    <path
       style="color:#000000;fill:#aeaeae;stroke-width:0.706551;stroke-linecap:square;stroke-linejoin:bevel"
       d="m 34.41613,38.706427 -0.08832,0.08832 v 3.204317 l 0.08832,0.08832 h 5.670344 l 0.08832,-0.08832 v -3.204317 l -0.08832,-0.08832 z m 0.08694,0.176637 h 5.495086 v 3.02906 H 34.50307 Z"
       id="rect22208-8-0-1-2-0-9" />
    <path
       style="color:#000000;fill:#aeaeae;stroke-width:0.706551;stroke-linecap:square;stroke-linejoin:bevel"
       d="m 28.720946,38.696767 -0.08832,0.08832 v 3.204317 l 0.08832,0.08832 h 5.717264 l 0.08832,-0.08832 v -3.204317 l -0.08832,-0.08832 z m 0.08832,0.176637 h 5.540626 v 3.027681 h -5.540626 z"
       id="rect22208-8-0-1-2-0" />
    <path
       style="color:#000000;fill:#aeaeae;stroke-width:0.706551;stroke-linecap:square;stroke-linejoin:bevel"
       d="m 29.383338,37.994357 -0.08694,0.08832 v 3.204317 l 0.08694,0.08832 h 5.689663 l 0.08694,-0.08832 v -3.204317 l -0.08694,-0.08832 z m 0.08832,0.175257 h 5.513026 v 3.02906 h -5.513026 z"
       id="rect22208-8-5-5-9-2" />
    <path
       style="color:#000000;fill:#aeaeae;stroke-width:0.706551;stroke-linecap:square;stroke-linejoin:bevel"
       d="m 29.380577,41.155894 -0.06348,0.06762 -1.407582,1.48072 -0.06348,0.06762 0.133859,0.126958 0.06348,-0.06624 1.407581,-1.4821 0.06348,-0.06762 z"
       id="path24712-4-3-9" />
    <path
       style="color:#000000;fill:#aeaeae;stroke-width:0.706551;stroke-linecap:square;stroke-linejoin:bevel"
       d="m 29.380577,37.951577 -0.06348,0.06624 -1.407582,1.4821 -0.06348,0.06762 0.133859,0.126959 0.06348,-0.06624 1.407581,-1.4821 0.06348,-0.06762 z"
       id="path24712-4-4-5-6" />
    <path
       style="color:#000000;fill:#aeaeae;stroke-width:0.706551;stroke-linecap:square;stroke-linejoin:bevel"
       d="m 35.026082,41.155894 -0.06348,0.06762 -1.407581,1.48072 -0.06348,0.06762 0.133858,0.126958 0.06348,-0.06624 1.407581,-1.4821 0.06348,-0.06762 z"
       id="path24712-4-5-4-3" />
    <path
       style="color:#000000;fill:#aeaeae;stroke-width:0.706551;stroke-linecap:square;stroke-linejoin:bevel"
       d="m 35.068862,37.951577 -0.06348,0.06624 -1.407581,1.4821 -0.06348,0.06762 0.133858,0.126959 0.06348,-0.06624 1.40758,-1.4821 0.06348,-0.06762 z"
       id="path24712-4-4-94-9-0" />
    <g
       id="path26637-1-8"
       transform="matrix(0.70655056,0,0,0.70655056,1.3559118,-5.8655993)">
      <path
         style="color:#000000;fill:#aee954;stroke-width:0.25;stroke-linecap:square;stroke-linejoin:bevel"
         d="m 39.668589,62.200428 v 4.53608"
         id="path1154" />
      <path
         style="color:#000000;fill:#aeaeae;stroke-linecap:square;stroke-linejoin:bevel"
         d="m 39.542969,62.076172 v 0.125 4.535156 0.125 h 0.25 v -0.125 -4.535156 -0.125 z"
         id="path1156" />
    </g>
    <path
       style="color:#000000;fill:#aeaeae;stroke-width:0.706551;stroke-linecap:square;stroke-linejoin:bevel"
       d="m 35.031602,38.004017 -0.08832,0.08832 v 3.204317 l 0.08832,0.08832 h 5.688284 l 0.08694,-0.08832 v -3.204317 l -0.08694,-0.08832 z m 0.08694,0.176637 h 5.513026 v 3.02906 h -5.513026 z"
       id="rect22208-8-5-5-9-2-8" />
    <path
       style="color:#000000;fill:#aeaeae;stroke-width:0.706551;stroke-linecap:square;stroke-linejoin:bevel"
       d="m 35.027462,41.165554 -0.06348,0.06762 -1.40758,1.4821 -0.06348,0.06624 0.133858,0.128339 0.06486,-0.06762 1.406201,-1.4821 0.06486,-0.06624 z"
       id="path24712-4-3-9-9" />
    <path
       style="color:#000000;fill:#aeaeae;stroke-width:0.706551;stroke-linecap:square;stroke-linejoin:bevel"
       d="m 40.672966,41.165554 -0.06348,0.06762 -1.407582,1.4821 -0.06348,0.06624 0.133858,0.128339 0.06348,-0.06762 1.407582,-1.4821 0.06348,-0.06624 z"
       id="path24712-4-5-4-3-0" />
    <path
       style="color:#000000;fill:#aeaeae;stroke-width:0.706551;stroke-linecap:square;stroke-linejoin:bevel"
       d="m 40.715746,37.961237 -0.06348,0.06762 -1.407581,1.4821 -0.06348,0.06624 0.133858,0.126959 0.06348,-0.06624 1.407581,-1.482101 0.06348,-0.06762 z"
       id="path24712-4-4-94-9-0-0" />
    <g
       id="path26637-1-8-5"
       transform="matrix(0.70655056,0,0,0.70655056,1.3559118,-5.8655993)">
      <path
         style="color:#000000;fill:#aee954;stroke-width:0.25;stroke-linecap:square;stroke-linejoin:bevel"
         d="M 47.661186,62.214639 V 66.75072"
         id="path1172" />
      <path
         style="color:#000000;fill:#aeaeae;stroke-linecap:square;stroke-linejoin:bevel"
         d="m 47.537109,62.089844 v 0.125 4.535156 0.125 h 0.25 v -0.125 -4.535156 -0.125 z"
         id="path1174" />
    </g>
    <path
       style="color:#000000;fill:#aeaeae;stroke-width:0.706551;stroke-linecap:square;stroke-linejoin:bevel"
       d="m 40.719886,38.004017 -0.08832,0.08832 v 3.204317 l 0.08832,0.08832 h 5.688284 l 0.08832,-0.08832 v -3.204317 l -0.08832,-0.08832 z m 0.08694,0.176637 h 5.513027 v 3.02906 h -5.513027 z"
       id="rect22208-8-5-5-9-2-3" />
    <path
       style="color:#000000;fill:#aeaeae;stroke-width:0.706551;stroke-linecap:square;stroke-linejoin:bevel"
       d="m 40.717126,41.165554 -0.06486,0.06762 -1.406201,1.4821 -0.06486,0.06624 0.135238,0.128339 0.06348,-0.06762 1.407581,-1.4821 0.06348,-0.06624 z"
       id="path24712-4-3-9-91" />
    <path
       style="color:#000000;fill:#aeaeae;stroke-width:0.706551;stroke-linecap:square;stroke-linejoin:bevel"
       d="m 40.715746,37.961237 -0.06348,0.06762 -1.407581,1.4821 -0.06348,0.06624 0.133858,0.126959 0.06348,-0.06624 1.407581,-1.482101 0.06348,-0.06762 z"
       id="path24712-4-4-5-6-8" />
    <path
       style="color:#000000;fill:#aeaeae;stroke-width:0.706551;stroke-linecap:square;stroke-linejoin:bevel"
       d="m 46.361251,41.165554 -0.06348,0.06762 -1.407581,1.4821 -0.06348,0.06624 0.133858,0.128339 0.06486,-0.06762 1.406201,-1.4821 0.06486,-0.06624 z"
       id="path24712-4-5-4-3-4" />
    <path
       style="color:#000000;fill:#aeaeae;stroke-width:0.706551;stroke-linecap:square;stroke-linejoin:bevel"
       d="m 46.40403,37.961237 -0.06348,0.06762 -1.407581,1.4821 -0.06348,0.06624 0.133859,0.126959 0.06486,-0.06624 1.406202,-1.482101 0.06486,-0.06762 z"
       id="path24712-4-4-94-9-0-2" />
    <g
       id="path26637-1-8-3"
       transform="matrix(0.70655056,0,0,0.70655056,1.3559118,-5.8655993)">
      <path
         style="color:#000000;fill:#aee954;stroke-width:0.25;stroke-linecap:square;stroke-linejoin:bevel"
         d="m 55.712329,62.21464 v 4.53608"
         id="path1194" />
      <path
         style="color:#000000;fill:#aeaeae;stroke-linecap:square;stroke-linejoin:bevel"
         d="m 55.587891,62.089844 v 0.125 4.535156 0.125 h 0.25 v -0.125 -4.535156 -0.125 z"
         id="path1196" />
    </g>
    <path
       style="color:#000000;fill:#aeaeae;stroke-width:0.706551;stroke-linecap:square;stroke-linejoin:bevel"
       d="m 45.704379,38.717467 -0.08832,0.08832 v 3.202938 l 0.08832,0.08832 h 5.717264 l 0.08832,-0.08832 v -3.202938 l -0.08832,-0.08832 z m 0.08832,0.176637 h 5.540626 v 3.0263 h -5.540626 z"
       id="rect22208-8-0-1-2-0-9-9" />
    <path
       style="color:#000000;fill:#aeaeae;stroke-width:0.706551;stroke-linecap:square;stroke-linejoin:bevel"
       d="m 46.36677,38.015056 -0.08832,0.08694 v 3.205697 l 0.08832,0.08694 h 5.688284 l 0.08832,-0.08694 v -3.205697 l -0.08832,-0.08694 z m 0.08832,0.175258 h 5.511646 v 3.029059 H 46.45509 Z"
       id="rect22208-8-5-5-9-2-8-6" />
    <path
       style="color:#000000;fill:#aeaeae;stroke-width:0.706551;stroke-linecap:square;stroke-linejoin:bevel"
       d="m 46.364011,41.176594 -0.06348,0.06624 -1.407581,1.4821 -0.06348,0.06762 0.133858,0.126959 0.06348,-0.06762 1.407581,-1.4821 0.06348,-0.06624 z"
       id="path24712-4-3-9-9-3" />
    <path
       style="color:#000000;fill:#aeaeae;stroke-width:0.706551;stroke-linecap:square;stroke-linejoin:bevel"
       d="m 46.362631,37.970897 -0.06348,0.06762 -1.407581,1.4821 -0.06348,0.06624 0.133858,0.128339 0.06486,-0.06762 1.40758,-1.482101 0.06348,-0.06624 z"
       id="path24712-4-4-5-6-5-1" />
    <path
       style="color:#000000;fill:#aeaeae;stroke-width:0.706551;stroke-linecap:square;stroke-linejoin:bevel"
       d="m 52.009515,41.176594 -0.06486,0.06624 -1.406201,1.4821 -0.06486,0.06762 0.135238,0.126959 0.06348,-0.06762 1.407581,-1.4821 0.06348,-0.06624 z"
       id="path24712-4-5-4-3-0-8" />
    <path
       style="color:#000000;fill:#aeaeae;stroke-width:0.706551;stroke-linecap:square;stroke-linejoin:bevel"
       d="m 52.052294,37.970897 -0.06348,0.06762 -1.407581,1.4821 -0.06348,0.06624 0.133858,0.128339 0.06348,-0.06762 1.407581,-1.482101 0.06348,-0.06624 z"
       id="path24712-4-4-94-9-0-0-9" />
    <g
       id="path26637-1-8-5-7"
       transform="matrix(0.70655056,0,0,0.70655056,1.3559118,-5.8655993)">
      <path
         style="color:#000000;fill:#aee954;stroke-width:0.25;stroke-linecap:square;stroke-linejoin:bevel"
         d="m 63.704926,62.228851 v 4.536081"
         id="path1216" />
      <path
         style="color:#000000;fill:#aeaeae;stroke-linecap:square;stroke-linejoin:bevel"
         d="m 63.580078,62.103516 v 0.125 4.537109 0.125 h 0.25 v -0.125 -4.537109 -0.125 z"
         id="path1218" />
    </g>
    <path
       style="color:#000000;fill:#aeaeae;stroke-width:0.706551;stroke-linecap:square;stroke-linejoin:bevel"
       d="m 44.952289,39.502676 -0.08832,0.08832 v 3.205698 l 0.08832,0.08832 h 5.667584 l 0.08832,-0.08832 v -3.205698 l -0.08832,-0.08832 z m 0.08832,0.176638 h 5.490947 v 3.02906 h -5.490947 z"
       id="rect22208-8-3-0-0-5-6" />
    <path
       style="color:#000000;fill:#4eb0e9;fill-opacity:1;stroke-width:0.14131;stroke-linecap:round;stroke-linejoin:bevel"
       d="m 34.997603,38.045773 5.647172,0.01004 -0.59213,0.692844 v 3.20425 l 0.590609,-0.702654 0.0015,-3.19444 -0.592129,0.692844 h -5.717763 v 3.20425 h 5.717763 v -3.20425 h -5.717763 l 0.662719,-0.702885"
       id="path1266" />
    <path
       style="color:#000000;fill:#000000;stroke-width:0.706551;stroke-linecap:round;stroke-linejoin:bevel"
       d="m 34.997102,37.975037 a 0.07065506,0.07065506 0 0 0 -0.04968,0.02208 0.07065506,0.07065506 0 0 0 -0.0014,0 l -0.662391,0.702411 0.0083,0.0207 -0.0276,0.02898 v 3.204317 l 0.07038,0.07038 h 5.717263 l 0.0345,-0.03312 0.0207,0.0069 0.590633,-0.70241 0.01656,-0.04554 0.0014,-3.193278 -0.04554,-0.01794 -0.02484,-0.05382 z m 0.03174,0.140758 5.461968,0.01104 -0.470574,0.550613 h -5.521309 z m 5.544766,0.132478 -0.0014,2.97662 -0.448494,0.534053 v -2.98352 -0.0014 z m -6.168517,0.571313 h 5.576505 v 3.062179 h -5.576505 z"
       id="path1268" />
    <path
       style="color:#000000;fill:#aeaeae;stroke-width:0.706551;stroke-linecap:square;stroke-linejoin:bevel"
       d="m 27.968857,39.483357 -0.08832,0.08832 v 3.204317 l 0.08832,0.08832 h 5.668963 l 0.08832,-0.08832 v -3.204317 l -0.08832,-0.08832 z m 0.08832,0.176637 h 5.492327 v 3.02768 h -5.492327 z"
       id="rect22208-8-3-0-0" />
    <path
       style="color:#000000;fill:#aeaeae;stroke-width:0.706551;stroke-linecap:square;stroke-linejoin:bevel"
       d="m 34.367831,38.698147 -0.0621,0.0621 -0.745191,0.75209 -0.0621,0.0621 0.125578,0.124198 0.0621,-0.0621 0.745191,-0.75071 0.0621,-0.06348 z"
       id="path24712-4-4-5-6-5" />
    <g
       id="path33201"
       transform="matrix(0.70655056,0,0,0.70655056,1.3559118,-5.8655993)">
      <path
         style="color:#000000;fill:#36c8e5;stroke-width:0.25;stroke-linecap:round;stroke-linejoin:bevel"
         d="m 46.830971,63.143754 -0.03272,4.54977"
         id="path1276" />
      <path
         style="color:#000000;fill:#000000;stroke-linecap:round;stroke-linejoin:bevel"
         d="m 46.832031,63.019531 a 0.125,0.125 0 0 0 -0.126953,0.123047 l -0.03125,4.550781 a 0.125,0.125 0 0 0 0.123047,0.125 0.125,0.125 0 0 0 0.126953,-0.123047 l 0.03125,-4.550781 a 0.125,0.125 0 0 0 -0.123047,-0.125 z"
         id="path1278" />
    </g>
    <path
       style="color:#000000;fill:#aeaeae;stroke-width:0.706551;stroke-linecap:square;stroke-linejoin:bevel"
       d="m 33.617121,39.493017 -0.08832,0.08832 v 3.204317 l 0.08832,0.08832 h 5.667584 l 0.08832,-0.08832 v -3.204317 l -0.08832,-0.08832 z m 0.08832,0.176637 h 5.490948 v 3.02768 h -5.490948 z"
       id="rect22208-8-3-0-0-5" />
    <path
       style="color:#000000;fill:#aeaeae;stroke-width:0.706551;stroke-linecap:square;stroke-linejoin:bevel"
       d="m 39.305404,39.493017 -0.08832,0.08832 v 3.204317 l 0.08832,0.08832 h 5.667585 l 0.08832,-0.08832 v -3.204317 l -0.08832,-0.08832 z m 0.08832,0.176637 h 5.490947 v 3.02768 h -5.490947 z"
       id="rect22208-8-3-0-0-2" />
    <path
       style="color:#000000;fill:#aeaeae;stroke-width:0.706551;stroke-linecap:square;stroke-linejoin:bevel"
       d="m 40.056114,38.706427 -0.08832,0.08832 v 3.204317 l 0.08832,0.08832 h 5.718644 l 0.08832,-0.08832 v -3.204317 l -0.08832,-0.08832 z m 0.08832,0.176637 h 5.542006 v 3.027681 h -5.542006 z"
       id="rect22208-8-0-1-2-0-4" />
    <g
       id="path1705"
       transform="matrix(0.70655056,0,0,0.70655056,1.3559118,-5.8655993)">
      <path
         style="color:#000000;fill:#7d7d7d;stroke-width:0.25;stroke-linecap:round"
         d="m 53.710452,64.322333 1.058074,-1.178579"
         id="path1398" />
      <path
         style="color:#000000;fill:#aeaeae;stroke-linecap:round"
         d="m 54.761719,63.019531 a 0.125,0.125 0 0 0 -0.08594,0.04102 l -1.058594,1.177734 a 0.125,0.125 0 0 0 0.0098,0.177735 0.125,0.125 0 0 0 0.175781,-0.0098 l 1.058594,-1.179688 a 0.125,0.125 0 0 0 -0.0098,-0.175781 0.125,0.125 0 0 0 -0.08984,-0.03125 z"
         id="path1400" />
    </g>
    <text
       xml:space="preserve"
       style="font-size:4.9389px;font-family:'Roboto Mono';-inkscape-font-specification:'Roboto Mono';fill:#d51a1a;stroke:#7d7d7d;stroke-width:0.256;stroke-linecap:round"
       x="34.254295"
       y="76.687263"
       id="text852"><tspan
         sodipodi:role="line"
         id="tspan850"
         style="stroke-width:0.256"
         x="34.254295"
         y="76.687263" /></text>
    <g
       aria-label="hy"
       transform="matrix(0.12328063,0,0,0.12989937,46.337352,23.274306)"
       id="text2115-3"
       style="font-family:JuliaMono;-inkscape-font-specification:JuliaMono;white-space:pre;shape-inside:url(#rect2117-8);display:inline;fill:#ea5d5d;fill-opacity:1;stroke-width:0.944882;stroke-linecap:round;stroke-linejoin:bevel">
      <path
         d="m 65.566406,105.73608 v -3.60351 h -1.083984 v 9 h 1.083984 v -4.60547 q 0.117188,-0.1875 0.263672,-0.33985 0.152344,-0.1582 0.328125,-0.27539 0.222656,-0.15234 0.486328,-0.23437 0.263672,-0.082 0.556641,-0.082 0.357422,-0.006 0.632812,0.0996 0.275391,0.0996 0.457032,0.30468 0.169921,0.1875 0.257812,0.47461 0.08789,0.28125 0.08789,0.65625 v 4.00196 h 1.083984 v -3.99024 q 0,-0.63867 -0.158203,-1.10156 -0.152344,-0.46875 -0.439453,-0.77344 -0.28711,-0.30469 -0.697266,-0.44531 -0.404297,-0.14648 -0.902344,-0.14648 -0.380859,0.006 -0.720703,0.11132 -0.333984,0.10547 -0.615234,0.31055 -0.175781,0.12305 -0.333984,0.28711 -0.158204,0.1582 -0.28711,0.35156 z"
         style="font-family:'Roboto Mono';-inkscape-font-specification:'Roboto Mono';fill:#ea5d5d;fill-opacity:1"
         id="path751" />
      <path
         d="m 71.658105,115.19692 q 0.278028,0 0.491309,-0.10283 0.213281,-0.10283 0.373242,-0.25518 0.159961,-0.15234 0.27041,-0.33134 0.114258,-0.17901 0.186621,-0.33897 l 2.090918,-4.75693 h -0.788379 l -1.062597,2.67363 -0.194238,0.48369 -0.182813,-0.49892 -1.131152,-2.6584 h -0.788379 l 1.774804,3.92666 -0.281835,0.54844 q -0.03809,0.0762 -0.106641,0.19423 -0.06475,0.11807 -0.156152,0.22852 -0.09521,0.11045 -0.21709,0.19043 -0.118067,0.08 -0.262793,0.08 -0.05332,0 -0.148535,-0.008 -0.09141,-0.004 -0.186621,-0.0114 l -0.114258,0.57509 q 0.06855,0.0152 0.201855,0.0381 0.133301,0.0229 0.232324,0.0229 z"
         style="font-size:65%;font-family:'Roboto Mono';-inkscape-font-specification:'Roboto Mono';baseline-shift:sub;fill:#ea5d5d;fill-opacity:1"
         id="path753" />
    </g>
    <text
       xml:space="preserve"
       style="font-size:4.9389px;font-family:'Roboto Mono';-inkscape-font-specification:'Roboto Mono';fill:#000000;fill-opacity:1;stroke:none;stroke-width:0.256;stroke-linecap:round"
       x="53.114994"
       y="37.293011"
       id="text1552"><tspan
         sodipodi:role="line"
         id="tspan1550"
         style="stroke-width:0.256"
         x="53.114994"
         y="37.293011" /></text>
    <g
       aria-label="my"
       transform="matrix(0.12351925,0,0,0.12351925,29.078218,23.782549)"
       id="text2115-1-7"
       style="font-family:JuliaMono;-inkscape-font-specification:JuliaMono;white-space:pre;shape-inside:url(#rect2117-0-5);display:inline;fill:#4eb0e9;stroke-width:0.944882;stroke-linecap:round;stroke-linejoin:bevel">
      <path
         d="m 64.980469,104.79272 h -0.972657 v 6.33985 h 1.03125 v -5.04493 q 0.03516,-0.0937 0.08789,-0.17578 0.05859,-0.082 0.134766,-0.14648 0.09961,-0.082 0.240234,-0.12305 0.146484,-0.0469 0.339844,-0.0469 0.175781,0 0.304687,0.0469 0.134766,0.041 0.222657,0.13477 0.09375,0.0996 0.134765,0.25195 0.04687,0.15234 0.04687,0.35156 v 4.75196 h 1.03125 v -4.7461 q 0,-0.0352 0,-0.0586 0,-0.0293 0,-0.0586 0.01758,-0.14649 0.07031,-0.26368 0.05273,-0.12304 0.146484,-0.21679 0.09375,-0.0879 0.234375,-0.14063 0.140625,-0.0527 0.333984,-0.0527 0.181641,0 0.316407,0.0469 0.140625,0.0469 0.234375,0.14063 0.08789,0.0996 0.134765,0.25195 0.04687,0.15234 0.04687,0.35156 v 4.7461 h 1.03125 v -4.73438 q 0,-0.45703 -0.105468,-0.79101 -0.105469,-0.33985 -0.304688,-0.55079 -0.181641,-0.1875 -0.445312,-0.28125 -0.263672,-0.0996 -0.591797,-0.0996 -0.240235,0.006 -0.445313,0.0645 -0.199219,0.0586 -0.363281,0.1582 -0.128906,0.0879 -0.240234,0.20508 -0.111329,0.11719 -0.19336,0.25195 -0.06445,-0.14648 -0.158203,-0.26367 -0.08789,-0.11719 -0.199219,-0.19922 -0.152343,-0.10547 -0.357422,-0.1582 -0.199218,-0.0586 -0.451171,-0.0586 -0.445313,0.006 -0.761719,0.19335 -0.310547,0.1875 -0.503906,0.52149 z"
         style="font-family:'Roboto Mono';-inkscape-font-specification:'Roboto Mono'"
         id="path745" />
      <path
         d="m 71.658105,115.19692 q 0.278028,0 0.491309,-0.10283 0.213281,-0.10283 0.373242,-0.25518 0.159961,-0.15234 0.27041,-0.33134 0.114258,-0.17901 0.186621,-0.33897 l 2.090918,-4.75693 h -0.788379 l -1.062597,2.67363 -0.194238,0.48369 -0.182813,-0.49892 -1.131152,-2.6584 h -0.788379 l 1.774804,3.92666 -0.281835,0.54844 q -0.03809,0.0762 -0.106641,0.19423 -0.06475,0.11807 -0.156152,0.22852 -0.09521,0.11045 -0.21709,0.19043 -0.118067,0.08 -0.262793,0.08 -0.05332,0 -0.148535,-0.008 -0.09141,-0.004 -0.186621,-0.0114 l -0.114258,0.57509 q 0.06855,0.0152 0.201855,0.0381 0.133301,0.0229 0.232324,0.0229 z"
         style="font-size:65%;font-family:'Roboto Mono';-inkscape-font-specification:'Roboto Mono';baseline-shift:sub"
         id="path747" />
    </g>
    <path
       style="color:#000000;fill:#198bcc;stroke-linecap:round;-inkscape-stroke:none"
       d="m 35.159602,37.247965 a 0.05,0.05 0 0 0 -0.04883,0.04883 0.05,0.05 0 0 0 0.04883,0.05078 h 1.574219 a 0.05,0.05 0 0 0 0.04883,-0.05078 0.05,0.05 0 0 0 -0.04883,-0.04883 z"
       id="path5185" />
    <path
       style="color:#000000;fill:#198bcc;stroke-linecap:round;-inkscape-stroke:none"
       d="m 38.649836,37.247965 a 0.05,0.05 0 0 0 -0.05078,0.04883 0.05,0.05 0 0 0 0.05078,0.05078 h 1.802735 a 0.05,0.05 0 0 0 0.04883,-0.05078 0.05,0.05 0 0 0 -0.04883,-0.04883 z"
       id="path5403" />
    <path
       id="rect5802"
       style="fill:#ffffff;stroke-width:0.100639;stroke-linecap:round"
       d="m 33.534322,37.767385 h 1.020941 v 0.644099 h -1.020941 z" />
    <g
       id="path8429"
       transform="matrix(0.51530614,0,0,0.51530614,21.492209,21.885485)">
      <path
         style="color:#000000;fill:#4eb0e9;stroke-width:0.2;stroke-linecap:round;stroke-linejoin:bevel"
         d="M 23.466219,32.76326 24.10365,32.081926"
         id="path1350" />
      <path
         style="color:#000000;fill:#198bcc;stroke-linecap:round;stroke-linejoin:bevel"
         d="m 24.099609,31.982422 a 0.1,0.1 0 0 0 -0.06836,0.03125 l -0.638672,0.68164 a 0.1,0.1 0 0 0 0.0059,0.140625 0.1,0.1 0 0 0 0.140625,-0.0039 l 0.636719,-0.68164 a 0.1,0.1 0 0 0 -0.0039,-0.140625 0.1,0.1 0 0 0 -0.07227,-0.02734 z"
         id="path1352" />
    </g>
    <g
       id="path8431"
       transform="matrix(0.51530614,0,0,0.51530614,21.492209,21.885485)">
      <path
         style="color:#000000;fill:#4eb0e9;stroke-width:0.2;stroke-linecap:round;stroke-linejoin:bevel"
         d="m 24.885213,31.123068 0.694106,-0.742934"
         id="path1356" />
      <path
         style="color:#000000;fill:#198bcc;stroke-linecap:round;stroke-linejoin:bevel"
         d="m 25.648437,30.306641 a 0.1,0.1 0 0 0 -0.142578,0.0059 L 24.8125,31.054687 a 0.1,0.1 0 0 0 0.0039,0.140625 0.1,0.1 0 0 0 0.142578,-0.0039 l 0.69336,-0.742187 a 0.1,0.1 0 0 0 -0.0039,-0.142578 z"
         id="path1358" />
    </g>
    <g
       aria-label="bx"
       transform="matrix(0.0927056,0,0,0.0927056,27.542662,27.982946)"
       id="text2115-1"
       style="font-family:JuliaMono;-inkscape-font-specification:JuliaMono;white-space:pre;shape-inside:url(#rect2117-0);display:inline;fill:#4eb0e9;stroke-width:0.944882;stroke-linecap:round;stroke-linejoin:bevel">
      <path
         d="m 69.855469,108.03296 v -0.12305 q 0,-0.49805 -0.08203,-0.94336 -0.08203,-0.45117 -0.240234,-0.82031 -0.152344,-0.32813 -0.351562,-0.5918 -0.199219,-0.26953 -0.451172,-0.45703 -0.28125,-0.19922 -0.626953,-0.31055 -0.345704,-0.11132 -0.75586,-0.11132 -0.328125,0 -0.609375,0.0645 -0.28125,0.0644 -0.515625,0.1875 -0.1875,0.0996 -0.351562,0.24023 -0.164063,0.13477 -0.298828,0.30469 v -3.33984 h -1.083985 v 9 h 0.996094 l 0.05273,-0.72071 q 0.105469,0.13477 0.222657,0.2461 0.117187,0.11133 0.246093,0.20508 0.269532,0.1875 0.603516,0.2871 0.339844,0.0996 0.75,0.0996 0.357422,0 0.662109,-0.0879 0.310547,-0.0879 0.56836,-0.24609 0.357422,-0.22852 0.609375,-0.57422 0.257812,-0.35156 0.416015,-0.79101 0.117188,-0.33399 0.175782,-0.71485 0.06445,-0.38672 0.06445,-0.80273 z m -1.083985,-0.12305 v 0.12305 q 0,0.28125 -0.03516,0.55078 -0.03516,0.26953 -0.111328,0.5039 -0.09375,0.31055 -0.251953,0.5625 -0.158203,0.25196 -0.392578,0.41602 -0.175782,0.12891 -0.398438,0.19922 -0.222656,0.0645 -0.492187,0.0645 -0.28125,0 -0.515625,-0.0703 -0.234375,-0.0762 -0.421875,-0.21094 -0.1875,-0.13476 -0.333985,-0.31054 -0.140625,-0.18165 -0.246093,-0.39258 v -2.77149 q 0.09961,-0.21093 0.240234,-0.38672 0.146484,-0.18164 0.333984,-0.3164 0.181641,-0.12891 0.416016,-0.19922 0.234375,-0.0762 0.515625,-0.0762 0.257812,0 0.46875,0.0586 0.210937,0.0586 0.380859,0.16406 0.246094,0.14649 0.416016,0.4043 0.169922,0.25781 0.275391,0.56836 0.07617,0.25195 0.111328,0.53906 0.04102,0.28125 0.04102,0.58008 z"
         style="font-family:'Roboto Mono';-inkscape-font-specification:'Roboto Mono'"
         id="path740" />
      <path
         d="m 73.029199,110.93891 -1.089258,-1.52724 h -0.815039 l 1.534864,2.0376 -1.576758,2.0833 h 0.822656 l 1.13877,-1.56914 1.138769,1.56914 h 0.815039 l -1.576758,-2.0833 1.534863,-2.0376 h -0.826464 z"
         style="font-size:65%;font-family:'Roboto Mono';-inkscape-font-specification:'Roboto Mono';baseline-shift:sub"
         id="path742" />
    </g>
    <rect
       style="fill:#ea5d5d;fill-opacity:1;stroke:#000000;stroke-width:0.15;stroke-linecap:round;stroke-dasharray:none;stroke-opacity:1"
       id="rect508"
       width="5.3917732"
       height="5.7311702"
       x="55.864727"
       y="34.277145" />
    <g
       aria-label="M"
       id="text2313"
       style="font-size:2.7003px;font-family:JuliaMono;-inkscape-font-specification:JuliaMono;fill:#127488;stroke-width:0.212622;stroke-linecap:round;stroke-linejoin:bevel"
       transform="translate(11.089044,19.479268)">
      <path
         d="m 48.88415,33.149023 h -0.301938 v 1.919745 h 0.237331 v -0.766052 l -0.01978,-0.773963 0.325671,1.00602 h 0.139761 l 0.354678,-1.033709 -0.01978,0.801652 v 0.766052 h 0.237331 v -1.919745 h -0.303256 l -0.337538,0.959872 z"
         style="font-family:'Roboto Mono';-inkscape-font-specification:'Roboto Mono';fill:#000000"
         id="path756" />
    </g>
  </g>
</svg>
