<?xml version="1.0" encoding="UTF-8" standalone="no"?>
<!-- Created with Inkscape (http://www.inkscape.org/) -->

<svg
   width="44.407497mm"
   height="16.716078mm"
   viewBox="0 0 44.407498 16.716078"
   version="1.1"
   id="svg5"
   inkscape:version="1.2.1 (9c6d41e410, 2022-07-14)"
   sodipodi:docname="GSPMDv3.svg"
   xmlns:inkscape="http://www.inkscape.org/namespaces/inkscape"
   xmlns:sodipodi="http://sodipodi.sourceforge.net/DTD/sodipodi-0.dtd"
   xmlns="http://www.w3.org/2000/svg"
   xmlns:svg="http://www.w3.org/2000/svg">
  <sodipodi:namedview
     id="namedview7"
     pagecolor="#ffffff"
     bordercolor="#000000"
     borderopacity="0.25"
     inkscape:showpageshadow="2"
     inkscape:pageopacity="0.0"
     inkscape:pagecheckerboard="0"
     inkscape:deskcolor="#d1d1d1"
     inkscape:document-units="mm"
     showgrid="false"
     showguides="true"
     inkscape:zoom="2.6236135"
     inkscape:cx="85.569006"
     inkscape:cy="-22.678645"
     inkscape:window-width="1278"
     inkscape:window-height="1360"
     inkscape:window-x="1266"
     inkscape:window-y="0"
     inkscape:window-maximized="0"
     inkscape:current-layer="layer1">
    <sodipodi:guide
       position="166.69168,35.322308"
       orientation="1,0"
       id="guide12779"
       inkscape:locked="false" />
    <sodipodi:guide
       position="154.02273,33.242028"
       orientation="1,0"
       id="guide12781"
       inkscape:locked="false" />
    <sodipodi:guide
       position="103.74242,24.217038"
       orientation="1,0"
       id="guide5330"
       inkscape:locked="false" />
    <sodipodi:guide
       position="13.362217,16.616079"
       orientation="0,-1"
       id="guide5560"
       inkscape:locked="false" />
  </sodipodi:namedview>
  <defs
     id="defs2">
    <linearGradient
       id="linearGradient5652"
       inkscape:swatch="gradient">
      <stop
         style="stop-color:#bf4141;stop-opacity:1;"
         offset="0"
         id="stop5648" />
      <stop
         style="stop-color:#bf4141;stop-opacity:0;"
         offset="1"
         id="stop5650" />
    </linearGradient>
    <rect
       x="63.46209"
       y="100.05285"
       width="22.488068"
       height="18.366688"
       id="rect2117" />
    <rect
       x="65.177284"
       y="76.99305"
       width="260.32797"
       height="27.061913"
       id="rect34099" />
    <inkscape:perspective
       sodipodi:type="inkscape:persp3d"
       inkscape:vp_x="43.293547 : -10.484321 : 1"
       inkscape:vp_y="0 : 1000 : 0"
       inkscape:vp_z="142.71091 : -33.589651 : 1"
       inkscape:persp3d-origin="105 : -181.28393 : 1"
       id="perspective16491" />
    <rect
       x="63.46209"
       y="100.05285"
       width="22.488068"
       height="18.366688"
       id="rect2117-8" />
    <rect
       x="63.46209"
       y="100.05285"
       width="22.488068"
       height="18.366688"
       id="rect2117-0" />
    <rect
       x="63.46209"
       y="100.05285"
       width="22.488068"
       height="18.366688"
       id="rect2117-0-5" />
    <g
       id="g7900">
      <g
         id="g7894" />
      <g
         id="g7898">
        <path
           d="m 2.9375,-1.640625 v 0.859375 c 0,0.359375 -0.03125,0.46875 -0.765625,0.46875 H 1.96875 V 0 C 2.375,-0.03125 2.890625,-0.03125 3.3125,-0.03125 c 0.421875,0 0.9375,0 1.359375,0.03125 v -0.3125 h -0.21875 c -0.734375,0 -0.75,-0.109375 -0.75,-0.46875 V -1.640625 H 4.6875 v -0.3125 H 3.703125 v -4.53125 c 0,-0.203125 0,-0.265625 -0.171875,-0.265625 -0.078125,0 -0.109375,0 -0.1875,0.125 l -3.0625,4.671875 v 0.3125 z m 0.046875,-0.3125 H 0.5625 l 2.421875,-3.71875 z m 0,0"
           id="path7896" />
      </g>
    </g>
  </defs>
  <g
     inkscape:label="Layer 1"
     inkscape:groupmode="layer"
     id="layer1"
     transform="translate(32.246319,-45.009779)">
    <path
       style="color:#000000;fill:#000000;stroke-linecap:round;stroke-linejoin:bevel;-inkscape-stroke:none"
       d="m -25.944904,54.687211 a 0.075,0.075 0 0 0 -0.105469,0.002 l -4.888672,5.05664 a 0.075,0.075 0 0 0 0.002,0.107422 0.075,0.075 0 0 0 0.105469,-0.002 l 4.888672,-5.058594 a 0.075,0.075 0 0 0 -0.002,-0.105468 z"
       id="path5395" />
    <path
       style="color:#000000;fill:#aeaeae;stroke-linecap:square;stroke-linejoin:bevel;-inkscape-stroke:none"
       d="m -27.685009,51.094756 -0.171875,0.173828 v 6.34961 l 0.171875,0.171875 h 11.111328 l 0.173828,-0.171875 v -6.34961 l -0.173828,-0.173828 z m 0.173828,0.347656 h 10.765625 v 6.001954 h -10.765625 z"
       id="rect22208-8-0-1-2" />
    <path
       style="color:#000000;fill:#aeaeae;stroke-linecap:square;stroke-linejoin:bevel;-inkscape-stroke:none"
       d="m -26.3979,49.805694 -0.169921,0.169922 v 6.251953 l 0.169921,0.169922 h 10.94336 l 0.169922,-0.169922 v -6.251953 l -0.169922,-0.169922 z m 0.169922,0.339843 h 10.601563 v 5.91211 h -10.601563 z"
       id="rect22208-8-5-5-9" />
    <path
       style="color:#000000;fill:#aeaeae;stroke-linecap:square;stroke-linejoin:bevel;-inkscape-stroke:none"
       d="m -26.399853,56.083037 -0.06836,0.07422 -2.736328,2.935547 -0.06641,0.07422 0.146484,0.134765 0.06641,-0.07227 2.736328,-2.935547 0.06836,-0.07422 z"
       id="path24712-4-3" />
    <path
       style="color:#000000;fill:#aeaeae;stroke-linecap:square;stroke-linejoin:bevel;-inkscape-stroke:none"
       d="m -26.401806,49.735381 -0.06836,0.07227 -2.734375,2.935547 -0.06836,0.07422 0.146485,0.136719 0.06836,-0.07422 2.734375,-2.935546 0.06836,-0.07422 z"
       id="path24712-4-4-5" />
    <path
       style="color:#000000;fill:#aeaeae;stroke-linecap:square;stroke-linejoin:bevel;-inkscape-stroke:none"
       d="m -15.431103,56.083037 -0.06641,0.07422 -2.736328,2.935547 -0.06836,0.07422 0.146484,0.134765 0.06836,-0.07227 2.734375,-2.935547 0.06836,-0.07422 z"
       id="path24712-4-5-4" />
    <path
       style="color:#000000;fill:#aeaeae;stroke-linecap:square;stroke-linejoin:bevel;-inkscape-stroke:none"
       d="m -23.653759,56.104522 -0.06836,0.07422 -2.736328,2.935546 -0.06836,0.07227 0.146485,0.136719 0.06836,-0.07227 2.736328,-2.9375 0.06641,-0.07227 z"
       id="path24712-4-4-4-0-3" />
    <path
       style="color:#000000;fill:#aeaeae;stroke-linecap:square;stroke-linejoin:bevel;-inkscape-stroke:none"
       d="m -20.874462,56.084991 -0.06836,0.07227 -2.734375,2.9375 -0.06836,0.07227 0.146485,0.136719 0.06836,-0.07422 2.734375,-2.935547 0.06836,-0.07227 z"
       id="path24712-4-4-4-0-0-3" />
    <path
       style="color:#000000;fill:#aeaeae;stroke-linecap:square;stroke-linejoin:bevel;-inkscape-stroke:none"
       d="m -18.093212,56.104522 -0.06836,0.07422 -2.734375,2.935546 -0.06836,0.07227 0.146485,0.136719 0.06641,-0.07227 2.736328,-2.9375 0.06836,-0.07227 z"
       id="path24712-4-4-4-0-6-4" />
    <g
       id="path26637-9-7"
       transform="translate(-51.765087,3.9345985)">
      <path
         style="color:#000000;fill:#aee954;stroke-width:0.346608;stroke-linecap:square;stroke-linejoin:bevel;-inkscape-stroke:none"
         d="m 26.919532,47.333945 v 6.350327"
         id="path1062" />
      <path
         style="color:#000000;fill:#aeaeae;stroke-linecap:square;stroke-linejoin:bevel;-inkscape-stroke:none"
         d="m 26.746094,47.160156 v 0.173828 6.34961 0.173828 h 0.347656 v -0.173828 -6.34961 -0.173828 z"
         id="path1064" />
    </g>
    <g
       id="path26637-5-4"
       transform="translate(-51.765087,3.9345985)">
      <path
         style="color:#000000;fill:#aee954;stroke-width:0.346608;stroke-linecap:square;stroke-linejoin:bevel;-inkscape-stroke:none"
         d="m 29.636504,47.333229 v 6.350327"
         id="path1068" />
      <path
         style="color:#000000;fill:#aeaeae;stroke-linecap:square;stroke-linejoin:bevel;-inkscape-stroke:none"
         d="m 29.462891,47.160156 v 0.173828 6.34961 0.173828 h 0.347656 v -0.173828 -6.34961 -0.173828 z"
         id="path1070" />
    </g>
    <g
       id="path26637-50-0"
       transform="translate(-51.765087,3.9345985)">
      <path
         style="color:#000000;fill:#aee954;stroke-width:0.346608;stroke-linecap:square;stroke-linejoin:bevel;-inkscape-stroke:none"
         d="m 32.32879,47.333229 v 6.350327"
         id="path1074" />
      <path
         style="color:#000000;fill:#aeaeae;stroke-linecap:square;stroke-linejoin:bevel;-inkscape-stroke:none"
         d="m 32.15625,47.160156 v 0.173828 6.34961 0.173828 h 0.345703 v -0.173828 -6.34961 -0.173828 z"
         id="path1076" />
    </g>
    <path
       style="color:#000000;fill:#d50bd5;fill-opacity:1;stroke-width:0.2;stroke-linecap:square;stroke-linejoin:bevel"
       d="m -27.684217,51.268544 h 2.838662 l 1.195965,-1.372806 -2.74677,-0.01989 -1.287857,1.392696 v 6.348893 l 2.838662,0.0015 V 51.26861 l 1.195965,-1.372805 v 6.350327 l -1.195965,1.372805 V 51.26861 Z"
       id="path1080" />
    <path
       style="color:#000000;fill:#000000;stroke-linecap:square;stroke-linejoin:bevel;-inkscape-stroke:none"
       d="m -26.395946,49.776396 -0.07422,0.03125 -1.28711,1.392578 -0.02734,0.06836 v 6.34961 l 0.09961,0.09961 2.839844,0.002 0.04492,-0.04687 0.0293,0.01172 1.197265,-1.373047 0.02344,-0.06445 v -6.351563 l -0.06445,-0.02344 -0.0332,-0.07617 z m 0.04297,0.199219 2.486328,0.01758 -0.359375,0.412109 -0.666015,0.763672 h -2.5625 z m 2.603516,0.1875 v 6.044921 l -0.996094,1.144532 v -6.046875 z m -3.833984,1.205078 h 2.638671 v 6.15039 l -2.638671,-0.002 z"
       id="path1082" />
    <path
       style="color:#000000;fill:#d50bd5;fill-opacity:1;stroke-width:0.2;stroke-linecap:square;stroke-linejoin:bevel"
       d="m -24.891977,51.268544 h 2.838662 l 1.195966,-1.372806 -2.746771,-0.01989 -1.287857,1.392696 v 6.348893 l 2.838662,0.0015 V 51.26861 l 1.195966,-1.372805 v 6.350327 l -1.195966,1.372805 V 51.26861 Z"
       id="path1086" />
    <path
       style="color:#000000;fill:#000000;stroke-linecap:square;stroke-linejoin:bevel;-inkscape-stroke:none"
       d="m -23.602978,49.776396 -0.07422,0.03125 -1.289063,1.392578 -0.02539,0.06836 v 6.34961 l 0.09961,0.09961 2.83789,0.002 0.04687,-0.04687 0.0293,0.01172 1.195313,-1.373047 0.02539,-0.06445 v -6.351563 l -0.06641,-0.02344 -0.0332,-0.07617 z m 0.04297,0.199219 2.484375,0.01758 -0.824219,0.947265 -0.199218,0.228516 h -2.564454 z m 2.603516,0.185546 v 6.046875 l -0.996095,1.144532 v -6.046875 z m -3.835938,1.207032 h 2.638672 v 6.15039 l -2.638672,-0.002 z"
       id="path1088" />
    <path
       style="color:#000000;fill:#d50bd5;fill-opacity:1;stroke-width:0.2;stroke-linecap:square;stroke-linejoin:bevel"
       d="m -22.274958,51.267725 h 2.838662 l 1.195964,-1.372806 -2.74677,-0.01989 -1.287858,1.392696 v 6.348893 l 2.838663,0.0015 v -6.350327 l 1.195965,-1.372805 v 6.350327 l -1.195965,1.372805 v -6.350327 z"
       id="path1092" />
    <path
       style="color:#000000;fill:#000000;stroke-linecap:square;stroke-linejoin:bevel;-inkscape-stroke:none"
       d="m -20.98579,49.774443 -0.07422,0.0332 -1.289062,1.392578 -0.02539,0.06836 v 6.347657 l 0.09961,0.09961 2.837891,0.002 0.04492,-0.04492 0.03125,0.01172 1.195312,-1.373047 0.02539,-0.06641 v -6.34961 l -0.06445,-0.02539 -0.03516,-0.07617 z m 0.04297,0.201172 2.484375,0.01758 -1.023438,1.173828 h -2.5625 z m 2.601562,0.1875 v 6.044921 l -0.994141,1.142579 v -6.044922 -0.002 z m -3.833984,1.205078 h 2.638672 v 6.15039 l -2.638672,-0.002 z"
       id="path1094" />
    <path
       style="color:#000000;fill:#d50bd5;fill-opacity:1;stroke-width:0.2;stroke-linecap:square;stroke-linejoin:bevel"
       d="m -19.411609,51.26844 h 2.838662 l 1.195966,-1.372805 -2.746771,-0.01989 -1.287857,1.392696 v 6.348894 l 2.838662,0.0015 v -6.350327 l 1.195966,-1.372806 v 6.350327 l -1.195966,1.372806 v -6.350327 z"
       id="path1098" />
    <path
       style="color:#000000;fill:#000000;stroke-linecap:square;stroke-linejoin:bevel;-inkscape-stroke:none"
       d="m -18.122509,49.776396 -0.07422,0.03125 -1.289062,1.392578 -0.02539,0.06836 v 6.34961 l 0.09961,0.09961 2.83789,0.002 0.04687,-0.04687 0.0293,0.01172 1.195313,-1.373047 0.02539,-0.06641 v -6.34961 l -0.06641,-0.02539 -0.0332,-0.07422 z m 0.04297,0.199219 2.484375,0.01758 -1.023438,1.175781 h -2.564453 z m 2.603515,0.185546 v 6.046875 l -0.996093,1.144532 v -6.046875 z m -3.835937,1.207032 h 2.638672 v 6.15039 l -2.638672,-0.002 z"
       id="path1100" />
    <path
       style="color:#000000;fill:#aeaeae;stroke-linecap:square;stroke-linejoin:bevel;-inkscape-stroke:none"
       d="m -29.145946,52.725616 -0.09961,0.101562 v 6.349609 l 0.09961,0.09961 h 11.015625 l 0.09961,-0.09961 v -6.349609 l -0.09961,-0.101562 z m 0.101562,0.201171 h 10.814453 v 6.148438 h -10.814453 z"
       id="rect22208-8-3-0" />
    <g
       id="path26637-4-9"
       transform="translate(-51.765087,3.9345985)">
      <path
         style="color:#000000;fill:#aee954;stroke-width:0.2;stroke-linecap:square;stroke-linejoin:bevel;-inkscape-stroke:none"
         d="m 25.380406,48.877317 v 6.350327"
         id="path1104" />
      <path
         style="color:#000000;fill:#aeaeae;stroke-linecap:square;stroke-linejoin:bevel;-inkscape-stroke:none"
         d="m 25.28125,48.777344 v 0.09961 6.351563 0.09961 h 0.199219 v -0.09961 -6.351563 -0.09961 z"
         id="path1106" />
    </g>
    <path
       style="color:#000000;fill:#aeaeae;stroke-linecap:round;stroke-linejoin:bevel;-inkscape-stroke:none"
       d="m -24.948681,51.270537 a 0.1,0.1 0 0 0 -0.142578,0.0059 l -1.367187,1.466797 a 0.1,0.1 0 0 0 0.0059,0.142578 0.1,0.1 0 0 0 0.140625,-0.0059 l 1.367187,-1.46875 a 0.1,0.1 0 0 0 -0.0039,-0.140625 z"
       id="path24712-4-4-9-4-7" />
    <path
       style="color:#000000;fill:#aeaeae;stroke-linecap:round;stroke-linejoin:bevel;-inkscape-stroke:none"
       d="m -22.102978,51.270537 a 0.1,0.1 0 0 0 -0.142578,0.0059 l -1.367187,1.466797 a 0.1,0.1 0 0 0 0.0059,0.142578 0.1,0.1 0 0 0 0.140625,-0.0059 l 1.367188,-1.46875 a 0.1,0.1 0 0 0 -0.0039,-0.140625 z"
       id="path24712-4-4-9-4-7-8" />
    <path
       style="color:#000000;fill:#aeaeae;stroke-linecap:round;stroke-linejoin:bevel;-inkscape-stroke:none"
       d="m -16.737743,51.194366 a 0.1,0.1 0 0 0 -0.140625,0.0059 l -1.367188,1.466797 a 0.1,0.1 0 0 0 0.0039,0.142578 0.1,0.1 0 0 0 0.142579,-0.0059 l 1.367187,-1.466797 a 0.1,0.1 0 0 0 -0.0059,-0.142578 z"
       id="path24712-4-4-9-4-7-8-4" />
    <path
       style="color:#000000;fill:#aeaeae;stroke-linecap:round;stroke-linejoin:bevel;-inkscape-stroke:none"
       d="m -19.489696,51.194366 a 0.1,0.1 0 0 0 -0.140625,0.0059 l -1.367188,1.466797 a 0.1,0.1 0 0 0 0.0059,0.142578 0.1,0.1 0 0 0 0.140625,-0.0059 l 1.367188,-1.466797 a 0.1,0.1 0 0 0 -0.0059,-0.142578 z"
       id="path24712-4-4-9-4-7-8-1" />
    <g
       id="path26637-501-4"
       transform="translate(-51.765087,3.9345985)">
      <path
         style="color:#000000;fill:#aee954;stroke-width:0.2;stroke-linecap:square;stroke-linejoin:bevel;-inkscape-stroke:none"
         d="m 28.160968,48.877317 v 6.350327"
         id="path1126" />
      <path
         style="color:#000000;fill:#aeaeae;stroke-linecap:square;stroke-linejoin:bevel;-inkscape-stroke:none"
         d="m 28.060547,48.777344 v 0.09961 6.351563 0.09961 h 0.201172 v -0.09961 -6.351563 -0.09961 z"
         id="path1128" />
    </g>
    <g
       id="path26637-7-1"
       transform="translate(-51.765087,3.9345985)">
      <path
         style="color:#000000;fill:#aee954;stroke-width:0.2;stroke-linecap:square;stroke-linejoin:bevel;-inkscape-stroke:none"
         d="m 30.861315,48.877317 v 6.350327"
         id="path1132" />
      <path
         style="color:#000000;fill:#aeaeae;stroke-linecap:square;stroke-linejoin:bevel;-inkscape-stroke:none"
         d="m 30.761719,48.777344 v 0.09961 6.351563 0.09961 h 0.199218 v -0.09961 -6.351563 -0.09961 z"
         id="path1134" />
    </g>
    <g
       aria-label="S"
       id="text4334"
       style="font-size:2.05183px;font-family:JuliaMono;-inkscape-font-specification:JuliaMono;opacity:1;stroke-width:0.0969369;stroke-linecap:round;stroke-linejoin:bevel"
       transform="translate(-51.23592,17.163768)">
      <path
         d="m 19.809138,40.254267 q 0,0.06011 -0.02605,0.104195 -0.02605,0.04308 -0.06713,0.07113 -0.04108,0.02905 -0.09418,0.04308 -0.0521,0.01302 -0.106198,0.01302 -0.06813,0 -0.126236,-0.01803 -0.05711,-0.01903 -0.101189,-0.0561 -0.04408,-0.03607 -0.07213,-0.08816 -0.02805,-0.0531 -0.03707,-0.121226 h -0.189354 q 0.003,0.09418 0.04108,0.17132 0.03907,0.07614 0.105196,0.133248 0.07414,0.06612 0.174326,0.101189 0.101188,0.03507 0.205383,0.03507 0.08716,0 0.174325,-0.02404 0.08716,-0.02505 0.156292,-0.07414 0.06913,-0.04809 0.11221,-0.121226 0.04408,-0.07314 0.04408,-0.17132 0,-0.09718 -0.04108,-0.171319 -0.04007,-0.07414 -0.106198,-0.125234 -0.06713,-0.0551 -0.148277,-0.09017 -0.08115,-0.03607 -0.162303,-0.06111 -0.04909,-0.01503 -0.105196,-0.03506 -0.0551,-0.02004 -0.102191,-0.05009 -0.04809,-0.03006 -0.07915,-0.07314 -0.03106,-0.04408 -0.03206,-0.1072 0,-0.05811 0.02304,-0.102191 0.02404,-0.04408 0.06412,-0.07414 0.03907,-0.03006 0.08917,-0.04508 0.0511,-0.01503 0.104194,-0.01503 0.06612,0 0.118221,0.02104 0.0531,0.02004 0.09117,0.05711 0.03807,0.03707 0.06111,0.08917 0.02304,0.0511 0.03106,0.114213 h 0.190355 q -0.002,-0.100187 -0.04308,-0.181339 -0.04108,-0.08115 -0.109204,-0.138258 -0.06813,-0.05711 -0.156292,-0.08816 -0.08816,-0.03206 -0.183342,-0.03206 -0.08616,0 -0.17132,0.02705 -0.08516,0.02605 -0.152284,0.07714 -0.06713,0.0511 -0.109204,0.125234 -0.04108,0.07414 -0.04108,0.168314 0,0.09418 0.04108,0.164307 0.04208,0.06913 0.108202,0.120225 0.06512,0.05009 0.14427,0.08616 0.08015,0.03507 0.157293,0.06011 0.0531,0.01703 0.110206,0.03807 0.05811,0.02104 0.106198,0.0521 0.04809,0.03206 0.07815,0.07815 0.03106,0.04609 0.03106,0.113211 z"
         style="font-family:'Roboto Mono';-inkscape-font-specification:'Roboto Mono'"
         id="path772" />
    </g>
    <g
       aria-label="M"
       id="text4334-8"
       style="font-size:2.05183px;font-family:JuliaMono;-inkscape-font-specification:JuliaMono;white-space:pre;stroke-width:0.0969369;stroke-linecap:round;stroke-linejoin:bevel"
       transform="translate(-51.23592,17.163768)">
      <path
         d="m 28.898201,43.103365 h -0.229428 v 1.458723 h 0.180337 v -0.582087 l -0.01503,-0.588097 0.247462,0.764427 h 0.106198 l 0.269503,-0.785467 -0.01503,0.609137 v 0.582087 h 0.180337 v -1.458723 h -0.230431 l -0.256478,0.729362 z"
         style="font-family:'Roboto Mono';-inkscape-font-specification:'Roboto Mono'"
         id="path775" />
    </g>
    <g
       aria-label="B"
       id="text4334-8-5"
       style="font-size:2.05183px;font-family:JuliaMono;-inkscape-font-specification:JuliaMono;stroke-width:0.0969369;stroke-linecap:round;stroke-linejoin:bevel"
       transform="translate(-52.24383,17.844204)">
      <path
         d="m 21.696236,40.106274 h 0.466871 q 0.09317,-10e-4 0.180337,-0.02905 0.08817,-0.02805 0.15529,-0.08115 0.06713,-0.0521 0.1072,-0.130243 0.04007,-0.07815 0.03907,-0.180337 0,-0.06512 -0.02004,-0.121226 -0.01904,-0.05611 -0.0541,-0.101189 -0.03306,-0.04108 -0.08416,-0.07514 -0.0511,-0.03406 -0.106199,-0.04709 v -0.003 q 0.0531,-0.02304 0.09017,-0.04909 0.03807,-0.02605 0.06913,-0.06412 0.03006,-0.03707 0.04709,-0.08416 0.01803,-0.04709 0.01904,-0.104195 0.001,-0.10219 -0.03907,-0.175327 -0.04007,-0.07314 -0.1072,-0.120224 -0.06713,-0.04709 -0.153286,-0.06913 -0.08616,-0.02304 -0.176329,-0.02405 H 21.69624 Z M 21.882584,39.424 h 0.295552 q 0.05911,0.002 0.110205,0.02004 0.0511,0.01803 0.08917,0.0511 0.03807,0.03406 0.05911,0.08215 0.02204,0.04809 0.02104,0.110206 0,0.06111 -0.02405,0.109204 -0.02304,0.04809 -0.06312,0.08115 -0.04007,0.03306 -0.09217,0.0521 -0.0521,0.01803 -0.110206,0.01904 h -0.285533 z m 0,-0.154288 v -0.463866 h 0.253473 q 0.0541,10e-4 0.105196,0.01403 0.0521,0.01303 0.09217,0.04008 0.03907,0.02805 0.06212,0.07113 0.02404,0.04308 0.02404,0.104194 0,0.05711 -0.02404,0.100187 -0.02405,0.04308 -0.06312,0.07214 -0.03907,0.03006 -0.08917,0.04609 -0.05009,0.01503 -0.102191,0.01603 z"
         style="font-family:'Roboto Mono';-inkscape-font-specification:'Roboto Mono'"
         id="path778" />
    </g>
    <path
       style="color:#000000;fill:#000000;stroke-linecap:round;stroke-linejoin:bevel;-inkscape-stroke:none"
       d="m -30.835529,53.040727 a 0.075,0.075 0 0 0 -0.07422,0.07422 v 6.648437 a 0.075,0.075 0 0 0 0.07422,0.07617 0.075,0.075 0 0 0 0.07617,-0.07617 v -6.648437 a 0.075,0.075 0 0 0 -0.07617,-0.07422 z"
       id="path5558" />
    <g
       id="path5562"
       transform="translate(-51.23592,17.163768)">
      <path
         style="color:#000000;fill:#000000;stroke-width:0.15;stroke-linecap:round;stroke-linejoin:bevel;-inkscape-stroke:none"
         d="m 30.940806,42.595226 -10.539793,0.0049"
         id="path1344" />
      <path
         style="color:#000000;fill:#000000;stroke-linecap:round;stroke-linejoin:bevel;-inkscape-stroke:none"
         d="m 30.941406,42.519531 -10.541015,0.0059 a 0.075,0.075 0 0 0 -0.07422,0.07422 0.075,0.075 0 0 0 0.07422,0.07617 l 10.541015,-0.0059 a 0.075,0.075 0 0 0 0.07422,-0.07422 0.075,0.075 0 0 0 -0.07422,-0.07617 z"
         id="path1346" />
    </g>
    <path
       style="color:#000000;fill:#000000;stroke-linecap:round;stroke-linejoin:bevel"
       d="m -3.9738628,54.440181 a 0.075,0.075 0 0 0 -0.105469,0.002 l -4.888672,5.05664 a 0.075,0.075 0 0 0 0.002,0.107422 0.075,0.075 0 0 0 0.105469,-0.002 l 4.888672,-5.058594 a 0.075,0.075 0 0 0 -0.002,-0.105468 z"
       id="path5395-6" />
    <g
       aria-label="S"
       id="text4334-85"
       style="font-size:2.05183px;font-family:JuliaMono;-inkscape-font-specification:JuliaMono;stroke-width:0.0969369;stroke-linecap:round;stroke-linejoin:bevel"
       transform="translate(-29.264879,16.916738)">
      <path
         d="m 19.809138,40.254267 q 0,0.06011 -0.02605,0.104195 -0.02605,0.04308 -0.06713,0.07113 -0.04108,0.02905 -0.09418,0.04308 -0.0521,0.01302 -0.106198,0.01302 -0.06813,0 -0.126236,-0.01803 -0.05711,-0.01903 -0.101189,-0.0561 -0.04408,-0.03607 -0.07213,-0.08816 -0.02805,-0.0531 -0.03707,-0.121226 h -0.189354 q 0.003,0.09418 0.04108,0.17132 0.03907,0.07614 0.105196,0.133248 0.07414,0.06612 0.174326,0.101189 0.101188,0.03507 0.205383,0.03507 0.08716,0 0.174325,-0.02404 0.08716,-0.02505 0.156292,-0.07414 0.06913,-0.04809 0.11221,-0.121226 0.04408,-0.07314 0.04408,-0.17132 0,-0.09718 -0.04108,-0.171319 -0.04007,-0.07414 -0.106198,-0.125234 -0.06713,-0.0551 -0.148277,-0.09017 -0.08115,-0.03607 -0.162303,-0.06111 -0.04909,-0.01503 -0.105196,-0.03506 -0.0551,-0.02004 -0.102191,-0.05009 -0.04809,-0.03006 -0.07915,-0.07314 -0.03106,-0.04408 -0.03206,-0.1072 0,-0.05811 0.02304,-0.102191 0.02404,-0.04408 0.06412,-0.07414 0.03907,-0.03006 0.08917,-0.04508 0.0511,-0.01503 0.104194,-0.01503 0.06612,0 0.118221,0.02104 0.0531,0.02004 0.09117,0.05711 0.03807,0.03707 0.06111,0.08917 0.02304,0.0511 0.03106,0.114213 h 0.190355 q -0.002,-0.100187 -0.04308,-0.181339 -0.04108,-0.08115 -0.109204,-0.138258 -0.06813,-0.05711 -0.156292,-0.08816 -0.08816,-0.03206 -0.183342,-0.03206 -0.08616,0 -0.17132,0.02705 -0.08516,0.02605 -0.152284,0.07714 -0.06713,0.0511 -0.109204,0.125234 -0.04108,0.07414 -0.04108,0.168314 0,0.09418 0.04108,0.164307 0.04208,0.06913 0.108202,0.120225 0.06512,0.05009 0.14427,0.08616 0.08015,0.03507 0.157293,0.06011 0.0531,0.01703 0.110206,0.03807 0.05811,0.02104 0.106198,0.0521 0.04809,0.03206 0.07815,0.07815 0.03106,0.04609 0.03106,0.113211 z"
         style="font-family:'Roboto Mono';-inkscape-font-specification:'Roboto Mono'"
         id="path772-4" />
    </g>
    <g
       aria-label="M"
       id="text4334-8-1"
       style="font-size:2.05183px;font-family:JuliaMono;-inkscape-font-specification:JuliaMono;white-space:pre;stroke-width:0.0969369;stroke-linecap:round;stroke-linejoin:bevel"
       transform="translate(-29.264879,16.916738)">
      <path
         d="m 28.898201,43.103365 h -0.229428 v 1.458723 h 0.180337 v -0.582087 l -0.01503,-0.588097 0.247462,0.764427 h 0.106198 l 0.269503,-0.785467 -0.01503,0.609137 v 0.582087 h 0.180337 v -1.458723 h -0.230431 l -0.256478,0.729362 z"
         style="font-family:'Roboto Mono';-inkscape-font-specification:'Roboto Mono'"
         id="path775-4" />
    </g>
    <g
       aria-label="B"
       id="text4334-8-5-6"
       style="font-size:2.05183px;font-family:JuliaMono;-inkscape-font-specification:JuliaMono;stroke-width:0.0969369;stroke-linecap:round;stroke-linejoin:bevel"
       transform="translate(-30.272789,17.597174)">
      <path
         d="m 21.696236,40.106274 h 0.466871 q 0.09317,-10e-4 0.180337,-0.02905 0.08817,-0.02805 0.15529,-0.08115 0.06713,-0.0521 0.1072,-0.130243 0.04007,-0.07815 0.03907,-0.180337 0,-0.06512 -0.02004,-0.121226 -0.01904,-0.05611 -0.0541,-0.101189 -0.03306,-0.04108 -0.08416,-0.07514 -0.0511,-0.03406 -0.106199,-0.04709 v -0.003 q 0.0531,-0.02304 0.09017,-0.04909 0.03807,-0.02605 0.06913,-0.06412 0.03006,-0.03707 0.04709,-0.08416 0.01803,-0.04709 0.01904,-0.104195 0.001,-0.10219 -0.03907,-0.175327 -0.04007,-0.07314 -0.1072,-0.120224 -0.06713,-0.04709 -0.153286,-0.06913 -0.08616,-0.02304 -0.176329,-0.02405 H 21.69624 Z M 21.882584,39.424 h 0.295552 q 0.05911,0.002 0.110205,0.02004 0.0511,0.01803 0.08917,0.0511 0.03807,0.03406 0.05911,0.08215 0.02204,0.04809 0.02104,0.110206 0,0.06111 -0.02405,0.109204 -0.02304,0.04809 -0.06312,0.08115 -0.04007,0.03306 -0.09217,0.0521 -0.0521,0.01803 -0.110206,0.01904 h -0.285533 z m 0,-0.154288 v -0.463866 h 0.253473 q 0.0541,10e-4 0.105196,0.01403 0.0521,0.01303 0.09217,0.04008 0.03907,0.02805 0.06212,0.07113 0.02404,0.04308 0.02404,0.104194 0,0.05711 -0.02404,0.100187 -0.02405,0.04308 -0.06312,0.07214 -0.03907,0.03006 -0.08917,0.04609 -0.05009,0.01503 -0.102191,0.01603 z"
         style="font-family:'Roboto Mono';-inkscape-font-specification:'Roboto Mono'"
         id="path778-5" />
    </g>
    <path
       style="color:#000000;fill:#000000;stroke-linecap:round;stroke-linejoin:bevel"
       d="m -8.8644878,52.793697 a 0.075,0.075 0 0 0 -0.07422,0.07422 v 6.648437 a 0.075,0.075 0 0 0 0.07422,0.07617 0.075,0.075 0 0 0 0.07617,-0.07617 v -6.648437 a 0.075,0.075 0 0 0 -0.07617,-0.07422 z"
       id="path5558-3" />
    <g
       id="path5562-3"
       transform="translate(-29.264879,16.916738)">
      <path
         style="color:#000000;fill:#000000;stroke-width:0.15;stroke-linecap:round;stroke-linejoin:bevel"
         d="m 30.940806,42.595226 -10.539793,0.0049"
         id="path1344-4" />
      <path
         style="color:#000000;fill:#000000;stroke-linecap:round;stroke-linejoin:bevel"
         d="m 30.941406,42.519531 -10.541015,0.0059 a 0.075,0.075 0 0 0 -0.07422,0.07422 0.075,0.075 0 0 0 0.07422,0.07617 l 10.541015,-0.0059 a 0.075,0.075 0 0 0 0.07422,-0.07422 0.075,0.075 0 0 0 -0.07422,-0.07617 z"
         id="path1346-8" />
    </g>
    <g
       id="path2542"
       style="opacity:0.258675">
      <path
         style="color:#000000;fill:#000000;stroke-linecap:round;-inkscape-stroke:none"
         d="m -16.441406,45.119141 c 0,0 -2.168801,0.971343 -3.13086,1.708984 -0.829799,0.636233 -2.11914,2.21875 -2.11914,2.21875 a 0.1,0.1 0 0 0 0.01563,0.140625 0.1,0.1 0 0 0 0.140625,-0.01367 c 0,0 1.303043,-1.588728 2.083984,-2.1875 0.9132,-0.70018 3.091797,-1.685547 3.091797,-1.685547 a 0.1,0.1 0 0 0 0.05078,-0.132812 0.1,0.1 0 0 0 -0.132812,-0.04883 z"
         id="path474" />
      <g
         id="g456">
        <path
           style="color:#000000;fill:#000000;stroke-linecap:round;-inkscape-stroke:none"
           d="m -21.740234,48.205078 a 0.1,0.1 0 0 0 -0.08789,0.109375 l 0.09375,0.943359 0.943359,-0.09375 a 0.1,0.1 0 0 0 0.08984,-0.109375 0.1,0.1 0 0 0 -0.109375,-0.08984 l -0.74414,0.07422 -0.07617,-0.74414 a 0.1,0.1 0 0 0 -0.109375,-0.08984 z"
           id="path471" />
      </g>
    </g>
    <g
       id="path2544"
       style="opacity:0.258675">
      <path
         style="color:#000000;fill:#000000;-inkscape-stroke:none"
         d="m -3.6699219,45.029297 -0.1210937,0.160156 c 0,0 0.3918899,0.291162 0.8554687,0.679688 0.4635789,0.388526 0.9995939,0.878286 1.2753907,1.251953 0.2039124,0.276273 0.4356473,0.768172 0.6113281,1.185547 C -0.87314738,48.724015 -0.75,49.068359 -0.75,49.068359 l 0.1875,-0.06641 c 0,0 -0.12267865,-0.350309 -0.30078125,-0.773437 -0.17810255,-0.423129 -0.40746555,-0.918603 -0.63476565,-1.226563 -0.2991843,-0.405354 -0.8402304,-0.89262 -1.3085937,-1.285156 -0.4683634,-0.392536 -0.8632813,-0.6875 -0.8632813,-0.6875 z"
         id="path1992" />
      <g
         id="g1984">
        <path
           style="color:#000000;fill:#000000;stroke-linecap:round;-inkscape-stroke:none"
           d="m -0.30664063,48.220703 a 0.1,0.1 0 0 0 -0.0585938,0.05273 L -0.6875,48.949219 -1.3613281,48.626953 a 0.1,0.1 0 0 0 -0.1347656,0.04687 0.1,0.1 0 0 0 0.046875,0.132813 l 0.85742183,0.408203 0.40820312,-0.855469 a 0.1,0.1 0 0 0 -0.046875,-0.134766 0.1,0.1 0 0 0 -0.0761719,-0.0039 z"
           id="path1986" />
      </g>
    </g>
    <g
       aria-label="AllReduce"
       id="text2913"
       style="font-size:1.68102px;font-family:'Roboto Mono';-inkscape-font-specification:'Roboto Mono';opacity:1;fill:#8c8c8c;stroke-width:0.0680727;stroke-linecap:round">
      <path
         d="m -28.474973,46.194026 0.09439,0.309445 h 0.15103 l -0.379215,-1.1951 h -0.127226 l -0.385781,1.1951 h 0.15185 l 0.09604,-0.309445 z m -0.357873,-0.132151 0.160058,-0.518752 0.157595,0.518752 z"
         id="path1892" />
      <path
         d="m -28.012856,45.242706 v 0.132151 h 0.302058 v 0.997285 h -0.302058 v 0.131329 h 0.743654 v -0.131329 h -0.289746 v -1.129436 z"
         id="path1894" />
      <path
         d="m -27.00408,45.242706 v 0.132151 h 0.302058 v 0.997285 h -0.302058 v 0.131329 h 0.743654 v -0.131329 h -0.289746 v -1.129436 z"
         id="path1896" />
      <path
         d="m -25.623477,46.01591 0.234752,0.487561 h 0.160058 l 8.21e-4,-0.0098 -0.253631,-0.510545 q 0.04925,-0.02134 0.09029,-0.05171 0.04104,-0.03037 0.07059,-0.06977 0.02955,-0.0394 0.04597,-0.08783 0.01724,-0.04843 0.01724,-0.106706 0,-0.09029 -0.03201,-0.156774 -0.03119,-0.06731 -0.08619,-0.111631 -0.05581,-0.04432 -0.129688,-0.06649 -0.07387,-0.02216 -0.157596,-0.0238 h -0.350486 v 1.1951 h 0.151029 V 46.01591 Z m -0.238856,-0.124763 v -0.458013 h 0.199457 q 0.05499,8.21e-4 0.10096,0.0156 0.04679,0.01477 0.08044,0.0435 0.03365,0.02955 0.05253,0.07305 0.01888,0.04268 0.01888,0.100139 0,0.05417 -0.0197,0.09604 -0.0197,0.04104 -0.05335,0.06977 -0.03447,0.02873 -0.07962,0.04432 -0.04515,0.01478 -0.09604,0.0156 z"
         id="path1898" />
      <path
         d="m -24.617984,46.519888 q 0.129688,0 0.217515,-0.05171 0.08865,-0.05253 0.132971,-0.119839 l -0.09275,-0.07223 q -0.04186,0.05417 -0.105064,0.08701 -0.0632,0.03283 -0.144463,0.03283 -0.06156,0 -0.112451,-0.02298 -0.05089,-0.02298 -0.08701,-0.0632 -0.0353,-0.03776 -0.05582,-0.08701 -0.0197,-0.04925 -0.02544,-0.114093 v -0.0057 h 0.634486 v -0.06813 q 0,-0.09275 -0.0238,-0.172371 -0.02298,-0.07962 -0.07059,-0.138717 -0.04761,-0.05828 -0.119838,-0.09111 -0.07141,-0.03365 -0.167445,-0.03365 -0.07634,0 -0.149388,0.03119 -0.07223,0.03119 -0.128867,0.08947 -0.05746,0.0591 -0.09193,0.144463 -0.03447,0.08454 -0.03447,0.19207 v 0.03447 q 0,0.09275 0.03119,0.171549 0.03119,0.0788 0.08701,0.136255 0.05581,0.05746 0.133792,0.08947 0.0788,0.03201 0.17237,0.03201 z m -0.0197,-0.796187 q 0.05828,0 0.100138,0.02134 0.04268,0.02134 0.07059,0.05582 0.02791,0.03447 0.0435,0.08208 0.0156,0.04679 0.0156,0.08783 v 0.0074 h -0.477712 q 0.009,-0.06156 0.03119,-0.108347 0.02298,-0.04761 0.05581,-0.08044 0.03283,-0.03201 0.07387,-0.04843 0.04104,-0.01724 0.08701,-0.01724 z"
         id="path1900" />
      <path
         d="m -24.030284,46.052026 v 0.01724 q 0,0.09521 0.02545,0.178115 0.02544,0.08208 0.07141,0.142822 0.04596,0.06074 0.110809,0.09521 0.06566,0.03447 0.146105,0.03447 0.08208,0 0.143642,-0.02791 0.06156,-0.02791 0.105884,-0.08208 l 0.0066,0.09357 h 0.139537 v -1.260765 h -0.15185 v 0.460475 q -0.0435,-0.05089 -0.103422,-0.07716 -0.0591,-0.02709 -0.138717,-0.02709 -0.08126,0 -0.146925,0.03365 -0.06566,0.03365 -0.11163,0.09357 -0.04679,0.05992 -0.07223,0.143642 -0.02463,0.0829 -0.02463,0.18222 z m 0.15185,0.01724 v -0.01724 q 0,-0.06484 0.01395,-0.123122 0.01395,-0.0591 0.0435,-0.104243 0.02873,-0.04432 0.07387,-0.07059 0.04596,-0.02627 0.109989,-0.02627 0.07469,0 0.124763,0.0353 0.05007,0.03447 0.07962,0.08865 v 0.412047 q -0.02955,0.05828 -0.07962,0.09275 -0.05007,0.03447 -0.126405,0.03447 -0.0632,0 -0.108347,-0.02544 -0.04515,-0.02627 -0.07387,-0.07059 -0.02955,-0.04432 -0.0435,-0.102601 -0.01395,-0.05828 -0.01395,-0.123121 z"
         id="path1902" />
      <path
         d="m -22.407541,46.503471 h 0.137896 v -0.888117 h -0.152671 v 0.636949 q -0.01231,0.02873 -0.03119,0.05335 -0.01806,0.0238 -0.04268,0.04104 -0.02955,0.02134 -0.06977,0.03365 -0.04022,0.01149 -0.09111,0.01149 -0.0435,0 -0.07716,-0.01149 -0.03283,-0.01149 -0.05581,-0.04022 -0.02298,-0.02791 -0.03447,-0.07551 -0.01149,-0.04761 -0.01149,-0.119839 v -0.529423 h -0.15185 v 0.527782 q 0,0.09932 0.02134,0.170728 0.02216,0.07059 0.06238,0.116555 0.04022,0.04597 0.09686,0.06813 0.05664,0.02134 0.126405,0.02134 0.08701,0 0.153492,-0.03612 0.06649,-0.03694 0.110809,-0.102601 z"
         id="path1904" />
      <path
         d="m -21.605609,46.396766 q -0.07141,0 -0.119839,-0.02791 -0.04761,-0.02873 -0.07634,-0.07469 -0.02955,-0.04514 -0.04268,-0.101781 -0.01231,-0.05746 -0.01231,-0.115734 v -0.03447 q 0,-0.05746 0.01231,-0.114093 0.01313,-0.05664 0.04268,-0.102601 0.02955,-0.04514 0.07716,-0.07305 0.04843,-0.02873 0.119018,-0.02873 0.04597,0 0.08536,0.0156 0.04022,0.01559 0.06895,0.04268 0.02873,0.02709 0.04515,0.0632 0.01724,0.0353 0.01806,0.07552 h 0.143641 q 0,-0.06731 -0.02709,-0.126405 -0.02709,-0.0591 -0.07469,-0.102601 -0.04843,-0.04268 -0.114914,-0.06731 -0.06566,-0.02545 -0.144462,-0.02545 -0.10096,0 -0.176474,0.03612 -0.07551,0.03612 -0.125584,0.09686 -0.05089,0.06156 -0.07634,0.142001 -0.02544,0.08044 -0.02544,0.168266 v 0.03447 q 0,0.08865 0.02544,0.169087 0.02545,0.07962 0.07634,0.140358 0.05007,0.06156 0.125584,0.09768 0.07551,0.03612 0.176474,0.03612 0.07059,0 0.135434,-0.0238 0.06484,-0.02462 0.114913,-0.06567 0.05007,-0.04022 0.07962,-0.09357 0.03037,-0.05417 0.03119,-0.113272 h -0.143641 q -8.21e-4,0.03694 -0.0197,0.06895 -0.01806,0.03119 -0.04843,0.05417 -0.03037,0.0238 -0.06977,0.03694 -0.03858,0.01313 -0.07962,0.01313 z"
         id="path1906" />
      <path
         d="m -20.582879,46.519888 q 0.129688,0 0.217515,-0.05171 0.08865,-0.05253 0.132971,-0.119839 l -0.09275,-0.07223 q -0.04186,0.05417 -0.105063,0.08701 -0.0632,0.03283 -0.144463,0.03283 -0.06156,0 -0.112451,-0.02298 -0.05089,-0.02298 -0.08701,-0.0632 -0.03529,-0.03776 -0.05581,-0.08701 -0.0197,-0.04925 -0.02545,-0.114093 v -0.0057 h 0.634486 v -0.06813 q 0,-0.09275 -0.0238,-0.172371 -0.02298,-0.07962 -0.07059,-0.138717 -0.04761,-0.05828 -0.119838,-0.09111 -0.07141,-0.03365 -0.167446,-0.03365 -0.07634,0 -0.149387,0.03119 -0.07223,0.03119 -0.128867,0.08947 -0.05746,0.0591 -0.09193,0.144463 -0.03447,0.08454 -0.03447,0.19207 v 0.03447 q 0,0.09275 0.03119,0.171549 0.03119,0.0788 0.08701,0.136255 0.05582,0.05746 0.133793,0.08947 0.0788,0.03201 0.17237,0.03201 z m -0.0197,-0.796187 q 0.05828,0 0.100139,0.02134 0.04268,0.02134 0.07059,0.05582 0.02791,0.03447 0.0435,0.08208 0.0156,0.04679 0.0156,0.08783 v 0.0074 h -0.477711 q 0.009,-0.06156 0.03119,-0.108347 0.02298,-0.04761 0.05581,-0.08044 0.03283,-0.03201 0.07387,-0.04843 0.04104,-0.01724 0.08701,-0.01724 z"
         id="path1908" />
    </g>
    <g
       aria-label="ReduceScatter"
       id="text2913-8"
       style="font-size:1.68102px;font-family:'Roboto Mono';-inkscape-font-specification:'Roboto Mono';fill:#8c8c8c;stroke-width:0.0680727;stroke-linecap:round">
      <path
         d="m -0.28641463,45.875804 0.23475182,0.487561 h 0.16005806 l 8.2081e-4,-0.0099 -0.25363046,-0.510544 q 0.04924863,-0.02134 0.09028916,-0.05171 0.04104053,-0.03037 0.07058971,-0.06977 0.02954918,-0.0394 0.04596539,-0.08783 0.01723702,-0.04843 0.01723702,-0.106706 0,-0.09029 -0.03201161,-0.156775 -0.0311908,-0.06731 -0.08618511,-0.11163 -0.05581512,-0.04432 -0.12968807,-0.06649 -0.0738729,-0.02216 -0.15759563,-0.0238 h -0.3504861 v 1.1951 H -0.5252705 V 45.875804 Z M -0.5252705,45.75104 v -0.458012 h 0.19945696 q 0.0549943,8.21e-4 0.1009597,0.0156 0.0467862,0.01477 0.0804394,0.0435 0.0336532,0.02955 0.05253187,0.07305 0.01887865,0.04268 0.01887865,0.100139 0,0.05417 -0.01969946,0.09603 -0.01969945,0.04104 -0.05335268,0.06977 -0.034474,0.02873 -0.0796186,0.04432 -0.0451446,0.01478 -0.0960348,0.0156 z"
         id="path1911" />
      <path
         d="m 0.71907832,46.379781 q 0.12968806,0 0.21751479,-0.05171 0.0886476,-0.05253 0.13297129,-0.119838 l -0.0927516,-0.07223 q -0.0418613,0.05417 -0.10506375,0.08701 -0.0632024,0.03283 -0.14446266,0.03283 -0.0615608,0 -0.11245104,-0.02298 -0.0508903,-0.02298 -0.0870059,-0.0632 -0.0352949,-0.03776 -0.0558151,-0.08701 -0.0196994,-0.04925 -0.0254451,-0.114093 v -0.0057 H 1.0810558 v -0.06813 q 0,-0.09275 -0.023803,-0.17237 -0.022983,-0.07962 -0.0705897,-0.138717 -0.047607,-0.05828 -0.11983834,-0.09111 -0.0714105,-0.03365 -0.16744536,-0.03365 -0.0763354,0 -0.14938752,0.03119 -0.0722313,0.03119 -0.12886726,0.08947 -0.0574567,0.0591 -0.0919308,0.144463 -0.034474,0.08454 -0.034474,0.192069 v 0.03447 q 0,0.09275 0.0311908,0.17155 0.0311908,0.0788 0.0870059,0.136254 0.0558151,0.05746 0.13379212,0.08947 0.0787978,0.03201 0.17237022,0.03201 z m -0.0196995,-0.796186 q 0.0582775,0 0.10013889,0.02134 0.0426821,0.02134 0.0705897,0.05581 0.0279076,0.03447 0.043503,0.08208 0.0155954,0.04679 0.0155954,0.08783 v 0.0074 H 0.45149408 q 0.009029,-0.06156 0.0311908,-0.108347 0.0229827,-0.04761 0.0558151,-0.08044 0.0328324,-0.03201 0.0738729,-0.04843 0.0410405,-0.01724 0.0870059,-0.01724 z"
         id="path1913" />
      <path
         d="m 1.3067787,45.911919 v 0.01724 q 0,0.09521 0.025445,0.178116 0.025445,0.08208 0.071411,0.142821 0.045965,0.06074 0.1108095,0.09521 0.065665,0.03447 0.1461042,0.03447 0.082081,0 0.1436419,-0.02791 0.061561,-0.02791 0.1058845,-0.08208 l 0.00657,0.09357 H 2.0561787 V 45.1026 H 1.9043288 v 0.460475 q -0.043503,-0.05089 -0.1034222,-0.07716 -0.059098,-0.02709 -0.1387169,-0.02709 -0.08126,0 -0.1469251,0.03365 -0.065665,0.03365 -0.1116303,0.09357 -0.046786,0.05992 -0.072231,0.143641 -0.024624,0.0829 -0.024624,0.18222 z m 0.1518499,0.01724 v -0.01724 q 0,-0.06484 0.013954,-0.123121 0.013954,-0.0591 0.043503,-0.104243 0.028728,-0.04432 0.073873,-0.07059 0.045965,-0.02627 0.1099886,-0.02627 0.074694,0 0.1247633,0.03529 0.050069,0.03447 0.079619,0.08865 v 0.412046 q -0.029549,0.05828 -0.079619,0.09275 -0.050069,0.03447 -0.1264049,0.03447 -0.063202,0 -0.108347,-0.02545 -0.045144,-0.02627 -0.073873,-0.07059 -0.029549,-0.04432 -0.043503,-0.102601 -0.013954,-0.05828 -0.013954,-0.123122 z"
         id="path1915" />
      <path
         d="M 2.9295212,46.363365 H 3.0674173 V 45.475248 H 2.9147466 v 0.636949 q -0.012312,0.02873 -0.031191,0.05335 -0.018058,0.0238 -0.042682,0.04104 -0.029549,0.02134 -0.069769,0.03365 -0.04022,0.01149 -0.09111,0.01149 -0.043503,0 -0.077156,-0.01149 -0.032833,-0.01149 -0.055815,-0.04022 -0.022983,-0.02791 -0.034474,-0.07551 -0.011491,-0.04761 -0.011491,-0.119838 v -0.529423 h -0.15185 v 0.527781 q 0,0.09932 0.021341,0.170729 0.022162,0.07059 0.062382,0.116555 0.04022,0.04597 0.096856,0.06813 0.056636,0.02134 0.1264049,0.02134 0.087006,0 0.1534915,-0.03612 0.066486,-0.03694 0.1108095,-0.102602 z"
         id="path1917" />
      <path
         d="m 3.7314531,46.25666 q -0.07141,0 -0.1198383,-0.02791 -0.047607,-0.02873 -0.076335,-0.07469 -0.029549,-0.04514 -0.042682,-0.10178 -0.012312,-0.05746 -0.012312,-0.115734 v -0.03447 q 0,-0.05746 0.012312,-0.114093 0.013133,-0.05664 0.042682,-0.102601 0.029549,-0.04514 0.077156,-0.07305 0.048428,-0.02873 0.1190175,-0.02873 0.045965,0 0.085364,0.0156 0.04022,0.0156 0.068948,0.04268 0.028728,0.02709 0.045145,0.0632 0.017237,0.03529 0.018058,0.07551 h 0.1436418 q 0,-0.06731 -0.027087,-0.126405 -0.027087,-0.0591 -0.074694,-0.102601 -0.048428,-0.04268 -0.1149134,-0.06731 -0.065665,-0.02544 -0.1444627,-0.02544 -0.1009597,0 -0.1764743,0.03612 -0.075515,0.03612 -0.125584,0.09685 -0.05089,0.06156 -0.076335,0.142 -0.025445,0.08044 -0.025445,0.168267 v 0.03447 q 0,0.08865 0.025445,0.169087 0.025445,0.07962 0.076335,0.140358 0.05007,0.06156 0.125584,0.09768 0.075515,0.03612 0.1764743,0.03612 0.07059,0 0.1354337,-0.0238 0.064844,-0.02462 0.1149135,-0.06567 0.050069,-0.04022 0.079619,-0.09357 0.03037,-0.05417 0.031191,-0.113272 H 3.9489679 q -8.208e-4,0.03694 -0.019699,0.06895 -0.018058,0.03119 -0.048428,0.05417 -0.03037,0.0238 -0.069769,0.03694 -0.038578,0.01313 -0.079619,0.01313 z"
         id="path1919" />
      <path
         d="m 4.7541831,46.379781 q 0.129688,0 0.2175148,-0.05171 0.088648,-0.05253 0.1329713,-0.119838 l -0.092752,-0.07223 q -0.041861,0.05417 -0.1050638,0.08701 -0.063202,0.03283 -0.1444626,0.03283 -0.061561,0 -0.1124511,-0.02298 -0.05089,-0.02298 -0.087006,-0.0632 -0.035295,-0.03776 -0.055815,-0.08701 -0.019699,-0.04925 -0.025445,-0.114093 v -0.0057 h 0.6344865 v -0.06813 q 0,-0.09275 -0.023804,-0.17237 -0.022983,-0.07962 -0.07059,-0.138717 -0.047607,-0.05828 -0.1198383,-0.09111 -0.07141,-0.03365 -0.1674454,-0.03365 -0.076335,0 -0.1493875,0.03119 -0.072231,0.03119 -0.1288673,0.08947 -0.057457,0.0591 -0.091931,0.144463 -0.034474,0.08454 -0.034474,0.192069 v 0.03447 q 0,0.09275 0.031191,0.17155 0.031191,0.0788 0.087006,0.136254 0.055815,0.05746 0.1337922,0.08947 0.078798,0.03201 0.1723702,0.03201 z m -0.019699,-0.796186 q 0.058278,0 0.1001389,0.02134 0.042682,0.02134 0.07059,0.05581 0.027908,0.03447 0.043503,0.08208 0.015595,0.04679 0.015595,0.08783 v 0.0074 H 4.4865988 q 0.00903,-0.06156 0.031191,-0.108347 0.022983,-0.04761 0.055815,-0.08044 0.032833,-0.03201 0.073873,-0.04843 0.041041,-0.01724 0.087006,-0.01724 z"
         id="path1921" />
      <path
         d="m 5.9960695,46.061307 q 0,0.04925 -0.021341,0.08536 -0.021341,0.0353 -0.054994,0.05828 -0.033653,0.0238 -0.077156,0.03529 -0.042682,0.01067 -0.087006,0.01067 -0.055815,0 -0.1034222,-0.01477 -0.046786,-0.0156 -0.082902,-0.04597 -0.036116,-0.02955 -0.059098,-0.07223 -0.022983,-0.0435 -0.03037,-0.09932 H 5.3246464 q 0.00246,0.07716 0.033653,0.140358 0.032012,0.06238 0.086185,0.109168 0.06074,0.05417 0.142821,0.0829 0.082902,0.02873 0.1682662,0.02873 0.07141,0 0.142821,-0.0197 0.07141,-0.02052 0.1280464,-0.06074 0.056636,-0.0394 0.091931,-0.09932 0.036116,-0.05992 0.036116,-0.140359 0,-0.07962 -0.033653,-0.140358 -0.032833,-0.06074 -0.087006,-0.102602 -0.054994,-0.04514 -0.1214799,-0.07387 -0.066486,-0.02955 -0.1329713,-0.05007 -0.04022,-0.01231 -0.086185,-0.02873 -0.045145,-0.01642 -0.083723,-0.04104 -0.039399,-0.02462 -0.064844,-0.05992 -0.025445,-0.03612 -0.026266,-0.08783 0,-0.04761 0.018879,-0.08372 0.019699,-0.03612 0.052532,-0.06074 0.032012,-0.02462 0.073052,-0.03694 0.041861,-0.01231 0.085364,-0.01231 0.054173,0 0.096856,0.01724 0.043503,0.01642 0.074694,0.04679 0.031191,0.03037 0.050069,0.07305 0.018879,0.04186 0.025445,0.09357 h 0.155954 q -0.00164,-0.08208 -0.035295,-0.148567 -0.033653,-0.06649 -0.089468,-0.113272 -0.055815,-0.04679 -0.1280464,-0.07223 -0.072231,-0.02627 -0.1502083,-0.02627 -0.07059,0 -0.1403586,0.02216 -0.069769,0.02134 -0.1247632,0.0632 -0.054994,0.04186 -0.089468,0.102601 -0.033653,0.06074 -0.033653,0.137897 0,0.07716 0.033653,0.134613 0.034474,0.05663 0.088648,0.0985 0.053353,0.04104 0.1181968,0.07059 0.065665,0.02873 0.1288672,0.04925 0.043503,0.01395 0.090289,0.03119 0.047607,0.01724 0.087006,0.04268 0.039399,0.02627 0.064023,0.06402 0.025445,0.03776 0.025445,0.09275 z"
         id="path1923" />
      <path
         d="m 6.7577817,46.25666 q -0.071411,0 -0.1198384,-0.02791 -0.047607,-0.02873 -0.076335,-0.07469 -0.029549,-0.04514 -0.042682,-0.10178 -0.012312,-0.05746 -0.012312,-0.115734 v -0.03447 q 0,-0.05746 0.012312,-0.114093 0.013133,-0.05664 0.042682,-0.102601 0.029549,-0.04514 0.077156,-0.07305 0.048428,-0.02873 0.1190176,-0.02873 0.045965,0 0.085364,0.0156 0.04022,0.0156 0.068948,0.04268 0.028728,0.02709 0.045145,0.0632 0.017237,0.03529 0.018058,0.07551 h 0.1436418 q 0,-0.06731 -0.027087,-0.126405 -0.027087,-0.0591 -0.074694,-0.102601 -0.048428,-0.04268 -0.1149135,-0.06731 -0.065665,-0.02544 -0.1444626,-0.02544 -0.1009597,0 -0.1764743,0.03612 -0.075515,0.03612 -0.125584,0.09685 -0.05089,0.06156 -0.076335,0.142 -0.025445,0.08044 -0.025445,0.168267 v 0.03447 q 0,0.08865 0.025445,0.169087 0.025445,0.07962 0.076335,0.140358 0.050069,0.06156 0.125584,0.09768 0.075515,0.03612 0.1764743,0.03612 0.07059,0 0.1354337,-0.0238 0.064844,-0.02462 0.1149135,-0.06567 0.050069,-0.04022 0.079619,-0.09357 0.03037,-0.05417 0.031191,-0.113272 H 6.9752965 q -8.208e-4,0.03694 -0.019699,0.06895 -0.018058,0.03119 -0.048428,0.05417 -0.03037,0.0238 -0.069769,0.03694 -0.038578,0.01313 -0.079619,0.01313 z"
         id="path1925" />
      <path
         d="m 7.9717605,46.363365 h 0.1584164 v -0.01313 q -0.014775,-0.03694 -0.022983,-0.08619 -0.00821,-0.05007 -0.00821,-0.09439 v -0.412868 q 0,-0.07469 -0.027087,-0.130509 -0.027087,-0.05582 -0.073873,-0.09357 -0.047607,-0.03694 -0.112451,-0.05499 -0.064844,-0.01888 -0.1403586,-0.01888 -0.082902,0 -0.1485667,0.02298 -0.064844,0.02298 -0.1099886,0.05992 -0.045965,0.03776 -0.07059,0.08454 -0.023803,0.04679 -0.024624,0.09521 h 0.1526708 q 0,-0.02791 0.013133,-0.05335 0.013954,-0.02627 0.038578,-0.04514 0.024624,-0.01888 0.059919,-0.03037 0.036116,-0.01149 0.08126,-0.01149 0.048428,0 0.087006,0.01231 0.039399,0.01231 0.066486,0.03447 0.027087,0.02298 0.041861,0.05499 0.014775,0.03201 0.014775,0.07223 v 0.06977 H 7.7813324 q -0.092752,0 -0.1682661,0.01806 -0.074694,0.01806 -0.1280465,0.05417 -0.053353,0.03694 -0.082902,0.09193 -0.028728,0.05499 -0.028728,0.128046 0,0.05581 0.021341,0.104243 0.022162,0.04761 0.062382,0.08208 0.039399,0.03529 0.096035,0.05581 0.057457,0.02052 0.1280465,0.02052 0.043503,0 0.082081,-0.009 0.038578,-0.009 0.073052,-0.02462 0.033653,-0.01559 0.061561,-0.03612 0.028728,-0.02052 0.051711,-0.0435 0.00246,0.02791 0.00739,0.05417 0.00575,0.02544 0.014775,0.04268 z M 7.7033554,46.247631 q -0.044324,0 -0.077977,-0.01149 -0.033653,-0.01149 -0.055815,-0.03201 -0.022162,-0.0197 -0.033653,-0.04761 -0.010671,-0.02791 -0.010671,-0.06074 0,-0.03447 0.012312,-0.06156 0.013133,-0.02709 0.037757,-0.04679 0.034474,-0.02791 0.092752,-0.04104 0.059098,-0.01395 0.1378962,-0.01395 h 0.1411794 v 0.179757 q -0.013133,0.02627 -0.036116,0.05089 -0.022983,0.0238 -0.054174,0.04268 -0.032012,0.01888 -0.07059,0.03037 -0.038578,0.01149 -0.082902,0.01149 z"
         id="path1927" />
      <path
         d="M 8.7564549,45.260196 H 8.6037842 v 0.215052 H 8.370674 v 0.117376 h 0.2331102 v 0.482637 q 0,0.08208 0.021341,0.140358 0.022162,0.05746 0.059919,0.09357 0.037757,0.03694 0.088647,0.05417 0.051711,0.01642 0.1108095,0.01642 0.035295,0 0.07059,-0.0033 0.036116,-0.0033 0.068127,-0.0099 0.032012,-0.0057 0.059098,-0.01395 0.027087,-0.009 0.045965,-0.02052 L 9.106941,46.224648 q -0.013954,0.0033 -0.036116,0.0082 -0.021341,0.0041 -0.045965,0.0082 -0.025445,0.0041 -0.051711,0.0074 -0.026266,0.0025 -0.05089,0.0025 -0.033653,0 -0.064023,-0.0082 -0.029549,-0.0082 -0.052532,-0.02873 -0.022983,-0.0197 -0.036116,-0.05335 -0.013133,-0.03365 -0.013133,-0.08536 v -0.482637 h 0.338174 v -0.117376 h -0.338174 z"
         id="path1929" />
      <path
         d="M 9.7652316,45.260196 H 9.6125608 v 0.215052 H 9.3794506 v 0.117376 h 0.2331102 v 0.482637 q 0,0.08208 0.021341,0.140358 0.022162,0.05746 0.059919,0.09357 0.037757,0.03694 0.088648,0.05417 0.051711,0.01642 0.1108094,0.01642 0.035295,0 0.07059,-0.0033 0.036116,-0.0033 0.068127,-0.0099 0.03201,-0.0057 0.0591,-0.01395 0.02709,-0.009 0.04597,-0.02052 l -0.02134,-0.107526 q -0.01395,0.0033 -0.03612,0.0082 -0.02134,0.0041 -0.04596,0.0082 -0.02545,0.0041 -0.051711,0.0074 -0.026266,0.0025 -0.05089,0.0025 -0.033653,0 -0.064023,-0.0082 -0.029549,-0.0082 -0.052532,-0.02873 -0.022983,-0.0197 -0.036116,-0.05335 -0.013133,-0.03365 -0.013133,-0.08536 V 45.592624 H 10.103406 V 45.475248 H 9.7652316 Z"
         id="path1931" />
      <path
         d="m 10.806841,46.379781 q 0.129688,0 0.217514,-0.05171 0.08865,-0.05253 0.132972,-0.119838 l -0.09275,-0.07223 q -0.04186,0.05417 -0.105064,0.08701 -0.0632,0.03283 -0.144462,0.03283 -0.06156,0 -0.112451,-0.02298 -0.05089,-0.02298 -0.08701,-0.0632 -0.03529,-0.03776 -0.05581,-0.08701 -0.0197,-0.04925 -0.02545,-0.114093 v -0.0057 h 0.634486 v -0.06813 q 0,-0.09275 -0.0238,-0.17237 -0.02298,-0.07962 -0.07059,-0.138717 -0.04761,-0.05828 -0.119838,-0.09111 -0.07141,-0.03365 -0.167446,-0.03365 -0.07634,0 -0.149387,0.03119 -0.07223,0.03119 -0.128868,0.08947 -0.05746,0.0591 -0.09193,0.144463 -0.03447,0.08454 -0.03447,0.192069 v 0.03447 q 0,0.09275 0.03119,0.17155 0.03119,0.0788 0.08701,0.136254 0.05581,0.05746 0.133792,0.08947 0.0788,0.03201 0.172371,0.03201 z m -0.0197,-0.796186 q 0.05828,0 0.100139,0.02134 0.04268,0.02134 0.07059,0.05581 0.02791,0.03447 0.0435,0.08208 0.0156,0.04679 0.0156,0.08783 v 0.0074 h -0.477712 q 0.009,-0.06156 0.03119,-0.108347 0.02298,-0.04761 0.05582,-0.08044 0.03283,-0.03201 0.07387,-0.04843 0.04104,-0.01724 0.08701,-0.01724 z"
         id="path1933" />
      <path
         d="m 12.005224,45.458832 q -0.09686,0 -0.173191,0.04268 -0.07551,0.04186 -0.129688,0.114914 l -8.21e-4,-0.02216 -0.0066,-0.119018 h -0.144462 v 0.888117 h 0.15267 v -0.569642 q 0.01478,-0.04104 0.03694,-0.07387 0.02298,-0.03365 0.05335,-0.05664 0.03365,-0.02627 0.0788,-0.0394 0.04514,-0.01395 0.10096,-0.01395 0.0435,0 0.0829,0.0049 0.04022,0.0041 0.08454,0.01395 l 0.02052,-0.148567 q -0.02298,-0.0099 -0.06895,-0.01559 -0.04515,-0.0057 -0.08701,-0.0057 z"
         id="path1935" />
    </g>
    <path
       style="color:#000000;fill:#aeaeae;stroke-linecap:square;stroke-linejoin:bevel"
       d="m -4.3987868,49.025929 -0.09961,0.09961 v 6.4375 l 0.09961,0.09961 h 11.425781 l 0.09961,-0.09961 v -6.4375 l -0.09961,-0.09961 z m 0.101562,0.199219 h 11.22461 v 6.238281 h -11.22461 z"
       id="rect22208-8-5-5" />
    <path
       style="color:#000000;fill:#aeaeae;stroke-linecap:square;stroke-linejoin:bevel"
       d="m -4.4007398,55.420461 -0.06836,0.07227 -2.826171,2.976563 -0.07031,0.07227 0.144531,0.138672 0.07031,-0.07227 2.826172,-2.976563 0.06836,-0.07227 z"
       id="path24712-4" />
    <path
       style="color:#000000;fill:#aeaeae;stroke-linecap:square;stroke-linejoin:bevel"
       d="m -4.4007398,48.984914 -0.07031,0.07227 -2.826172,2.976563 -0.06836,0.07227 0.144531,0.136718 0.06836,-0.07227 2.828125,-2.976563 0.06836,-0.07227 z"
       id="path24712-4-4" />
    <path
       style="color:#000000;fill:#aeaeae;stroke-linecap:square;stroke-linejoin:bevel"
       d="m 1.3101972,48.984914 -0.06836,0.07227 -2.8261721,2.976563 -0.06836,0.07227 0.144531,0.136718 0.06836,-0.07227 2.826172,-2.976563 0.07031,-0.07227 z"
       id="path24712-4-4-9" />
    <path
       style="color:#000000;fill:#aeaeae;stroke-linecap:square;stroke-linejoin:bevel"
       d="m 6.9371502,55.420461 -0.06836,0.07227 -2.826172,2.976563 -0.07031,0.07227 0.146484,0.138672 0.06836,-0.07227 2.826172,-2.976563 0.06836,-0.07227 z"
       id="path24712-4-5" />
    <path
       style="color:#000000;fill:#aeaeae;stroke-linecap:square;stroke-linejoin:bevel"
       d="m 7.0230882,48.984914 -0.06836,0.07227 -2.826172,2.976563 -0.07031,0.07227 0.146485,0.136718 0.06836,-0.07227 2.826172,-2.976563 0.06836,-0.07227 z"
       id="path24712-4-4-94" />
    <path
       style="color:#000000;fill:#aeaeae;stroke-linecap:square;stroke-linejoin:bevel"
       d="m -1.5628498,48.984914 -0.06836,0.07227 -2.828125,2.976563 -0.06836,0.07227 0.144531,0.136718 0.07031,-0.07227 2.826172,-2.976563 0.06836,-0.07227 z"
       id="path24712-4-4-4" />
    <path
       style="color:#000000;fill:#aeaeae;stroke-linecap:square;stroke-linejoin:bevel"
       d="m -1.5628498,55.441945 -0.06836,0.07227 -2.826172,2.976562 -0.07031,0.07227 0.144531,0.136719 0.07031,-0.07227 2.826172,-2.974609 0.06836,-0.07422 z"
       id="path24712-4-4-4-0" />
    <path
       style="color:#000000;fill:#aeaeae;stroke-linecap:square;stroke-linejoin:bevel"
       d="m 1.3101972,55.422414 -0.06836,0.07227 -2.8261721,2.97461 -0.06836,0.07422 0.144531,0.136718 0.06836,-0.07227 2.826172,-2.976563 0.07031,-0.07227 z"
       id="path24712-4-4-4-0-0" />
    <path
       style="color:#000000;fill:#aeaeae;stroke-linecap:square;stroke-linejoin:bevel"
       d="m 4.1851972,55.441945 -0.07031,0.07227 -2.826172,2.976562 -0.06836,0.07227 0.1445309,0.136719 0.06836,-0.07227 2.828125,-2.974609 0.06836,-0.07422 z"
       id="path24712-4-4-4-0-6" />
    <path
       style="color:#000000;fill:#aeaeae;stroke-linecap:square;stroke-linejoin:bevel"
       d="m 4.1012132,48.984914 -0.06836,0.07227 -2.826172,2.976563 -0.06836,0.07227 0.144532,0.136718 0.06836,-0.07227 2.826172,-2.976563 0.07031,-0.07227 z"
       id="path24712-4-4-3" />
    <g
       id="path26637"
       transform="translate(-30.805034,17.674367)">
      <path
         style="color:#000000;fill:#aee954;stroke-width:0.2;stroke-linecap:square;stroke-linejoin:bevel"
         d="m 26.40703,31.451546 v 6.437042"
         id="path980" />
      <path
         style="color:#000000;fill:#aeaeae;stroke-linecap:square;stroke-linejoin:bevel"
         d="m 26.306641,31.351562 v 0.09961 6.4375 0.09961 h 0.201171 v -0.09961 -6.4375 -0.09961 z"
         id="path982" />
    </g>
    <g
       id="path26637-0"
       transform="translate(-30.805034,17.674367)">
      <path
         style="color:#000000;fill:#aee954;stroke-width:0.354769;stroke-linecap:square;stroke-linejoin:bevel"
         d="m 29.245913,31.47171 v 6.437041"
         id="path986" />
      <path
         style="color:#000000;fill:#aeaeae;stroke-linecap:square;stroke-linejoin:bevel"
         d="m 29.068359,31.294922 v 0.177734 6.435547 0.177734 h 0.355469 v -0.177734 -6.435547 -0.177734 z"
         id="path988" />
    </g>
    <g
       id="path26637-8"
       transform="translate(-30.805034,17.674367)">
      <path
         style="color:#000000;fill:#aee954;stroke-width:0.2;stroke-linecap:square;stroke-linejoin:bevel"
         d="m 32.119621,31.451546 v 6.437042"
         id="path992" />
      <path
         style="color:#000000;fill:#aeaeae;stroke-linecap:square;stroke-linejoin:bevel"
         d="m 32.019531,31.351562 v 0.09961 6.4375 0.09961 h 0.199219 v -0.09961 -6.4375 -0.09961 z"
         id="path994" />
    </g>
    <g
       id="path26637-2"
       transform="translate(-30.805034,17.674367)">
      <path
         style="color:#000000;fill:#aee954;stroke-width:0.2;stroke-linecap:square;stroke-linejoin:bevel"
         d="m 34.993329,31.47171 v 6.437041"
         id="path998" />
      <path
         style="color:#000000;fill:#aeaeae;stroke-linecap:square;stroke-linejoin:bevel"
         d="m 34.892578,31.371094 v 0.101562 6.435547 0.09961 h 0.201172 v -0.09961 -6.435547 -0.101562 z"
         id="path1000" />
    </g>
    <g
       id="path26637-9"
       transform="translate(-30.805034,17.674367)">
      <path
         style="color:#000000;fill:#aee954;stroke-width:0.354769;stroke-linecap:square;stroke-linejoin:bevel"
         d="m 28.009841,32.86326 v 6.437041"
         id="path1004" />
      <path
         style="color:#000000;fill:#aeaeae;stroke-linecap:square;stroke-linejoin:bevel"
         d="m 27.832031,32.685547 v 0.177734 6.4375 0.177735 H 28.1875 v -0.177735 -6.4375 -0.177734 z"
         id="path1006" />
    </g>
    <g
       id="path26637-5"
       transform="translate(-30.805034,17.674367)">
      <path
         style="color:#000000;fill:#aee954;stroke-width:0.2;stroke-linecap:square;stroke-linejoin:bevel"
         d="m 30.817925,32.862534 v 6.437042"
         id="path1010" />
      <path
         style="color:#000000;fill:#aeaeae;stroke-linecap:square;stroke-linejoin:bevel"
         d="m 30.71875,32.761719 v 0.101562 6.435547 0.101563 h 0.199219 v -0.101563 -6.435547 -0.101562 z"
         id="path1012" />
    </g>
    <g
       id="path26637-50"
       transform="translate(-30.805034,17.674367)">
      <path
         style="color:#000000;fill:#aee954;stroke-width:0.2;stroke-linecap:square;stroke-linejoin:bevel"
         d="m 33.600496,32.862534 v 6.437042"
         id="path1016" />
      <path
         style="color:#000000;fill:#aeaeae;stroke-linecap:square;stroke-linejoin:bevel"
         d="m 33.5,32.761719 v 0.101562 6.435547 0.101563 h 0.201172 v -0.101563 -6.435547 -0.101562 z"
         id="path1018" />
    </g>
    <path
       style="color:#000000;fill:#aeaeae;stroke-linecap:square;stroke-linejoin:bevel"
       d="m -5.7288648,50.438039 -0.09961,0.09961 v 6.435547 l 0.09961,0.09961 h 11.484375 l 0.09961,-0.09961 v -6.435547 l -0.09961,-0.09961 z m 0.09961,0.199219 h 11.283203 v 6.236328 h -11.283204 z"
       id="rect22208-8-0-1" />
    <path
       style="color:#000000;fill:#d50bd5;stroke-width:0.255;stroke-linecap:square;stroke-linejoin:bevel;fill-opacity:1"
       d="m -2.869284,50.537627 h 2.933856 l 1.236072,-1.391552 -2.838883,-0.02016 -1.331045,1.411714 v 6.435588 l 2.933856,0.0016 V 50.537732 L 1.300644,49.14618 v 6.437042 l -1.236072,1.391551 v -6.437041 z"
       id="path1022" />
    <path
       style="color:#000000;fill:#000000;stroke-linecap:square;stroke-linejoin:bevel"
       d="m -1.537456,48.998586 -0.09375,0.03906 -1.330078,1.41211 -0.03516,0.08789 v 6.435547 l 0.126953,0.126953 2.933594,0.002 0.05859,-0.05664 0.03711,0.01367 1.236328,-1.390625 0.03125,-0.08594 v -6.435547 l -0.08203,-0.03125 -0.04297,-0.09766 z m 0.05469,0.255859 2.5,0.01758 -1.009766,1.138672 h -2.582031 z m 2.65625,0.226563 v 6.054687 l -0.980469,1.101563 v -6.050782 -0.002 z m -3.916018,1.183593 h 2.679687 v 6.183594 l -2.679687,-0.002 z"
       id="path1024" />
    <path
       style="color:#000000;fill:#aeaeae;stroke-linecap:square;stroke-linejoin:bevel"
       d="m -7.2386308,52.016164 -0.09961,0.101562 v 6.435547 l 0.09961,0.09961 h 11.382813 l 0.101562,-0.09961 v -6.435547 l -0.101562,-0.101562 z m 0.09961,0.201172 h 11.183593 v 6.236328 h -11.183593 z"
       id="rect22208-8-3" />
    <g
       id="path26637-4"
       transform="translate(-30.805034,17.674367)">
      <path
         style="color:#000000;fill:#aee954;stroke-width:0.2;stroke-linecap:square;stroke-linejoin:bevel"
         d="m 26.419101,34.427707 v 6.437042"
         id="path1028" />
      <path
         style="color:#000000;fill:#aeaeae;stroke-linecap:square;stroke-linejoin:bevel"
         d="m 26.318359,34.328125 v 0.09961 6.4375 0.09961 h 0.201172 v -0.09961 -6.4375 -0.09961 z"
         id="path1030" />
    </g>
    <path
       style="color:#000000;fill:#aeaeae;stroke-linecap:round;stroke-linejoin:bevel"
       d="m -3.0784748,50.650929 a 0.1,0.1 0 0 0 -0.07031,0.03125 l -1.412109,1.488282 a 0.1,0.1 0 0 0 0.002,0.140625 0.1,0.1 0 0 0 0.142578,-0.0039 l 1.412109,-1.486328 a 0.1,0.1 0 0 0 -0.002,-0.142578 0.1,0.1 0 0 0 -0.07227,-0.02734 z"
       id="path24712-4-4-9-4" />
    <g
       id="path26637-501"
       transform="translate(-30.805034,17.674367)">
      <path
         style="color:#000000;fill:#aee954;stroke-width:0.2;stroke-linecap:square;stroke-linejoin:bevel"
         d="m 29.292908,34.427707 v 6.437042"
         id="path1374" />
      <path
         style="color:#000000;fill:#aeaeae;stroke-linecap:square;stroke-linejoin:bevel"
         d="m 29.193359,34.328125 v 0.09961 6.4375 0.09961 h 0.199219 v -0.09961 -6.4375 -0.09961 z"
         id="path1376" />
    </g>
    <g
       id="path815"
       transform="translate(-30.805034,17.674367)">
      <path
         style="color:#000000;fill:#7d7d7d;stroke-width:0.2;stroke-linecap:round"
         d="m 29.258188,34.442531 1.559737,-1.579997"
         id="path1380" />
      <path
         style="color:#000000;fill:#aeaeae;stroke-linecap:round"
         d="m 30.888672,32.791016 a 0.1,0.1 0 0 0 -0.142578,0.002 L 29.1875,34.373047 a 0.1,0.1 0 0 0 0,0.140625 0.1,0.1 0 0 0 0.142578,0 l 1.558594,-1.580078 a 0.1,0.1 0 0 0 0,-0.142578 z"
         id="path1382" />
    </g>
    <g
       id="path1373"
       transform="translate(-30.805034,17.674367)">
      <path
         style="color:#000000;fill:#7d7d7d;stroke-width:0.2;stroke-linecap:round"
         d="m 30.869606,32.86326 h 2.700092"
         id="path1386" />
      <path
         style="color:#000000;fill:#aeaeae;stroke-linecap:round"
         d="m 30.869141,32.763672 a 0.1,0.1 0 0 0 -0.09961,0.09961 0.1,0.1 0 0 0 0.09961,0.09961 h 2.701171 a 0.1,0.1 0 0 0 0.09961,-0.09961 0.1,0.1 0 0 0 -0.09961,-0.09961 z"
         id="path1388" />
    </g>
    <g
       id="path26637-7"
       transform="translate(-30.805034,17.674367)">
      <path
         style="color:#000000;fill:#aee954;stroke-width:0.2;stroke-linecap:square;stroke-linejoin:bevel"
         d="m 32.083811,34.427707 v 6.437042"
         id="path1392" />
      <path
         style="color:#000000;fill:#aeaeae;stroke-linecap:square;stroke-linejoin:bevel"
         d="m 31.984375,34.328125 v 0.09961 6.4375 0.09961 h 0.199219 v -0.09961 -6.4375 -0.09961 z"
         id="path1394" />
    </g>
  </g>
</svg>
