<?xml version="1.0" encoding="UTF-8" standalone="no"?>
<!-- Created with Inkscape (http://www.inkscape.org/) -->

<svg
   width="166.68491mm"
   height="32.749832mm"
   viewBox="0 0 166.68491 32.749832"
   version="1.1"
   id="svg1"
   inkscape:version="1.3 (0e150ed, 2023-07-21)"
   sodipodi:docname="basic.svg"
   xmlns:inkscape="http://www.inkscape.org/namespaces/inkscape"
   xmlns:sodipodi="http://sodipodi.sourceforge.net/DTD/sodipodi-0.dtd"
   xmlns="http://www.w3.org/2000/svg"
   xmlns:svg="http://www.w3.org/2000/svg"
   xmlns:ns12="http://www.iki.fi/pav/software/textext/">
  <sodipodi:namedview
     id="namedview1"
     pagecolor="#ffffff"
     bordercolor="#000000"
     borderopacity="0.25"
     inkscape:showpageshadow="2"
     inkscape:pageopacity="0.0"
     inkscape:pagecheckerboard="0"
     inkscape:deskcolor="#d1d1d1"
     inkscape:document-units="mm"
     inkscape:zoom="1.0619552"
     inkscape:cx="210.46086"
     inkscape:cy="39.549691"
     inkscape:window-width="1712"
     inkscape:window-height="967"
     inkscape:window-x="0"
     inkscape:window-y="39"
     inkscape:window-maximized="1"
     inkscape:current-layer="layer1" />
  <defs
     id="defs1">
    <marker
       style="overflow:visible"
       id="Triangle"
       refX="0"
       refY="0"
       orient="auto-start-reverse"
       inkscape:stockid="Triangle arrow"
       markerWidth="1"
       markerHeight="1"
       viewBox="0 0 1 1"
       inkscape:isstock="true"
       inkscape:collect="always"
       preserveAspectRatio="xMidYMid">
      <path
         transform="scale(0.5)"
         style="fill:context-stroke;fill-rule:evenodd;stroke:context-stroke;stroke-width:1pt"
         d="M 5.77,0 -2.88,5 V -5 Z"
         id="path135" />
    </marker>
    <rect
       x="68.729218"
       y="627.17151"
       width="117.11396"
       height="26.416893"
       id="rect3" />
    <rect
       x="68.729218"
       y="627.17151"
       width="117.11396"
       height="29.721182"
       id="rect2" />
    <rect
       x="68.729218"
       y="627.17151"
       width="117.11396"
       height="26.416893"
       id="rect3-8" />
  </defs>
  <g
     inkscape:label="Layer 1"
     inkscape:groupmode="layer"
     id="layer1"
     transform="translate(-18.040605,-138.10294)">
    <g
       transform="matrix(0.853002,0,0,0.853002,22.010464,142.71088)"
       ns12:version="1.9.0"
       ns12:texconverter="pdflatex"
       ns12:pdfconverter="inkscape"
       ns12:text="$$\\min_{\\color{YellowOrange}{\\theta}} \\underbrace{\\bigl[-\\log P_{\\color{YellowOrange}{\\theta}}({\\color{PineGreen}{y}} \\mid {\\color{RoyalBlue}{x}})\\bigr]}_{\\color{BrickRed}{L}}$$"
       ns12:preamble="/Users/irhum/Library/Application Support/org.inkscape.Inkscape/config/inkscape/extensions/textext/default_packages.tex"
       ns12:scale="2.417956335145616"
       ns12:alignment="middle center"
       ns12:stroke-to-path="0"
       id="g9282"
       ns12:jacobian_sqrt="0.853002">
      <defs
         id="id-746b6245-9af7-482b-814b-d9c28ca74a6c">
        <g
           id="id-44e134f5-5caf-426d-8f42-21386f674d91">
          <g
             id="id-878946a7-10b5-48e8-9c0c-c2f3e6115deb">
            <path
               d="M 1.09375,-3.421875 V -0.75 c 0,0.4375 -0.109375,0.4375 -0.78125,0.4375 V 0 c 0.359375,-0.015625 0.859375,-0.03125 1.140625,-0.03125 0.25,0 0.765625,0.015625 1.109375,0.03125 v -0.3125 c -0.671875,0 -0.78125,0 -0.78125,-0.4375 V -2.59375 C 1.78125,-3.625 2.5,-4.1875 3.125,-4.1875 c 0.640625,0 0.75,0.53125 0.75,1.109375 V -0.75 c 0,0.4375 -0.109375,0.4375 -0.78125,0.4375 V 0 c 0.34375,-0.015625 0.859375,-0.03125 1.125,-0.03125 0.25,0 0.78125,0.015625 1.109375,0.03125 v -0.3125 c -0.65625,0 -0.765625,0 -0.765625,-0.4375 v -1.84375 c 0,-1.03125 0.703125,-1.59375 1.34375,-1.59375 0.625,0 0.734375,0.53125 0.734375,1.109375 V -0.75 c 0,0.4375 -0.109375,0.4375 -0.78125,0.4375 V 0 c 0.34375,-0.015625 0.859375,-0.03125 1.125,-0.03125 0.265625,0 0.78125,0.015625 1.125,0.03125 v -0.3125 c -0.515625,0 -0.765625,0 -0.78125,-0.296875 v -1.90625 c 0,-0.859375 0,-1.15625 -0.3125,-1.515625 -0.140625,-0.171875 -0.46875,-0.375 -1.046875,-0.375 -0.828125,0 -1.28125,0.59375 -1.4375,0.984375 C 4.390625,-4.296875 3.65625,-4.40625 3.203125,-4.40625 2.46875,-4.40625 2,-3.984375 1.71875,-3.359375 V -4.40625 L 0.3125,-4.296875 v 0.3125 c 0.703125,0 0.78125,0.0625 0.78125,0.5625 z m 0,0"
               id="id-973a600e-ea84-4884-a15e-7029b5fd29cf" />
          </g>
          <g
             id="id-7c4f254b-b4b2-450f-a155-42f1b5afb537">
            <path
               d="M 1.765625,-4.40625 0.375,-4.296875 v 0.3125 c 0.640625,0 0.734375,0.0625 0.734375,0.546875 V -0.75 c 0,0.4375 -0.109375,0.4375 -0.78125,0.4375 V 0 C 0.640625,-0.015625 1.1875,-0.03125 1.421875,-0.03125 1.78125,-0.03125 2.125,-0.015625 2.46875,0 v -0.3125 c -0.671875,0 -0.703125,-0.046875 -0.703125,-0.4375 z m 0.03125,-1.734375 c 0,-0.3125 -0.234375,-0.53125 -0.515625,-0.53125 -0.3125,0 -0.53125,0.265625 -0.53125,0.53125 0,0.265625 0.21875,0.53125 0.53125,0.53125 0.28125,0 0.515625,-0.21875 0.515625,-0.53125 z m 0,0"
               id="id-ac9e4e2f-1397-4322-b0e3-ec2ed8bbc045" />
          </g>
          <g
             id="id-8e895e6f-41d8-439a-a9ce-ebbcf0b6d696">
            <path
               d="M 1.09375,-3.421875 V -0.75 c 0,0.4375 -0.109375,0.4375 -0.78125,0.4375 V 0 c 0.359375,-0.015625 0.859375,-0.03125 1.140625,-0.03125 0.25,0 0.765625,0.015625 1.109375,0.03125 v -0.3125 c -0.671875,0 -0.78125,0 -0.78125,-0.4375 V -2.59375 C 1.78125,-3.625 2.5,-4.1875 3.125,-4.1875 c 0.640625,0 0.75,0.53125 0.75,1.109375 V -0.75 c 0,0.4375 -0.109375,0.4375 -0.78125,0.4375 V 0 c 0.34375,-0.015625 0.859375,-0.03125 1.125,-0.03125 0.25,0 0.78125,0.015625 1.109375,0.03125 v -0.3125 c -0.515625,0 -0.765625,0 -0.765625,-0.296875 v -1.90625 c 0,-0.859375 0,-1.15625 -0.3125,-1.515625 -0.140625,-0.171875 -0.46875,-0.375 -1.046875,-0.375 C 2.46875,-4.40625 2,-3.984375 1.71875,-3.359375 V -4.40625 L 0.3125,-4.296875 v 0.3125 c 0.703125,0 0.78125,0.0625 0.78125,0.5625 z m 0,0"
               id="id-87800f91-8d84-4a4d-a153-138fa411f73f" />
          </g>
          <g
             id="id-e1afb8c6-6b6a-4ee3-872b-7ac8b47d843e">
            <path
               d="M 1.765625,-6.921875 0.328125,-6.8125 V -6.5 c 0.703125,0 0.78125,0.0625 0.78125,0.5625 V -0.75 c 0,0.4375 -0.109375,0.4375 -0.78125,0.4375 V 0 C 0.65625,-0.015625 1.1875,-0.03125 1.4375,-0.03125 c 0.25,0 0.734375,0.015625 1.109375,0.03125 v -0.3125 c -0.671875,0 -0.78125,0 -0.78125,-0.4375 z m 0,0"
               id="id-5449321d-4b96-4df7-b638-c1af1a1907df" />
          </g>
          <g
             id="id-6c80bc89-f070-49ba-95fd-1395f6c22028">
            <path
               d="M 4.6875,-2.140625 C 4.6875,-3.40625 3.703125,-4.46875 2.5,-4.46875 c -1.25,0 -2.21875,1.09375 -2.21875,2.328125 0,1.296875 1.03125,2.25 2.203125,2.25 1.203125,0 2.203125,-0.984375 2.203125,-2.25 z m -2.1875,2 c -0.4375,0 -0.875,-0.203125 -1.140625,-0.671875 -0.25,-0.4375 -0.25,-1.046875 -0.25,-1.40625 0,-0.390625 0,-0.921875 0.234375,-1.359375 C 1.609375,-4.03125 2.078125,-4.25 2.484375,-4.25 c 0.4375,0 0.859375,0.21875 1.125,0.65625 0.265625,0.421875 0.265625,1 0.265625,1.375 0,0.359375 0,0.90625 -0.21875,1.34375 C 3.421875,-0.421875 2.984375,-0.140625 2.5,-0.140625 Z m 0,0"
               id="id-9b5d5c93-fbf7-449e-b1e8-42082f10f836" />
          </g>
          <g
             id="id-b9905ccd-276e-4d34-b408-405a9f8e42d6">
            <path
               d="m 2.21875,-1.71875 c -0.875,0 -0.875,-1 -0.875,-1.21875 0,-0.265625 0.015625,-0.59375 0.15625,-0.84375 0.078125,-0.109375 0.3125,-0.390625 0.71875,-0.390625 0.859375,0 0.859375,0.984375 0.859375,1.21875 0,0.265625 0,0.59375 -0.15625,0.84375 C 2.84375,-2 2.609375,-1.71875 2.21875,-1.71875 Z M 1.0625,-1.328125 c 0,-0.03125 0,-0.265625 0.15625,-0.46875 0.390625,0.28125 0.8125,0.3125 1,0.3125 0.921875,0 1.609375,-0.6875 1.609375,-1.453125 0,-0.375 -0.15625,-0.734375 -0.40625,-0.96875 C 3.78125,-4.25 4.140625,-4.296875 4.3125,-4.296875 c 0.03125,0 0.078125,0 0.109375,0.015625 C 4.3125,-4.25 4.25,-4.140625 4.25,-4.015625 c 0,0.171875 0.140625,0.28125 0.296875,0.28125 0.09375,0 0.28125,-0.0625 0.28125,-0.296875 0,-0.171875 -0.109375,-0.484375 -0.5,-0.484375 -0.203125,0 -0.640625,0.0625 -1.0625,0.46875 C 2.84375,-4.375 2.4375,-4.40625 2.21875,-4.40625 c -0.9375,0 -1.625,0.6875 -1.625,1.453125 0,0.4375 0.21875,0.8125 0.46875,1.03125 -0.125,0.140625 -0.3125,0.46875 -0.3125,0.828125 0,0.3125 0.140625,0.6875 0.453125,0.890625 -0.609375,0.15625 -0.921875,0.59375 -0.921875,0.984375 0,0.71875 0.984375,1.265625 2.203125,1.265625 1.171875,0 2.203125,-0.5 2.203125,-1.28125 0,-0.34375 -0.125,-0.859375 -0.640625,-1.140625 -0.53125,-0.265625 -1.109375,-0.265625 -1.71875,-0.265625 -0.25,0 -0.671875,0 -0.75,-0.015625 C 1.265625,-0.703125 1.0625,-1 1.0625,-1.328125 Z M 2.5,1.828125 c -1.015625,0 -1.703125,-0.515625 -1.703125,-1.046875 0,-0.453125 0.375,-0.828125 0.8125,-0.84375 h 0.59375 c 0.859375,0 1.96875,0 1.96875,0.84375 0,0.546875 -0.703125,1.046875 -1.671875,1.046875 z m 0,0"
               id="id-4cd7e88c-ed31-42f4-b0b5-e447f5aa029a" />
          </g>
          <g
             id="id-8f4ed58f-83fc-4ec2-8c83-a5d973eb7d04">
            <path
               d="m 3.296875,2.390625 c 0,-0.03125 0,-0.046875 -0.171875,-0.21875 C 1.890625,0.921875 1.5625,-0.96875 1.5625,-2.5 c 0,-1.734375 0.375,-3.46875 1.609375,-4.703125 0.125,-0.125 0.125,-0.140625 0.125,-0.171875 0,-0.078125 -0.03125,-0.109375 -0.09375,-0.109375 -0.109375,0 -1,0.6875 -1.59375,1.953125 -0.5,1.09375 -0.625,2.203125 -0.625,3.03125 0,0.78125 0.109375,1.984375 0.65625,3.125 C 2.25,1.84375 3.09375,2.5 3.203125,2.5 c 0.0625,0 0.09375,-0.03125 0.09375,-0.109375 z m 0,0"
               id="id-249c1ff8-7354-4ca6-a185-dcf9d779df6a" />
          </g>
          <g
             id="id-2ea7ef98-3052-4336-a083-9fcb06cbf0b8">
            <path
               d="m 2.875,-2.5 c 0,-0.765625 -0.109375,-1.96875 -0.65625,-3.109375 -0.59375,-1.21875 -1.453125,-1.875 -1.546875,-1.875 -0.0625,0 -0.109375,0.046875 -0.109375,0.109375 0,0.03125 0,0.046875 0.1875,0.234375 0.984375,0.984375 1.546875,2.5625 1.546875,4.640625 0,1.71875 -0.359375,3.46875 -1.59375,4.71875 C 0.5625,2.34375 0.5625,2.359375 0.5625,2.390625 0.5625,2.453125 0.609375,2.5 0.671875,2.5 0.765625,2.5 1.671875,1.8125 2.25,0.546875 2.765625,-0.546875 2.875,-1.65625 2.875,-2.5 Z m 0,0"
               id="id-069a3dc4-b9d1-470b-afca-e7a63ae3f09a" />
          </g>
          <g
             id="id-b994a23d-3ccb-4ce8-bc76-7cf2cea1eb99">
            <path
               d="m 3.5625,-3.390625 c 0,-0.734375 -0.28125,-1.515625 -0.96875,-1.515625 -1.046875,0 -2.15625,1.875 -2.15625,3.46875 0,0.828125 0.328125,1.5 0.96875,1.5 1.046875,0 2.15625,-1.890625 2.15625,-3.453125 z m -2.34375,0.84375 c 0.359375,-1.5 0.96875,-2.15625 1.375,-2.15625 0.4375,0 0.4375,0.765625 0.4375,0.890625 0,0.28125 -0.046875,0.6875 -0.1875,1.265625 z m 1.5625,0.25 C 2.578125,-1.53125 2.421875,-1.15625 2.203125,-0.8125 2,-0.453125 1.71875,-0.125 1.40625,-0.125 c -0.375,0 -0.4375,-0.53125 -0.4375,-0.90625 0,-0.453125 0.125,-1 0.1875,-1.265625 z m 0,0"
               id="id-b9169882-10f0-4888-81f5-4e356d67d36e" />
          </g>
          <g
             id="id-42335b59-900f-45a0-8cf3-dd6eb2aa32e1">
            <path
               d="m 2.875,-4.1875 c 0.0625,-0.25 0.078125,-0.328125 0.71875,-0.328125 0.21875,0 0.28125,0 0.28125,-0.140625 0,-0.015625 0,-0.109375 -0.109375,-0.109375 -0.15625,0 -0.34375,0.015625 -0.515625,0.03125 -0.171875,0 -0.390625,0 -0.5625,0 -0.140625,0 -0.328125,0 -0.484375,0 -0.140625,0 -0.3125,-0.03125 -0.453125,-0.03125 -0.03125,0 -0.140625,0 -0.140625,0.15625 0,0.09375 0.078125,0.09375 0.21875,0.09375 0.015625,0 0.140625,0 0.265625,0.015625 0.15625,0.015625 0.171875,0.03125 0.171875,0.109375 0,0 0,0.046875 -0.03125,0.140625 l -0.9375,3.703125 C 1.234375,-0.3125 1.21875,-0.25 0.6875,-0.25 c -0.109375,0 -0.203125,0 -0.203125,0.140625 C 0.484375,0 0.5625,0 0.6875,0 h 3.5 c 0.1875,0 0.1875,0 0.25,-0.140625 0.0625,-0.1875 0.59375,-1.53125 0.59375,-1.59375 0,-0.015625 -0.015625,-0.09375 -0.125,-0.09375 -0.078125,0 -0.09375,0.03125 -0.140625,0.140625 C 4.5,-1.03125 4.1875,-0.25 2.921875,-0.25 H 2.125 c -0.203125,0 -0.21875,-0.015625 -0.21875,-0.078125 0,0 0,-0.03125 0.03125,-0.140625 z m 0,0"
               id="id-d680324d-06fb-4287-b4d0-83a29c2bd821" />
          </g>
          <g
             id="id-daf276d0-c230-4f6d-8a7d-3a34884ba0cb">
            <path
               d="m 2.015625,11.546875 h 1.90625 V 11.15625 H 2.40625 V 0 h 1.515625 v -0.40625 h -1.90625 z m 0,0"
               id="id-65d365d4-5add-4606-bc4d-e5f80035a911" />
          </g>
          <g
             id="id-de143343-e5c2-4297-ac35-75af9bbcac94">
            <path
               d="M 2.140625,11.546875 V -0.40625 H 0.21875 V 0 H 1.734375 V 11.15625 H 0.21875 v 0.390625 z m 0,0"
               id="id-2a28b028-c08d-4fc6-87ec-593caa4e5e62" />
          </g>
          <g
             id="id-4ee6425e-6817-4742-8163-82f76ce3a3b9">
            <path
               d="m 4.578125,-0.921875 c 0,-0.21875 0,-0.28125 -0.125,-0.28125 -0.609375,0 -1.609375,-0.078125 -2.5,-0.515625 C 0.875,-2.265625 0.46875,-2.890625 0.21875,-3.28125 0.1875,-3.328125 0.125,-3.328125 0,-3.328125 c -0.234375,0 -0.234375,0.015625 -0.234375,0.25 V -2.90625 C 1.109375,-0.46875 3.359375,0 4.375,0 4.578125,0 4.578125,-0.015625 4.578125,-0.28125 Z m 0,0"
               id="id-3074de22-dca7-4622-a004-369da3733ae2" />
          </g>
          <g
             id="id-13a13e38-e135-4c96-8318-71572e1b1543">
            <path
               d="M 4.71875,1.71875 C 3.375,-0.734375 1.125,-1.203125 0.109375,-1.203125 c -0.203125,0 -0.203125,0.015625 -0.203125,0.28125 v 0.640625 c 0,0.234375 0,0.28125 0.140625,0.28125 0.59375,0.015625 1.59375,0.09375 2.484375,0.53125 1.078125,0.53125 1.484375,1.15625 1.734375,1.546875 0.03125,0.0625 0.09375,0.0625 0.21875,0.0625 C 4.71875,2.140625 4.71875,2.125 4.71875,1.875 Z m 0,0"
               id="id-34f7fda2-e805-4b39-bfd6-aa0d4ee9cbf9" />
          </g>
          <g
             id="id-37f40b07-3516-47ce-8005-fc6b6ea33ff4">
            <path
               d="m 4.578125,-0.921875 c 0,-0.265625 0,-0.28125 -0.203125,-0.28125 -1.015625,0 -3.265625,0.484375 -4.609375,2.921875 V 1.875 c 0,0.25 0,0.265625 0.234375,0.265625 0.1875,0 0.203125,-0.015625 0.25,-0.09375 C 1.0625,0.75 2.4375,0.046875 4.46875,0 4.578125,0 4.578125,-0.0625 4.578125,-0.28125 Z m 0,0"
               id="id-c656cf24-3e26-47df-9487-51af49ea9d71" />
          </g>
          <g
             id="id-e79c27e9-dd61-43fa-9445-c913ba02036c">
            <path
               d="m 4.71875,-3.078125 c 0,-0.234375 0,-0.25 -0.234375,-0.25 -0.1875,0 -0.203125,0.015625 -0.25,0.078125 -0.8125,1.3125 -2.1875,2.015625 -4.21875,2.046875 -0.109375,0 -0.109375,0.078125 -0.109375,0.28125 v 0.640625 c 0,0.265625 0,0.28125 0.203125,0.28125 C 1.125,0 3.375,-0.484375 4.71875,-2.90625 Z m 0,0"
               id="id-d9f9959c-6747-4fb7-b1b0-1b5850660978" />
          </g>
          <g
             id="id-a1ca29ba-d657-46dc-b358-0ba1ac5c9f94">
            <path
               d="m 6.5625,-2.296875 c 0.171875,0 0.359375,0 0.359375,-0.203125 0,-0.1875 -0.1875,-0.1875 -0.359375,-0.1875 H 1.171875 c -0.171875,0 -0.34375,0 -0.34375,0.1875 0,0.203125 0.171875,0.203125 0.34375,0.203125 z m 0,0"
               id="id-359d1964-e5a1-45f6-a3c3-39377987c21e" />
          </g>
          <g
             id="id-9d4aba00-d1dc-4c7d-9201-d1190faf6853">
            <path
               d="m 1.578125,-7.125 c 0,-0.171875 0,-0.359375 -0.1875,-0.359375 -0.203125,0 -0.203125,0.1875 -0.203125,0.359375 v 9.265625 c 0,0.171875 0,0.359375 0.203125,0.359375 0.1875,0 0.1875,-0.1875 0.1875,-0.359375 z m 0,0"
               id="id-50e791e4-1594-4356-a565-35c88e28c49a" />
          </g>
          <g
             id="id-b721d32e-502c-4a32-8f69-317857fca01c">
            <path
               d="M 3.015625,-3.15625 H 4.71875 c 1.40625,0 2.796875,-1.03125 2.796875,-2.140625 0,-0.78125 -0.65625,-1.515625 -1.96875,-1.515625 h -3.21875 c -0.1875,0 -0.296875,0 -0.296875,0.1875 0,0.125 0.078125,0.125 0.28125,0.125 0.125,0 0.3125,0.015625 0.421875,0.015625 0.171875,0.03125 0.21875,0.046875 0.21875,0.171875 0,0.03125 0,0.0625 -0.03125,0.1875 l -1.34375,5.34375 c -0.09375,0.390625 -0.109375,0.46875 -0.90625,0.46875 -0.15625,0 -0.265625,0 -0.265625,0.1875 C 0.40625,0 0.515625,0 0.546875,0 0.828125,0 1.53125,-0.03125 1.8125,-0.03125 c 0.21875,0 0.4375,0.015625 0.640625,0.015625 0.21875,0 0.4375,0.015625 0.640625,0.015625 0.078125,0 0.203125,0 0.203125,-0.203125 0,-0.109375 -0.09375,-0.109375 -0.28125,-0.109375 -0.359375,0 -0.640625,0 -0.640625,-0.171875 0,-0.0625 0.015625,-0.109375 0.03125,-0.171875 z M 3.734375,-6.125 C 3.828125,-6.46875 3.84375,-6.5 4.28125,-6.5 h 0.953125 c 0.828125,0 1.359375,0.265625 1.359375,0.953125 0,0.390625 -0.203125,1.25 -0.59375,1.609375 -0.5,0.453125 -1.09375,0.53125 -1.53125,0.53125 H 3.0625 Z m 0,0"
               id="id-fae505a7-65ad-4780-9016-b76656a5c3c8" />
          </g>
          <g
             id="id-fc2ba976-99ab-4e16-862b-79b35f7dc8cb">
            <path
               d="m 4.84375,-3.796875 c 0.046875,-0.140625 0.046875,-0.15625 0.046875,-0.234375 0,-0.171875 -0.140625,-0.265625 -0.296875,-0.265625 -0.09375,0 -0.25,0.0625 -0.34375,0.203125 -0.015625,0.0625 -0.109375,0.359375 -0.140625,0.546875 -0.078125,0.25 -0.140625,0.53125 -0.203125,0.796875 l -0.453125,1.796875 c -0.03125,0.140625 -0.46875,0.84375 -1.125,0.84375 -0.5,0 -0.609375,-0.4375 -0.609375,-0.8125 C 1.71875,-1.375 1.890625,-2 2.21875,-2.875 2.375,-3.28125 2.421875,-3.390625 2.421875,-3.59375 c 0,-0.4375 -0.3125,-0.8125 -0.8125,-0.8125 -0.953125,0 -1.3125,1.453125 -1.3125,1.53125 0,0.109375 0.09375,0.109375 0.109375,0.109375 0.109375,0 0.109375,-0.03125 0.15625,-0.1875 0.28125,-0.9375 0.671875,-1.234375 1.015625,-1.234375 0.078125,0 0.25,0 0.25,0.3125 0,0.25 -0.109375,0.515625 -0.171875,0.703125 -0.40625,1.0625 -0.578125,1.625 -0.578125,2.09375 0,0.890625 0.625,1.1875 1.21875,1.1875 0.390625,0 0.71875,-0.171875 1,-0.453125 -0.125,0.515625 -0.25,1.015625 -0.640625,1.546875 -0.265625,0.328125 -0.640625,0.625 -1.09375,0.625 -0.140625,0 -0.59375,-0.03125 -0.765625,-0.421875 0.15625,0 0.296875,0 0.421875,-0.125 C 1.328125,1.203125 1.421875,1.0625 1.421875,0.875 1.421875,0.5625 1.15625,0.53125 1.0625,0.53125 0.828125,0.53125 0.5,0.6875 0.5,1.171875 c 0,0.5 0.4375,0.875 1.0625,0.875 1.015625,0 2.046875,-0.90625 2.328125,-2.03125 z m 0,0"
               id="id-260618e9-bcc2-4df8-8d31-9b0500e7d2a8" />
          </g>
          <g
             id="id-2518f763-eb1e-4ac1-b891-ed21d10ad143">
            <path
               d="M 3.328125,-3.015625 C 3.390625,-3.265625 3.625,-4.1875 4.3125,-4.1875 c 0.046875,0 0.296875,0 0.5,0.125 C 4.53125,-4 4.34375,-3.765625 4.34375,-3.515625 c 0,0.15625 0.109375,0.34375 0.375,0.34375 0.21875,0 0.53125,-0.171875 0.53125,-0.578125 0,-0.515625 -0.578125,-0.65625 -0.921875,-0.65625 -0.578125,0 -0.921875,0.53125 -1.046875,0.75 -0.25,-0.65625 -0.78125,-0.75 -1.078125,-0.75 -1.03125,0 -1.609375,1.28125 -1.609375,1.53125 0,0.109375 0.109375,0.109375 0.125,0.109375 0.078125,0 0.109375,-0.03125 0.125,-0.109375 0.34375,-1.0625 1,-1.3125 1.34375,-1.3125 0.1875,0 0.53125,0.09375 0.53125,0.671875 0,0.3125 -0.171875,0.96875 -0.53125,2.375 -0.15625,0.609375 -0.515625,1.03125 -0.953125,1.03125 -0.0625,0 -0.28125,0 -0.5,-0.125 0.25,-0.0625 0.46875,-0.265625 0.46875,-0.546875 0,-0.265625 -0.21875,-0.34375 -0.359375,-0.34375 -0.3125,0 -0.546875,0.25 -0.546875,0.578125 0,0.453125 0.484375,0.65625 0.921875,0.65625 0.671875,0 1.03125,-0.703125 1.046875,-0.75 0.125,0.359375 0.484375,0.75 1.078125,0.75 1.03125,0 1.59375,-1.28125 1.59375,-1.53125 0,-0.109375 -0.078125,-0.109375 -0.109375,-0.109375 -0.09375,0 -0.109375,0.046875 -0.140625,0.109375 -0.328125,1.078125 -1,1.3125 -1.3125,1.3125 -0.390625,0 -0.546875,-0.3125 -0.546875,-0.65625 0,-0.21875 0.046875,-0.4375 0.15625,-0.875 z m 0,0"
               id="id-58e99d44-850b-463b-8347-ff8f85c70a7b" />
          </g>
        </g>
      </defs>
      <g
         fill="#000000"
         fill-opacity="1"
         id="id-5b55bf06-c6f0-4437-be47-6a8e9083cd17"
         transform="translate(-261.738,-138.244)">
        <g
           transform="translate(261.426,146.72)"
           id="g2383">
          <path
             d="M 1.09375,-3.421875 V -0.75 c 0,0.4375 -0.109375,0.4375 -0.78125,0.4375 V 0 c 0.359375,-0.015625 0.859375,-0.03125 1.140625,-0.03125 0.25,0 0.765625,0.015625 1.109375,0.03125 v -0.3125 c -0.671875,0 -0.78125,0 -0.78125,-0.4375 V -2.59375 C 1.78125,-3.625 2.5,-4.1875 3.125,-4.1875 c 0.640625,0 0.75,0.53125 0.75,1.109375 V -0.75 c 0,0.4375 -0.109375,0.4375 -0.78125,0.4375 V 0 c 0.34375,-0.015625 0.859375,-0.03125 1.125,-0.03125 0.25,0 0.78125,0.015625 1.109375,0.03125 v -0.3125 c -0.65625,0 -0.765625,0 -0.765625,-0.4375 v -1.84375 c 0,-1.03125 0.703125,-1.59375 1.34375,-1.59375 0.625,0 0.734375,0.53125 0.734375,1.109375 V -0.75 c 0,0.4375 -0.109375,0.4375 -0.78125,0.4375 V 0 c 0.34375,-0.015625 0.859375,-0.03125 1.125,-0.03125 0.265625,0 0.78125,0.015625 1.125,0.03125 v -0.3125 c -0.515625,0 -0.765625,0 -0.78125,-0.296875 v -1.90625 c 0,-0.859375 0,-1.15625 -0.3125,-1.515625 -0.140625,-0.171875 -0.46875,-0.375 -1.046875,-0.375 -0.828125,0 -1.28125,0.59375 -1.4375,0.984375 C 4.390625,-4.296875 3.65625,-4.40625 3.203125,-4.40625 2.46875,-4.40625 2,-3.984375 1.71875,-3.359375 V -4.40625 L 0.3125,-4.296875 v 0.3125 c 0.703125,0 0.78125,0.0625 0.78125,0.5625 z m 0,0"
             id="id-ffc3f9dc-d5cc-4fe9-b1dc-42f069343836" />
        </g>
        <g
           transform="translate(269.728,146.72)"
           id="g8700">
          <path
             d="M 1.765625,-4.40625 0.375,-4.296875 v 0.3125 c 0.640625,0 0.734375,0.0625 0.734375,0.546875 V -0.75 c 0,0.4375 -0.109375,0.4375 -0.78125,0.4375 V 0 C 0.640625,-0.015625 1.1875,-0.03125 1.421875,-0.03125 1.78125,-0.03125 2.125,-0.015625 2.46875,0 v -0.3125 c -0.671875,0 -0.703125,-0.046875 -0.703125,-0.4375 z m 0.03125,-1.734375 c 0,-0.3125 -0.234375,-0.53125 -0.515625,-0.53125 -0.3125,0 -0.53125,0.265625 -0.53125,0.53125 0,0.265625 0.21875,0.53125 0.53125,0.53125 0.28125,0 0.515625,-0.21875 0.515625,-0.53125 z m 0,0"
             id="id-c6b7650a-7650-4666-8317-5dc5cb047add" />
        </g>
        <g
           transform="translate(272.495,146.72)"
           id="g7499">
          <path
             d="M 1.09375,-3.421875 V -0.75 c 0,0.4375 -0.109375,0.4375 -0.78125,0.4375 V 0 c 0.359375,-0.015625 0.859375,-0.03125 1.140625,-0.03125 0.25,0 0.765625,0.015625 1.109375,0.03125 v -0.3125 c -0.671875,0 -0.78125,0 -0.78125,-0.4375 V -2.59375 C 1.78125,-3.625 2.5,-4.1875 3.125,-4.1875 c 0.640625,0 0.75,0.53125 0.75,1.109375 V -0.75 c 0,0.4375 -0.109375,0.4375 -0.78125,0.4375 V 0 c 0.34375,-0.015625 0.859375,-0.03125 1.125,-0.03125 0.25,0 0.78125,0.015625 1.109375,0.03125 v -0.3125 c -0.515625,0 -0.765625,0 -0.765625,-0.296875 v -1.90625 c 0,-0.859375 0,-1.15625 -0.3125,-1.515625 -0.140625,-0.171875 -0.46875,-0.375 -1.046875,-0.375 C 2.46875,-4.40625 2,-3.984375 1.71875,-3.359375 V -4.40625 L 0.3125,-4.296875 v 0.3125 c 0.703125,0 0.78125,0.0625 0.78125,0.5625 z m 0,0"
             id="id-e0af2361-8873-41a0-83d6-0a916e99ec22" />
        </g>
      </g>
      <g
         fill="#f8980f"
         fill-opacity="1"
         id="id-29d89e45-776d-4e05-bc54-a72c9bf43cac"
         transform="translate(-261.738,-138.244)">
        <g
           transform="translate(267.724,153.223)"
           id="g1282">
          <path
             d="m 3.5625,-3.390625 c 0,-0.734375 -0.28125,-1.515625 -0.96875,-1.515625 -1.046875,0 -2.15625,1.875 -2.15625,3.46875 0,0.828125 0.328125,1.5 0.96875,1.5 1.046875,0 2.15625,-1.890625 2.15625,-3.453125 z m -2.34375,0.84375 c 0.359375,-1.5 0.96875,-2.15625 1.375,-2.15625 0.4375,0 0.4375,0.765625 0.4375,0.890625 0,0.28125 -0.046875,0.6875 -0.1875,1.265625 z m 1.5625,0.25 C 2.578125,-1.53125 2.421875,-1.15625 2.203125,-0.8125 2,-0.453125 1.71875,-0.125 1.40625,-0.125 c -0.375,0 -0.4375,-0.53125 -0.4375,-0.90625 0,-0.453125 0.125,-1 0.1875,-1.265625 z m 0,0"
             id="id-4672179d-afc0-421b-abf2-3891bb025304" />
        </g>
      </g>
      <g
         fill="#000000"
         fill-opacity="1"
         id="id-793d036b-a823-4b91-8e00-2245d96753bd"
         transform="translate(-261.738,-138.244)">
        <g
           transform="translate(279.691,138.65)"
           id="g3199">
          <path
             d="m 2.015625,11.546875 h 1.90625 V 11.15625 H 2.40625 V 0 h 1.515625 v -0.40625 h -1.90625 z m 0,0"
             id="id-b084f853-dd41-4764-a9d4-90da1d60e7f7" />
        </g>
      </g>
      <g
         fill="#000000"
         fill-opacity="1"
         id="id-8f0b76e5-cc10-4b3f-ba68-e32781151b3c"
         transform="translate(-261.738,-138.244)">
        <g
           transform="translate(283.842,146.72)"
           id="g3824">
          <path
             d="m 6.5625,-2.296875 c 0.171875,0 0.359375,0 0.359375,-0.203125 0,-0.1875 -0.1875,-0.1875 -0.359375,-0.1875 H 1.171875 c -0.171875,0 -0.34375,0 -0.34375,0.1875 0,0.203125 0.171875,0.203125 0.34375,0.203125 z m 0,0"
             id="id-143131f9-c638-45ef-9096-a1c1b823f2b2" />
        </g>
      </g>
      <g
         fill="#000000"
         fill-opacity="1"
         id="id-d366b18c-227c-45cd-b80c-aebd0c1fa6de"
         transform="translate(-261.738,-138.244)">
        <g
           transform="translate(293.251,146.72)"
           id="g9904">
          <path
             d="M 1.765625,-6.921875 0.328125,-6.8125 V -6.5 c 0.703125,0 0.78125,0.0625 0.78125,0.5625 V -0.75 c 0,0.4375 -0.109375,0.4375 -0.78125,0.4375 V 0 C 0.65625,-0.015625 1.1875,-0.03125 1.4375,-0.03125 c 0.25,0 0.734375,0.015625 1.109375,0.03125 v -0.3125 c -0.671875,0 -0.78125,0 -0.78125,-0.4375 z m 0,0"
             id="id-f9727aa0-5d07-47ca-8a32-c9b4f40b6158" />
        </g>
        <g
           transform="translate(296.019,146.72)"
           id="g3600">
          <path
             d="M 4.6875,-2.140625 C 4.6875,-3.40625 3.703125,-4.46875 2.5,-4.46875 c -1.25,0 -2.21875,1.09375 -2.21875,2.328125 0,1.296875 1.03125,2.25 2.203125,2.25 1.203125,0 2.203125,-0.984375 2.203125,-2.25 z m -2.1875,2 c -0.4375,0 -0.875,-0.203125 -1.140625,-0.671875 -0.25,-0.4375 -0.25,-1.046875 -0.25,-1.40625 0,-0.390625 0,-0.921875 0.234375,-1.359375 C 1.609375,-4.03125 2.078125,-4.25 2.484375,-4.25 c 0.4375,0 0.859375,0.21875 1.125,0.65625 0.265625,0.421875 0.265625,1 0.265625,1.375 0,0.359375 0,0.90625 -0.21875,1.34375 C 3.421875,-0.421875 2.984375,-0.140625 2.5,-0.140625 Z m 0,0"
             id="id-5c8603e0-a059-4c6d-a537-1899deec2e86" />
        </g>
        <g
           transform="translate(301,146.72)"
           id="g1176">
          <path
             d="m 2.21875,-1.71875 c -0.875,0 -0.875,-1 -0.875,-1.21875 0,-0.265625 0.015625,-0.59375 0.15625,-0.84375 0.078125,-0.109375 0.3125,-0.390625 0.71875,-0.390625 0.859375,0 0.859375,0.984375 0.859375,1.21875 0,0.265625 0,0.59375 -0.15625,0.84375 C 2.84375,-2 2.609375,-1.71875 2.21875,-1.71875 Z M 1.0625,-1.328125 c 0,-0.03125 0,-0.265625 0.15625,-0.46875 0.390625,0.28125 0.8125,0.3125 1,0.3125 0.921875,0 1.609375,-0.6875 1.609375,-1.453125 0,-0.375 -0.15625,-0.734375 -0.40625,-0.96875 C 3.78125,-4.25 4.140625,-4.296875 4.3125,-4.296875 c 0.03125,0 0.078125,0 0.109375,0.015625 C 4.3125,-4.25 4.25,-4.140625 4.25,-4.015625 c 0,0.171875 0.140625,0.28125 0.296875,0.28125 0.09375,0 0.28125,-0.0625 0.28125,-0.296875 0,-0.171875 -0.109375,-0.484375 -0.5,-0.484375 -0.203125,0 -0.640625,0.0625 -1.0625,0.46875 C 2.84375,-4.375 2.4375,-4.40625 2.21875,-4.40625 c -0.9375,0 -1.625,0.6875 -1.625,1.453125 0,0.4375 0.21875,0.8125 0.46875,1.03125 -0.125,0.140625 -0.3125,0.46875 -0.3125,0.828125 0,0.3125 0.140625,0.6875 0.453125,0.890625 -0.609375,0.15625 -0.921875,0.59375 -0.921875,0.984375 0,0.71875 0.984375,1.265625 2.203125,1.265625 1.171875,0 2.203125,-0.5 2.203125,-1.28125 0,-0.34375 -0.125,-0.859375 -0.640625,-1.140625 -0.53125,-0.265625 -1.109375,-0.265625 -1.71875,-0.265625 -0.25,0 -0.671875,0 -0.75,-0.015625 C 1.265625,-0.703125 1.0625,-1 1.0625,-1.328125 Z M 2.5,1.828125 c -1.015625,0 -1.703125,-0.515625 -1.703125,-1.046875 0,-0.453125 0.375,-0.828125 0.8125,-0.84375 h 0.59375 c 0.859375,0 1.96875,0 1.96875,0.84375 0,0.546875 -0.703125,1.046875 -1.671875,1.046875 z m 0,0"
             id="id-e42bb83a-f82e-44b2-bf7b-148504618f27" />
        </g>
      </g>
      <g
         fill="#000000"
         fill-opacity="1"
         id="id-578ac22b-0f59-4094-8912-598587def711"
         transform="translate(-261.738,-138.244)">
        <g
           transform="translate(307.78,146.72)"
           id="g9382">
          <path
             d="M 3.015625,-3.15625 H 4.71875 c 1.40625,0 2.796875,-1.03125 2.796875,-2.140625 0,-0.78125 -0.65625,-1.515625 -1.96875,-1.515625 h -3.21875 c -0.1875,0 -0.296875,0 -0.296875,0.1875 0,0.125 0.078125,0.125 0.28125,0.125 0.125,0 0.3125,0.015625 0.421875,0.015625 0.171875,0.03125 0.21875,0.046875 0.21875,0.171875 0,0.03125 0,0.0625 -0.03125,0.1875 l -1.34375,5.34375 c -0.09375,0.390625 -0.109375,0.46875 -0.90625,0.46875 -0.15625,0 -0.265625,0 -0.265625,0.1875 C 0.40625,0 0.515625,0 0.546875,0 0.828125,0 1.53125,-0.03125 1.8125,-0.03125 c 0.21875,0 0.4375,0.015625 0.640625,0.015625 0.21875,0 0.4375,0.015625 0.640625,0.015625 0.078125,0 0.203125,0 0.203125,-0.203125 0,-0.109375 -0.09375,-0.109375 -0.28125,-0.109375 -0.359375,0 -0.640625,0 -0.640625,-0.171875 0,-0.0625 0.015625,-0.109375 0.03125,-0.171875 z M 3.734375,-6.125 C 3.828125,-6.46875 3.84375,-6.5 4.28125,-6.5 h 0.953125 c 0.828125,0 1.359375,0.265625 1.359375,0.953125 0,0.390625 -0.203125,1.25 -0.59375,1.609375 -0.5,0.453125 -1.09375,0.53125 -1.53125,0.53125 H 3.0625 Z m 0,0"
             id="id-264b9011-cf18-41d9-9177-0a8db3a4e00f" />
        </g>
      </g>
      <g
         fill="#f8980f"
         fill-opacity="1"
         id="id-7bc94c56-5007-43e3-a12e-e1a60b0ee573"
         transform="translate(-261.738,-138.244)">
        <g
           transform="translate(314.176,148.214)"
           id="g4354">
          <path
             d="m 3.5625,-3.390625 c 0,-0.734375 -0.28125,-1.515625 -0.96875,-1.515625 -1.046875,0 -2.15625,1.875 -2.15625,3.46875 0,0.828125 0.328125,1.5 0.96875,1.5 1.046875,0 2.15625,-1.890625 2.15625,-3.453125 z m -2.34375,0.84375 c 0.359375,-1.5 0.96875,-2.15625 1.375,-2.15625 0.4375,0 0.4375,0.765625 0.4375,0.890625 0,0.28125 -0.046875,0.6875 -0.1875,1.265625 z m 1.5625,0.25 C 2.578125,-1.53125 2.421875,-1.15625 2.203125,-0.8125 2,-0.453125 1.71875,-0.125 1.40625,-0.125 c -0.375,0 -0.4375,-0.53125 -0.4375,-0.90625 0,-0.453125 0.125,-1 0.1875,-1.265625 z m 0,0"
             id="id-72cef35e-6fd8-40d5-b166-12352e2e425e" />
        </g>
      </g>
      <g
         fill="#000000"
         fill-opacity="1"
         id="id-5362066d-79dd-4415-aa5c-94bd01faee6e"
         transform="translate(-261.738,-138.244)">
        <g
           transform="translate(318.684,146.72)"
           id="g8307">
          <path
             d="m 3.296875,2.390625 c 0,-0.03125 0,-0.046875 -0.171875,-0.21875 C 1.890625,0.921875 1.5625,-0.96875 1.5625,-2.5 c 0,-1.734375 0.375,-3.46875 1.609375,-4.703125 0.125,-0.125 0.125,-0.140625 0.125,-0.171875 0,-0.078125 -0.03125,-0.109375 -0.09375,-0.109375 -0.109375,0 -1,0.6875 -1.59375,1.953125 -0.5,1.09375 -0.625,2.203125 -0.625,3.03125 0,0.78125 0.109375,1.984375 0.65625,3.125 C 2.25,1.84375 3.09375,2.5 3.203125,2.5 c 0.0625,0 0.09375,-0.03125 0.09375,-0.109375 z m 0,0"
             id="id-ca9b5ba3-6f37-4a9c-8580-325b3746a279" />
        </g>
      </g>
      <g
         fill="#0f886e"
         fill-opacity="1"
         id="id-d13dcb2e-57d2-497e-b2b6-6d2e2e3f10ec"
         transform="translate(-261.738,-138.244)">
        <g
           transform="translate(322.558,146.72)"
           id="g2930">
          <path
             d="m 4.84375,-3.796875 c 0.046875,-0.140625 0.046875,-0.15625 0.046875,-0.234375 0,-0.171875 -0.140625,-0.265625 -0.296875,-0.265625 -0.09375,0 -0.25,0.0625 -0.34375,0.203125 -0.015625,0.0625 -0.109375,0.359375 -0.140625,0.546875 -0.078125,0.25 -0.140625,0.53125 -0.203125,0.796875 l -0.453125,1.796875 c -0.03125,0.140625 -0.46875,0.84375 -1.125,0.84375 -0.5,0 -0.609375,-0.4375 -0.609375,-0.8125 C 1.71875,-1.375 1.890625,-2 2.21875,-2.875 2.375,-3.28125 2.421875,-3.390625 2.421875,-3.59375 c 0,-0.4375 -0.3125,-0.8125 -0.8125,-0.8125 -0.953125,0 -1.3125,1.453125 -1.3125,1.53125 0,0.109375 0.09375,0.109375 0.109375,0.109375 0.109375,0 0.109375,-0.03125 0.15625,-0.1875 0.28125,-0.9375 0.671875,-1.234375 1.015625,-1.234375 0.078125,0 0.25,0 0.25,0.3125 0,0.25 -0.109375,0.515625 -0.171875,0.703125 -0.40625,1.0625 -0.578125,1.625 -0.578125,2.09375 0,0.890625 0.625,1.1875 1.21875,1.1875 0.390625,0 0.71875,-0.171875 1,-0.453125 -0.125,0.515625 -0.25,1.015625 -0.640625,1.546875 -0.265625,0.328125 -0.640625,0.625 -1.09375,0.625 -0.140625,0 -0.59375,-0.03125 -0.765625,-0.421875 0.15625,0 0.296875,0 0.421875,-0.125 C 1.328125,1.203125 1.421875,1.0625 1.421875,0.875 1.421875,0.5625 1.15625,0.53125 1.0625,0.53125 0.828125,0.53125 0.5,0.6875 0.5,1.171875 c 0,0.5 0.4375,0.875 1.0625,0.875 1.015625,0 2.046875,-0.90625 2.328125,-2.03125 z m 0,0"
             id="id-4108c212-6fbe-49b9-915e-f402afd11711" />
        </g>
      </g>
      <g
         fill="#000000"
         fill-opacity="1"
         id="id-b03e93da-3901-477f-b146-b2d668375c2f"
         transform="translate(-261.738,-138.244)">
        <g
           transform="translate(330.567,146.72)"
           id="g8953">
          <path
             d="m 1.578125,-7.125 c 0,-0.171875 0,-0.359375 -0.1875,-0.359375 -0.203125,0 -0.203125,0.1875 -0.203125,0.359375 v 9.265625 c 0,0.171875 0,0.359375 0.203125,0.359375 0.1875,0 0.1875,-0.1875 0.1875,-0.359375 z m 0,0"
             id="id-90cc77a4-6f97-4151-9f88-bbaf4fc1bf45" />
        </g>
      </g>
      <g
         fill="#176fc1"
         fill-opacity="1"
         id="id-e95b44b9-99a7-400d-8e7e-be91a84e41fe"
         transform="translate(-261.738,-138.244)">
        <g
           transform="translate(336.102,146.72)"
           id="g4625">
          <path
             d="M 3.328125,-3.015625 C 3.390625,-3.265625 3.625,-4.1875 4.3125,-4.1875 c 0.046875,0 0.296875,0 0.5,0.125 C 4.53125,-4 4.34375,-3.765625 4.34375,-3.515625 c 0,0.15625 0.109375,0.34375 0.375,0.34375 0.21875,0 0.53125,-0.171875 0.53125,-0.578125 0,-0.515625 -0.578125,-0.65625 -0.921875,-0.65625 -0.578125,0 -0.921875,0.53125 -1.046875,0.75 -0.25,-0.65625 -0.78125,-0.75 -1.078125,-0.75 -1.03125,0 -1.609375,1.28125 -1.609375,1.53125 0,0.109375 0.109375,0.109375 0.125,0.109375 0.078125,0 0.109375,-0.03125 0.125,-0.109375 0.34375,-1.0625 1,-1.3125 1.34375,-1.3125 0.1875,0 0.53125,0.09375 0.53125,0.671875 0,0.3125 -0.171875,0.96875 -0.53125,2.375 -0.15625,0.609375 -0.515625,1.03125 -0.953125,1.03125 -0.0625,0 -0.28125,0 -0.5,-0.125 0.25,-0.0625 0.46875,-0.265625 0.46875,-0.546875 0,-0.265625 -0.21875,-0.34375 -0.359375,-0.34375 -0.3125,0 -0.546875,0.25 -0.546875,0.578125 0,0.453125 0.484375,0.65625 0.921875,0.65625 0.671875,0 1.03125,-0.703125 1.046875,-0.75 0.125,0.359375 0.484375,0.75 1.078125,0.75 1.03125,0 1.59375,-1.28125 1.59375,-1.53125 0,-0.109375 -0.078125,-0.109375 -0.109375,-0.109375 -0.09375,0 -0.109375,0.046875 -0.140625,0.109375 -0.328125,1.078125 -1,1.3125 -1.3125,1.3125 -0.390625,0 -0.546875,-0.3125 -0.546875,-0.65625 0,-0.21875 0.046875,-0.4375 0.15625,-0.875 z m 0,0"
             id="id-475b3ade-9b2f-4e15-998b-55450e6859c2" />
        </g>
      </g>
      <g
         fill="#000000"
         fill-opacity="1"
         id="id-febcb4c4-d7fc-4755-ada4-5e6cefa7bd3b"
         transform="translate(-261.738,-138.244)">
        <g
           transform="translate(341.796,146.72)"
           id="g7450">
          <path
             d="m 2.875,-2.5 c 0,-0.765625 -0.109375,-1.96875 -0.65625,-3.109375 -0.59375,-1.21875 -1.453125,-1.875 -1.546875,-1.875 -0.0625,0 -0.109375,0.046875 -0.109375,0.109375 0,0.03125 0,0.046875 0.1875,0.234375 0.984375,0.984375 1.546875,2.5625 1.546875,4.640625 0,1.71875 -0.359375,3.46875 -1.59375,4.71875 C 0.5625,2.34375 0.5625,2.359375 0.5625,2.390625 0.5625,2.453125 0.609375,2.5 0.671875,2.5 0.765625,2.5 1.671875,1.8125 2.25,0.546875 2.765625,-0.546875 2.875,-1.65625 2.875,-2.5 Z m 0,0"
             id="id-1cc5b794-d656-44cc-b791-72add98f8809" />
        </g>
      </g>
      <g
         fill="#000000"
         fill-opacity="1"
         id="id-055165d1-91b8-489d-9d07-dce9f0a7b4ad"
         transform="translate(-261.738,-138.244)">
        <g
           transform="translate(345.67,138.65)"
           id="g2912">
          <path
             d="M 2.140625,11.546875 V -0.40625 H 0.21875 V 0 H 1.734375 V 11.15625 H 0.21875 v 0.390625 z m 0,0"
             id="id-8002da72-416d-42cc-ab51-73e841ba9dd9" />
        </g>
      </g>
      <g
         fill="#000000"
         fill-opacity="1"
         id="id-4d982359-8e4d-4247-81cd-8fad16b4a531"
         transform="translate(-261.738,-138.244)">
        <g
           transform="translate(279.691,154.391)"
           id="g3368">
          <path
             d="m 4.578125,-0.921875 c 0,-0.21875 0,-0.28125 -0.125,-0.28125 -0.609375,0 -1.609375,-0.078125 -2.5,-0.515625 C 0.875,-2.265625 0.46875,-2.890625 0.21875,-3.28125 0.1875,-3.328125 0.125,-3.328125 0,-3.328125 c -0.234375,0 -0.234375,0.015625 -0.234375,0.25 V -2.90625 C 1.109375,-0.46875 3.359375,0 4.375,0 4.578125,0 4.578125,-0.015625 4.578125,-0.28125 Z m 0,0"
             id="id-f308d08b-233a-44dd-a34f-99bfbf92112a" />
        </g>
      </g>
      <path
         fill-rule="nonzero"
         fill="#000000"
         fill-opacity="1"
         d="m 22.437285,16.146876 h 26.09766 v -1.19531 h -26.09766 z m 0,0"
         id="id-6617677c-2ad2-4838-a89e-1a31d4ea9cf1" />
      <g
         fill="#000000"
         fill-opacity="1"
         id="id-9f9db7a9-8602-491f-8df5-177d0e3f9785"
         transform="translate(-261.738,-138.244)">
        <g
           transform="translate(310.273,154.391)"
           id="g4119">
          <path
             d="M 4.71875,1.71875 C 3.375,-0.734375 1.125,-1.203125 0.109375,-1.203125 c -0.203125,0 -0.203125,0.015625 -0.203125,0.28125 v 0.640625 c 0,0.234375 0,0.28125 0.140625,0.28125 0.59375,0.015625 1.59375,0.09375 2.484375,0.53125 1.078125,0.53125 1.484375,1.15625 1.734375,1.546875 0.03125,0.0625 0.09375,0.0625 0.21875,0.0625 C 4.71875,2.140625 4.71875,2.125 4.71875,1.875 Z m 0,0"
             id="id-56abd530-eef9-43ab-ab35-18aabace0049" />
        </g>
        <g
           transform="translate(314.756,154.391)"
           id="g1074">
          <path
             d="m 4.578125,-0.921875 c 0,-0.265625 0,-0.28125 -0.203125,-0.28125 -1.015625,0 -3.265625,0.484375 -4.609375,2.921875 V 1.875 c 0,0.25 0,0.265625 0.234375,0.265625 0.1875,0 0.203125,-0.015625 0.25,-0.09375 C 1.0625,0.75 2.4375,0.046875 4.46875,0 4.578125,0 4.578125,-0.0625 4.578125,-0.28125 Z m 0,0"
             id="id-c0f23c73-e061-4216-8dd8-79517710f72a" />
        </g>
      </g>
      <path
         fill-rule="nonzero"
         fill="#000000"
         fill-opacity="1"
         d="m 57.499785,16.146876 h 26.10156 v -1.19531 h -26.10156 z m 0,0"
         id="id-265f187c-cfe8-4e70-b693-cfdd5307f7fe" />
      <g
         fill="#000000"
         fill-opacity="1"
         id="id-42cd57a4-0f79-49bd-9e35-72f6220af874"
         transform="translate(-261.738,-138.244)">
        <g
           transform="translate(345.338,154.391)"
           id="g1353">
          <path
             d="m 4.71875,-3.078125 c 0,-0.234375 0,-0.25 -0.234375,-0.25 -0.1875,0 -0.203125,0.015625 -0.25,0.078125 -0.8125,1.3125 -2.1875,2.015625 -4.21875,2.046875 -0.109375,0 -0.109375,0.078125 -0.109375,0.28125 v 0.640625 c 0,0.265625 0,0.28125 0.203125,0.28125 C 1.125,0 3.375,-0.484375 4.71875,-2.90625 Z m 0,0"
             id="id-886cab07-23fa-421d-9584-821052c2aa78" />
        </g>
      </g>
      <g
         fill="#b6251c"
         fill-opacity="1"
         id="id-6f7a7624-1e07-40dc-95c3-141ac411fbfb"
         transform="translate(-261.738,-138.244)">
        <g
           transform="translate(312.023,163.806)"
           id="g928">
          <path
             d="m 2.875,-4.1875 c 0.0625,-0.25 0.078125,-0.328125 0.71875,-0.328125 0.21875,0 0.28125,0 0.28125,-0.140625 0,-0.015625 0,-0.109375 -0.109375,-0.109375 -0.15625,0 -0.34375,0.015625 -0.515625,0.03125 -0.171875,0 -0.390625,0 -0.5625,0 -0.140625,0 -0.328125,0 -0.484375,0 -0.140625,0 -0.3125,-0.03125 -0.453125,-0.03125 -0.03125,0 -0.140625,0 -0.140625,0.15625 0,0.09375 0.078125,0.09375 0.21875,0.09375 0.015625,0 0.140625,0 0.265625,0.015625 0.15625,0.015625 0.171875,0.03125 0.171875,0.109375 0,0 0,0.046875 -0.03125,0.140625 l -0.9375,3.703125 C 1.234375,-0.3125 1.21875,-0.25 0.6875,-0.25 c -0.109375,0 -0.203125,0 -0.203125,0.140625 C 0.484375,0 0.5625,0 0.6875,0 h 3.5 c 0.1875,0 0.1875,0 0.25,-0.140625 0.0625,-0.1875 0.59375,-1.53125 0.59375,-1.59375 0,-0.015625 -0.015625,-0.09375 -0.125,-0.09375 -0.078125,0 -0.09375,0.03125 -0.140625,0.140625 C 4.5,-1.03125 4.1875,-0.25 2.921875,-0.25 H 2.125 c -0.203125,0 -0.21875,-0.015625 -0.21875,-0.078125 0,0 0,-0.03125 0.03125,-0.140625 z m 0,0"
             id="id-a8cb6044-f750-48f6-a55b-960c9425aaa9" />
        </g>
      </g>
    </g>
    <g
       transform="matrix(0.853002,0,0,0.853002,124.70972,142.71035)"
       ns12:version="1.9.0"
       ns12:texconverter="pdflatex"
       ns12:pdfconverter="inkscape"
       ns12:text="$${\\color{YellowOrange}{w}} \\leftarrow {\\color{YellowOrange}{w}} - \\alpha\\frac{\\partial \\color{BrickRed}{L}}{\\partial \\color{YellowOrange}{w}}$$\n"
       ns12:preamble="/Users/irhum/Library/Application Support/org.inkscape.Inkscape/config/inkscape/extensions/textext/default_packages.tex"
       ns12:scale="2.417956335145616"
       ns12:alignment="middle center"
       ns12:stroke-to-path="0"
       id="g8688"
       ns12:jacobian_sqrt="0.853002">
      <defs
         id="id-65136492-392a-4181-b43d-e4503a157e36">
        <g
           id="id-2532c5b2-c83a-49a1-968c-25bddfc19fab">
          <g
             id="id-d4ee9cf0-998a-4d79-bf82-cd361406a736">
            <path
               d="M 4.609375,-3.375 C 4.65625,-3.59375 4.75,-3.96875 4.75,-4.03125 c 0,-0.171875 -0.140625,-0.265625 -0.28125,-0.265625 -0.125,0 -0.296875,0.078125 -0.375,0.28125 -0.03125,0.0625 -0.5,1.96875 -0.5625,2.234375 C 3.453125,-1.484375 3.4375,-1.3125 3.4375,-1.125 c 0,0.109375 0,0.125 0.015625,0.171875 -0.234375,0.53125 -0.53125,0.84375 -0.921875,0.84375 -0.796875,0 -0.796875,-0.734375 -0.796875,-0.90625 0,-0.3125 0.046875,-0.703125 0.515625,-1.9375 0.109375,-0.296875 0.171875,-0.4375 0.171875,-0.640625 0,-0.4375 -0.328125,-0.8125 -0.8125,-0.8125 -0.953125,0 -1.3125,1.453125 -1.3125,1.53125 0,0.109375 0.09375,0.109375 0.109375,0.109375 0.109375,0 0.109375,-0.03125 0.15625,-0.1875 C 0.84375,-3.875 1.21875,-4.1875 1.578125,-4.1875 c 0.09375,0 0.25,0.015625 0.25,0.328125 0,0.25 -0.109375,0.53125 -0.1875,0.703125 -0.4375,1.171875 -0.546875,1.625 -0.546875,2.015625 0,0.90625 0.65625,1.25 1.40625,1.25 0.171875,0 0.640625,0 1.03125,-0.703125 0.265625,0.640625 0.953125,0.703125 1.25,0.703125 0.75,0 1.1875,-0.625 1.453125,-1.21875 0.328125,-0.78125 0.65625,-2.125 0.65625,-2.59375 0,-0.546875 -0.265625,-0.703125 -0.4375,-0.703125 -0.25,0 -0.5,0.265625 -0.5,0.484375 0,0.125 0.0625,0.1875 0.140625,0.265625 0.109375,0.109375 0.359375,0.359375 0.359375,0.84375 0,0.34375 -0.28125,1.3125 -0.546875,1.828125 -0.25,0.53125 -0.609375,0.875 -1.09375,0.875 -0.46875,0 -0.734375,-0.296875 -0.734375,-0.875 0,-0.265625 0.0625,-0.578125 0.109375,-0.71875 z m 0,0"
               id="id-030ff17c-7ffa-4efa-adb6-0916d07bef3f" />
          </g>
          <g
             id="id-08999218-4aa8-4df7-b8ce-9f8abb09d6a3">
            <path
               d="m 4.75,-2.359375 c 0,-1.5625 -0.921875,-2.046875 -1.65625,-2.046875 -1.375,0 -2.6875,1.421875 -2.6875,2.828125 0,0.9375 0.59375,1.6875 1.625,1.6875 0.625,0 1.34375,-0.234375 2.09375,-0.84375 0.125,0.53125 0.453125,0.84375 0.90625,0.84375 0.53125,0 0.84375,-0.546875 0.84375,-0.703125 0,-0.078125 -0.0625,-0.109375 -0.125,-0.109375 -0.0625,0 -0.09375,0.03125 -0.125,0.109375 -0.1875,0.484375 -0.546875,0.484375 -0.5625,0.484375 -0.3125,0 -0.3125,-0.78125 -0.3125,-1.015625 0,-0.203125 0,-0.234375 0.109375,-0.34375 C 5.796875,-2.65625 6,-3.8125 6,-3.8125 6,-3.84375 5.984375,-3.921875 5.875,-3.921875 c -0.09375,0 -0.09375,0.03125 -0.140625,0.21875 -0.1875,0.625 -0.515625,1.375 -0.984375,1.96875 z m -0.65625,1.375 c -0.890625,0.765625 -1.65625,0.875 -2.046875,0.875 -0.59375,0 -0.90625,-0.453125 -0.90625,-1.09375 0,-0.484375 0.265625,-1.5625 0.578125,-2.0625 C 2.1875,-4 2.734375,-4.1875 3.078125,-4.1875 c 0.984375,0 0.984375,1.3125 0.984375,2.078125 0,0.375 0,0.953125 0.03125,1.125 z m 0,0"
               id="id-632aa7eb-0e60-4735-b0a4-e8d000b70555" />
          </g>
          <g
             id="id-4a3f36a1-edd2-41a2-9c60-7dd0d05c2c48">
            <path
               d="m 4.609375,-3.375 c -0.09375,-0.625 -0.5,-1.1875 -1.28125,-1.1875 -0.609375,0 -1.25,0.171875 -2.03125,0.9375 -0.828125,0.828125 -0.890625,1.765625 -0.890625,2.0625 0,0.625 0.4375,1.78125 1.828125,1.78125 2.375,0 3.40625,-3.34375 3.40625,-4.78125 0,-1.578125 -0.921875,-2.578125 -2.15625,-2.578125 -1.4375,0 -1.90625,1.296875 -1.90625,1.578125 0,0.140625 0.09375,0.34375 0.390625,0.34375 0.328125,0 0.53125,-0.296875 0.53125,-0.515625 0,-0.359375 -0.3125,-0.359375 -0.46875,-0.359375 0.4375,-0.734375 1.15625,-0.796875 1.4375,-0.796875 0.734375,0 1.421875,0.515625 1.421875,1.8125 0,0.390625 -0.0625,0.890625 -0.265625,1.703125 z m -2.34375,3.3125 c -1.09375,0 -1.09375,-1.03125 -1.09375,-1.125 0,-0.265625 0.25,-1.65625 0.65625,-2.265625 0.390625,-0.5625 0.890625,-0.890625 1.5,-0.890625 1.09375,0 1.109375,1.125 1.109375,1.328125 0,0.71875 -0.640625,2.953125 -2.171875,2.953125 z m 0,0"
               id="id-f944c863-eb7b-4e3f-80f7-a372540e50fd" />
          </g>
          <g
             id="id-9acfa58b-22f8-47cd-8e09-22de81f70a3f">
            <path
               d="M 3.734375,-6.03125 C 3.8125,-6.390625 3.84375,-6.5 4.78125,-6.5 c 0.296875,0 0.375,0 0.375,-0.1875 0,-0.125 -0.109375,-0.125 -0.15625,-0.125 -0.328125,0 -1.140625,0.03125 -1.46875,0.03125 -0.296875,0 -1.03125,-0.03125 -1.328125,-0.03125 -0.0625,0 -0.1875,0 -0.1875,0.203125 0,0.109375 0.09375,0.109375 0.28125,0.109375 0.015625,0 0.203125,0 0.375,0.015625 0.171875,0.03125 0.265625,0.03125 0.265625,0.171875 0,0.03125 0,0.0625 -0.03125,0.1875 L 1.5625,-0.78125 c -0.09375,0.390625 -0.109375,0.46875 -0.90625,0.46875 -0.171875,0 -0.265625,0 -0.265625,0.203125 C 0.390625,0 0.484375,0 0.65625,0 h 4.625 C 5.515625,0 5.515625,0 5.578125,-0.171875 L 6.375,-2.328125 c 0.03125,-0.109375 0.03125,-0.125 0.03125,-0.140625 0,-0.03125 -0.03125,-0.109375 -0.109375,-0.109375 -0.09375,0 -0.109375,0.0625 -0.171875,0.21875 -0.34375,0.90625 -0.78125,2.046875 -2.5,2.046875 H 2.6875 c -0.140625,0 -0.171875,0 -0.21875,0 -0.109375,-0.015625 -0.140625,-0.03125 -0.140625,-0.109375 0,-0.03125 0,-0.046875 0.046875,-0.21875 z m 0,0"
               id="id-13c5767b-b689-4eec-8683-0d5ed3f3d36d" />
          </g>
          <g
             id="id-047c211e-c181-4e11-a4ca-d84f797f8452">
            <path
               d="m 9.046875,-2.296875 c 0.1875,0 0.359375,0 0.359375,-0.203125 0,-0.1875 -0.171875,-0.1875 -0.359375,-0.1875 h -7.40625 c 0.546875,-0.421875 0.828125,-0.828125 0.90625,-0.96875 0.4375,-0.6875 0.53125,-1.3125 0.53125,-1.3125 0,-0.125 -0.125,-0.125 -0.203125,-0.125 -0.171875,0 -0.1875,0.015625 -0.21875,0.203125 C 2.421875,-3.921875 1.828125,-3.09375 0.703125,-2.625 0.59375,-2.578125 0.5625,-2.5625 0.5625,-2.5 c 0,0.078125 0.046875,0.09375 0.140625,0.140625 1.046875,0.421875 1.703125,1.203125 1.953125,2.3125 0.03125,0.125 0.046875,0.15625 0.21875,0.15625 0.078125,0 0.203125,0 0.203125,-0.125 0,-0.015625 -0.09375,-0.640625 -0.515625,-1.3125 C 2.359375,-1.625 2.078125,-1.96875 1.640625,-2.296875 Z m 0,0"
               id="id-1c4008bb-54d4-42a6-9d90-4e493c997fcd" />
          </g>
          <g
             id="id-9d30443a-10a5-4dbe-8b67-fd863ac39e2b">
            <path
               d="m 6.5625,-2.296875 c 0.171875,0 0.359375,0 0.359375,-0.203125 0,-0.1875 -0.1875,-0.1875 -0.359375,-0.1875 H 1.171875 c -0.171875,0 -0.34375,0 -0.34375,0.1875 0,0.203125 0.171875,0.203125 0.34375,0.203125 z m 0,0"
               id="id-fb618c8c-a5a4-42bc-8ef3-a0e0a9c2a522" />
          </g>
        </g>
      </defs>
      <g
         fill="#f8980f"
         fill-opacity="1"
         id="id-fce632a6-128d-46de-beac-64ba5dbc4f01"
         transform="translate(-273.661,-135.538)">
        <g
           transform="translate(273.364,149.419)"
           id="g4138">
          <path
             d="M 4.609375,-3.375 C 4.65625,-3.59375 4.75,-3.96875 4.75,-4.03125 c 0,-0.171875 -0.140625,-0.265625 -0.28125,-0.265625 -0.125,0 -0.296875,0.078125 -0.375,0.28125 -0.03125,0.0625 -0.5,1.96875 -0.5625,2.234375 C 3.453125,-1.484375 3.4375,-1.3125 3.4375,-1.125 c 0,0.109375 0,0.125 0.015625,0.171875 -0.234375,0.53125 -0.53125,0.84375 -0.921875,0.84375 -0.796875,0 -0.796875,-0.734375 -0.796875,-0.90625 0,-0.3125 0.046875,-0.703125 0.515625,-1.9375 0.109375,-0.296875 0.171875,-0.4375 0.171875,-0.640625 0,-0.4375 -0.328125,-0.8125 -0.8125,-0.8125 -0.953125,0 -1.3125,1.453125 -1.3125,1.53125 0,0.109375 0.09375,0.109375 0.109375,0.109375 0.109375,0 0.109375,-0.03125 0.15625,-0.1875 C 0.84375,-3.875 1.21875,-4.1875 1.578125,-4.1875 c 0.09375,0 0.25,0.015625 0.25,0.328125 0,0.25 -0.109375,0.53125 -0.1875,0.703125 -0.4375,1.171875 -0.546875,1.625 -0.546875,2.015625 0,0.90625 0.65625,1.25 1.40625,1.25 0.171875,0 0.640625,0 1.03125,-0.703125 0.265625,0.640625 0.953125,0.703125 1.25,0.703125 0.75,0 1.1875,-0.625 1.453125,-1.21875 0.328125,-0.78125 0.65625,-2.125 0.65625,-2.59375 0,-0.546875 -0.265625,-0.703125 -0.4375,-0.703125 -0.25,0 -0.5,0.265625 -0.5,0.484375 0,0.125 0.0625,0.1875 0.140625,0.265625 0.109375,0.109375 0.359375,0.359375 0.359375,0.84375 0,0.34375 -0.28125,1.3125 -0.546875,1.828125 -0.25,0.53125 -0.609375,0.875 -1.09375,0.875 -0.46875,0 -0.734375,-0.296875 -0.734375,-0.875 0,-0.265625 0.0625,-0.578125 0.109375,-0.71875 z m 0,0"
             id="id-492db0ca-abff-4ba6-bd25-174c7a8b42b5" />
        </g>
      </g>
      <g
         fill="#000000"
         fill-opacity="1"
         id="id-743f557a-0c59-41d5-bf33-10edc2bda1fe"
         transform="translate(-273.661,-135.538)">
        <g
           transform="translate(283.532,149.419)"
           id="g8707">
          <path
             d="m 9.046875,-2.296875 c 0.1875,0 0.359375,0 0.359375,-0.203125 0,-0.1875 -0.171875,-0.1875 -0.359375,-0.1875 h -7.40625 c 0.546875,-0.421875 0.828125,-0.828125 0.90625,-0.96875 0.4375,-0.6875 0.53125,-1.3125 0.53125,-1.3125 0,-0.125 -0.125,-0.125 -0.203125,-0.125 -0.171875,0 -0.1875,0.015625 -0.21875,0.203125 C 2.421875,-3.921875 1.828125,-3.09375 0.703125,-2.625 0.59375,-2.578125 0.5625,-2.5625 0.5625,-2.5 c 0,0.078125 0.046875,0.09375 0.140625,0.140625 1.046875,0.421875 1.703125,1.203125 1.953125,2.3125 0.03125,0.125 0.046875,0.15625 0.21875,0.15625 0.078125,0 0.203125,0 0.203125,-0.125 0,-0.015625 -0.09375,-0.640625 -0.515625,-1.3125 C 2.359375,-1.625 2.078125,-1.96875 1.640625,-2.296875 Z m 0,0"
             id="id-0d446c0d-3ad5-4a19-8756-cfdb6506d3df" />
        </g>
      </g>
      <g
         fill="#f8980f"
         fill-opacity="1"
         id="id-69c52f7e-e071-4b54-ad52-b05a16818848"
         transform="translate(-273.661,-135.538)">
        <g
           transform="translate(296.262,149.419)"
           id="g4669">
          <path
             d="M 4.609375,-3.375 C 4.65625,-3.59375 4.75,-3.96875 4.75,-4.03125 c 0,-0.171875 -0.140625,-0.265625 -0.28125,-0.265625 -0.125,0 -0.296875,0.078125 -0.375,0.28125 -0.03125,0.0625 -0.5,1.96875 -0.5625,2.234375 C 3.453125,-1.484375 3.4375,-1.3125 3.4375,-1.125 c 0,0.109375 0,0.125 0.015625,0.171875 -0.234375,0.53125 -0.53125,0.84375 -0.921875,0.84375 -0.796875,0 -0.796875,-0.734375 -0.796875,-0.90625 0,-0.3125 0.046875,-0.703125 0.515625,-1.9375 0.109375,-0.296875 0.171875,-0.4375 0.171875,-0.640625 0,-0.4375 -0.328125,-0.8125 -0.8125,-0.8125 -0.953125,0 -1.3125,1.453125 -1.3125,1.53125 0,0.109375 0.09375,0.109375 0.109375,0.109375 0.109375,0 0.109375,-0.03125 0.15625,-0.1875 C 0.84375,-3.875 1.21875,-4.1875 1.578125,-4.1875 c 0.09375,0 0.25,0.015625 0.25,0.328125 0,0.25 -0.109375,0.53125 -0.1875,0.703125 -0.4375,1.171875 -0.546875,1.625 -0.546875,2.015625 0,0.90625 0.65625,1.25 1.40625,1.25 0.171875,0 0.640625,0 1.03125,-0.703125 0.265625,0.640625 0.953125,0.703125 1.25,0.703125 0.75,0 1.1875,-0.625 1.453125,-1.21875 0.328125,-0.78125 0.65625,-2.125 0.65625,-2.59375 0,-0.546875 -0.265625,-0.703125 -0.4375,-0.703125 -0.25,0 -0.5,0.265625 -0.5,0.484375 0,0.125 0.0625,0.1875 0.140625,0.265625 0.109375,0.109375 0.359375,0.359375 0.359375,0.84375 0,0.34375 -0.28125,1.3125 -0.546875,1.828125 -0.25,0.53125 -0.609375,0.875 -1.09375,0.875 -0.46875,0 -0.734375,-0.296875 -0.734375,-0.875 0,-0.265625 0.0625,-0.578125 0.109375,-0.71875 z m 0,0"
             id="id-35fe136e-74b8-4e26-969c-498dcb7aacce" />
        </g>
      </g>
      <g
         fill="#000000"
         fill-opacity="1"
         id="id-fe671d94-9636-47d3-83aa-2eabf16655f4"
         transform="translate(-273.661,-135.538)">
        <g
           transform="translate(305.877,149.419)"
           id="g2904">
          <path
             d="m 6.5625,-2.296875 c 0.171875,0 0.359375,0 0.359375,-0.203125 0,-0.1875 -0.1875,-0.1875 -0.359375,-0.1875 H 1.171875 c -0.171875,0 -0.34375,0 -0.34375,0.1875 0,0.203125 0.171875,0.203125 0.34375,0.203125 z m 0,0"
             id="id-94ae85b8-39f4-4716-b709-67bc684f3f8a" />
        </g>
      </g>
      <g
         fill="#000000"
         fill-opacity="1"
         id="id-bccd3b1b-a247-481e-9f52-e850f191465c"
         transform="translate(-273.661,-135.538)">
        <g
           transform="translate(315.839,149.419)"
           id="g6584">
          <path
             d="m 4.75,-2.359375 c 0,-1.5625 -0.921875,-2.046875 -1.65625,-2.046875 -1.375,0 -2.6875,1.421875 -2.6875,2.828125 0,0.9375 0.59375,1.6875 1.625,1.6875 0.625,0 1.34375,-0.234375 2.09375,-0.84375 0.125,0.53125 0.453125,0.84375 0.90625,0.84375 0.53125,0 0.84375,-0.546875 0.84375,-0.703125 0,-0.078125 -0.0625,-0.109375 -0.125,-0.109375 -0.0625,0 -0.09375,0.03125 -0.125,0.109375 -0.1875,0.484375 -0.546875,0.484375 -0.5625,0.484375 -0.3125,0 -0.3125,-0.78125 -0.3125,-1.015625 0,-0.203125 0,-0.234375 0.109375,-0.34375 C 5.796875,-2.65625 6,-3.8125 6,-3.8125 6,-3.84375 5.984375,-3.921875 5.875,-3.921875 c -0.09375,0 -0.09375,0.03125 -0.140625,0.21875 -0.1875,0.625 -0.515625,1.375 -0.984375,1.96875 z m -0.65625,1.375 c -0.890625,0.765625 -1.65625,0.875 -2.046875,0.875 -0.59375,0 -0.90625,-0.453125 -0.90625,-1.09375 0,-0.484375 0.265625,-1.5625 0.578125,-2.0625 C 2.1875,-4 2.734375,-4.1875 3.078125,-4.1875 c 0.984375,0 0.984375,1.3125 0.984375,2.078125 0,0.375 0,0.953125 0.03125,1.125 z m 0,0"
             id="id-d829c5b5-36f6-4c43-8d3f-96db60daa4c6" />
        </g>
      </g>
      <g
         fill="#000000"
         fill-opacity="1"
         id="id-8e25e006-c7d1-47be-9a95-b02aabe5a075"
         transform="translate(-273.661,-135.538)">
        <g
           transform="translate(323.755,142.679)"
           id="g9933">
          <path
             d="m 4.609375,-3.375 c -0.09375,-0.625 -0.5,-1.1875 -1.28125,-1.1875 -0.609375,0 -1.25,0.171875 -2.03125,0.9375 -0.828125,0.828125 -0.890625,1.765625 -0.890625,2.0625 0,0.625 0.4375,1.78125 1.828125,1.78125 2.375,0 3.40625,-3.34375 3.40625,-4.78125 0,-1.578125 -0.921875,-2.578125 -2.15625,-2.578125 -1.4375,0 -1.90625,1.296875 -1.90625,1.578125 0,0.140625 0.09375,0.34375 0.390625,0.34375 0.328125,0 0.53125,-0.296875 0.53125,-0.515625 0,-0.359375 -0.3125,-0.359375 -0.46875,-0.359375 0.4375,-0.734375 1.15625,-0.796875 1.4375,-0.796875 0.734375,0 1.421875,0.515625 1.421875,1.8125 0,0.390625 -0.0625,0.890625 -0.265625,1.703125 z m -2.34375,3.3125 c -1.09375,0 -1.09375,-1.03125 -1.09375,-1.125 0,-0.265625 0.25,-1.65625 0.65625,-2.265625 0.390625,-0.5625 0.890625,-0.890625 1.5,-0.890625 1.09375,0 1.109375,1.125 1.109375,1.328125 0,0.71875 -0.640625,2.953125 -2.171875,2.953125 z m 0,0"
             id="id-f5a22143-2cf3-414a-b268-1c8387a3621d" />
        </g>
      </g>
      <g
         fill="#b6251c"
         fill-opacity="1"
         id="id-6f26678f-75db-4594-a263-f283e9b91edd"
         transform="translate(-273.661,-135.538)">
        <g
           transform="translate(329.602,142.679)"
           id="g3784">
          <path
             d="M 3.734375,-6.03125 C 3.8125,-6.390625 3.84375,-6.5 4.78125,-6.5 c 0.296875,0 0.375,0 0.375,-0.1875 0,-0.125 -0.109375,-0.125 -0.15625,-0.125 -0.328125,0 -1.140625,0.03125 -1.46875,0.03125 -0.296875,0 -1.03125,-0.03125 -1.328125,-0.03125 -0.0625,0 -0.1875,0 -0.1875,0.203125 0,0.109375 0.09375,0.109375 0.28125,0.109375 0.015625,0 0.203125,0 0.375,0.015625 0.171875,0.03125 0.265625,0.03125 0.265625,0.171875 0,0.03125 0,0.0625 -0.03125,0.1875 L 1.5625,-0.78125 c -0.09375,0.390625 -0.109375,0.46875 -0.90625,0.46875 -0.171875,0 -0.265625,0 -0.265625,0.203125 C 0.390625,0 0.484375,0 0.65625,0 h 4.625 C 5.515625,0 5.515625,0 5.578125,-0.171875 L 6.375,-2.328125 c 0.03125,-0.109375 0.03125,-0.125 0.03125,-0.140625 0,-0.03125 -0.03125,-0.109375 -0.109375,-0.109375 -0.09375,0 -0.109375,0.0625 -0.171875,0.21875 -0.34375,0.90625 -0.78125,2.046875 -2.5,2.046875 H 2.6875 c -0.140625,0 -0.171875,0 -0.21875,0 -0.109375,-0.015625 -0.140625,-0.03125 -0.140625,-0.109375 0,-0.03125 0,-0.046875 0.046875,-0.21875 z m 0,0"
             id="id-77717ac0-6f9d-438f-9ba3-825cfc2a9dfb" />
        </g>
      </g>
      <path
         fill="none"
         stroke-width="0.398"
         stroke-linecap="butt"
         stroke-linejoin="miter"
         stroke="#000000"
         stroke-opacity="1"
         stroke-miterlimit="10"
         d="M 49.784424,11.391312 H 63.026611"
         id="id-a06f9cc5-1bf1-45a9-bbac-41db6b1aa870" />
      <g
         fill="#000000"
         fill-opacity="1"
         id="id-77f25a9a-9495-428f-827c-44f1354ba56a"
         transform="translate(-273.661,-135.538)">
        <g
           transform="translate(323.445,156.253)"
           id="g5808">
          <path
             d="m 4.609375,-3.375 c -0.09375,-0.625 -0.5,-1.1875 -1.28125,-1.1875 -0.609375,0 -1.25,0.171875 -2.03125,0.9375 -0.828125,0.828125 -0.890625,1.765625 -0.890625,2.0625 0,0.625 0.4375,1.78125 1.828125,1.78125 2.375,0 3.40625,-3.34375 3.40625,-4.78125 0,-1.578125 -0.921875,-2.578125 -2.15625,-2.578125 -1.4375,0 -1.90625,1.296875 -1.90625,1.578125 0,0.140625 0.09375,0.34375 0.390625,0.34375 0.328125,0 0.53125,-0.296875 0.53125,-0.515625 0,-0.359375 -0.3125,-0.359375 -0.46875,-0.359375 0.4375,-0.734375 1.15625,-0.796875 1.4375,-0.796875 0.734375,0 1.421875,0.515625 1.421875,1.8125 0,0.390625 -0.0625,0.890625 -0.265625,1.703125 z m -2.34375,3.3125 c -1.09375,0 -1.09375,-1.03125 -1.09375,-1.125 0,-0.265625 0.25,-1.65625 0.65625,-2.265625 0.390625,-0.5625 0.890625,-0.890625 1.5,-0.890625 1.09375,0 1.109375,1.125 1.109375,1.328125 0,0.71875 -0.640625,2.953125 -2.171875,2.953125 z m 0,0"
             id="id-5be2f0e1-f37e-4faf-b8ce-3b750778f010" />
        </g>
      </g>
      <g
         fill="#f8980f"
         fill-opacity="1"
         id="id-9d7697ee-3b8c-44c2-921d-b0b4173d9687"
         transform="translate(-273.661,-135.538)">
        <g
           transform="translate(329.292,156.253)"
           id="g9266">
          <path
             d="M 4.609375,-3.375 C 4.65625,-3.59375 4.75,-3.96875 4.75,-4.03125 c 0,-0.171875 -0.140625,-0.265625 -0.28125,-0.265625 -0.125,0 -0.296875,0.078125 -0.375,0.28125 -0.03125,0.0625 -0.5,1.96875 -0.5625,2.234375 C 3.453125,-1.484375 3.4375,-1.3125 3.4375,-1.125 c 0,0.109375 0,0.125 0.015625,0.171875 -0.234375,0.53125 -0.53125,0.84375 -0.921875,0.84375 -0.796875,0 -0.796875,-0.734375 -0.796875,-0.90625 0,-0.3125 0.046875,-0.703125 0.515625,-1.9375 0.109375,-0.296875 0.171875,-0.4375 0.171875,-0.640625 0,-0.4375 -0.328125,-0.8125 -0.8125,-0.8125 -0.953125,0 -1.3125,1.453125 -1.3125,1.53125 0,0.109375 0.09375,0.109375 0.109375,0.109375 0.109375,0 0.109375,-0.03125 0.15625,-0.1875 C 0.84375,-3.875 1.21875,-4.1875 1.578125,-4.1875 c 0.09375,0 0.25,0.015625 0.25,0.328125 0,0.25 -0.109375,0.53125 -0.1875,0.703125 -0.4375,1.171875 -0.546875,1.625 -0.546875,2.015625 0,0.90625 0.65625,1.25 1.40625,1.25 0.171875,0 0.640625,0 1.03125,-0.703125 0.265625,0.640625 0.953125,0.703125 1.25,0.703125 0.75,0 1.1875,-0.625 1.453125,-1.21875 0.328125,-0.78125 0.65625,-2.125 0.65625,-2.59375 0,-0.546875 -0.265625,-0.703125 -0.4375,-0.703125 -0.25,0 -0.5,0.265625 -0.5,0.484375 0,0.125 0.0625,0.1875 0.140625,0.265625 0.109375,0.109375 0.359375,0.359375 0.359375,0.84375 0,0.34375 -0.28125,1.3125 -0.546875,1.828125 -0.25,0.53125 -0.609375,0.875 -1.09375,0.875 -0.46875,0 -0.734375,-0.296875 -0.734375,-0.875 0,-0.265625 0.0625,-0.578125 0.109375,-0.71875 z m 0,0"
             id="id-958e758e-4970-4d88-a43e-72757af00ea0" />
        </g>
      </g>
    </g>
    <rect
       style="fill:none;stroke:#000000;stroke-width:0.287999;stroke-opacity:1"
       id="rect1"
       width="80.082207"
       height="27.626612"
       x="18.184605"
       y="138.31252" />
    <rect
       style="fill:none;stroke:#000000;stroke-width:0.257527;stroke-opacity:1"
       id="rect1-2"
       width="63.961712"
       height="27.657084"
       x="120.63503"
       y="138.2317" />
    <text
       xml:space="preserve"
       transform="scale(0.26458333)"
       id="text1"
       style="font-style:normal;font-variant:normal;font-weight:normal;font-stretch:normal;font-size:17.3333px;font-family:'CMU Serif';-inkscape-font-specification:'CMU Serif';text-align:center;white-space:pre;shape-inside:url(#rect2);fill:#000000;fill-opacity:1;stroke:none;stroke-width:1.0885;stroke-opacity:1" />
    <path
       d="m 83.745001,643.20518 v -0.53734 H 84.161 q 0.935998,0 1.143998,-0.15599 0.225333,-0.156 0.225333,-0.65867 v -9.13465 q 0,-0.50266 -0.225333,-0.65866 -0.208,-0.156 -1.143998,-0.156 h -0.415999 v -0.53734 h 6.118655 q 1.750663,0 2.911994,0.97067 1.178665,0.95333 1.178665,2.25333 0,1.28266 -1.195998,2.21866 -1.178665,0.91866 -2.755995,0.91866 h -2.929327 v 4.12533 q 0,0.50267 0.207999,0.65867 0.225333,0.15599 1.161331,0.15599 h 0.415999 v 0.53734 q -0.606665,-0.052 -2.565328,-0.052 -1.941329,0 -2.547995,0.052 z m 3.275994,-5.92799 h 2.391995 q 0.779998,0 1.334664,-0.208 0.571999,-0.22533 0.831998,-0.48533 0.26,-0.27734 0.398666,-0.71067 0.156,-0.43333 0.173333,-0.676 0.01733,-0.24266 0.01733,-0.60666 0,-0.38134 -0.01733,-0.624 -0.01733,-0.24267 -0.173333,-0.676 -0.138666,-0.43333 -0.398666,-0.69333 -0.259999,-0.27734 -0.831998,-0.48533 -0.554666,-0.208 -1.334664,-0.208 h -1.542664 q -0.589332,0 -0.727998,0.12133 -0.121333,0.12133 -0.121333,0.572 z m 8.510622,5.92799 v -0.53734 h 0.416 q 0.935998,0 1.143997,-0.15599 0.225333,-0.156 0.225333,-0.65867 v -9.13465 q 0,-0.50266 -0.225333,-0.65866 -0.207999,-0.156 -1.143997,-0.156 h -0.416 v -0.53734 h 5.442653 q 1.88933,0 3.20666,0.936 1.31733,0.91867 1.31733,2.184 0,0.97066 -0.86666,1.73333 -0.84933,0.76266 -2.16666,1.092 1.71599,0.58933 2.11466,2.01066 l 0.22533,1.38666 q 0.0693,0.50267 0.104,0.76267 0.052,0.24266 0.12134,0.58933 0.0867,0.34667 0.156,0.52 0.0867,0.156 0.20799,0.32933 0.12134,0.17333 0.27734,0.24267 0.156,0.052 0.364,0.052 0.39866,0 0.728,-0.34667 0.34666,-0.364 0.41599,-1.196 0.0347,-0.27733 0.208,-0.27733 0.22534,0 0.22534,0.29467 0,0.22533 -0.0693,0.52 -0.0693,0.27733 -0.24266,0.60666 -0.156,0.32933 -0.52,0.55467 -0.34667,0.22533 -0.81467,0.22533 -1.35199,0 -2.18399,-0.728 -0.34667,-0.312 -0.50267,-0.71066 -0.156,-0.416 -0.19066,-0.728 -0.0173,-0.32934 -0.0173,-1.04 0,-1.00533 -0.104,-1.43866 -0.104,-0.45067 -0.55466,-0.884 -0.60667,-0.58934 -1.612,-0.58934 h -1.993329 v 4.38533 q 0,0.50267 0.208,0.65867 0.225332,0.15599 1.161329,0.15599 h 0.416 v 0.53734 q -0.623998,-0.052 -2.530661,-0.052 -1.906663,0 -2.530662,0.052 z m 3.275994,-6.11866 h 1.923999 q 0.91866,0 1.54266,-0.22533 0.624,-0.22533 0.91867,-0.624 0.29466,-0.416 0.39866,-0.81466 0.12133,-0.416 0.12133,-0.936 0,-0.60667 -0.13866,-1.05733 -0.13867,-0.468 -0.43333,-0.728 -0.29467,-0.27734 -0.58934,-0.45067 -0.29466,-0.17333 -0.76266,-0.24266 -0.45067,-0.0693 -0.76267,-0.0867 -0.312,-0.0173 -0.81466,-0.0173 -0.849333,0 -1.022666,0.0347 -0.190667,0.0173 -0.277333,0.12134 -0.06933,0.0867 -0.08667,0.19066 -0.01733,0.104 -0.01733,0.34667 z m 9.359919,0.24267 q 0,-2.652 1.69866,-4.48933 1.69867,-1.85466 4.05599,-1.85466 2.37467,0 4.07333,1.85466 1.69866,1.85467 1.69866,4.48933 0,2.61733 -1.69866,4.43732 -1.69866,1.82 -4.07333,1.82 -2.33999,0 -4.05599,-1.80266 -1.69866,-1.82 -1.69866,-4.45466 z m 1.78533,-0.24267 q 0,1.612 0.38133,2.84266 0.38133,1.23067 0.988,1.90667 0.624,0.65866 1.28266,0.98799 0.65867,0.312 1.33467,0.312 0.65866,0 1.3,-0.312 0.65866,-0.31199 1.26533,-0.97066 0.624,-0.65867 1.00533,-1.88933 0.39866,-1.248 0.39866,-2.87733 0,-1.26533 -0.27733,-2.28799 -0.26,-1.02267 -0.69333,-1.62933 -0.416,-0.624 -0.97067,-1.02267 -0.53733,-0.416 -1.05733,-0.572 -0.50266,-0.156 -0.988,-0.156 -0.60666,0 -1.24799,0.27734 -0.624,0.26 -1.26533,0.86666 -0.64134,0.58933 -1.05734,1.768 -0.39866,1.16133 -0.39866,2.75599 z m 11.33595,6.11866 v -0.53734 h 0.416 q 0.936,0 1.144,-0.15599 0.22533,-0.156 0.22533,-0.65867 v -9.13465 q 0,-0.50266 -0.22533,-0.65866 -0.208,-0.156 -1.144,-0.156 h -0.416 v -0.53734 h 6.34399 q 1.64666,0 2.73866,0.884 1.10933,0.884 1.10933,2.04533 0,0.95333 -0.81466,1.716 -0.79733,0.76266 -2.06267,1.00533 1.43867,0.156 2.392,1.02266 0.95333,0.86667 0.95333,1.99333 0,1.26533 -1.092,2.21867 -1.09199,0.95333 -2.77332,0.95333 z m 3.224,-1.23067 q 0,0.45067 0.12133,0.572 0.13867,0.12133 0.728,0.12133 h 2.16666 q 1.248,0 1.95866,-0.81466 0.728,-0.81467 0.728,-1.83733 0,-1.02266 -0.64133,-1.88933 -0.624,-0.884 -1.80266,-0.884 h -3.25866 z m 0,-5.11332 h 2.51332 q 1.33467,0 2.04533,-0.79733 0.728,-0.81467 0.728,-1.768 0,-0.84933 -0.572,-1.612 -0.572,-0.77999 -1.71599,-0.77999 h -2.14933 q -0.58933,0 -0.728,0.12133 -0.12133,0.12133 -0.12133,0.572 z m 8.99595,6.34399 v -0.53734 h 0.416 q 0.936,0 1.144,-0.15599 0.22533,-0.156 0.22533,-0.65867 v -9.13465 q 0,-0.50266 -0.22533,-0.65866 -0.208,-0.156 -1.144,-0.156 h -0.416 v -0.53734 q 0.60666,0.052 2.63466,0.052 2.288,0 2.91199,-0.052 v 0.53734 h -0.57199 q -0.79734,0 -1.16134,0.104 -0.364,0.104 -0.43333,0.24266 -0.052,0.13867 -0.052,0.48533 v 9.23865 q 0,0.45067 0.12133,0.572 0.13867,0.12133 0.728,0.12133 h 1.42133 q 0.884,0 1.508,-0.25999 0.64133,-0.26 0.97067,-0.58934 0.34666,-0.32933 0.57199,-0.95333 0.22534,-0.624 0.29467,-1.02266 0.0693,-0.39867 0.13867,-1.10933 h 0.43333 l -0.48533,4.47199 z m 10.83328,0 v -0.53734 h 0.416 q 0.93599,0 1.14399,-0.15599 0.22534,-0.156 0.22534,-0.65867 v -9.08265 q 0,-0.50266 -0.22534,-0.65866 -0.208,-0.156 -1.14399,-0.156 h -0.416 v -0.53734 h 9.75864 l 0.48534,3.9 h -0.43334 q -0.12133,-0.988 -0.27733,-1.56 -0.156,-0.572 -0.53733,-1.00533 -0.364,-0.45067 -0.988,-0.624 -0.60666,-0.17333 -1.59466,-0.17333 h -2.236 q -0.58933,0 -0.728,0.12133 -0.12133,0.12133 -0.12133,0.572 v 4.15999 h 1.56 q 1.196,0 1.52533,-0.416 0.34666,-0.416 0.34666,-1.612 h 0.43334 v 4.59333 h -0.43334 q 0,-1.17867 -0.34666,-1.59467 -0.32933,-0.43333 -1.52533,-0.43333 h -1.56 v 4.62799 q 0,0.45067 0.12133,0.572 0.13867,0.12133 0.728,0.12133 h 2.30533 q 0.74533,0 1.28267,-0.0867 0.55466,-0.104 0.93599,-0.34667 0.38134,-0.24266 0.64134,-0.52 0.25999,-0.27733 0.43333,-0.78 0.19066,-0.50266 0.29466,-0.97066 0.104,-0.468 0.22534,-1.23066 h 0.43333 l -0.728,4.47199 z m 11.85595,0 v -0.53734 q 0.624,0 1.02266,-0.12133 0.39867,-0.12133 0.53733,-0.34666 0.156,-0.24267 0.19067,-0.39867 0.0347,-0.156 0.0347,-0.416 v -8.66665 q 0,-0.50266 -0.22534,-0.65866 -0.208,-0.156 -1.14399,-0.156 h -0.416 v -0.53734 h 2.92932 q 0.312,0 0.39867,0.052 0.0867,0.052 0.208,0.32934 l 3.76133,9.70664 3.79599,-9.75864 q 0.0867,-0.24267 0.156,-0.27734 0.0867,-0.052 0.416,-0.052 h 2.92933 v 0.53734 h -0.416 q -0.936,0 -1.16133,0.156 -0.208,0.156 -0.208,0.65866 v 9.13465 q 0,0.50267 0.208,0.65867 0.22533,0.15599 1.16133,0.15599 h 0.416 v 0.53734 q -0.64134,-0.052 -2.47867,-0.052 -1.85466,0 -2.49599,0.052 v -0.53734 h 0.416 q 0.936,0 1.144,-0.15599 0.22533,-0.156 0.22533,-0.65867 v -9.94931 h -0.0173 l -4.264,10.97197 q -0.12133,0.32934 -0.312,0.32934 -0.208,0 -0.34666,-0.38134 l -4.17733,-10.78131 h -0.0173 v 9.34265 q 0,0.26 0.0347,0.416 0.0347,0.156 0.17333,0.39867 0.156,0.22533 0.55466,0.34666 0.39867,0.12133 1.02267,0.12133 v 0.53734 q -1.82,-0.052 -2.028,-0.052 -0.208,0 -2.02799,0.052 z"
       id="text2"
       style="font-size:17.3333px;font-family:'CMU Serif';-inkscape-font-specification:'CMU Serif';text-align:center;white-space:pre;stroke-width:1.0885"
       transform="matrix(0.24047901,0,0,0.24047901,-1.7829403,16.083728)"
       aria-label="PROBLEM" />
    <path
       d="m 82.176341,643.17051 v -3.46666 q 0,-0.19067 0,-0.26 0.01733,-0.0693 0.06933,-0.12133 0.052,-0.052 0.156,-0.052 0.190666,0 0.208,0.17333 0.052,1.716 1.074664,2.66933 1.005332,0.936 2.738662,0.936 1.039998,0 1.68133,-0.74533 0.641332,-0.74534 0.641332,-1.73333 0,-0.936 -0.537333,-1.59467 -0.225333,-0.29466 -0.519999,-0.48533 -0.277332,-0.19067 -0.450665,-0.24267 -0.173333,-0.0693 -0.502666,-0.156 -2.149329,-0.52 -2.287996,-0.572 -1.022664,-0.34666 -1.646663,-1.21333 -0.623999,-0.88399 -0.623999,-1.95866 0,-1.38666 0.970665,-2.37466 0.987998,-0.988 2.409329,-0.988 0.710665,0 1.299997,0.22533 0.606666,0.22534 0.849332,0.43334 0.242666,0.19066 0.623998,0.55466 l 0.606666,-0.988 q 0.138666,-0.22533 0.259999,-0.22533 0.138667,0 0.156,0.0867 0.03467,0.0693 0.03467,0.32933 v 3.48399 q 0,0.19067 -0.01733,0.26 0,0.0693 -0.052,0.12134 -0.052,0.0347 -0.156,0.0347 -0.173333,0 -0.208,-0.208 -0.485332,-3.62266 -3.379993,-3.62266 -0.987998,0 -1.646664,0.676 -0.641332,0.65867 -0.641332,1.59467 0,0.76266 0.467999,1.38666 0.485333,0.624 1.282665,0.81466 l 2.218662,0.53734 q 1.109331,0.26 1.854663,1.24799 0.745332,0.97067 0.745332,2.25333 0,1.47333 -0.970665,2.548 -0.953331,1.05733 -2.443995,1.05733 -1.074665,0 -1.906663,-0.364 -0.831999,-0.34667 -1.282664,-0.84933 -0.346666,0.572 -0.571999,0.90133 l -0.052,0.0867 q -0.138666,0.22533 -0.26,0.22533 -0.138666,0 -0.173333,-0.0867 -0.01733,-0.0867 -0.01733,-0.32933 z m 9.619953,-5.84132 q 0,-2.652 1.698664,-4.48933 1.698663,-1.85466 4.055992,-1.85466 2.374662,0 4.07333,1.85466 1.69866,1.85467 1.69866,4.48933 0,2.61733 -1.69866,4.43732 -1.698668,1.82 -4.07333,1.82 -2.339996,0 -4.055992,-1.80266 -1.698664,-1.82 -1.698664,-4.45466 z m 1.78533,-0.24267 q 0,1.612 0.381333,2.84266 0.381332,1.23067 0.987998,1.90667 0.623999,0.65866 1.282664,0.98799 0.658665,0.312 1.334664,0.312 0.658665,0 1.299998,-0.312 0.658665,-0.31199 1.265329,-0.97066 0.624,-0.65867 1.00533,-1.88933 0.39867,-1.248 0.39867,-2.87733 0,-1.26533 -0.27733,-2.28799 -0.26,-1.02267 -0.69334,-1.62933 -0.416,-0.624 -0.970661,-1.02267 -0.537332,-0.416 -1.057331,-0.572 -0.502666,-0.156 -0.987998,-0.156 -0.606666,0 -1.247998,0.27734 -0.623999,0.26 -1.265331,0.86666 -0.641332,0.58933 -1.057331,1.768 -0.398666,1.16133 -0.398666,2.75599 z m 11.283956,6.11866 v -0.53734 h 0.416 q 0.93599,0 1.14399,-0.15599 0.22534,-0.156 0.22534,-0.65867 v -9.13465 q 0,-0.50266 -0.22534,-0.65866 -0.208,-0.156 -1.14399,-0.156 h -0.416 v -0.53734 q 0.60666,0.052 2.63466,0.052 2.28799,0 2.91199,-0.052 v 0.53734 h -0.572 q -0.79733,0 -1.16133,0.104 -0.364,0.104 -0.43333,0.24266 -0.052,0.13867 -0.052,0.48533 v 9.23865 q 0,0.45067 0.12133,0.572 0.13867,0.12133 0.728,0.12133 h 1.42133 q 0.884,0 1.508,-0.25999 0.64133,-0.26 0.97066,-0.58934 0.34667,-0.32933 0.572,-0.95333 0.22534,-0.624 0.29467,-1.02266 0.0693,-0.39867 0.13867,-1.10933 h 0.43333 l -0.48533,4.47199 z m 10.83328,-11.30131 v -0.53734 q 0.60666,0.052 2.56532,0.052 1.94133,0 2.548,-0.052 v 0.53734 h -0.416 q -0.936,0 -1.16133,0.156 -0.208,0.156 -0.208,0.65866 v 6.60399 q 0,1.16133 0.312,1.95866 0.32933,0.79733 0.832,1.16133 0.50266,0.34667 0.90133,0.48533 0.416,0.12134 0.81466,0.12134 1.31733,0 2.32267,-1.04 1.00533,-1.05733 1.00533,-2.808 v -6.01465 q 0,-0.26 -0.0347,-0.416 -0.0347,-0.156 -0.19067,-0.38133 -0.13866,-0.24267 -0.53733,-0.364 -0.39866,-0.12133 -1.02266,-0.12133 v -0.53734 q 1.87199,0.052 2.06266,0.052 0.17333,0 2.04533,-0.052 v 0.53734 q -0.624,0 -1.02267,0.12133 -0.39866,0.104 -0.55466,0.34666 -0.13867,0.24267 -0.17333,0.416 -0.0347,0.17334 -0.0347,0.468 v 5.54666 q 0,0.84933 -0.052,1.196 -0.22533,1.50799 -1.3,2.54799 -1.07466,1.04 -2.54799,1.04 -1.78533,0 -3.08533,-1.248 -1.28266,-1.26533 -1.28266,-3.08533 v -6.53465 q 0,-0.50266 -0.22534,-0.65866 -0.208,-0.156 -1.14399,-0.156 z m 13.05194,3.46666 0.32933,-3.9 h 10.59065 l 0.32933,3.9 h -0.43333 q -0.0693,-0.78 -0.13867,-1.23067 -0.052,-0.45066 -0.208,-0.86666 -0.13866,-0.43334 -0.32933,-0.64134 -0.17333,-0.208 -0.52,-0.36399 -0.34667,-0.17334 -0.79733,-0.208 -0.45067,-0.052 -1.12667,-0.052 -0.79733,0 -0.98799,0.0347 -0.208,0.052 -0.26,0.208 -0.052,0.13867 -0.052,0.45067 v 9.13465 q 0,0.34666 0.0693,0.48533 0.0693,0.13867 0.468,0.24267 0.39866,0.10399 1.28266,0.10399 h 0.69333 v 0.53734 q -0.71066,-0.052 -3.29332,-0.052 -2.56533,0 -3.276,0.052 v -0.53734 h 0.69334 q 0.88399,0 1.28266,-0.10399 0.39867,-0.104 0.468,-0.24267 0.0693,-0.13867 0.0693,-0.48533 v -9.13465 q 0,-0.24267 -0.0173,-0.34667 -0.0173,-0.104 -0.104,-0.19066 -0.0693,-0.0867 -0.24267,-0.12134 -0.17333,-0.0347 -0.93599,-0.0347 -0.676,0 -1.12667,0.052 -0.45067,0.0347 -0.79733,0.208 -0.34667,0.15599 -0.53733,0.36399 -0.17334,0.208 -0.32934,0.64134 -0.13866,0.416 -0.208,0.86666 -0.052,0.45067 -0.12133,1.23067 z m 12.37594,7.83465 v -0.53734 h 0.45067 q 0.97066,0 1.196,-0.15599 0.22533,-0.156 0.22533,-0.65867 v -9.13465 q 0,-0.50266 -0.22533,-0.65866 -0.22534,-0.156 -1.196,-0.156 h -0.45067 v -0.53734 q 0.60667,0.052 2.652,0.052 2.02799,0 2.63466,-0.052 v 0.53734 h -0.45067 q -0.97066,0 -1.19599,0.156 -0.22534,0.156 -0.22534,0.65866 v 9.13465 q 0,0.50267 0.22534,0.65867 0.22533,0.15599 1.19599,0.15599 h 0.45067 v 0.53734 q -0.60667,-0.052 -2.652,-0.052 -2.02799,0 -2.63466,0.052 z m 6.74262,-5.87599 q 0,-2.652 1.69867,-4.48933 1.69866,-1.85466 4.05599,-1.85466 2.37466,0 4.07333,1.85466 1.69866,1.85467 1.69866,4.48933 0,2.61733 -1.69866,4.43732 -1.69867,1.82 -4.07333,1.82 -2.34,0 -4.05599,-1.80266 -1.69867,-1.82 -1.69867,-4.45466 z m 1.78533,-0.24267 q 0,1.612 0.38134,2.84266 0.38133,1.23067 0.988,1.90667 0.62399,0.65866 1.28266,0.98799 0.65866,0.312 1.33466,0.312 0.65867,0 1.3,-0.312 0.65867,-0.31199 1.26533,-0.97066 0.624,-0.65867 1.00533,-1.88933 0.39867,-1.248 0.39867,-2.87733 0,-1.26533 -0.27733,-2.28799 -0.26,-1.02267 -0.69334,-1.62933 -0.41599,-0.624 -0.97066,-1.02267 -0.53733,-0.416 -1.05733,-0.572 -0.50267,-0.156 -0.988,-0.156 -0.60667,0 -1.248,0.27734 -0.624,0.26 -1.26533,0.86666 -0.64133,0.58933 -1.05733,1.768 -0.39867,1.16133 -0.39867,2.75599 z m 11.28396,6.11866 v -0.53734 q 0.624,0 1.02266,-0.12133 0.39867,-0.12133 0.53733,-0.34666 0.156,-0.24267 0.19067,-0.39867 0.0347,-0.156 0.0347,-0.416 v -9.04798 q 0,-0.24267 -0.0693,-0.29467 -0.052,-0.0693 -0.34666,-0.104 -0.52,-0.0347 -0.86667,-0.0347 h -0.50266 v -0.53734 h 2.94666 q 0.24266,0 0.312,0.0347 0.0693,0.0347 0.19066,0.19067 l 6.11866,8.99598 v -7.40132 q 0,-0.26 -0.0347,-0.416 -0.0347,-0.156 -0.19066,-0.38133 -0.13867,-0.24267 -0.53734,-0.364 -0.39866,-0.12133 -1.02266,-0.12133 v -0.53734 q 1.82,0.052 2.028,0.052 0.208,0 2.02799,-0.052 v 0.53734 q -0.624,0 -1.02266,0.12133 -0.39867,0.12133 -0.55467,0.364 -0.13867,0.22533 -0.17333,0.38133 -0.0347,0.156 -0.0347,0.416 v 9.56798 q 0,0.27733 -0.0347,0.364 -0.0347,0.0867 -0.208,0.0867 -0.12134,0 -0.29467,-0.22534 l -7.07199,-10.39998 q -0.0693,-0.104 -0.17333,-0.208 v 9.01332 q 0,0.26 0.0347,0.416 0.0347,0.156 0.17333,0.39867 0.156,0.22533 0.55467,0.34666 0.39866,0.12133 1.02266,0.12133 v 0.53734 q -1.82,-0.052 -2.028,-0.052 -0.208,0 -2.02799,0.052 z"
       id="text2-1"
       style="font-size:17.3333px;font-family:'CMU Serif';-inkscape-font-specification:'CMU Serif';text-align:center;white-space:pre;stroke-width:1.0885"
       transform="matrix(0.24047901,0,0,0.24047901,100.78695,16.083728)"
       aria-label="SOLUTION" />
    <path
       style="fill:none;fill-opacity:1;stroke:#000000;stroke-width:0.288;stroke-dasharray:none;stroke-opacity:1;marker-end:url(#Triangle)"
       d="m 98.266815,152.12582 21.309865,-0.0656"
       id="path3" />
  </g>
</svg>
