<?xml version="1.0" encoding="UTF-8" standalone="no"?>
<!-- Created with Inkscape (http://www.inkscape.org/) -->

<svg
   width="145.71523mm"
   height="38.897568mm"
   viewBox="0 0 145.71523 38.897568"
   version="1.1"
   id="svg1"
   xml:space="preserve"
   inkscape:version="1.3 (0e150ed, 2023-07-21)"
   sodipodi:docname="lora copy.svg"
   xmlns:inkscape="http://www.inkscape.org/namespaces/inkscape"
   xmlns:sodipodi="http://sodipodi.sourceforge.net/DTD/sodipodi-0.dtd"
   xmlns="http://www.w3.org/2000/svg"
   xmlns:svg="http://www.w3.org/2000/svg"><sodipodi:namedview
     id="namedview1"
     pagecolor="#ffffff"
     bordercolor="#000000"
     borderopacity="0.25"
     inkscape:showpageshadow="2"
     inkscape:pageopacity="0.0"
     inkscape:pagecheckerboard="0"
     inkscape:deskcolor="#d1d1d1"
     inkscape:document-units="mm"
     inkscape:zoom="1.5608954"
     inkscape:cx="205.97152"
     inkscape:cy="116.59974"
     inkscape:window-width="1712"
     inkscape:window-height="967"
     inkscape:window-x="0"
     inkscape:window-y="39"
     inkscape:window-maximized="1"
     inkscape:current-layer="layer1" /><defs
     id="defs1"><rect
       x="279.48685"
       y="21.752247"
       width="30.768866"
       height="24.041956"
       id="rect37" /><g
       id="id-5440201f-a6b2-4502-80a5-91023e27acd3-7">&#10;      <g
   id="id-f0541915-4952-4a63-9dc7-ae98353480df-9">&#10;        <path
   d="m 9.140625,-5.65625 c 0.25,-0.4375 0.484375,-0.796875 1.125,-0.84375 0.07813,-0.015625 0.1875,-0.015625 0.1875,-0.203125 0,-0.03125 -0.04687,-0.109375 -0.125,-0.109375 -0.234375,0 -0.515625,0.03125 -0.765625,0.03125 -0.34375,0 -0.703125,-0.03125 -1.046875,-0.03125 -0.046875,0 -0.1875,0 -0.1875,0.1875 0,0.109375 0.09375,0.125 0.15625,0.125 0.234375,0.015625 0.59375,0.09375 0.59375,0.390625 0,0.109375 -0.0625,0.1875 -0.140625,0.328125 L 6.25,-1.09375 5.875,-6.03125 c 0,-0.203125 -0.015625,-0.453125 0.703125,-0.46875 0.171875,0 0.265625,0 0.265625,-0.203125 0,-0.09375 -0.109375,-0.109375 -0.140625,-0.109375 -0.40625,0 -0.828125,0.03125 -1.21875,0.03125 -0.234375,0 -0.8125,-0.03125 -1.046875,-0.03125 -0.0625,0 -0.1875,0 -0.1875,0.203125 C 4.25,-6.5 4.34375,-6.5 4.484375,-6.5 4.921875,-6.5 5,-6.4375 5.015625,-6.25 l 0.0625,0.765625 -2.53125,4.390625 -0.375,-5.046875 c 0,-0.125 0,-0.34375 0.765625,-0.359375 0.09375,0 0.203125,0 0.203125,-0.203125 C 3.140625,-6.8125 3.015625,-6.8125 3,-6.8125 c -0.390625,0 -0.8125,0.03125 -1.21875,0.03125 -0.359375,0 -0.71875,-0.03125 -1.046875,-0.03125 -0.0625,0 -0.1875,0 -0.1875,0.1875 0,0.125 0.09375,0.125 0.25,0.125 0.5,0 0.515625,0.09375 0.53125,0.375 l 0.453125,6.078125 c 0,0.1875 0.015625,0.265625 0.15625,0.265625 0.109375,0 0.140625,-0.0625 0.234375,-0.203125 l 2.9375,-5.09375 0.359375,5.03125 C 5.5,0.171875 5.515625,0.21875 5.625,0.21875 c 0.140625,0 0.203125,-0.09375 0.25,-0.1875 z m 0,0"
   id="id-9a483cb4-e0e7-4673-bbb4-a29009e6e52d-4" />&#10;      </g>&#10;      <g
   id="id-5da51a75-525d-4b90-bac2-c0db1660ebed-1">&#10;        <path
   d="m 1.46875,-4.296875 c 0,-0.203125 -0.171875,-0.40625 -0.40625,-0.40625 -0.203125,0 -0.390625,0.171875 -0.390625,0.40625 0,0.25 0.203125,0.40625 0.390625,0.40625 0.234375,0 0.40625,-0.171875 0.40625,-0.40625 z M 0.40625,-3 v 0.25 c 0.4375,0 0.5,0.046875 0.5,0.390625 v 1.8125 C 0.90625,-0.25 0.84375,-0.25 0.390625,-0.25 V 0 c 0.015625,0 0.5,-0.03125 0.78125,-0.03125 0.25,0 0.5,0.015625 0.734375,0.03125 V -0.25 C 1.5,-0.25 1.4375,-0.25 1.4375,-0.546875 v -2.53125 z m 0,0"
   id="id-4fc673fc-9a76-4b28-8390-93e9b8297511-6" />&#10;      </g>&#10;      <g
   id="id-5fa9cba9-1041-4134-92bc-e5945a6468d6-1">&#10;        <path
   d="m 3.59375,-2.109375 c 0,-0.609375 -0.296875,-0.96875 -1.046875,-0.96875 -0.578125,0 -0.9375,0.3125 -1.140625,0.6875 v -0.6875 L 0.375,-3 v 0.25 c 0.46875,0 0.53125,0.046875 0.53125,0.390625 v 1.8125 C 0.90625,-0.25 0.828125,-0.25 0.375,-0.25 V 0 C 0.390625,0 0.875,-0.03125 1.171875,-0.03125 1.421875,-0.03125 1.90625,0 1.96875,0 v -0.25 c -0.453125,0 -0.515625,0 -0.515625,-0.296875 V -1.8125 c 0,-0.71875 0.578125,-1.0625 1.03125,-1.0625 0.484375,0 0.546875,0.375 0.546875,0.734375 v 1.59375 C 3.03125,-0.25 2.96875,-0.25 2.515625,-0.25 V 0 C 2.53125,0 3.015625,-0.03125 3.3125,-0.03125 3.5625,-0.03125 4.046875,0 4.109375,0 v -0.25 c -0.453125,0 -0.515625,0 -0.515625,-0.296875 z m 0,0"
   id="id-427aeb33-50c0-489e-936f-73ae527186f1-2" />&#10;      </g>&#10;      <g
   id="id-dc3ff041-fa16-4efb-a24f-9a78bed36a54-0">&#10;        <path
   d="M 1.40625,-2.75 H 2.484375 V -3 H 1.40625 v -1.28125 h -0.25 c 0,0.625 -0.28125,1.3125 -0.953125,1.328125 V -2.75 H 0.84375 v 1.875 c 0,0.78125 0.59375,0.9375 0.984375,0.9375 0.46875,0 0.78125,-0.390625 0.78125,-0.9375 V -1.265625 H 2.375 v 0.375 c 0,0.484375 -0.21875,0.734375 -0.5,0.734375 -0.46875,0 -0.46875,-0.578125 -0.46875,-0.703125 z m 0,0"
   id="id-37698d10-6941-4036-88b6-c463c01c551a-4" />&#10;      </g>&#10;      <g
   id="id-c2bb8f40-53a7-4e26-9be0-ef88d9b2dcc4-4">&#10;        <path
   d="m 4.578125,-0.921875 c 0,-0.21875 0,-0.28125 -0.125,-0.28125 -0.609375,0 -1.609375,-0.078125 -2.5,-0.515625 C 0.875,-2.265625 0.46875,-2.890625 0.21875,-3.28125 0.1875,-3.328125 0.125,-3.328125 0,-3.328125 c -0.234375,0 -0.234375,0.015625 -0.234375,0.25 V -2.90625 C 1.109375,-0.46875 3.359375,0 4.375,0 4.578125,0 4.578125,-0.015625 4.578125,-0.28125 Z m 0,0"
   id="id-0f497481-a1d3-46a9-948c-3cfab6a60250-5" />&#10;      </g>&#10;      <g
   id="id-eb2957df-1432-4ce9-b1e6-f6244bbe39bf-9">&#10;        <path
   d="M 4.71875,1.71875 C 3.375,-0.734375 1.125,-1.203125 0.109375,-1.203125 c -0.203125,0 -0.203125,0.015625 -0.203125,0.28125 v 0.640625 c 0,0.234375 0,0.28125 0.140625,0.28125 0.59375,0.015625 1.59375,0.09375 2.484375,0.53125 1.078125,0.53125 1.484375,1.15625 1.734375,1.546875 0.03125,0.0625 0.09375,0.0625 0.21875,0.0625 C 4.71875,2.140625 4.71875,2.125 4.71875,1.875 Z m 0,0"
   id="id-771e15f4-904c-44b1-b816-706fbff3a679-7" />&#10;      </g>&#10;      <g
   id="id-484bc356-2f17-4b3c-b86e-fd5b82eb2f94-5">&#10;        <path
   d="m 4.578125,-0.921875 c 0,-0.265625 0,-0.28125 -0.203125,-0.28125 -1.015625,0 -3.265625,0.484375 -4.609375,2.921875 V 1.875 c 0,0.25 0,0.265625 0.234375,0.265625 0.1875,0 0.203125,-0.015625 0.25,-0.09375 C 1.0625,0.75 2.4375,0.046875 4.46875,0 4.578125,0 4.578125,-0.0625 4.578125,-0.28125 Z m 0,0"
   id="id-c9ff488e-9c69-4dd5-9bb5-ff017f1659d5-3" />&#10;      </g>&#10;      <g
   id="id-59e885be-b140-405a-813e-ba87fe06d8aa-9">&#10;        <path
   d="m 4.71875,-3.078125 c 0,-0.234375 0,-0.25 -0.234375,-0.25 -0.1875,0 -0.203125,0.015625 -0.25,0.078125 -0.8125,1.3125 -2.1875,2.015625 -4.21875,2.046875 -0.109375,0 -0.109375,0.078125 -0.109375,0.28125 v 0.640625 c 0,0.265625 0,0.28125 0.203125,0.28125 C 1.125,0 3.375,-0.484375 4.71875,-2.90625 Z m 0,0"
   id="id-11903986-56c8-4156-aed0-4a368bfa2138-0" />&#10;      </g>&#10;      <g
   id="id-34449772-ef8e-4971-b505-9f1932e51471-5">&#10;        <path
   d="m 3.03125,-0.5625 c -0.046875,0.140625 -0.109375,0.375 -0.109375,0.40625 0,0.15625 0.125,0.21875 0.234375,0.21875 0.140625,0 0.25,-0.078125 0.28125,-0.140625 0.03125,-0.0625 0.09375,-0.296875 0.125,-0.4375 0.03125,-0.125 0.109375,-0.453125 0.15625,-0.625 0.03125,-0.15625 0.078125,-0.3125 0.109375,-0.46875 0.078125,-0.296875 0.078125,-0.3125 0.21875,-0.53125 C 4.265625,-2.484375 4.625,-2.875 5.15625,-2.875 c 0.390625,0 0.421875,0.3125 0.421875,0.484375 0,0.421875 -0.296875,1.1875 -0.421875,1.484375 -0.0625,0.203125 -0.09375,0.265625 -0.09375,0.375 0,0.375 0.296875,0.59375 0.65625,0.59375 0.703125,0 1,-0.953125 1,-1.0625 0,-0.09375 -0.078125,-0.09375 -0.109375,-0.09375 -0.09375,0 -0.09375,0.046875 -0.125,0.125 C 6.328125,-0.40625 6.015625,-0.125 5.75,-0.125 c -0.15625,0 -0.1875,-0.09375 -0.1875,-0.25 0,-0.15625 0.046875,-0.25 0.171875,-0.5625 0.078125,-0.21875 0.359375,-0.953125 0.359375,-1.34375 0,-0.109375 0,-0.40625 -0.25,-0.609375 -0.125,-0.078125 -0.328125,-0.1875 -0.65625,-0.1875 -0.625,0 -1,0.421875 -1.234375,0.703125 C 3.90625,-2.96875 3.40625,-3.078125 3.046875,-3.078125 2.46875,-3.078125 2.078125,-2.71875 1.875,-2.4375 1.828125,-2.921875 1.421875,-3.078125 1.125,-3.078125 c -0.296875,0 -0.453125,0.21875 -0.546875,0.375 -0.15625,0.265625 -0.25,0.65625 -0.25,0.703125 0,0.078125 0.09375,0.078125 0.125,0.078125 0.09375,0 0.09375,-0.015625 0.140625,-0.203125 0.109375,-0.40625 0.25,-0.75 0.515625,-0.75 0.1875,0 0.234375,0.15625 0.234375,0.34375 0,0.125 -0.0625,0.390625 -0.125,0.578125 -0.046875,0.1875 -0.109375,0.46875 -0.140625,0.625 L 0.84375,-0.4375 c -0.015625,0.09375 -0.0625,0.265625 -0.0625,0.28125 0,0.15625 0.125,0.21875 0.234375,0.21875 0.125,0 0.234375,-0.078125 0.28125,-0.140625 0.03125,-0.0625 0.078125,-0.296875 0.125,-0.4375 0.03125,-0.125 0.109375,-0.453125 0.140625,-0.625 0.046875,-0.15625 0.09375,-0.3125 0.125,-0.46875 0.078125,-0.28125 0.09375,-0.34375 0.296875,-0.625 C 2.171875,-2.515625 2.5,-2.875 3.03125,-2.875 c 0.390625,0 0.40625,0.359375 0.40625,0.484375 0,0.171875 -0.015625,0.265625 -0.125,0.65625 z m 0,0"
   id="id-94c997ef-d820-4d67-89b1-0006396aa089-5" />&#10;      </g>&#10;      <g
   id="id-bdd52278-4e86-403c-ad21-2d28b582c3e7-6">&#10;        <path
   d="m 0.84375,-0.4375 c -0.015625,0.09375 -0.0625,0.265625 -0.0625,0.28125 0,0.15625 0.125,0.21875 0.234375,0.21875 0.125,0 0.234375,-0.078125 0.28125,-0.140625 0.03125,-0.0625 0.078125,-0.296875 0.125,-0.4375 0.03125,-0.125 0.109375,-0.453125 0.140625,-0.625 0.046875,-0.15625 0.09375,-0.3125 0.125,-0.46875 0.078125,-0.28125 0.09375,-0.34375 0.296875,-0.625 C 2.171875,-2.515625 2.5,-2.875 3.03125,-2.875 c 0.390625,0 0.40625,0.359375 0.40625,0.484375 0,0.421875 -0.296875,1.1875 -0.40625,1.484375 -0.078125,0.203125 -0.109375,0.265625 -0.109375,0.375 0,0.375 0.296875,0.59375 0.65625,0.59375 0.703125,0 1,-0.953125 1,-1.0625 0,-0.09375 -0.078125,-0.09375 -0.109375,-0.09375 -0.09375,0 -0.09375,0.046875 -0.125,0.125 C 4.1875,-0.40625 3.875,-0.125 3.609375,-0.125 c -0.15625,0 -0.1875,-0.09375 -0.1875,-0.25 0,-0.15625 0.046875,-0.25 0.171875,-0.5625 0.078125,-0.21875 0.359375,-0.953125 0.359375,-1.34375 0,-0.671875 -0.53125,-0.796875 -0.90625,-0.796875 -0.578125,0 -0.96875,0.359375 -1.171875,0.640625 -0.046875,-0.484375 -0.453125,-0.640625 -0.75,-0.640625 -0.296875,0 -0.453125,0.21875 -0.546875,0.375 -0.15625,0.265625 -0.25,0.65625 -0.25,0.703125 0,0.078125 0.09375,0.078125 0.125,0.078125 0.09375,0 0.09375,-0.015625 0.140625,-0.203125 0.109375,-0.40625 0.25,-0.75 0.515625,-0.75 0.1875,0 0.234375,0.15625 0.234375,0.34375 0,0.125 -0.0625,0.390625 -0.125,0.578125 -0.046875,0.1875 -0.109375,0.46875 -0.140625,0.625 z m 0,0"
   id="id-2f0e1c40-a5a0-41f6-8248-66575316d4df-3" />&#10;      </g>&#10;      <g
   id="id-4ac29f68-b76a-4c90-9224-a5fbff84065a-2">&#10;        <path
   d="m 4.875,-3.265625 c 0.078125,-0.078125 0.09375,-0.125 0.09375,-0.171875 0,-0.109375 -0.078125,-0.171875 -0.15625,-0.171875 -0.078125,0 -0.09375,0.015625 -0.171875,0.109375 l -1.53125,1.515625 -1.53125,-1.53125 c -0.078125,-0.0625 -0.09375,-0.09375 -0.15625,-0.09375 -0.109375,0 -0.1875,0.078125 -0.1875,0.171875 0,0.0625 0.03125,0.078125 0.109375,0.171875 L 2.859375,-1.75 1.34375,-0.234375 C 1.25,-0.125 1.234375,-0.09375 1.234375,-0.0625 c 0,0.109375 0.078125,0.1875 0.1875,0.1875 0.0625,0 0.078125,-0.03125 0.15625,-0.109375 L 3.109375,-1.5 4.703125,0.078125 C 4.734375,0.109375 4.765625,0.125 4.8125,0.125 c 0.078125,0 0.15625,-0.0625 0.15625,-0.1875 0,-0.046875 0,-0.0625 -0.03125,-0.078125 -0.015625,-0.03125 -1.359375,-1.390625 -1.578125,-1.59375 z m 0,0"
   id="id-4a48cce7-efd7-467b-9df6-9b9cdb7a0521-6" />&#10;      </g>&#10;    </g><g
       id="id-5440201f-a6b2-4502-80a5-91023e27acd3-6">&#10;      <g
   id="id-f0541915-4952-4a63-9dc7-ae98353480df-8">&#10;        <path
   d="m 9.140625,-5.65625 c 0.25,-0.4375 0.484375,-0.796875 1.125,-0.84375 0.07813,-0.015625 0.1875,-0.015625 0.1875,-0.203125 0,-0.03125 -0.04687,-0.109375 -0.125,-0.109375 -0.234375,0 -0.515625,0.03125 -0.765625,0.03125 -0.34375,0 -0.703125,-0.03125 -1.046875,-0.03125 -0.046875,0 -0.1875,0 -0.1875,0.1875 0,0.109375 0.09375,0.125 0.15625,0.125 0.234375,0.015625 0.59375,0.09375 0.59375,0.390625 0,0.109375 -0.0625,0.1875 -0.140625,0.328125 L 6.25,-1.09375 5.875,-6.03125 c 0,-0.203125 -0.015625,-0.453125 0.703125,-0.46875 0.171875,0 0.265625,0 0.265625,-0.203125 0,-0.09375 -0.109375,-0.109375 -0.140625,-0.109375 -0.40625,0 -0.828125,0.03125 -1.21875,0.03125 -0.234375,0 -0.8125,-0.03125 -1.046875,-0.03125 -0.0625,0 -0.1875,0 -0.1875,0.203125 C 4.25,-6.5 4.34375,-6.5 4.484375,-6.5 4.921875,-6.5 5,-6.4375 5.015625,-6.25 l 0.0625,0.765625 -2.53125,4.390625 -0.375,-5.046875 c 0,-0.125 0,-0.34375 0.765625,-0.359375 0.09375,0 0.203125,0 0.203125,-0.203125 C 3.140625,-6.8125 3.015625,-6.8125 3,-6.8125 c -0.390625,0 -0.8125,0.03125 -1.21875,0.03125 -0.359375,0 -0.71875,-0.03125 -1.046875,-0.03125 -0.0625,0 -0.1875,0 -0.1875,0.1875 0,0.125 0.09375,0.125 0.25,0.125 0.5,0 0.515625,0.09375 0.53125,0.375 l 0.453125,6.078125 c 0,0.1875 0.015625,0.265625 0.15625,0.265625 0.109375,0 0.140625,-0.0625 0.234375,-0.203125 l 2.9375,-5.09375 0.359375,5.03125 C 5.5,0.171875 5.515625,0.21875 5.625,0.21875 c 0.140625,0 0.203125,-0.09375 0.25,-0.1875 z m 0,0"
   id="id-9a483cb4-e0e7-4673-bbb4-a29009e6e52d-5" />&#10;      </g>&#10;      <g
   id="id-5da51a75-525d-4b90-bac2-c0db1660ebed-3">&#10;        <path
   d="m 1.46875,-4.296875 c 0,-0.203125 -0.171875,-0.40625 -0.40625,-0.40625 -0.203125,0 -0.390625,0.171875 -0.390625,0.40625 0,0.25 0.203125,0.40625 0.390625,0.40625 0.234375,0 0.40625,-0.171875 0.40625,-0.40625 z M 0.40625,-3 v 0.25 c 0.4375,0 0.5,0.046875 0.5,0.390625 v 1.8125 C 0.90625,-0.25 0.84375,-0.25 0.390625,-0.25 V 0 c 0.015625,0 0.5,-0.03125 0.78125,-0.03125 0.25,0 0.5,0.015625 0.734375,0.03125 V -0.25 C 1.5,-0.25 1.4375,-0.25 1.4375,-0.546875 v -2.53125 z m 0,0"
   id="id-4fc673fc-9a76-4b28-8390-93e9b8297511-7" />&#10;      </g>&#10;      <g
   id="id-5fa9cba9-1041-4134-92bc-e5945a6468d6-6">&#10;        <path
   d="m 3.59375,-2.109375 c 0,-0.609375 -0.296875,-0.96875 -1.046875,-0.96875 -0.578125,0 -0.9375,0.3125 -1.140625,0.6875 v -0.6875 L 0.375,-3 v 0.25 c 0.46875,0 0.53125,0.046875 0.53125,0.390625 v 1.8125 C 0.90625,-0.25 0.828125,-0.25 0.375,-0.25 V 0 C 0.390625,0 0.875,-0.03125 1.171875,-0.03125 1.421875,-0.03125 1.90625,0 1.96875,0 v -0.25 c -0.453125,0 -0.515625,0 -0.515625,-0.296875 V -1.8125 c 0,-0.71875 0.578125,-1.0625 1.03125,-1.0625 0.484375,0 0.546875,0.375 0.546875,0.734375 v 1.59375 C 3.03125,-0.25 2.96875,-0.25 2.515625,-0.25 V 0 C 2.53125,0 3.015625,-0.03125 3.3125,-0.03125 3.5625,-0.03125 4.046875,0 4.109375,0 v -0.25 c -0.453125,0 -0.515625,0 -0.515625,-0.296875 z m 0,0"
   id="id-427aeb33-50c0-489e-936f-73ae527186f1-8" />&#10;      </g>&#10;      <g
   id="id-dc3ff041-fa16-4efb-a24f-9a78bed36a54-6">&#10;        <path
   d="M 1.40625,-2.75 H 2.484375 V -3 H 1.40625 v -1.28125 h -0.25 c 0,0.625 -0.28125,1.3125 -0.953125,1.328125 V -2.75 H 0.84375 v 1.875 c 0,0.78125 0.59375,0.9375 0.984375,0.9375 0.46875,0 0.78125,-0.390625 0.78125,-0.9375 V -1.265625 H 2.375 v 0.375 c 0,0.484375 -0.21875,0.734375 -0.5,0.734375 -0.46875,0 -0.46875,-0.578125 -0.46875,-0.703125 z m 0,0"
   id="id-37698d10-6941-4036-88b6-c463c01c551a-7" />&#10;      </g>&#10;      <g
   id="id-c2bb8f40-53a7-4e26-9be0-ef88d9b2dcc4-1">&#10;        <path
   d="m 4.578125,-0.921875 c 0,-0.21875 0,-0.28125 -0.125,-0.28125 -0.609375,0 -1.609375,-0.078125 -2.5,-0.515625 C 0.875,-2.265625 0.46875,-2.890625 0.21875,-3.28125 0.1875,-3.328125 0.125,-3.328125 0,-3.328125 c -0.234375,0 -0.234375,0.015625 -0.234375,0.25 V -2.90625 C 1.109375,-0.46875 3.359375,0 4.375,0 4.578125,0 4.578125,-0.015625 4.578125,-0.28125 Z m 0,0"
   id="id-0f497481-a1d3-46a9-948c-3cfab6a60250-8" />&#10;      </g>&#10;      <g
   id="id-eb2957df-1432-4ce9-b1e6-f6244bbe39bf-4">&#10;        <path
   d="M 4.71875,1.71875 C 3.375,-0.734375 1.125,-1.203125 0.109375,-1.203125 c -0.203125,0 -0.203125,0.015625 -0.203125,0.28125 v 0.640625 c 0,0.234375 0,0.28125 0.140625,0.28125 0.59375,0.015625 1.59375,0.09375 2.484375,0.53125 1.078125,0.53125 1.484375,1.15625 1.734375,1.546875 0.03125,0.0625 0.09375,0.0625 0.21875,0.0625 C 4.71875,2.140625 4.71875,2.125 4.71875,1.875 Z m 0,0"
   id="id-771e15f4-904c-44b1-b816-706fbff3a679-9" />&#10;      </g>&#10;      <g
   id="id-484bc356-2f17-4b3c-b86e-fd5b82eb2f94-7">&#10;        <path
   d="m 4.578125,-0.921875 c 0,-0.265625 0,-0.28125 -0.203125,-0.28125 -1.015625,0 -3.265625,0.484375 -4.609375,2.921875 V 1.875 c 0,0.25 0,0.265625 0.234375,0.265625 0.1875,0 0.203125,-0.015625 0.25,-0.09375 C 1.0625,0.75 2.4375,0.046875 4.46875,0 4.578125,0 4.578125,-0.0625 4.578125,-0.28125 Z m 0,0"
   id="id-c9ff488e-9c69-4dd5-9bb5-ff017f1659d5-31" />&#10;      </g>&#10;      <g
   id="id-59e885be-b140-405a-813e-ba87fe06d8aa-0">&#10;        <path
   d="m 4.71875,-3.078125 c 0,-0.234375 0,-0.25 -0.234375,-0.25 -0.1875,0 -0.203125,0.015625 -0.25,0.078125 -0.8125,1.3125 -2.1875,2.015625 -4.21875,2.046875 -0.109375,0 -0.109375,0.078125 -0.109375,0.28125 v 0.640625 c 0,0.265625 0,0.28125 0.203125,0.28125 C 1.125,0 3.375,-0.484375 4.71875,-2.90625 Z m 0,0"
   id="id-11903986-56c8-4156-aed0-4a368bfa2138-2" />&#10;      </g>&#10;      <g
   id="id-34449772-ef8e-4971-b505-9f1932e51471-3">&#10;        <path
   d="m 3.03125,-0.5625 c -0.046875,0.140625 -0.109375,0.375 -0.109375,0.40625 0,0.15625 0.125,0.21875 0.234375,0.21875 0.140625,0 0.25,-0.078125 0.28125,-0.140625 0.03125,-0.0625 0.09375,-0.296875 0.125,-0.4375 0.03125,-0.125 0.109375,-0.453125 0.15625,-0.625 0.03125,-0.15625 0.078125,-0.3125 0.109375,-0.46875 0.078125,-0.296875 0.078125,-0.3125 0.21875,-0.53125 C 4.265625,-2.484375 4.625,-2.875 5.15625,-2.875 c 0.390625,0 0.421875,0.3125 0.421875,0.484375 0,0.421875 -0.296875,1.1875 -0.421875,1.484375 -0.0625,0.203125 -0.09375,0.265625 -0.09375,0.375 0,0.375 0.296875,0.59375 0.65625,0.59375 0.703125,0 1,-0.953125 1,-1.0625 0,-0.09375 -0.078125,-0.09375 -0.109375,-0.09375 -0.09375,0 -0.09375,0.046875 -0.125,0.125 C 6.328125,-0.40625 6.015625,-0.125 5.75,-0.125 c -0.15625,0 -0.1875,-0.09375 -0.1875,-0.25 0,-0.15625 0.046875,-0.25 0.171875,-0.5625 0.078125,-0.21875 0.359375,-0.953125 0.359375,-1.34375 0,-0.109375 0,-0.40625 -0.25,-0.609375 -0.125,-0.078125 -0.328125,-0.1875 -0.65625,-0.1875 -0.625,0 -1,0.421875 -1.234375,0.703125 C 3.90625,-2.96875 3.40625,-3.078125 3.046875,-3.078125 2.46875,-3.078125 2.078125,-2.71875 1.875,-2.4375 1.828125,-2.921875 1.421875,-3.078125 1.125,-3.078125 c -0.296875,0 -0.453125,0.21875 -0.546875,0.375 -0.15625,0.265625 -0.25,0.65625 -0.25,0.703125 0,0.078125 0.09375,0.078125 0.125,0.078125 0.09375,0 0.09375,-0.015625 0.140625,-0.203125 0.109375,-0.40625 0.25,-0.75 0.515625,-0.75 0.1875,0 0.234375,0.15625 0.234375,0.34375 0,0.125 -0.0625,0.390625 -0.125,0.578125 -0.046875,0.1875 -0.109375,0.46875 -0.140625,0.625 L 0.84375,-0.4375 c -0.015625,0.09375 -0.0625,0.265625 -0.0625,0.28125 0,0.15625 0.125,0.21875 0.234375,0.21875 0.125,0 0.234375,-0.078125 0.28125,-0.140625 0.03125,-0.0625 0.078125,-0.296875 0.125,-0.4375 0.03125,-0.125 0.109375,-0.453125 0.140625,-0.625 0.046875,-0.15625 0.09375,-0.3125 0.125,-0.46875 0.078125,-0.28125 0.09375,-0.34375 0.296875,-0.625 C 2.171875,-2.515625 2.5,-2.875 3.03125,-2.875 c 0.390625,0 0.40625,0.359375 0.40625,0.484375 0,0.171875 -0.015625,0.265625 -0.125,0.65625 z m 0,0"
   id="id-94c997ef-d820-4d67-89b1-0006396aa089-7" />&#10;      </g>&#10;      <g
   id="id-bdd52278-4e86-403c-ad21-2d28b582c3e7-1">&#10;        <path
   d="m 0.84375,-0.4375 c -0.015625,0.09375 -0.0625,0.265625 -0.0625,0.28125 0,0.15625 0.125,0.21875 0.234375,0.21875 0.125,0 0.234375,-0.078125 0.28125,-0.140625 0.03125,-0.0625 0.078125,-0.296875 0.125,-0.4375 0.03125,-0.125 0.109375,-0.453125 0.140625,-0.625 0.046875,-0.15625 0.09375,-0.3125 0.125,-0.46875 0.078125,-0.28125 0.09375,-0.34375 0.296875,-0.625 C 2.171875,-2.515625 2.5,-2.875 3.03125,-2.875 c 0.390625,0 0.40625,0.359375 0.40625,0.484375 0,0.421875 -0.296875,1.1875 -0.40625,1.484375 -0.078125,0.203125 -0.109375,0.265625 -0.109375,0.375 0,0.375 0.296875,0.59375 0.65625,0.59375 0.703125,0 1,-0.953125 1,-1.0625 0,-0.09375 -0.078125,-0.09375 -0.109375,-0.09375 -0.09375,0 -0.09375,0.046875 -0.125,0.125 C 4.1875,-0.40625 3.875,-0.125 3.609375,-0.125 c -0.15625,0 -0.1875,-0.09375 -0.1875,-0.25 0,-0.15625 0.046875,-0.25 0.171875,-0.5625 0.078125,-0.21875 0.359375,-0.953125 0.359375,-1.34375 0,-0.671875 -0.53125,-0.796875 -0.90625,-0.796875 -0.578125,0 -0.96875,0.359375 -1.171875,0.640625 -0.046875,-0.484375 -0.453125,-0.640625 -0.75,-0.640625 -0.296875,0 -0.453125,0.21875 -0.546875,0.375 -0.15625,0.265625 -0.25,0.65625 -0.25,0.703125 0,0.078125 0.09375,0.078125 0.125,0.078125 0.09375,0 0.09375,-0.015625 0.140625,-0.203125 0.109375,-0.40625 0.25,-0.75 0.515625,-0.75 0.1875,0 0.234375,0.15625 0.234375,0.34375 0,0.125 -0.0625,0.390625 -0.125,0.578125 -0.046875,0.1875 -0.109375,0.46875 -0.140625,0.625 z m 0,0"
   id="id-2f0e1c40-a5a0-41f6-8248-66575316d4df-8" />&#10;      </g>&#10;      <g
   id="id-4ac29f68-b76a-4c90-9224-a5fbff84065a-9">&#10;        <path
   d="m 4.875,-3.265625 c 0.078125,-0.078125 0.09375,-0.125 0.09375,-0.171875 0,-0.109375 -0.078125,-0.171875 -0.15625,-0.171875 -0.078125,0 -0.09375,0.015625 -0.171875,0.109375 l -1.53125,1.515625 -1.53125,-1.53125 c -0.078125,-0.0625 -0.09375,-0.09375 -0.15625,-0.09375 -0.109375,0 -0.1875,0.078125 -0.1875,0.171875 0,0.0625 0.03125,0.078125 0.109375,0.171875 L 2.859375,-1.75 1.34375,-0.234375 C 1.25,-0.125 1.234375,-0.09375 1.234375,-0.0625 c 0,0.109375 0.078125,0.1875 0.1875,0.1875 0.0625,0 0.078125,-0.03125 0.15625,-0.109375 L 3.109375,-1.5 4.703125,0.078125 C 4.734375,0.109375 4.765625,0.125 4.8125,0.125 c 0.078125,0 0.15625,-0.0625 0.15625,-0.1875 0,-0.046875 0,-0.0625 -0.03125,-0.078125 -0.015625,-0.03125 -1.359375,-1.390625 -1.578125,-1.59375 z m 0,0"
   id="id-4a48cce7-efd7-467b-9df6-9b9cdb7a0521-3" />&#10;      </g>&#10;    </g><g
       id="id-65565c45-d68c-4550-96fa-a2fdec705dfb-3">&#10;      <g
   id="id-f4136e6f-d8b8-420e-bfe6-e458e4710e2e-8">&#10;        <path
   d="m 4.40625,-6.953125 c -0.0625,-0.140625 -0.09375,-0.1875 -0.265625,-0.1875 -0.15625,0 -0.1875,0.046875 -0.25,0.1875 l -3.375,6.75 C 0.46875,-0.109375 0.46875,-0.09375 0.46875,-0.078125 0.46875,0 0.53125,0 0.6875,0 h 6.921875 c 0.15625,0 0.21875,0 0.21875,-0.078125 0,-0.015625 0,-0.03125 -0.046875,-0.125 z m -0.578125,0.8125 2.6875,5.390625 h -5.375 z m 0,0"
   id="id-34ee97cb-e8f6-4761-9207-090a9fc51b0a-5" />&#10;      </g>&#10;      <g
   id="id-aec68652-6db5-49e7-9e5b-bf7a34985731-8">&#10;        <path
   d="m 9.140625,-5.65625 c 0.25,-0.4375 0.484375,-0.796875 1.125,-0.84375 0.07813,-0.015625 0.1875,-0.015625 0.1875,-0.203125 0,-0.03125 -0.04687,-0.109375 -0.125,-0.109375 -0.234375,0 -0.515625,0.03125 -0.765625,0.03125 -0.34375,0 -0.703125,-0.03125 -1.046875,-0.03125 -0.046875,0 -0.1875,0 -0.1875,0.1875 0,0.109375 0.09375,0.125 0.15625,0.125 0.234375,0.015625 0.59375,0.09375 0.59375,0.390625 0,0.109375 -0.0625,0.1875 -0.140625,0.328125 L 6.25,-1.09375 5.875,-6.03125 c 0,-0.203125 -0.015625,-0.453125 0.703125,-0.46875 0.171875,0 0.265625,0 0.265625,-0.203125 0,-0.09375 -0.109375,-0.109375 -0.140625,-0.109375 -0.40625,0 -0.828125,0.03125 -1.21875,0.03125 -0.234375,0 -0.8125,-0.03125 -1.046875,-0.03125 -0.0625,0 -0.1875,0 -0.1875,0.203125 C 4.25,-6.5 4.34375,-6.5 4.484375,-6.5 4.921875,-6.5 5,-6.4375 5.015625,-6.25 l 0.0625,0.765625 -2.53125,4.390625 -0.375,-5.046875 c 0,-0.125 0,-0.34375 0.765625,-0.359375 0.09375,0 0.203125,0 0.203125,-0.203125 C 3.140625,-6.8125 3.015625,-6.8125 3,-6.8125 c -0.390625,0 -0.8125,0.03125 -1.21875,0.03125 -0.359375,0 -0.71875,-0.03125 -1.046875,-0.03125 -0.0625,0 -0.1875,0 -0.1875,0.1875 0,0.125 0.09375,0.125 0.25,0.125 0.5,0 0.515625,0.09375 0.53125,0.375 l 0.453125,6.078125 c 0,0.1875 0.015625,0.265625 0.15625,0.265625 0.109375,0 0.140625,-0.0625 0.234375,-0.203125 l 2.9375,-5.09375 0.359375,5.03125 C 5.5,0.171875 5.515625,0.21875 5.625,0.21875 c 0.140625,0 0.203125,-0.09375 0.25,-0.1875 z m 0,0"
   id="id-797a95b0-fa41-49f7-95d9-4850e08369f3-9" />&#10;      </g>&#10;      <g
   id="id-f9302de9-825e-4c22-87a2-f168b3233d9d-6">&#10;        <path
   d="m 4.578125,-0.921875 c 0,-0.21875 0,-0.28125 -0.125,-0.28125 -0.609375,0 -1.609375,-0.078125 -2.5,-0.515625 C 0.875,-2.265625 0.46875,-2.890625 0.21875,-3.28125 0.1875,-3.328125 0.125,-3.328125 0,-3.328125 c -0.234375,0 -0.234375,0.015625 -0.234375,0.25 V -2.90625 C 1.109375,-0.46875 3.359375,0 4.375,0 4.578125,0 4.578125,-0.015625 4.578125,-0.28125 Z m 0,0"
   id="id-134615d8-a992-4c5d-a23f-92322df5996b-0" />&#10;      </g>&#10;      <g
   id="id-8d530b3f-52d7-419d-bb0e-ad6828b0efe0-4">&#10;        <path
   d="M 4.71875,1.71875 C 3.375,-0.734375 1.125,-1.203125 0.109375,-1.203125 c -0.203125,0 -0.203125,0.015625 -0.203125,0.28125 v 0.640625 c 0,0.234375 0,0.28125 0.140625,0.28125 0.59375,0.015625 1.59375,0.09375 2.484375,0.53125 1.078125,0.53125 1.484375,1.15625 1.734375,1.546875 0.03125,0.0625 0.09375,0.0625 0.21875,0.0625 C 4.71875,2.140625 4.71875,2.125 4.71875,1.875 Z m 0,0"
   id="id-b6929d07-99a2-4c3e-96df-622ac871c7d2-2" />&#10;      </g>&#10;      <g
   id="id-7457f838-e9a4-4a8a-9932-bc7cc552cdaf-3">&#10;        <path
   d="m 4.578125,-0.921875 c 0,-0.265625 0,-0.28125 -0.203125,-0.28125 -1.015625,0 -3.265625,0.484375 -4.609375,2.921875 V 1.875 c 0,0.25 0,0.265625 0.234375,0.265625 0.1875,0 0.203125,-0.015625 0.25,-0.09375 C 1.0625,0.75 2.4375,0.046875 4.46875,0 4.578125,0 4.578125,-0.0625 4.578125,-0.28125 Z m 0,0"
   id="id-aac83268-ee96-4db3-b9cf-e27a80b9454d-3" />&#10;      </g>&#10;      <g
   id="id-5af114f9-d5a6-4217-a681-0b7ad3a96cca-7">&#10;        <path
   d="m 4.71875,-3.078125 c 0,-0.234375 0,-0.25 -0.234375,-0.25 -0.1875,0 -0.203125,0.015625 -0.25,0.078125 -0.8125,1.3125 -2.1875,2.015625 -4.21875,2.046875 -0.109375,0 -0.109375,0.078125 -0.109375,0.28125 v 0.640625 c 0,0.265625 0,0.28125 0.203125,0.28125 C 1.125,0 3.375,-0.484375 4.71875,-2.90625 Z m 0,0"
   id="id-0965639e-d1c8-42f1-a3b1-bc58d7c3c3c7-0" />&#10;      </g>&#10;      <g
   id="id-492d2fb0-16e4-442e-9396-69c71c966ed3-0">&#10;        <path
   d="m 3.03125,-0.5625 c -0.046875,0.140625 -0.109375,0.375 -0.109375,0.40625 0,0.15625 0.125,0.21875 0.234375,0.21875 0.140625,0 0.25,-0.078125 0.28125,-0.140625 0.03125,-0.0625 0.09375,-0.296875 0.125,-0.4375 0.03125,-0.125 0.109375,-0.453125 0.15625,-0.625 0.03125,-0.15625 0.078125,-0.3125 0.109375,-0.46875 0.078125,-0.296875 0.078125,-0.3125 0.21875,-0.53125 C 4.265625,-2.484375 4.625,-2.875 5.15625,-2.875 c 0.390625,0 0.421875,0.3125 0.421875,0.484375 0,0.421875 -0.296875,1.1875 -0.421875,1.484375 -0.0625,0.203125 -0.09375,0.265625 -0.09375,0.375 0,0.375 0.296875,0.59375 0.65625,0.59375 0.703125,0 1,-0.953125 1,-1.0625 0,-0.09375 -0.078125,-0.09375 -0.109375,-0.09375 -0.09375,0 -0.09375,0.046875 -0.125,0.125 C 6.328125,-0.40625 6.015625,-0.125 5.75,-0.125 c -0.15625,0 -0.1875,-0.09375 -0.1875,-0.25 0,-0.15625 0.046875,-0.25 0.171875,-0.5625 0.078125,-0.21875 0.359375,-0.953125 0.359375,-1.34375 0,-0.109375 0,-0.40625 -0.25,-0.609375 -0.125,-0.078125 -0.328125,-0.1875 -0.65625,-0.1875 -0.625,0 -1,0.421875 -1.234375,0.703125 C 3.90625,-2.96875 3.40625,-3.078125 3.046875,-3.078125 2.46875,-3.078125 2.078125,-2.71875 1.875,-2.4375 1.828125,-2.921875 1.421875,-3.078125 1.125,-3.078125 c -0.296875,0 -0.453125,0.21875 -0.546875,0.375 -0.15625,0.265625 -0.25,0.65625 -0.25,0.703125 0,0.078125 0.09375,0.078125 0.125,0.078125 0.09375,0 0.09375,-0.015625 0.140625,-0.203125 0.109375,-0.40625 0.25,-0.75 0.515625,-0.75 0.1875,0 0.234375,0.15625 0.234375,0.34375 0,0.125 -0.0625,0.390625 -0.125,0.578125 -0.046875,0.1875 -0.109375,0.46875 -0.140625,0.625 L 0.84375,-0.4375 c -0.015625,0.09375 -0.0625,0.265625 -0.0625,0.28125 0,0.15625 0.125,0.21875 0.234375,0.21875 0.125,0 0.234375,-0.078125 0.28125,-0.140625 0.03125,-0.0625 0.078125,-0.296875 0.125,-0.4375 0.03125,-0.125 0.109375,-0.453125 0.140625,-0.625 0.046875,-0.15625 0.09375,-0.3125 0.125,-0.46875 0.078125,-0.28125 0.09375,-0.34375 0.296875,-0.625 C 2.171875,-2.515625 2.5,-2.875 3.03125,-2.875 c 0.390625,0 0.40625,0.359375 0.40625,0.484375 0,0.171875 -0.015625,0.265625 -0.125,0.65625 z m 0,0"
   id="id-da90350d-86dc-4769-9380-24c7bb2b3efb-1" />&#10;      </g>&#10;      <g
   id="id-cf0ed1a9-b5b2-4887-a4c1-25f36e465fc3-0">&#10;        <path
   d="m 0.84375,-0.4375 c -0.015625,0.09375 -0.0625,0.265625 -0.0625,0.28125 0,0.15625 0.125,0.21875 0.234375,0.21875 0.125,0 0.234375,-0.078125 0.28125,-0.140625 0.03125,-0.0625 0.078125,-0.296875 0.125,-0.4375 0.03125,-0.125 0.109375,-0.453125 0.140625,-0.625 0.046875,-0.15625 0.09375,-0.3125 0.125,-0.46875 0.078125,-0.28125 0.09375,-0.34375 0.296875,-0.625 C 2.171875,-2.515625 2.5,-2.875 3.03125,-2.875 c 0.390625,0 0.40625,0.359375 0.40625,0.484375 0,0.421875 -0.296875,1.1875 -0.40625,1.484375 -0.078125,0.203125 -0.109375,0.265625 -0.109375,0.375 0,0.375 0.296875,0.59375 0.65625,0.59375 0.703125,0 1,-0.953125 1,-1.0625 0,-0.09375 -0.078125,-0.09375 -0.109375,-0.09375 -0.09375,0 -0.09375,0.046875 -0.125,0.125 C 4.1875,-0.40625 3.875,-0.125 3.609375,-0.125 c -0.15625,0 -0.1875,-0.09375 -0.1875,-0.25 0,-0.15625 0.046875,-0.25 0.171875,-0.5625 0.078125,-0.21875 0.359375,-0.953125 0.359375,-1.34375 0,-0.671875 -0.53125,-0.796875 -0.90625,-0.796875 -0.578125,0 -0.96875,0.359375 -1.171875,0.640625 -0.046875,-0.484375 -0.453125,-0.640625 -0.75,-0.640625 -0.296875,0 -0.453125,0.21875 -0.546875,0.375 -0.15625,0.265625 -0.25,0.65625 -0.25,0.703125 0,0.078125 0.09375,0.078125 0.125,0.078125 0.09375,0 0.09375,-0.015625 0.140625,-0.203125 0.109375,-0.40625 0.25,-0.75 0.515625,-0.75 0.1875,0 0.234375,0.15625 0.234375,0.34375 0,0.125 -0.0625,0.390625 -0.125,0.578125 -0.046875,0.1875 -0.109375,0.46875 -0.140625,0.625 z m 0,0"
   id="id-73f7f40e-64ac-4567-aff3-b2a14bb5d650-3" />&#10;      </g>&#10;      <g
   id="id-d93bcbb9-abdf-4996-a7ce-66489f212899-0">&#10;        <path
   d="m 4.875,-3.265625 c 0.078125,-0.078125 0.09375,-0.125 0.09375,-0.171875 0,-0.109375 -0.078125,-0.171875 -0.15625,-0.171875 -0.078125,0 -0.09375,0.015625 -0.171875,0.109375 l -1.53125,1.515625 -1.53125,-1.53125 c -0.078125,-0.0625 -0.09375,-0.09375 -0.15625,-0.09375 -0.109375,0 -0.1875,0.078125 -0.1875,0.171875 0,0.0625 0.03125,0.078125 0.109375,0.171875 L 2.859375,-1.75 1.34375,-0.234375 C 1.25,-0.125 1.234375,-0.09375 1.234375,-0.0625 c 0,0.109375 0.078125,0.1875 0.1875,0.1875 0.0625,0 0.078125,-0.03125 0.15625,-0.109375 L 3.109375,-1.5 4.703125,0.078125 C 4.734375,0.109375 4.765625,0.125 4.8125,0.125 c 0.078125,0 0.15625,-0.0625 0.15625,-0.1875 0,-0.046875 0,-0.0625 -0.03125,-0.078125 -0.015625,-0.03125 -1.359375,-1.390625 -1.578125,-1.59375 z m 0,0"
   id="id-19178397-ce22-41f0-9a4e-b36a2c312c68-0" />&#10;      </g>&#10;    </g></defs><g
     inkscape:label="Layer 1"
     inkscape:groupmode="layer"
     id="layer1"
     transform="translate(-17.572827,-13.832974)"><rect
       style="fill:#509400;fill-opacity:1;stroke:#000000;stroke-width:0.288347;stroke-opacity:1"
       id="rect1"
       width="35.732735"
       height="29.22163"
       x="17.717001"
       y="17.973572" /><rect
       style="fill:#999999;fill-opacity:1;stroke:#000000;stroke-width:0.288;stroke-dasharray:none;stroke-opacity:1"
       id="rect1-8"
       width="35.732735"
       height="29.22163"
       x="66.42981"
       y="17.973572" /><rect
       style="fill:#6bc500;fill-opacity:1;stroke:#000000;stroke-width:0.288;stroke-dasharray:none;stroke-opacity:1"
       id="rect1-8-8"
       width="7.8321371"
       height="29.380009"
       x="115.49378"
       y="23.206533" /><rect
       style="fill:#6bc500;fill-opacity:1;stroke:#000000;stroke-width:0.288;stroke-dasharray:none;stroke-opacity:1"
       id="rect1-8-8-0"
       width="35.874664"
       height="7.5048494"
       x="127.26939"
       y="14.076974" /><text
       xml:space="preserve"
       style="font-size:8.36791px;font-family:'CMU Serif';-inkscape-font-specification:'CMU Serif';text-align:center;text-anchor:middle;fill:#000000;fill-opacity:1;stroke:none;stroke-width:0.687882;stroke-opacity:1"
       x="34.185925"
       y="35.349979"
       id="text1"><tspan
         sodipodi:role="line"
         id="tspan1"
         style="font-style:italic;fill:#000000;fill-opacity:1;stroke:none;stroke-width:0.687882;stroke-opacity:1"
         x="34.185925"
         y="35.349979">W</tspan></text><text
       xml:space="preserve"
       style="font-size:8.36791px;font-family:'CMU Serif';-inkscape-font-specification:'CMU Serif';text-align:center;text-anchor:middle;fill:#000000;fill-opacity:1;stroke:none;stroke-width:0.687882;stroke-opacity:1"
       x="119.45154"
       y="39.848988"
       id="text1-5"><tspan
         sodipodi:role="line"
         id="tspan1-3"
         style="font-style:italic;fill:#000000;fill-opacity:1;stroke:none;stroke-width:0.687882;stroke-opacity:1"
         x="119.45154"
         y="39.848988">A</tspan></text><text
       xml:space="preserve"
       style="font-size:8.36791px;font-family:'CMU Serif';-inkscape-font-specification:'CMU Serif';text-align:center;text-anchor:middle;fill:#000000;fill-opacity:1;stroke:none;stroke-width:0.687882;stroke-opacity:1"
       x="145.18161"
       y="20.825111"
       id="text1-5-2"><tspan
         sodipodi:role="line"
         id="tspan1-3-6"
         style="font-style:italic;fill:#000000;fill-opacity:1;stroke:none;stroke-width:0.687882;stroke-opacity:1"
         x="145.18161"
         y="20.825111">B</tspan></text><text
       xml:space="preserve"
       style="font-size:3.175px;font-family:'CMU Serif';-inkscape-font-specification:'CMU Serif';text-align:center;text-anchor:middle;fill:#000000;fill-opacity:1;stroke:none;stroke-width:0.687882;stroke-opacity:1"
       x="125.11242"
       y="18.613926"
       id="text1-5-2-8"><tspan
         sodipodi:role="line"
         id="tspan1-3-6-4"
         style="font-style:italic;font-size:3.175px;fill:#000000;fill-opacity:1;stroke:none;stroke-width:0.687882;stroke-opacity:1"
         x="125.11242"
         y="18.613926">r</tspan></text><text
       xml:space="preserve"
       style="font-size:3.175px;font-family:'CMU Serif';-inkscape-font-specification:'CMU Serif';text-align:center;text-anchor:middle;fill:#000000;fill-opacity:1;stroke:none;stroke-width:0.687882;stroke-opacity:1"
       x="119.29922"
       y="21.868631"
       id="text1-5-2-8-7"><tspan
         sodipodi:role="line"
         id="tspan1-3-6-4-5"
         style="font-style:italic;font-size:3.175px;fill:#000000;fill-opacity:1;stroke:none;stroke-width:0.687882;stroke-opacity:1"
         x="119.29922"
         y="21.868631">r</tspan></text><text
       xml:space="preserve"
       style="font-size:8.36791px;font-family:'CMU Serif';-inkscape-font-specification:'CMU Serif';text-align:center;text-anchor:middle;fill:#000000;fill-opacity:1;stroke:none;stroke-width:0.687882;stroke-opacity:1"
       x="83.578209"
       y="35.349979"
       id="text1-7"><tspan
         sodipodi:role="line"
         id="tspan1-9"
         style="font-style:italic;fill:#000000;fill-opacity:1;stroke:none;stroke-width:0.687882;stroke-opacity:1"
         x="83.578209"
         y="35.349979">W<tspan
   style="font-style:normal;font-size:65%;baseline-shift:sub"
   id="tspan2">init</tspan></tspan></text><text
       xml:space="preserve"
       style="font-size:6.72847px;font-family:'CMU Serif';-inkscape-font-specification:'CMU Serif';text-align:center;text-anchor:middle;fill:#000000;fill-opacity:1;stroke:none;stroke-width:0.553112;stroke-opacity:1"
       x="60.365463"
       y="34.307758"
       id="text3"><tspan
         sodipodi:role="line"
         id="tspan3"
         style="font-weight:bold;stroke-width:0.553112"
         x="60.365463"
         y="34.307758">=</tspan></text><text
       xml:space="preserve"
       style="font-size:6.72847px;font-family:'CMU Serif';-inkscape-font-specification:'CMU Serif';text-align:center;text-anchor:middle;fill:#000000;fill-opacity:1;stroke:none;stroke-width:0.553112;stroke-opacity:1"
       x="108.87448"
       y="34.307758"
       id="text3-6"><tspan
         sodipodi:role="line"
         id="tspan3-5"
         style="font-weight:bold;stroke-width:0.553112"
         x="108.87448"
         y="34.307758">+</tspan></text><path
       style="fill:#ffcf1c;fill-opacity:1;stroke:none;stroke-width:0.287999;stroke-dasharray:none;stroke-opacity:1"
       d="m 124.59448,13.932974 h 1.39758 v 0"
       id="path3" /><path
       style="fill:#ffcf1c;fill-opacity:1;stroke:#000000;stroke-width:0.2;stroke-dasharray:none;stroke-opacity:1"
       d="m 126.86507,13.932974 h -1.39758"
       id="path4" /><path
       style="fill:none;fill-opacity:1;stroke:#000000;stroke-width:0.198729;stroke-dasharray:none;stroke-opacity:1"
       d="m 126.16628,14.032974 v 7.694116 0 h 0.69879 -1.39758"
       id="path5" /><path
       style="fill:#ffcf1c;fill-opacity:1;stroke:none;stroke-width:0.290283;stroke-dasharray:none;stroke-opacity:1"
       d="m 123.36833,21.475543 v 1.39758 0"
       id="path3-7" /><path
       style="fill:#ffcf1c;fill-opacity:1;stroke:#000000;stroke-width:0.201586;stroke-dasharray:none;stroke-opacity:1"
       d="m 123.36833,22.873123 v -1.39758"
       id="path4-4" /><path
       style="fill:none;fill-opacity:1;stroke:#000000;stroke-width:0.201586;stroke-dasharray:none;stroke-opacity:1"
       d="m 123.36833,22.174333 h -7.91696 v 0 0.69879 -1.39758"
       id="path5-8" /><text
       xml:space="preserve"
       transform="matrix(0.26458333,0,0,0.26458333,17.572827,13.832974)"
       id="text37"
       style="font-style:normal;font-variant:normal;font-weight:normal;font-stretch:normal;font-size:17.3333px;font-family:sans-serif;-inkscape-font-specification:sans-serif;text-align:center;white-space:pre;shape-inside:url(#rect37);display:inline;fill:#6bc500;fill-opacity:1;stroke:none;stroke-width:1.0885;stroke-dasharray:none;stroke-opacity:1"><tspan
         x="286.20446"
         y="37.565648"
         id="tspan4">❄️</tspan></text></g></svg>
