<?xml version="1.0" encoding="UTF-8" standalone="no"?>
<!-- Created with Inkscape (http://www.inkscape.org/) -->

<svg
   width="214.00189mm"
   height="34.349766mm"
   viewBox="0 0 214.0019 34.349766"
   version="1.1"
   id="svg1"
   inkscape:version="1.3 (0e150ed, 2023-07-21)"
   sodipodi:docname="regularized.svg"
   xmlns:inkscape="http://www.inkscape.org/namespaces/inkscape"
   xmlns:sodipodi="http://sodipodi.sourceforge.net/DTD/sodipodi-0.dtd"
   xmlns="http://www.w3.org/2000/svg"
   xmlns:svg="http://www.w3.org/2000/svg"
   xmlns:ns12="http://www.iki.fi/pav/software/textext/">
  <sodipodi:namedview
     id="namedview1"
     pagecolor="#ffffff"
     bordercolor="#000000"
     borderopacity="0.25"
     inkscape:showpageshadow="2"
     inkscape:pageopacity="0.0"
     inkscape:pagecheckerboard="0"
     inkscape:deskcolor="#d1d1d1"
     inkscape:document-units="mm"
     inkscape:zoom="0.86984144"
     inkscape:cx="335.11855"
     inkscape:cy="133.35764"
     inkscape:window-width="1712"
     inkscape:window-height="967"
     inkscape:window-x="0"
     inkscape:window-y="39"
     inkscape:window-maximized="1"
     inkscape:current-layer="layer1" />
  <defs
     id="defs1">
    <marker
       style="overflow:visible"
       id="Triangle"
       refX="0"
       refY="0"
       orient="auto-start-reverse"
       inkscape:stockid="Triangle arrow"
       markerWidth="1"
       markerHeight="1"
       viewBox="0 0 1 1"
       inkscape:isstock="true"
       inkscape:collect="always"
       preserveAspectRatio="xMidYMid">
      <path
         transform="scale(0.5)"
         style="fill:context-stroke;fill-rule:evenodd;stroke:context-stroke;stroke-width:1pt"
         d="M 5.77,0 -2.88,5 V -5 Z"
         id="path135" />
    </marker>
    <rect
       x="68.729218"
       y="627.17151"
       width="117.11396"
       height="26.416893"
       id="rect3" />
    <rect
       x="68.729218"
       y="627.17151"
       width="117.11396"
       height="29.721182"
       id="rect2" />
    <rect
       x="68.729218"
       y="627.17151"
       width="117.11396"
       height="26.416893"
       id="rect3-8" />
  </defs>
  <g
     inkscape:label="Layer 1"
     inkscape:groupmode="layer"
     id="layer1"
     transform="translate(-18.040571,-136.50301)">
    <rect
       style="fill:none;stroke:#000000;stroke-width:0.344486;stroke-dasharray:none;stroke-opacity:1"
       id="rect1"
       width="108.48401"
       height="29.166277"
       x="18.212814"
       y="136.74464" />
    <rect
       style="fill:none;stroke:#000000;stroke-width:0.343775;stroke-dasharray:none;stroke-opacity:1"
       id="rect1-2"
       width="85.888138"
       height="29.085102"
       x="145.98244"
       y="136.6749" />
    <text
       xml:space="preserve"
       transform="scale(0.26458333)"
       id="text1"
       style="font-style:normal;font-variant:normal;font-weight:normal;font-stretch:normal;font-size:17.3333px;font-family:'CMU Serif';-inkscape-font-specification:'CMU Serif';text-align:center;white-space:pre;shape-inside:url(#rect2);fill:#000000;fill-opacity:1;stroke:none;stroke-width:1.0885;stroke-opacity:1" />
    <path
       d="m 83.745001,643.20518 v -0.53734 H 84.161 q 0.935998,0 1.143998,-0.15599 0.225333,-0.156 0.225333,-0.65867 v -9.13465 q 0,-0.50266 -0.225333,-0.65866 -0.208,-0.156 -1.143998,-0.156 h -0.415999 v -0.53734 h 6.118655 q 1.750663,0 2.911994,0.97067 1.178665,0.95333 1.178665,2.25333 0,1.28266 -1.195998,2.21866 -1.178665,0.91866 -2.755995,0.91866 h -2.929327 v 4.12533 q 0,0.50267 0.207999,0.65867 0.225333,0.15599 1.161331,0.15599 h 0.415999 v 0.53734 q -0.606665,-0.052 -2.565328,-0.052 -1.941329,0 -2.547995,0.052 z m 3.275994,-5.92799 h 2.391995 q 0.779998,0 1.334664,-0.208 0.571999,-0.22533 0.831998,-0.48533 0.26,-0.27734 0.398666,-0.71067 0.156,-0.43333 0.173333,-0.676 0.01733,-0.24266 0.01733,-0.60666 0,-0.38134 -0.01733,-0.624 -0.01733,-0.24267 -0.173333,-0.676 -0.138666,-0.43333 -0.398666,-0.69333 -0.259999,-0.27734 -0.831998,-0.48533 -0.554666,-0.208 -1.334664,-0.208 h -1.542664 q -0.589332,0 -0.727998,0.12133 -0.121333,0.12133 -0.121333,0.572 z m 8.510622,5.92799 v -0.53734 h 0.416 q 0.935998,0 1.143997,-0.15599 0.225333,-0.156 0.225333,-0.65867 v -9.13465 q 0,-0.50266 -0.225333,-0.65866 -0.207999,-0.156 -1.143997,-0.156 h -0.416 v -0.53734 h 5.442653 q 1.88933,0 3.20666,0.936 1.31733,0.91867 1.31733,2.184 0,0.97066 -0.86666,1.73333 -0.84933,0.76266 -2.16666,1.092 1.71599,0.58933 2.11466,2.01066 l 0.22533,1.38666 q 0.0693,0.50267 0.104,0.76267 0.052,0.24266 0.12134,0.58933 0.0867,0.34667 0.156,0.52 0.0867,0.156 0.20799,0.32933 0.12134,0.17333 0.27734,0.24267 0.156,0.052 0.364,0.052 0.39866,0 0.728,-0.34667 0.34666,-0.364 0.41599,-1.196 0.0347,-0.27733 0.208,-0.27733 0.22534,0 0.22534,0.29467 0,0.22533 -0.0693,0.52 -0.0693,0.27733 -0.24266,0.60666 -0.156,0.32933 -0.52,0.55467 -0.34667,0.22533 -0.81467,0.22533 -1.35199,0 -2.18399,-0.728 -0.34667,-0.312 -0.50267,-0.71066 -0.156,-0.416 -0.19066,-0.728 -0.0173,-0.32934 -0.0173,-1.04 0,-1.00533 -0.104,-1.43866 -0.104,-0.45067 -0.55466,-0.884 -0.60667,-0.58934 -1.612,-0.58934 h -1.993329 v 4.38533 q 0,0.50267 0.208,0.65867 0.225332,0.15599 1.161329,0.15599 h 0.416 v 0.53734 q -0.623998,-0.052 -2.530661,-0.052 -1.906663,0 -2.530662,0.052 z m 3.275994,-6.11866 h 1.923999 q 0.91866,0 1.54266,-0.22533 0.624,-0.22533 0.91867,-0.624 0.29466,-0.416 0.39866,-0.81466 0.12133,-0.416 0.12133,-0.936 0,-0.60667 -0.13866,-1.05733 -0.13867,-0.468 -0.43333,-0.728 -0.29467,-0.27734 -0.58934,-0.45067 -0.29466,-0.17333 -0.76266,-0.24266 -0.45067,-0.0693 -0.76267,-0.0867 -0.312,-0.0173 -0.81466,-0.0173 -0.849333,0 -1.022666,0.0347 -0.190667,0.0173 -0.277333,0.12134 -0.06933,0.0867 -0.08667,0.19066 -0.01733,0.104 -0.01733,0.34667 z m 9.359919,0.24267 q 0,-2.652 1.69866,-4.48933 1.69867,-1.85466 4.05599,-1.85466 2.37467,0 4.07333,1.85466 1.69866,1.85467 1.69866,4.48933 0,2.61733 -1.69866,4.43732 -1.69866,1.82 -4.07333,1.82 -2.33999,0 -4.05599,-1.80266 -1.69866,-1.82 -1.69866,-4.45466 z m 1.78533,-0.24267 q 0,1.612 0.38133,2.84266 0.38133,1.23067 0.988,1.90667 0.624,0.65866 1.28266,0.98799 0.65867,0.312 1.33467,0.312 0.65866,0 1.3,-0.312 0.65866,-0.31199 1.26533,-0.97066 0.624,-0.65867 1.00533,-1.88933 0.39866,-1.248 0.39866,-2.87733 0,-1.26533 -0.27733,-2.28799 -0.26,-1.02267 -0.69333,-1.62933 -0.416,-0.624 -0.97067,-1.02267 -0.53733,-0.416 -1.05733,-0.572 -0.50266,-0.156 -0.988,-0.156 -0.60666,0 -1.24799,0.27734 -0.624,0.26 -1.26533,0.86666 -0.64134,0.58933 -1.05734,1.768 -0.39866,1.16133 -0.39866,2.75599 z m 11.33595,6.11866 v -0.53734 h 0.416 q 0.936,0 1.144,-0.15599 0.22533,-0.156 0.22533,-0.65867 v -9.13465 q 0,-0.50266 -0.22533,-0.65866 -0.208,-0.156 -1.144,-0.156 h -0.416 v -0.53734 h 6.34399 q 1.64666,0 2.73866,0.884 1.10933,0.884 1.10933,2.04533 0,0.95333 -0.81466,1.716 -0.79733,0.76266 -2.06267,1.00533 1.43867,0.156 2.392,1.02266 0.95333,0.86667 0.95333,1.99333 0,1.26533 -1.092,2.21867 -1.09199,0.95333 -2.77332,0.95333 z m 3.224,-1.23067 q 0,0.45067 0.12133,0.572 0.13867,0.12133 0.728,0.12133 h 2.16666 q 1.248,0 1.95866,-0.81466 0.728,-0.81467 0.728,-1.83733 0,-1.02266 -0.64133,-1.88933 -0.624,-0.884 -1.80266,-0.884 h -3.25866 z m 0,-5.11332 h 2.51332 q 1.33467,0 2.04533,-0.79733 0.728,-0.81467 0.728,-1.768 0,-0.84933 -0.572,-1.612 -0.572,-0.77999 -1.71599,-0.77999 h -2.14933 q -0.58933,0 -0.728,0.12133 -0.12133,0.12133 -0.12133,0.572 z m 8.99595,6.34399 v -0.53734 h 0.416 q 0.936,0 1.144,-0.15599 0.22533,-0.156 0.22533,-0.65867 v -9.13465 q 0,-0.50266 -0.22533,-0.65866 -0.208,-0.156 -1.144,-0.156 h -0.416 v -0.53734 q 0.60666,0.052 2.63466,0.052 2.288,0 2.91199,-0.052 v 0.53734 h -0.57199 q -0.79734,0 -1.16134,0.104 -0.364,0.104 -0.43333,0.24266 -0.052,0.13867 -0.052,0.48533 v 9.23865 q 0,0.45067 0.12133,0.572 0.13867,0.12133 0.728,0.12133 h 1.42133 q 0.884,0 1.508,-0.25999 0.64133,-0.26 0.97067,-0.58934 0.34666,-0.32933 0.57199,-0.95333 0.22534,-0.624 0.29467,-1.02266 0.0693,-0.39867 0.13867,-1.10933 h 0.43333 l -0.48533,4.47199 z m 10.83328,0 v -0.53734 h 0.416 q 0.93599,0 1.14399,-0.15599 0.22534,-0.156 0.22534,-0.65867 v -9.08265 q 0,-0.50266 -0.22534,-0.65866 -0.208,-0.156 -1.14399,-0.156 h -0.416 v -0.53734 h 9.75864 l 0.48534,3.9 h -0.43334 q -0.12133,-0.988 -0.27733,-1.56 -0.156,-0.572 -0.53733,-1.00533 -0.364,-0.45067 -0.988,-0.624 -0.60666,-0.17333 -1.59466,-0.17333 h -2.236 q -0.58933,0 -0.728,0.12133 -0.12133,0.12133 -0.12133,0.572 v 4.15999 h 1.56 q 1.196,0 1.52533,-0.416 0.34666,-0.416 0.34666,-1.612 h 0.43334 v 4.59333 h -0.43334 q 0,-1.17867 -0.34666,-1.59467 -0.32933,-0.43333 -1.52533,-0.43333 h -1.56 v 4.62799 q 0,0.45067 0.12133,0.572 0.13867,0.12133 0.728,0.12133 h 2.30533 q 0.74533,0 1.28267,-0.0867 0.55466,-0.104 0.93599,-0.34667 0.38134,-0.24266 0.64134,-0.52 0.25999,-0.27733 0.43333,-0.78 0.19066,-0.50266 0.29466,-0.97066 0.104,-0.468 0.22534,-1.23066 h 0.43333 l -0.728,4.47199 z m 11.85595,0 v -0.53734 q 0.624,0 1.02266,-0.12133 0.39867,-0.12133 0.53733,-0.34666 0.156,-0.24267 0.19067,-0.39867 0.0347,-0.156 0.0347,-0.416 v -8.66665 q 0,-0.50266 -0.22534,-0.65866 -0.208,-0.156 -1.14399,-0.156 h -0.416 v -0.53734 h 2.92932 q 0.312,0 0.39867,0.052 0.0867,0.052 0.208,0.32934 l 3.76133,9.70664 3.79599,-9.75864 q 0.0867,-0.24267 0.156,-0.27734 0.0867,-0.052 0.416,-0.052 h 2.92933 v 0.53734 h -0.416 q -0.936,0 -1.16133,0.156 -0.208,0.156 -0.208,0.65866 v 9.13465 q 0,0.50267 0.208,0.65867 0.22533,0.15599 1.16133,0.15599 h 0.416 v 0.53734 q -0.64134,-0.052 -2.47867,-0.052 -1.85466,0 -2.49599,0.052 v -0.53734 h 0.416 q 0.936,0 1.144,-0.15599 0.22533,-0.156 0.22533,-0.65867 v -9.94931 h -0.0173 l -4.264,10.97197 q -0.12133,0.32934 -0.312,0.32934 -0.208,0 -0.34666,-0.38134 l -4.17733,-10.78131 h -0.0173 v 9.34265 q 0,0.26 0.0347,0.416 0.0347,0.156 0.17333,0.39867 0.156,0.22533 0.55466,0.34666 0.39867,0.12133 1.02267,0.12133 v 0.53734 q -1.82,-0.052 -2.028,-0.052 -0.208,0 -2.02799,0.052 z"
       id="text2"
       style="font-size:17.3333px;font-family:'CMU Serif';-inkscape-font-specification:'CMU Serif';text-align:center;white-space:pre;stroke-width:1.0885"
       transform="matrix(0.24047901,0,0,0.24047901,-1.7829403,16.083728)"
       aria-label="PROBLEM" />
    <path
       d="m 145.79582,170.56828 v -0.83365 q 0,-0.0459 0,-0.0625 0.004,-0.0167 0.0167,-0.0292 0.0125,-0.0125 0.0375,-0.0125 0.0459,0 0.05,0.0417 0.0125,0.41266 0.25843,0.64192 0.24176,0.22509 0.65859,0.22509 0.2501,0 0.40432,-0.17924 0.15423,-0.17924 0.15423,-0.41683 0,-0.22509 -0.12922,-0.38348 -0.0542,-0.0709 -0.12504,-0.11671 -0.0667,-0.0459 -0.10838,-0.0584 -0.0417,-0.0167 -0.12088,-0.0375 -0.51687,-0.12505 -0.55022,-0.13755 -0.24592,-0.0834 -0.39598,-0.29178 -0.15006,-0.21258 -0.15006,-0.47102 0,-0.33346 0.23342,-0.57105 0.2376,-0.2376 0.5794,-0.2376 0.1709,0 0.31262,0.0542 0.14589,0.0542 0.20424,0.10421 0.0584,0.0459 0.15006,0.13338 l 0.14589,-0.23759 q 0.0333,-0.0542 0.0625,-0.0542 0.0333,0 0.0375,0.0208 0.008,0.0167 0.008,0.0792 v 0.83783 q 0,0.0459 -0.004,0.0625 0,0.0167 -0.0125,0.0292 -0.0125,0.008 -0.0375,0.008 -0.0417,0 -0.05,-0.05 -0.11671,-0.87118 -0.81281,-0.87118 -0.2376,0 -0.39599,0.16257 -0.15423,0.15839 -0.15423,0.38348 0,0.1834 0.11254,0.33346 0.11672,0.15006 0.30846,0.19591 l 0.53354,0.12922 q 0.26677,0.0625 0.44601,0.30012 0.17923,0.23342 0.17923,0.54187 0,0.35431 -0.23342,0.61274 -0.22926,0.25427 -0.58773,0.25427 -0.25843,0 -0.45851,-0.0875 -0.20008,-0.0834 -0.30846,-0.20425 -0.0834,0.13755 -0.13755,0.21675 l -0.0125,0.0208 q -0.0333,0.0542 -0.0625,0.0542 -0.0334,0 -0.0417,-0.0208 -0.004,-0.0208 -0.004,-0.0792 z m 2.3134,-1.40471 q 0,-0.63775 0.40849,-1.07959 0.40849,-0.44601 0.97538,-0.44601 0.57106,0 0.97955,0.44601 0.40849,0.44601 0.40849,1.07959 0,0.62941 -0.40849,1.06708 -0.40849,0.43767 -0.97955,0.43767 -0.56272,0 -0.97538,-0.4335 -0.40849,-0.43767 -0.40849,-1.07125 z m 0.42933,-0.0584 q 0,0.38765 0.0917,0.6836 0.0917,0.29595 0.23759,0.45852 0.15006,0.15839 0.30846,0.23759 0.15839,0.075 0.32096,0.075 0.15839,0 0.31262,-0.075 0.15839,-0.075 0.30428,-0.23343 0.15006,-0.15839 0.24177,-0.45434 0.0959,-0.30012 0.0959,-0.69194 0,-0.30428 -0.0667,-0.55021 -0.0625,-0.24593 -0.16674,-0.39182 -0.10004,-0.15006 -0.23342,-0.24593 -0.12922,-0.10004 -0.25427,-0.13756 -0.12088,-0.0375 -0.23759,-0.0375 -0.14589,0 -0.30012,0.0667 -0.15006,0.0625 -0.30428,0.20842 -0.15423,0.14172 -0.25427,0.42516 -0.0959,0.27928 -0.0959,0.66276 z m 2.71355,1.47141 v -0.12922 h 0.10004 q 0.22509,0 0.27511,-0.0375 0.0542,-0.0375 0.0542,-0.1584 v -2.19669 q 0,-0.12088 -0.0542,-0.15839 -0.05,-0.0375 -0.27511,-0.0375 h -0.10004 v -0.12921 q 0.14589,0.0125 0.63358,0.0125 0.55022,0 0.70028,-0.0125 v 0.12921 h -0.13756 q -0.19174,0 -0.27927,0.025 -0.0875,0.025 -0.10421,0.0584 -0.0125,0.0333 -0.0125,0.11671 v 2.2217 q 0,0.10838 0.0292,0.13756 0.0334,0.0292 0.17507,0.0292 h 0.3418 q 0.21259,0 0.36264,-0.0625 0.15423,-0.0625 0.23343,-0.14172 0.0834,-0.0792 0.13755,-0.22926 0.0542,-0.15006 0.0709,-0.24593 0.0167,-0.0959 0.0334,-0.26677 h 0.10421 l -0.11671,1.07542 z m 2.60518,-2.71773 v -0.12921 q 0.14589,0.0125 0.61691,0.0125 0.46685,0 0.61274,-0.0125 v 0.12921 h -0.10004 q -0.22509,0 -0.27928,0.0375 -0.05,0.0375 -0.05,0.15839 v 1.58812 q 0,0.27928 0.075,0.47102 0.0792,0.19174 0.20008,0.27928 0.12088,0.0834 0.21675,0.11671 0.10004,0.0292 0.19591,0.0292 0.31679,0 0.55855,-0.2501 0.24176,-0.25427 0.24176,-0.67527 v -1.44639 q 0,-0.0625 -0.008,-0.10004 -0.008,-0.0375 -0.0459,-0.0917 -0.0334,-0.0584 -0.12922,-0.0875 -0.0959,-0.0292 -0.24593,-0.0292 v -0.12921 q 0.45018,0.0125 0.49603,0.0125 0.0417,0 0.49186,-0.0125 v 0.12921 q -0.15006,0 -0.24593,0.0292 -0.0959,0.025 -0.13339,0.0834 -0.0333,0.0583 -0.0417,0.10004 -0.008,0.0417 -0.008,0.11254 v 1.33385 q 0,0.20425 -0.0125,0.28762 -0.0542,0.36264 -0.31262,0.61274 -0.25843,0.25009 -0.61274,0.25009 -0.42933,0 -0.74196,-0.30011 -0.30845,-0.30429 -0.30845,-0.74196 v -1.57145 q 0,-0.12088 -0.0542,-0.15839 -0.05,-0.0375 -0.2751,-0.0375 z m 3.13872,0.83366 0.0792,-0.93787 h 2.54682 l 0.0792,0.93787 h -0.10421 q -0.0167,-0.18757 -0.0333,-0.29595 -0.0125,-0.10837 -0.05,-0.20841 -0.0334,-0.10421 -0.0792,-0.15423 -0.0417,-0.05 -0.12505,-0.0875 -0.0834,-0.0417 -0.19174,-0.05 -0.10838,-0.0125 -0.27094,-0.0125 -0.19174,0 -0.23759,0.008 -0.05,0.0125 -0.0625,0.05 -0.0125,0.0333 -0.0125,0.10837 v 2.1967 q 0,0.0834 0.0167,0.11671 0.0167,0.0334 0.11255,0.0584 0.0959,0.025 0.30845,0.025 h 0.16673 v 0.12922 q -0.1709,-0.0125 -0.79197,-0.0125 -0.61691,0 -0.78781,0.0125 v -0.12922 h 0.16673 q 0.21258,0 0.30846,-0.025 0.0959,-0.025 0.11254,-0.0584 0.0167,-0.0333 0.0167,-0.11671 v -2.1967 q 0,-0.0583 -0.004,-0.0834 -0.004,-0.025 -0.025,-0.0459 -0.0167,-0.0208 -0.0584,-0.0292 -0.0417,-0.008 -0.22509,-0.008 -0.16256,0 -0.27094,0.0125 -0.10837,0.008 -0.19174,0.05 -0.0834,0.0375 -0.12922,0.0875 -0.0417,0.05 -0.0792,0.15423 -0.0333,0.10004 -0.05,0.20841 -0.0125,0.10838 -0.0292,0.29595 z m 2.97615,1.88407 v -0.12922 h 0.10838 q 0.23342,0 0.28761,-0.0375 0.0542,-0.0375 0.0542,-0.1584 v -2.19669 q 0,-0.12088 -0.0542,-0.15839 -0.0542,-0.0375 -0.28761,-0.0375 h -0.10838 v -0.12921 q 0.14589,0.0125 0.63775,0.0125 0.48769,0 0.63358,-0.0125 v 0.12921 h -0.10837 q -0.23343,0 -0.28761,0.0375 -0.0542,0.0375 -0.0542,0.15839 v 2.19669 q 0,0.12089 0.0542,0.1584 0.0542,0.0375 0.28761,0.0375 h 0.10837 v 0.12922 q -0.14589,-0.0125 -0.63775,-0.0125 -0.48769,0 -0.63358,0.0125 z m 1.62146,-1.41305 q 0,-0.63775 0.4085,-1.07959 0.40849,-0.44601 0.97538,-0.44601 0.57105,0 0.97955,0.44601 0.40849,0.44601 0.40849,1.07959 0,0.62941 -0.40849,1.06708 -0.4085,0.43767 -0.97955,0.43767 -0.56273,0 -0.97538,-0.4335 -0.4085,-0.43767 -0.4085,-1.07125 z m 0.42934,-0.0584 q 0,0.38765 0.0917,0.6836 0.0917,0.29595 0.23759,0.45852 0.15006,0.15839 0.30846,0.23759 0.15839,0.075 0.32095,0.075 0.1584,0 0.31263,-0.075 0.15839,-0.075 0.30428,-0.23343 0.15006,-0.15839 0.24176,-0.45434 0.0959,-0.30012 0.0959,-0.69194 0,-0.30428 -0.0667,-0.55021 -0.0625,-0.24593 -0.16673,-0.39182 -0.10004,-0.15006 -0.23343,-0.24593 -0.12921,-0.10004 -0.25426,-0.13756 -0.12088,-0.0375 -0.23759,-0.0375 -0.1459,0 -0.30012,0.0667 -0.15006,0.0625 -0.30429,0.20842 -0.15422,0.14172 -0.25426,0.42516 -0.0959,0.27928 -0.0959,0.66276 z m 2.71355,1.47141 v -0.12922 q 0.15006,0 0.24593,-0.0292 0.0959,-0.0292 0.12922,-0.0834 0.0375,-0.0584 0.0459,-0.0959 0.008,-0.0375 0.008,-0.10004 v -2.17585 q 0,-0.0584 -0.0167,-0.0709 -0.0125,-0.0167 -0.0834,-0.025 -0.12505,-0.008 -0.20841,-0.008 h -0.12088 v -0.12921 h 0.70861 q 0.0583,0 0.075,0.008 0.0167,0.008 0.0459,0.0459 l 1.47141,2.16335 v -1.77987 q 0,-0.0625 -0.008,-0.10003 -0.008,-0.0375 -0.0459,-0.0917 -0.0334,-0.0583 -0.12922,-0.0875 -0.0959,-0.0292 -0.24593,-0.0292 v -0.12922 q 0.43768,0.0125 0.4877,0.0125 0.05,0 0.48768,-0.0125 v 0.12922 q -0.15005,0 -0.24592,0.0292 -0.0959,0.0292 -0.13339,0.0875 -0.0333,0.0542 -0.0417,0.0917 -0.008,0.0375 -0.008,0.10003 v 2.3009 q 0,0.0667 -0.008,0.0875 -0.008,0.0208 -0.05,0.0208 -0.0292,0 -0.0709,-0.0542 l -1.70067,-2.50098 q -0.0167,-0.025 -0.0417,-0.05 v 2.16751 q 0,0.0625 0.008,0.10004 0.008,0.0375 0.0417,0.0959 0.0375,0.0542 0.13338,0.0834 0.0959,0.0292 0.24593,0.0292 v 0.12922 q -0.43767,-0.0125 -0.48769,-0.0125 -0.05,0 -0.48769,0.0125 z"
       id="text2-1"
       style="font-size:17.3333px;font-family:'CMU Serif';-inkscape-font-specification:'CMU Serif';text-align:center;white-space:pre;stroke-width:0.261761"
       aria-label="SOLUTION" />
    <path
       style="fill:none;fill-opacity:1;stroke:#000000;stroke-width:0.278549;stroke-dasharray:none;stroke-opacity:1;marker-end:url(#Triangle)"
       d="m 126.75105,152.131 18.45083,-0.0709"
       id="path3" />
    <g
       transform="matrix(0.853002,0,0,0.853002,148.05151,143.13547)"
       ns12:version="1.9.0"
       ns12:texconverter="pdflatex"
       ns12:pdfconverter="inkscape"
       ns12:text="$${\\color{YellowOrange}{w}} \\leftarrow {\\color{YellowOrange}{w}} - \\alpha \\frac{\\partial \\color{BrickRed}{L}}{\\partial \\color{YellowOrange}{w}} - \\alpha \\lambda {\\color{YellowOrange}{w}}$$"
       ns12:preamble="/Users/irhum/Library/Application Support/org.inkscape.Inkscape/config/inkscape/extensions/textext/default_packages.tex"
       ns12:scale="2.417956335145616"
       ns12:alignment="middle center"
       ns12:stroke-to-path="0"
       ns12:inkscapeversion="1.3"
       id="g8688"
       ns12:jacobian_sqrt="0.853002">
      <defs
         id="id-6480f96d-36c8-4216-9263-e50ce738434b">
        <g
           id="id-fd3b185a-7fb9-46f4-9269-043f226a2e23">
          <g
             id="id-5fbd2421-d832-4e58-ba53-7a36df8a3a73">
            <path
               d="M 4.609375,-3.375 C 4.65625,-3.59375 4.75,-3.96875 4.75,-4.03125 c 0,-0.171875 -0.140625,-0.265625 -0.28125,-0.265625 -0.125,0 -0.296875,0.078125 -0.375,0.28125 -0.03125,0.0625 -0.5,1.96875 -0.5625,2.234375 C 3.453125,-1.484375 3.4375,-1.3125 3.4375,-1.125 c 0,0.109375 0,0.125 0.015625,0.171875 -0.234375,0.53125 -0.53125,0.84375 -0.921875,0.84375 -0.796875,0 -0.796875,-0.734375 -0.796875,-0.90625 0,-0.3125 0.046875,-0.703125 0.515625,-1.9375 0.109375,-0.296875 0.171875,-0.4375 0.171875,-0.640625 0,-0.4375 -0.328125,-0.8125 -0.8125,-0.8125 -0.953125,0 -1.3125,1.453125 -1.3125,1.53125 0,0.109375 0.09375,0.109375 0.109375,0.109375 0.109375,0 0.109375,-0.03125 0.15625,-0.1875 C 0.84375,-3.875 1.21875,-4.1875 1.578125,-4.1875 c 0.09375,0 0.25,0.015625 0.25,0.328125 0,0.25 -0.109375,0.53125 -0.1875,0.703125 -0.4375,1.171875 -0.546875,1.625 -0.546875,2.015625 0,0.90625 0.65625,1.25 1.40625,1.25 0.171875,0 0.640625,0 1.03125,-0.703125 0.265625,0.640625 0.953125,0.703125 1.25,0.703125 0.75,0 1.1875,-0.625 1.453125,-1.21875 0.328125,-0.78125 0.65625,-2.125 0.65625,-2.59375 0,-0.546875 -0.265625,-0.703125 -0.4375,-0.703125 -0.25,0 -0.5,0.265625 -0.5,0.484375 0,0.125 0.0625,0.1875 0.140625,0.265625 0.109375,0.109375 0.359375,0.359375 0.359375,0.84375 0,0.34375 -0.28125,1.3125 -0.546875,1.828125 -0.25,0.53125 -0.609375,0.875 -1.09375,0.875 -0.46875,0 -0.734375,-0.296875 -0.734375,-0.875 0,-0.265625 0.0625,-0.578125 0.109375,-0.71875 z m 0,0"
               id="id-4d98f58f-2cad-46a2-a51f-b19adfde67c1" />
          </g>
          <g
             id="id-0ded83ae-c98e-4f29-a306-3fd5e71e1507">
            <path
               d="m 4.75,-2.359375 c 0,-1.5625 -0.921875,-2.046875 -1.65625,-2.046875 -1.375,0 -2.6875,1.421875 -2.6875,2.828125 0,0.9375 0.59375,1.6875 1.625,1.6875 0.625,0 1.34375,-0.234375 2.09375,-0.84375 0.125,0.53125 0.453125,0.84375 0.90625,0.84375 0.53125,0 0.84375,-0.546875 0.84375,-0.703125 0,-0.078125 -0.0625,-0.109375 -0.125,-0.109375 -0.0625,0 -0.09375,0.03125 -0.125,0.109375 -0.1875,0.484375 -0.546875,0.484375 -0.5625,0.484375 -0.3125,0 -0.3125,-0.78125 -0.3125,-1.015625 0,-0.203125 0,-0.234375 0.109375,-0.34375 C 5.796875,-2.65625 6,-3.8125 6,-3.8125 6,-3.84375 5.984375,-3.921875 5.875,-3.921875 c -0.09375,0 -0.09375,0.03125 -0.140625,0.21875 -0.1875,0.625 -0.515625,1.375 -0.984375,1.96875 z m -0.65625,1.375 c -0.890625,0.765625 -1.65625,0.875 -2.046875,0.875 -0.59375,0 -0.90625,-0.453125 -0.90625,-1.09375 0,-0.484375 0.265625,-1.5625 0.578125,-2.0625 C 2.1875,-4 2.734375,-4.1875 3.078125,-4.1875 c 0.984375,0 0.984375,1.3125 0.984375,2.078125 0,0.375 0,0.953125 0.03125,1.125 z m 0,0"
               id="id-909a32e0-860b-448a-92c8-480818c63a66" />
          </g>
          <g
             id="id-fcaca1ac-34ba-4ebc-bd92-c3dc675e4c47">
            <path
               d="m 4.609375,-3.375 c -0.09375,-0.625 -0.5,-1.1875 -1.28125,-1.1875 -0.609375,0 -1.25,0.171875 -2.03125,0.9375 -0.828125,0.828125 -0.890625,1.765625 -0.890625,2.0625 0,0.625 0.4375,1.78125 1.828125,1.78125 2.375,0 3.40625,-3.34375 3.40625,-4.78125 0,-1.578125 -0.921875,-2.578125 -2.15625,-2.578125 -1.4375,0 -1.90625,1.296875 -1.90625,1.578125 0,0.140625 0.09375,0.34375 0.390625,0.34375 0.328125,0 0.53125,-0.296875 0.53125,-0.515625 0,-0.359375 -0.3125,-0.359375 -0.46875,-0.359375 0.4375,-0.734375 1.15625,-0.796875 1.4375,-0.796875 0.734375,0 1.421875,0.515625 1.421875,1.8125 0,0.390625 -0.0625,0.890625 -0.265625,1.703125 z m -2.34375,3.3125 c -1.09375,0 -1.09375,-1.03125 -1.09375,-1.125 0,-0.265625 0.25,-1.65625 0.65625,-2.265625 0.390625,-0.5625 0.890625,-0.890625 1.5,-0.890625 1.09375,0 1.109375,1.125 1.109375,1.328125 0,0.71875 -0.640625,2.953125 -2.171875,2.953125 z m 0,0"
               id="id-38c205dc-be33-48ac-bfbe-fe43e33ba005" />
          </g>
          <g
             id="id-2b703227-5de5-47ce-8b94-5ea611527e45">
            <path
               d="M 3.734375,-6.03125 C 3.8125,-6.390625 3.84375,-6.5 4.78125,-6.5 c 0.296875,0 0.375,0 0.375,-0.1875 0,-0.125 -0.109375,-0.125 -0.15625,-0.125 -0.328125,0 -1.140625,0.03125 -1.46875,0.03125 -0.296875,0 -1.03125,-0.03125 -1.328125,-0.03125 -0.0625,0 -0.1875,0 -0.1875,0.203125 0,0.109375 0.09375,0.109375 0.28125,0.109375 0.015625,0 0.203125,0 0.375,0.015625 0.171875,0.03125 0.265625,0.03125 0.265625,0.171875 0,0.03125 0,0.0625 -0.03125,0.1875 L 1.5625,-0.78125 c -0.09375,0.390625 -0.109375,0.46875 -0.90625,0.46875 -0.171875,0 -0.265625,0 -0.265625,0.203125 C 0.390625,0 0.484375,0 0.65625,0 h 4.625 C 5.515625,0 5.515625,0 5.578125,-0.171875 L 6.375,-2.328125 c 0.03125,-0.109375 0.03125,-0.125 0.03125,-0.140625 0,-0.03125 -0.03125,-0.109375 -0.109375,-0.109375 -0.09375,0 -0.109375,0.0625 -0.171875,0.21875 -0.34375,0.90625 -0.78125,2.046875 -2.5,2.046875 H 2.6875 c -0.140625,0 -0.171875,0 -0.21875,0 -0.109375,-0.015625 -0.140625,-0.03125 -0.140625,-0.109375 0,-0.03125 0,-0.046875 0.046875,-0.21875 z m 0,0"
               id="id-46ed9655-b95f-4f54-9154-2424873736fa" />
          </g>
          <g
             id="id-424fba98-6a12-49a2-99a2-ea9d74495cd6">
            <path
               d="m 3.5625,-2.90625 c 0.40625,1.046875 0.890625,2.5625 1.046875,2.796875 0.15625,0.21875 0.25,0.21875 0.53125,0.21875 h 0.21875 c 0.09375,-0.015625 0.109375,-0.0625 0.109375,-0.09375 0,-0.03125 -0.03125,-0.0625 -0.0625,-0.09375 C 5.3125,-0.1875 5.25,-0.34375 5.1875,-0.53125 L 3.15625,-6.203125 c -0.21875,-0.578125 -0.75,-0.71875 -1.21875,-0.71875 -0.046875,0 -0.1875,0 -0.1875,0.109375 0,0.078125 0.078125,0.109375 0.09375,0.109375 C 2.171875,-6.65625 2.25,-6.59375 2.5,-5.90625 l 0.953125,2.703125 -2.75,2.734375 c -0.109375,0.125 -0.171875,0.171875 -0.171875,0.3125 0,0.171875 0.140625,0.28125 0.296875,0.28125 0.15625,0 0.25,-0.109375 0.328125,-0.203125 z m 0,0"
               id="id-eef98be0-b7d9-46d0-a364-7ab2f8b37e0f" />
          </g>
          <g
             id="id-0c72fbf0-98f8-4a13-8d0a-973d6730062d">
            <path
               d="m 9.046875,-2.296875 c 0.1875,0 0.359375,0 0.359375,-0.203125 0,-0.1875 -0.171875,-0.1875 -0.359375,-0.1875 h -7.40625 c 0.546875,-0.421875 0.828125,-0.828125 0.90625,-0.96875 0.4375,-0.6875 0.53125,-1.3125 0.53125,-1.3125 0,-0.125 -0.125,-0.125 -0.203125,-0.125 -0.171875,0 -0.1875,0.015625 -0.21875,0.203125 C 2.421875,-3.921875 1.828125,-3.09375 0.703125,-2.625 0.59375,-2.578125 0.5625,-2.5625 0.5625,-2.5 c 0,0.078125 0.046875,0.09375 0.140625,0.140625 1.046875,0.421875 1.703125,1.203125 1.953125,2.3125 0.03125,0.125 0.046875,0.15625 0.21875,0.15625 0.078125,0 0.203125,0 0.203125,-0.125 0,-0.015625 -0.09375,-0.640625 -0.515625,-1.3125 C 2.359375,-1.625 2.078125,-1.96875 1.640625,-2.296875 Z m 0,0"
               id="id-cabbcb3b-fd74-4027-befc-7ce1e4df7617" />
          </g>
          <g
             id="id-532f5544-9b85-4600-ad23-0b2dd904ec30">
            <path
               d="m 6.5625,-2.296875 c 0.171875,0 0.359375,0 0.359375,-0.203125 0,-0.1875 -0.1875,-0.1875 -0.359375,-0.1875 H 1.171875 c -0.171875,0 -0.34375,0 -0.34375,0.1875 0,0.203125 0.171875,0.203125 0.34375,0.203125 z m 0,0"
               id="id-7c62a3a6-32c4-42d7-9c8d-6afd449088ad" />
          </g>
        </g>
      </defs>
      <g
         fill="#f8980f"
         fill-opacity="1"
         id="id-5bda596e-f84f-456e-ab0b-41edc30c4b08"
         transform="translate(-257.762,-135.538)">
        <g
           transform="translate(257.465,149.419)"
           id="g2678">
          <path
             d="M 4.609375,-3.375 C 4.65625,-3.59375 4.75,-3.96875 4.75,-4.03125 c 0,-0.171875 -0.140625,-0.265625 -0.28125,-0.265625 -0.125,0 -0.296875,0.078125 -0.375,0.28125 -0.03125,0.0625 -0.5,1.96875 -0.5625,2.234375 C 3.453125,-1.484375 3.4375,-1.3125 3.4375,-1.125 c 0,0.109375 0,0.125 0.015625,0.171875 -0.234375,0.53125 -0.53125,0.84375 -0.921875,0.84375 -0.796875,0 -0.796875,-0.734375 -0.796875,-0.90625 0,-0.3125 0.046875,-0.703125 0.515625,-1.9375 0.109375,-0.296875 0.171875,-0.4375 0.171875,-0.640625 0,-0.4375 -0.328125,-0.8125 -0.8125,-0.8125 -0.953125,0 -1.3125,1.453125 -1.3125,1.53125 0,0.109375 0.09375,0.109375 0.109375,0.109375 0.109375,0 0.109375,-0.03125 0.15625,-0.1875 C 0.84375,-3.875 1.21875,-4.1875 1.578125,-4.1875 c 0.09375,0 0.25,0.015625 0.25,0.328125 0,0.25 -0.109375,0.53125 -0.1875,0.703125 -0.4375,1.171875 -0.546875,1.625 -0.546875,2.015625 0,0.90625 0.65625,1.25 1.40625,1.25 0.171875,0 0.640625,0 1.03125,-0.703125 0.265625,0.640625 0.953125,0.703125 1.25,0.703125 0.75,0 1.1875,-0.625 1.453125,-1.21875 0.328125,-0.78125 0.65625,-2.125 0.65625,-2.59375 0,-0.546875 -0.265625,-0.703125 -0.4375,-0.703125 -0.25,0 -0.5,0.265625 -0.5,0.484375 0,0.125 0.0625,0.1875 0.140625,0.265625 0.109375,0.109375 0.359375,0.359375 0.359375,0.84375 0,0.34375 -0.28125,1.3125 -0.546875,1.828125 -0.25,0.53125 -0.609375,0.875 -1.09375,0.875 -0.46875,0 -0.734375,-0.296875 -0.734375,-0.875 0,-0.265625 0.0625,-0.578125 0.109375,-0.71875 z m 0,0"
             id="id-0ce00d8c-211b-4808-be42-7699aff2d26b" />
        </g>
      </g>
      <g
         fill="#000000"
         fill-opacity="1"
         id="id-bf532e54-593c-466d-a933-8c0de8bb9010"
         transform="translate(-257.762,-135.538)">
        <g
           transform="translate(267.633,149.419)"
           id="g1877">
          <path
             d="m 9.046875,-2.296875 c 0.1875,0 0.359375,0 0.359375,-0.203125 0,-0.1875 -0.171875,-0.1875 -0.359375,-0.1875 h -7.40625 c 0.546875,-0.421875 0.828125,-0.828125 0.90625,-0.96875 0.4375,-0.6875 0.53125,-1.3125 0.53125,-1.3125 0,-0.125 -0.125,-0.125 -0.203125,-0.125 -0.171875,0 -0.1875,0.015625 -0.21875,0.203125 C 2.421875,-3.921875 1.828125,-3.09375 0.703125,-2.625 0.59375,-2.578125 0.5625,-2.5625 0.5625,-2.5 c 0,0.078125 0.046875,0.09375 0.140625,0.140625 1.046875,0.421875 1.703125,1.203125 1.953125,2.3125 0.03125,0.125 0.046875,0.15625 0.21875,0.15625 0.078125,0 0.203125,0 0.203125,-0.125 0,-0.015625 -0.09375,-0.640625 -0.515625,-1.3125 C 2.359375,-1.625 2.078125,-1.96875 1.640625,-2.296875 Z m 0,0"
             id="id-e6ce47e4-4497-4fdb-b146-7a94836e219e" />
        </g>
      </g>
      <g
         fill="#f8980f"
         fill-opacity="1"
         id="id-dae88913-a8b4-4bdf-9fe8-4af2320fbf3d"
         transform="translate(-257.762,-135.538)">
        <g
           transform="translate(280.363,149.419)"
           id="g3071">
          <path
             d="M 4.609375,-3.375 C 4.65625,-3.59375 4.75,-3.96875 4.75,-4.03125 c 0,-0.171875 -0.140625,-0.265625 -0.28125,-0.265625 -0.125,0 -0.296875,0.078125 -0.375,0.28125 -0.03125,0.0625 -0.5,1.96875 -0.5625,2.234375 C 3.453125,-1.484375 3.4375,-1.3125 3.4375,-1.125 c 0,0.109375 0,0.125 0.015625,0.171875 -0.234375,0.53125 -0.53125,0.84375 -0.921875,0.84375 -0.796875,0 -0.796875,-0.734375 -0.796875,-0.90625 0,-0.3125 0.046875,-0.703125 0.515625,-1.9375 0.109375,-0.296875 0.171875,-0.4375 0.171875,-0.640625 0,-0.4375 -0.328125,-0.8125 -0.8125,-0.8125 -0.953125,0 -1.3125,1.453125 -1.3125,1.53125 0,0.109375 0.09375,0.109375 0.109375,0.109375 0.109375,0 0.109375,-0.03125 0.15625,-0.1875 C 0.84375,-3.875 1.21875,-4.1875 1.578125,-4.1875 c 0.09375,0 0.25,0.015625 0.25,0.328125 0,0.25 -0.109375,0.53125 -0.1875,0.703125 -0.4375,1.171875 -0.546875,1.625 -0.546875,2.015625 0,0.90625 0.65625,1.25 1.40625,1.25 0.171875,0 0.640625,0 1.03125,-0.703125 0.265625,0.640625 0.953125,0.703125 1.25,0.703125 0.75,0 1.1875,-0.625 1.453125,-1.21875 0.328125,-0.78125 0.65625,-2.125 0.65625,-2.59375 0,-0.546875 -0.265625,-0.703125 -0.4375,-0.703125 -0.25,0 -0.5,0.265625 -0.5,0.484375 0,0.125 0.0625,0.1875 0.140625,0.265625 0.109375,0.109375 0.359375,0.359375 0.359375,0.84375 0,0.34375 -0.28125,1.3125 -0.546875,1.828125 -0.25,0.53125 -0.609375,0.875 -1.09375,0.875 -0.46875,0 -0.734375,-0.296875 -0.734375,-0.875 0,-0.265625 0.0625,-0.578125 0.109375,-0.71875 z m 0,0"
             id="id-6a9208dd-5481-4e6c-a786-9552405405c5" />
        </g>
      </g>
      <g
         fill="#000000"
         fill-opacity="1"
         id="id-48bfbf3c-7ade-44fe-aa36-d4876669d12f"
         transform="translate(-257.762,-135.538)">
        <g
           transform="translate(289.977,149.419)"
           id="g3998">
          <path
             d="m 6.5625,-2.296875 c 0.171875,0 0.359375,0 0.359375,-0.203125 0,-0.1875 -0.1875,-0.1875 -0.359375,-0.1875 H 1.171875 c -0.171875,0 -0.34375,0 -0.34375,0.1875 0,0.203125 0.171875,0.203125 0.34375,0.203125 z m 0,0"
             id="id-0d3c360f-e9d6-4a40-996d-7dc8e10fb275" />
        </g>
      </g>
      <g
         fill="#000000"
         fill-opacity="1"
         id="id-87753651-31fe-4468-b7e0-06a3be2c4203"
         transform="translate(-257.762,-135.538)">
        <g
           transform="translate(299.94,149.419)"
           id="g743">
          <path
             d="m 4.75,-2.359375 c 0,-1.5625 -0.921875,-2.046875 -1.65625,-2.046875 -1.375,0 -2.6875,1.421875 -2.6875,2.828125 0,0.9375 0.59375,1.6875 1.625,1.6875 0.625,0 1.34375,-0.234375 2.09375,-0.84375 0.125,0.53125 0.453125,0.84375 0.90625,0.84375 0.53125,0 0.84375,-0.546875 0.84375,-0.703125 0,-0.078125 -0.0625,-0.109375 -0.125,-0.109375 -0.0625,0 -0.09375,0.03125 -0.125,0.109375 -0.1875,0.484375 -0.546875,0.484375 -0.5625,0.484375 -0.3125,0 -0.3125,-0.78125 -0.3125,-1.015625 0,-0.203125 0,-0.234375 0.109375,-0.34375 C 5.796875,-2.65625 6,-3.8125 6,-3.8125 6,-3.84375 5.984375,-3.921875 5.875,-3.921875 c -0.09375,0 -0.09375,0.03125 -0.140625,0.21875 -0.1875,0.625 -0.515625,1.375 -0.984375,1.96875 z m -0.65625,1.375 c -0.890625,0.765625 -1.65625,0.875 -2.046875,0.875 -0.59375,0 -0.90625,-0.453125 -0.90625,-1.09375 0,-0.484375 0.265625,-1.5625 0.578125,-2.0625 C 2.1875,-4 2.734375,-4.1875 3.078125,-4.1875 c 0.984375,0 0.984375,1.3125 0.984375,2.078125 0,0.375 0,0.953125 0.03125,1.125 z m 0,0"
             id="id-faea1cf6-ad2c-4e81-96a0-83e311ba2660" />
        </g>
      </g>
      <g
         fill="#000000"
         fill-opacity="1"
         id="id-d6089651-51e1-4210-b6e8-f9173bdf2131"
         transform="translate(-257.762,-135.538)">
        <g
           transform="translate(307.856,142.679)"
           id="g9526">
          <path
             d="m 4.609375,-3.375 c -0.09375,-0.625 -0.5,-1.1875 -1.28125,-1.1875 -0.609375,0 -1.25,0.171875 -2.03125,0.9375 -0.828125,0.828125 -0.890625,1.765625 -0.890625,2.0625 0,0.625 0.4375,1.78125 1.828125,1.78125 2.375,0 3.40625,-3.34375 3.40625,-4.78125 0,-1.578125 -0.921875,-2.578125 -2.15625,-2.578125 -1.4375,0 -1.90625,1.296875 -1.90625,1.578125 0,0.140625 0.09375,0.34375 0.390625,0.34375 0.328125,0 0.53125,-0.296875 0.53125,-0.515625 0,-0.359375 -0.3125,-0.359375 -0.46875,-0.359375 0.4375,-0.734375 1.15625,-0.796875 1.4375,-0.796875 0.734375,0 1.421875,0.515625 1.421875,1.8125 0,0.390625 -0.0625,0.890625 -0.265625,1.703125 z m -2.34375,3.3125 c -1.09375,0 -1.09375,-1.03125 -1.09375,-1.125 0,-0.265625 0.25,-1.65625 0.65625,-2.265625 0.390625,-0.5625 0.890625,-0.890625 1.5,-0.890625 1.09375,0 1.109375,1.125 1.109375,1.328125 0,0.71875 -0.640625,2.953125 -2.171875,2.953125 z m 0,0"
             id="id-57d60190-fdff-4978-af87-ac6c6a835ea1" />
        </g>
      </g>
      <g
         fill="#b6251c"
         fill-opacity="1"
         id="id-8fb0d4e3-0f20-4ec1-9bcc-4a778ab7fa22"
         transform="translate(-257.762,-135.538)">
        <g
           transform="translate(313.703,142.679)"
           id="g8598">
          <path
             d="M 3.734375,-6.03125 C 3.8125,-6.390625 3.84375,-6.5 4.78125,-6.5 c 0.296875,0 0.375,0 0.375,-0.1875 0,-0.125 -0.109375,-0.125 -0.15625,-0.125 -0.328125,0 -1.140625,0.03125 -1.46875,0.03125 -0.296875,0 -1.03125,-0.03125 -1.328125,-0.03125 -0.0625,0 -0.1875,0 -0.1875,0.203125 0,0.109375 0.09375,0.109375 0.28125,0.109375 0.015625,0 0.203125,0 0.375,0.015625 0.171875,0.03125 0.265625,0.03125 0.265625,0.171875 0,0.03125 0,0.0625 -0.03125,0.1875 L 1.5625,-0.78125 c -0.09375,0.390625 -0.109375,0.46875 -0.90625,0.46875 -0.171875,0 -0.265625,0 -0.265625,0.203125 C 0.390625,0 0.484375,0 0.65625,0 h 4.625 C 5.515625,0 5.515625,0 5.578125,-0.171875 L 6.375,-2.328125 c 0.03125,-0.109375 0.03125,-0.125 0.03125,-0.140625 0,-0.03125 -0.03125,-0.109375 -0.109375,-0.109375 -0.09375,0 -0.109375,0.0625 -0.171875,0.21875 -0.34375,0.90625 -0.78125,2.046875 -2.5,2.046875 H 2.6875 c -0.140625,0 -0.171875,0 -0.21875,0 -0.109375,-0.015625 -0.140625,-0.03125 -0.140625,-0.109375 0,-0.03125 0,-0.046875 0.046875,-0.21875 z m 0,0"
             id="id-1a9bc86e-e16f-4981-bf47-4495cb9edb6d" />
        </g>
      </g>
      <path
         fill="none"
         stroke-width="0.398"
         stroke-linecap="butt"
         stroke-linejoin="miter"
         stroke="#000000"
         stroke-opacity="1"
         stroke-miterlimit="10"
         d="M 49.785004,11.391312 H 63.027191"
         id="id-c0da28fb-497c-4f39-b24e-16501d274dc7" />
      <g
         fill="#000000"
         fill-opacity="1"
         id="id-a639dea1-1b0b-49d2-9078-fc23be8e1c0c"
         transform="translate(-257.762,-135.538)">
        <g
           transform="translate(307.545,156.253)"
           id="g1843">
          <path
             d="m 4.609375,-3.375 c -0.09375,-0.625 -0.5,-1.1875 -1.28125,-1.1875 -0.609375,0 -1.25,0.171875 -2.03125,0.9375 -0.828125,0.828125 -0.890625,1.765625 -0.890625,2.0625 0,0.625 0.4375,1.78125 1.828125,1.78125 2.375,0 3.40625,-3.34375 3.40625,-4.78125 0,-1.578125 -0.921875,-2.578125 -2.15625,-2.578125 -1.4375,0 -1.90625,1.296875 -1.90625,1.578125 0,0.140625 0.09375,0.34375 0.390625,0.34375 0.328125,0 0.53125,-0.296875 0.53125,-0.515625 0,-0.359375 -0.3125,-0.359375 -0.46875,-0.359375 0.4375,-0.734375 1.15625,-0.796875 1.4375,-0.796875 0.734375,0 1.421875,0.515625 1.421875,1.8125 0,0.390625 -0.0625,0.890625 -0.265625,1.703125 z m -2.34375,3.3125 c -1.09375,0 -1.09375,-1.03125 -1.09375,-1.125 0,-0.265625 0.25,-1.65625 0.65625,-2.265625 0.390625,-0.5625 0.890625,-0.890625 1.5,-0.890625 1.09375,0 1.109375,1.125 1.109375,1.328125 0,0.71875 -0.640625,2.953125 -2.171875,2.953125 z m 0,0"
             id="id-e28fced5-75c4-47f6-a4c1-8e90a6538162" />
        </g>
      </g>
      <g
         fill="#f8980f"
         fill-opacity="1"
         id="id-3bc57925-b755-495e-b4f8-173988d7d0a4"
         transform="translate(-257.762,-135.538)">
        <g
           transform="translate(313.392,156.253)"
           id="g793">
          <path
             d="M 4.609375,-3.375 C 4.65625,-3.59375 4.75,-3.96875 4.75,-4.03125 c 0,-0.171875 -0.140625,-0.265625 -0.28125,-0.265625 -0.125,0 -0.296875,0.078125 -0.375,0.28125 -0.03125,0.0625 -0.5,1.96875 -0.5625,2.234375 C 3.453125,-1.484375 3.4375,-1.3125 3.4375,-1.125 c 0,0.109375 0,0.125 0.015625,0.171875 -0.234375,0.53125 -0.53125,0.84375 -0.921875,0.84375 -0.796875,0 -0.796875,-0.734375 -0.796875,-0.90625 0,-0.3125 0.046875,-0.703125 0.515625,-1.9375 0.109375,-0.296875 0.171875,-0.4375 0.171875,-0.640625 0,-0.4375 -0.328125,-0.8125 -0.8125,-0.8125 -0.953125,0 -1.3125,1.453125 -1.3125,1.53125 0,0.109375 0.09375,0.109375 0.109375,0.109375 0.109375,0 0.109375,-0.03125 0.15625,-0.1875 C 0.84375,-3.875 1.21875,-4.1875 1.578125,-4.1875 c 0.09375,0 0.25,0.015625 0.25,0.328125 0,0.25 -0.109375,0.53125 -0.1875,0.703125 -0.4375,1.171875 -0.546875,1.625 -0.546875,2.015625 0,0.90625 0.65625,1.25 1.40625,1.25 0.171875,0 0.640625,0 1.03125,-0.703125 0.265625,0.640625 0.953125,0.703125 1.25,0.703125 0.75,0 1.1875,-0.625 1.453125,-1.21875 0.328125,-0.78125 0.65625,-2.125 0.65625,-2.59375 0,-0.546875 -0.265625,-0.703125 -0.4375,-0.703125 -0.25,0 -0.5,0.265625 -0.5,0.484375 0,0.125 0.0625,0.1875 0.140625,0.265625 0.109375,0.109375 0.359375,0.359375 0.359375,0.84375 0,0.34375 -0.28125,1.3125 -0.546875,1.828125 -0.25,0.53125 -0.609375,0.875 -1.09375,0.875 -0.46875,0 -0.734375,-0.296875 -0.734375,-0.875 0,-0.265625 0.0625,-0.578125 0.109375,-0.71875 z m 0,0"
             id="id-4a2d2a58-4038-4d8d-8b73-57c364937290" />
        </g>
      </g>
      <g
         fill="#000000"
         fill-opacity="1"
         id="id-22b8c6ca-77c9-4df7-91ee-2f155b21f636"
         transform="translate(-257.762,-135.538)">
        <g
           transform="translate(324.198,149.419)"
           id="g2552">
          <path
             d="m 6.5625,-2.296875 c 0.171875,0 0.359375,0 0.359375,-0.203125 0,-0.1875 -0.1875,-0.1875 -0.359375,-0.1875 H 1.171875 c -0.171875,0 -0.34375,0 -0.34375,0.1875 0,0.203125 0.171875,0.203125 0.34375,0.203125 z m 0,0"
             id="id-3f46adba-20f0-4216-952b-4f3fd97b2166" />
        </g>
      </g>
      <g
         fill="#000000"
         fill-opacity="1"
         id="id-3094ed09-6046-42be-8bea-4b1af8323573"
         transform="translate(-257.762,-135.538)">
        <g
           transform="translate(334.161,149.419)"
           id="g6039">
          <path
             d="m 4.75,-2.359375 c 0,-1.5625 -0.921875,-2.046875 -1.65625,-2.046875 -1.375,0 -2.6875,1.421875 -2.6875,2.828125 0,0.9375 0.59375,1.6875 1.625,1.6875 0.625,0 1.34375,-0.234375 2.09375,-0.84375 0.125,0.53125 0.453125,0.84375 0.90625,0.84375 0.53125,0 0.84375,-0.546875 0.84375,-0.703125 0,-0.078125 -0.0625,-0.109375 -0.125,-0.109375 -0.0625,0 -0.09375,0.03125 -0.125,0.109375 -0.1875,0.484375 -0.546875,0.484375 -0.5625,0.484375 -0.3125,0 -0.3125,-0.78125 -0.3125,-1.015625 0,-0.203125 0,-0.234375 0.109375,-0.34375 C 5.796875,-2.65625 6,-3.8125 6,-3.8125 6,-3.84375 5.984375,-3.921875 5.875,-3.921875 c -0.09375,0 -0.09375,0.03125 -0.140625,0.21875 -0.1875,0.625 -0.515625,1.375 -0.984375,1.96875 z m -0.65625,1.375 c -0.890625,0.765625 -1.65625,0.875 -2.046875,0.875 -0.59375,0 -0.90625,-0.453125 -0.90625,-1.09375 0,-0.484375 0.265625,-1.5625 0.578125,-2.0625 C 2.1875,-4 2.734375,-4.1875 3.078125,-4.1875 c 0.984375,0 0.984375,1.3125 0.984375,2.078125 0,0.375 0,0.953125 0.03125,1.125 z m 0,0"
             id="id-83bd8753-4312-4576-aa39-c6d3e05048b9" />
        </g>
      </g>
      <g
         fill="#000000"
         fill-opacity="1"
         id="id-a86305e4-2934-4bb7-aa5b-187f9f985345"
         transform="translate(-257.762,-135.538)">
        <g
           transform="translate(340.574,149.419)"
           id="g3691">
          <path
             d="m 3.5625,-2.90625 c 0.40625,1.046875 0.890625,2.5625 1.046875,2.796875 0.15625,0.21875 0.25,0.21875 0.53125,0.21875 h 0.21875 c 0.09375,-0.015625 0.109375,-0.0625 0.109375,-0.09375 0,-0.03125 -0.03125,-0.0625 -0.0625,-0.09375 C 5.3125,-0.1875 5.25,-0.34375 5.1875,-0.53125 L 3.15625,-6.203125 c -0.21875,-0.578125 -0.75,-0.71875 -1.21875,-0.71875 -0.046875,0 -0.1875,0 -0.1875,0.109375 0,0.078125 0.078125,0.109375 0.09375,0.109375 C 2.171875,-6.65625 2.25,-6.59375 2.5,-5.90625 l 0.953125,2.703125 -2.75,2.734375 c -0.109375,0.125 -0.171875,0.171875 -0.171875,0.3125 0,0.171875 0.140625,0.28125 0.296875,0.28125 0.15625,0 0.25,-0.109375 0.328125,-0.203125 z m 0,0"
             id="id-39253ef5-6c69-4616-9ea3-5ca7330a22d8" />
        </g>
      </g>
      <g
         fill="#f8980f"
         fill-opacity="1"
         id="id-b4f4d904-348e-4e7d-98bf-3313dc027c97"
         transform="translate(-257.762,-135.538)">
        <g
           transform="translate(346.385,149.419)"
           id="g8006">
          <path
             d="M 4.609375,-3.375 C 4.65625,-3.59375 4.75,-3.96875 4.75,-4.03125 c 0,-0.171875 -0.140625,-0.265625 -0.28125,-0.265625 -0.125,0 -0.296875,0.078125 -0.375,0.28125 -0.03125,0.0625 -0.5,1.96875 -0.5625,2.234375 C 3.453125,-1.484375 3.4375,-1.3125 3.4375,-1.125 c 0,0.109375 0,0.125 0.015625,0.171875 -0.234375,0.53125 -0.53125,0.84375 -0.921875,0.84375 -0.796875,0 -0.796875,-0.734375 -0.796875,-0.90625 0,-0.3125 0.046875,-0.703125 0.515625,-1.9375 0.109375,-0.296875 0.171875,-0.4375 0.171875,-0.640625 0,-0.4375 -0.328125,-0.8125 -0.8125,-0.8125 -0.953125,0 -1.3125,1.453125 -1.3125,1.53125 0,0.109375 0.09375,0.109375 0.109375,0.109375 0.109375,0 0.109375,-0.03125 0.15625,-0.1875 C 0.84375,-3.875 1.21875,-4.1875 1.578125,-4.1875 c 0.09375,0 0.25,0.015625 0.25,0.328125 0,0.25 -0.109375,0.53125 -0.1875,0.703125 -0.4375,1.171875 -0.546875,1.625 -0.546875,2.015625 0,0.90625 0.65625,1.25 1.40625,1.25 0.171875,0 0.640625,0 1.03125,-0.703125 0.265625,0.640625 0.953125,0.703125 1.25,0.703125 0.75,0 1.1875,-0.625 1.453125,-1.21875 0.328125,-0.78125 0.65625,-2.125 0.65625,-2.59375 0,-0.546875 -0.265625,-0.703125 -0.4375,-0.703125 -0.25,0 -0.5,0.265625 -0.5,0.484375 0,0.125 0.0625,0.1875 0.140625,0.265625 0.109375,0.109375 0.359375,0.359375 0.359375,0.84375 0,0.34375 -0.28125,1.3125 -0.546875,1.828125 -0.25,0.53125 -0.609375,0.875 -1.09375,0.875 -0.46875,0 -0.734375,-0.296875 -0.734375,-0.875 0,-0.265625 0.0625,-0.578125 0.109375,-0.71875 z m 0,0"
             id="id-45b33a3f-e1b6-4a2b-8a7d-624b6f00381f" />
        </g>
      </g>
    </g>
    <g
       transform="matrix(0.853002,0,0,0.853002,19.98,138.99849)"
       ns12:version="1.9.0"
       ns12:texconverter="pdflatex"
       ns12:pdfconverter="inkscape"
       ns12:text="$$\\min_{\\color{YellowOrange}{\\theta}} \\biggl[\\underbrace{-\\log P_{\\color{YellowOrange}{\\theta}}({\\color{PineGreen}{y}} \\mid {\\color{RoyalBlue}{x}})}_{\\color{BrickRed}{L}} + \\frac{\\lambda}{2} R({\\color{YellowOrange}{\\theta}})\\biggr]$$\n"
       ns12:preamble="/Users/irhum/Library/Application Support/org.inkscape.Inkscape/config/inkscape/extensions/textext/default_packages.tex"
       ns12:scale="2.417956335145616"
       ns12:alignment="middle center"
       ns12:stroke-to-path="0"
       ns12:inkscapeversion="1.3"
       id="g9282"
       ns12:jacobian_sqrt="0.853002">
      <defs
         id="id-4eb5314a-0d25-4253-9d35-e6427cd879fa">
        <g
           id="id-63c4d9be-26fa-4b07-9e35-28d61e5d84cc">
          <g
             id="id-d4056f68-0238-4364-a0e1-e47f2af09759">
            <path
               d="M 1.09375,-3.421875 V -0.75 c 0,0.4375 -0.109375,0.4375 -0.78125,0.4375 V 0 c 0.359375,-0.015625 0.859375,-0.03125 1.140625,-0.03125 0.25,0 0.765625,0.015625 1.109375,0.03125 v -0.3125 c -0.671875,0 -0.78125,0 -0.78125,-0.4375 V -2.59375 C 1.78125,-3.625 2.5,-4.1875 3.125,-4.1875 c 0.640625,0 0.75,0.53125 0.75,1.109375 V -0.75 c 0,0.4375 -0.109375,0.4375 -0.78125,0.4375 V 0 c 0.34375,-0.015625 0.859375,-0.03125 1.125,-0.03125 0.25,0 0.78125,0.015625 1.109375,0.03125 v -0.3125 c -0.65625,0 -0.765625,0 -0.765625,-0.4375 v -1.84375 c 0,-1.03125 0.703125,-1.59375 1.34375,-1.59375 0.625,0 0.734375,0.53125 0.734375,1.109375 V -0.75 c 0,0.4375 -0.109375,0.4375 -0.78125,0.4375 V 0 c 0.34375,-0.015625 0.859375,-0.03125 1.125,-0.03125 0.265625,0 0.78125,0.015625 1.125,0.03125 v -0.3125 c -0.515625,0 -0.765625,0 -0.78125,-0.296875 v -1.90625 c 0,-0.859375 0,-1.15625 -0.3125,-1.515625 -0.140625,-0.171875 -0.46875,-0.375 -1.046875,-0.375 -0.828125,0 -1.28125,0.59375 -1.4375,0.984375 C 4.390625,-4.296875 3.65625,-4.40625 3.203125,-4.40625 2.46875,-4.40625 2,-3.984375 1.71875,-3.359375 V -4.40625 L 0.3125,-4.296875 v 0.3125 c 0.703125,0 0.78125,0.0625 0.78125,0.5625 z m 0,0"
               id="id-5e6070be-627d-4bd2-8963-68d8c43919b8" />
          </g>
          <g
             id="id-41b752a6-0550-4527-85ad-9a7acc41509d">
            <path
               d="M 1.765625,-4.40625 0.375,-4.296875 v 0.3125 c 0.640625,0 0.734375,0.0625 0.734375,0.546875 V -0.75 c 0,0.4375 -0.109375,0.4375 -0.78125,0.4375 V 0 C 0.640625,-0.015625 1.1875,-0.03125 1.421875,-0.03125 1.78125,-0.03125 2.125,-0.015625 2.46875,0 v -0.3125 c -0.671875,0 -0.703125,-0.046875 -0.703125,-0.4375 z m 0.03125,-1.734375 c 0,-0.3125 -0.234375,-0.53125 -0.515625,-0.53125 -0.3125,0 -0.53125,0.265625 -0.53125,0.53125 0,0.265625 0.21875,0.53125 0.53125,0.53125 0.28125,0 0.515625,-0.21875 0.515625,-0.53125 z m 0,0"
               id="id-570556c8-45ec-4ab7-99d5-86cf89bcfceb" />
          </g>
          <g
             id="id-f917c39c-c257-406b-aeaa-270ba64ef6de">
            <path
               d="M 1.09375,-3.421875 V -0.75 c 0,0.4375 -0.109375,0.4375 -0.78125,0.4375 V 0 c 0.359375,-0.015625 0.859375,-0.03125 1.140625,-0.03125 0.25,0 0.765625,0.015625 1.109375,0.03125 v -0.3125 c -0.671875,0 -0.78125,0 -0.78125,-0.4375 V -2.59375 C 1.78125,-3.625 2.5,-4.1875 3.125,-4.1875 c 0.640625,0 0.75,0.53125 0.75,1.109375 V -0.75 c 0,0.4375 -0.109375,0.4375 -0.78125,0.4375 V 0 c 0.34375,-0.015625 0.859375,-0.03125 1.125,-0.03125 0.25,0 0.78125,0.015625 1.109375,0.03125 v -0.3125 c -0.515625,0 -0.765625,0 -0.765625,-0.296875 v -1.90625 c 0,-0.859375 0,-1.15625 -0.3125,-1.515625 -0.140625,-0.171875 -0.46875,-0.375 -1.046875,-0.375 C 2.46875,-4.40625 2,-3.984375 1.71875,-3.359375 V -4.40625 L 0.3125,-4.296875 v 0.3125 c 0.703125,0 0.78125,0.0625 0.78125,0.5625 z m 0,0"
               id="id-3cba7320-3185-495c-9596-47eefbf75aa7" />
          </g>
          <g
             id="id-19e10c52-379d-485b-aa8e-a45e5171324d">
            <path
               d="M 1.765625,-6.921875 0.328125,-6.8125 V -6.5 c 0.703125,0 0.78125,0.0625 0.78125,0.5625 V -0.75 c 0,0.4375 -0.109375,0.4375 -0.78125,0.4375 V 0 C 0.65625,-0.015625 1.1875,-0.03125 1.4375,-0.03125 c 0.25,0 0.734375,0.015625 1.109375,0.03125 v -0.3125 c -0.671875,0 -0.78125,0 -0.78125,-0.4375 z m 0,0"
               id="id-4c08acf7-17a3-48cb-9ddc-7cd376274700" />
          </g>
          <g
             id="id-f9ebc11d-7423-4656-8d70-104f80b0da54">
            <path
               d="M 4.6875,-2.140625 C 4.6875,-3.40625 3.703125,-4.46875 2.5,-4.46875 c -1.25,0 -2.21875,1.09375 -2.21875,2.328125 0,1.296875 1.03125,2.25 2.203125,2.25 1.203125,0 2.203125,-0.984375 2.203125,-2.25 z m -2.1875,2 c -0.4375,0 -0.875,-0.203125 -1.140625,-0.671875 -0.25,-0.4375 -0.25,-1.046875 -0.25,-1.40625 0,-0.390625 0,-0.921875 0.234375,-1.359375 C 1.609375,-4.03125 2.078125,-4.25 2.484375,-4.25 c 0.4375,0 0.859375,0.21875 1.125,0.65625 0.265625,0.421875 0.265625,1 0.265625,1.375 0,0.359375 0,0.90625 -0.21875,1.34375 C 3.421875,-0.421875 2.984375,-0.140625 2.5,-0.140625 Z m 0,0"
               id="id-582629da-ceb7-4dd1-9071-5e60afe5ef55" />
          </g>
          <g
             id="id-244d1a7b-1ca8-4be5-ad4a-7b6c0bd0563d">
            <path
               d="m 2.21875,-1.71875 c -0.875,0 -0.875,-1 -0.875,-1.21875 0,-0.265625 0.015625,-0.59375 0.15625,-0.84375 0.078125,-0.109375 0.3125,-0.390625 0.71875,-0.390625 0.859375,0 0.859375,0.984375 0.859375,1.21875 0,0.265625 0,0.59375 -0.15625,0.84375 C 2.84375,-2 2.609375,-1.71875 2.21875,-1.71875 Z M 1.0625,-1.328125 c 0,-0.03125 0,-0.265625 0.15625,-0.46875 0.390625,0.28125 0.8125,0.3125 1,0.3125 0.921875,0 1.609375,-0.6875 1.609375,-1.453125 0,-0.375 -0.15625,-0.734375 -0.40625,-0.96875 C 3.78125,-4.25 4.140625,-4.296875 4.3125,-4.296875 c 0.03125,0 0.078125,0 0.109375,0.015625 C 4.3125,-4.25 4.25,-4.140625 4.25,-4.015625 c 0,0.171875 0.140625,0.28125 0.296875,0.28125 0.09375,0 0.28125,-0.0625 0.28125,-0.296875 0,-0.171875 -0.109375,-0.484375 -0.5,-0.484375 -0.203125,0 -0.640625,0.0625 -1.0625,0.46875 C 2.84375,-4.375 2.4375,-4.40625 2.21875,-4.40625 c -0.9375,0 -1.625,0.6875 -1.625,1.453125 0,0.4375 0.21875,0.8125 0.46875,1.03125 -0.125,0.140625 -0.3125,0.46875 -0.3125,0.828125 0,0.3125 0.140625,0.6875 0.453125,0.890625 -0.609375,0.15625 -0.921875,0.59375 -0.921875,0.984375 0,0.71875 0.984375,1.265625 2.203125,1.265625 1.171875,0 2.203125,-0.5 2.203125,-1.28125 0,-0.34375 -0.125,-0.859375 -0.640625,-1.140625 -0.53125,-0.265625 -1.109375,-0.265625 -1.71875,-0.265625 -0.25,0 -0.671875,0 -0.75,-0.015625 C 1.265625,-0.703125 1.0625,-1 1.0625,-1.328125 Z M 2.5,1.828125 c -1.015625,0 -1.703125,-0.515625 -1.703125,-1.046875 0,-0.453125 0.375,-0.828125 0.8125,-0.84375 h 0.59375 c 0.859375,0 1.96875,0 1.96875,0.84375 0,0.546875 -0.703125,1.046875 -1.671875,1.046875 z m 0,0"
               id="id-e9089ccc-788a-4bb0-a186-f190b8055cc8" />
          </g>
          <g
             id="id-f782a6c6-0cef-4d07-8faa-06648182da58">
            <path
               d="m 3.296875,2.390625 c 0,-0.03125 0,-0.046875 -0.171875,-0.21875 C 1.890625,0.921875 1.5625,-0.96875 1.5625,-2.5 c 0,-1.734375 0.375,-3.46875 1.609375,-4.703125 0.125,-0.125 0.125,-0.140625 0.125,-0.171875 0,-0.078125 -0.03125,-0.109375 -0.09375,-0.109375 -0.109375,0 -1,0.6875 -1.59375,1.953125 -0.5,1.09375 -0.625,2.203125 -0.625,3.03125 0,0.78125 0.109375,1.984375 0.65625,3.125 C 2.25,1.84375 3.09375,2.5 3.203125,2.5 c 0.0625,0 0.09375,-0.03125 0.09375,-0.109375 z m 0,0"
               id="id-3c6020de-2d75-454a-94f6-55e56eb2c18c" />
          </g>
          <g
             id="id-00881179-cde1-4414-8b4a-3469a4b6d7cb">
            <path
               d="m 2.875,-2.5 c 0,-0.765625 -0.109375,-1.96875 -0.65625,-3.109375 -0.59375,-1.21875 -1.453125,-1.875 -1.546875,-1.875 -0.0625,0 -0.109375,0.046875 -0.109375,0.109375 0,0.03125 0,0.046875 0.1875,0.234375 0.984375,0.984375 1.546875,2.5625 1.546875,4.640625 0,1.71875 -0.359375,3.46875 -1.59375,4.71875 C 0.5625,2.34375 0.5625,2.359375 0.5625,2.390625 0.5625,2.453125 0.609375,2.5 0.671875,2.5 0.765625,2.5 1.671875,1.8125 2.25,0.546875 2.765625,-0.546875 2.875,-1.65625 2.875,-2.5 Z m 0,0"
               id="id-a1f0b40c-d0d2-4d11-81f5-95855b566ff6" />
          </g>
          <g
             id="id-c26dda31-0f89-4d11-806f-12f147d3b14f">
            <path
               d="m 4.078125,-2.296875 h 2.78125 C 7,-2.296875 7.1875,-2.296875 7.1875,-2.5 7.1875,-2.6875 7,-2.6875 6.859375,-2.6875 h -2.78125 v -2.796875 c 0,-0.140625 0,-0.328125 -0.203125,-0.328125 -0.203125,0 -0.203125,0.1875 -0.203125,0.328125 V -2.6875 h -2.78125 c -0.140625,0 -0.328125,0 -0.328125,0.1875 0,0.203125 0.1875,0.203125 0.328125,0.203125 h 2.78125 V 0.5 c 0,0.140625 0,0.328125 0.203125,0.328125 0.203125,0 0.203125,-0.1875 0.203125,-0.328125 z m 0,0"
               id="id-36217cab-b805-45b2-8604-8d1eed83200d" />
          </g>
          <g
             id="id-9ec4a3c9-56ef-46a8-a771-a72bf005fe07">
            <path
               d="m 1.265625,-0.765625 1.0625,-1.03125 c 1.546875,-1.375 2.140625,-1.90625 2.140625,-2.90625 0,-1.140625 -0.890625,-1.9375 -2.109375,-1.9375 -1.125,0 -1.859375,0.921875 -1.859375,1.8125 0,0.546875 0.5,0.546875 0.53125,0.546875 0.171875,0 0.515625,-0.109375 0.515625,-0.53125 0,-0.25 -0.1875,-0.515625 -0.53125,-0.515625 -0.078125,0 -0.09375,0 -0.125,0.015625 0.21875,-0.65625 0.765625,-1.015625 1.34375,-1.015625 0.90625,0 1.328125,0.8125 1.328125,1.625 C 3.5625,-3.90625 3.078125,-3.125 2.515625,-2.5 l -1.90625,2.125 C 0.5,-0.265625 0.5,-0.234375 0.5,0 H 4.203125 L 4.46875,-1.734375 H 4.234375 C 4.171875,-1.4375 4.109375,-1 4,-0.84375 3.9375,-0.765625 3.28125,-0.765625 3.0625,-0.765625 Z m 0,0"
               id="id-607a5b8f-4a0f-4409-874b-c570bd637d58" />
          </g>
          <g
             id="id-dce93e2a-7fdb-402f-89c5-0ad68a63358c">
            <path
               d="m 3.5625,-3.390625 c 0,-0.734375 -0.28125,-1.515625 -0.96875,-1.515625 -1.046875,0 -2.15625,1.875 -2.15625,3.46875 0,0.828125 0.328125,1.5 0.96875,1.5 1.046875,0 2.15625,-1.890625 2.15625,-3.453125 z m -2.34375,0.84375 c 0.359375,-1.5 0.96875,-2.15625 1.375,-2.15625 0.4375,0 0.4375,0.765625 0.4375,0.890625 0,0.28125 -0.046875,0.6875 -0.1875,1.265625 z m 1.5625,0.25 C 2.578125,-1.53125 2.421875,-1.15625 2.203125,-0.8125 2,-0.453125 1.71875,-0.125 1.40625,-0.125 c -0.375,0 -0.4375,-0.53125 -0.4375,-0.90625 0,-0.453125 0.125,-1 0.1875,-1.265625 z m 0,0"
               id="id-d173704f-f98d-4a4b-9b15-1da11201ecb3" />
          </g>
          <g
             id="id-b96f5725-89ac-4cb5-92fd-c6ed18a36a1a">
            <path
               d="m 2.875,-4.1875 c 0.0625,-0.25 0.078125,-0.328125 0.71875,-0.328125 0.21875,0 0.28125,0 0.28125,-0.140625 0,-0.015625 0,-0.109375 -0.109375,-0.109375 -0.15625,0 -0.34375,0.015625 -0.515625,0.03125 -0.171875,0 -0.390625,0 -0.5625,0 -0.140625,0 -0.328125,0 -0.484375,0 -0.140625,0 -0.3125,-0.03125 -0.453125,-0.03125 -0.03125,0 -0.140625,0 -0.140625,0.15625 0,0.09375 0.078125,0.09375 0.21875,0.09375 0.015625,0 0.140625,0 0.265625,0.015625 0.15625,0.015625 0.171875,0.03125 0.171875,0.109375 0,0 0,0.046875 -0.03125,0.140625 l -0.9375,3.703125 C 1.234375,-0.3125 1.21875,-0.25 0.6875,-0.25 c -0.109375,0 -0.203125,0 -0.203125,0.140625 C 0.484375,0 0.5625,0 0.6875,0 h 3.5 c 0.1875,0 0.1875,0 0.25,-0.140625 0.0625,-0.1875 0.59375,-1.53125 0.59375,-1.59375 0,-0.015625 -0.015625,-0.09375 -0.125,-0.09375 -0.078125,0 -0.09375,0.03125 -0.140625,0.140625 C 4.5,-1.03125 4.1875,-0.25 2.921875,-0.25 H 2.125 c -0.203125,0 -0.21875,-0.015625 -0.21875,-0.078125 0,0 0,-0.03125 0.03125,-0.140625 z m 0,0"
               id="id-11a11608-d2c5-4626-b1a0-a4c95f707392" />
          </g>
          <g
             id="id-c3853142-8db3-477f-9f84-a667a0061ce6">
            <path
               d="M 2.5,23.515625 H 5.109375 V 22.96875 h -2.0625 V 0.15625 h 2.0625 v -0.5625 H 2.5 Z m 0,0"
               id="id-75a6d087-3cbf-48c7-8717-9286b207e18e" />
          </g>
          <g
             id="id-7edd01a1-5451-493d-b5dd-01ede9ddb09d">
            <path
               d="m 4.578125,-0.921875 c 0,-0.21875 0,-0.28125 -0.125,-0.28125 -0.609375,0 -1.609375,-0.078125 -2.5,-0.515625 C 0.875,-2.265625 0.46875,-2.890625 0.21875,-3.28125 0.1875,-3.328125 0.125,-3.328125 0,-3.328125 c -0.234375,0 -0.234375,0.015625 -0.234375,0.25 V -2.90625 C 1.109375,-0.46875 3.359375,0 4.375,0 4.578125,0 4.578125,-0.015625 4.578125,-0.28125 Z m 0,0"
               id="id-4116c901-5b82-4637-a6fd-349905d79e28" />
          </g>
          <g
             id="id-4c815950-639d-499f-ae6b-bf7bd13fa39b">
            <path
               d="M 4.71875,1.71875 C 3.375,-0.734375 1.125,-1.203125 0.109375,-1.203125 c -0.203125,0 -0.203125,0.015625 -0.203125,0.28125 v 0.640625 c 0,0.234375 0,0.28125 0.140625,0.28125 0.59375,0.015625 1.59375,0.09375 2.484375,0.53125 1.078125,0.53125 1.484375,1.15625 1.734375,1.546875 0.03125,0.0625 0.09375,0.0625 0.21875,0.0625 C 4.71875,2.140625 4.71875,2.125 4.71875,1.875 Z m 0,0"
               id="id-a920f61f-4609-423b-b6f4-968d072c9fd9" />
          </g>
          <g
             id="id-1624c472-8b46-4a39-b660-f8901f76cff9">
            <path
               d="m 4.578125,-0.921875 c 0,-0.265625 0,-0.28125 -0.203125,-0.28125 -1.015625,0 -3.265625,0.484375 -4.609375,2.921875 V 1.875 c 0,0.25 0,0.265625 0.234375,0.265625 0.1875,0 0.203125,-0.015625 0.25,-0.09375 C 1.0625,0.75 2.4375,0.046875 4.46875,0 4.578125,0 4.578125,-0.0625 4.578125,-0.28125 Z m 0,0"
               id="id-b94b3fc9-7d46-4d09-994c-1da2a3edabd2" />
          </g>
          <g
             id="id-c34be512-97ea-4fa2-a131-3e6ddbfeba46">
            <path
               d="m 4.71875,-3.078125 c 0,-0.234375 0,-0.25 -0.234375,-0.25 -0.1875,0 -0.203125,0.015625 -0.25,0.078125 -0.8125,1.3125 -2.1875,2.015625 -4.21875,2.046875 -0.109375,0 -0.109375,0.078125 -0.109375,0.28125 v 0.640625 c 0,0.265625 0,0.28125 0.203125,0.28125 C 1.125,0 3.375,-0.484375 4.71875,-2.90625 Z m 0,0"
               id="id-17dce1f6-d48d-43e4-bac0-412c1641fa7d" />
          </g>
          <g
             id="id-64e7f949-8460-45eb-bd33-d6fc5af2b959">
            <path
               d="M 2.21875,22.96875 H 0.140625 v 0.546875 h 2.625 V -0.40625 h -2.625 v 0.5625 H 2.21875 Z m 0,0"
               id="id-6ac93f29-99cc-40ba-9ec2-5fdfc9f78e0f" />
          </g>
          <g
             id="id-5dea827a-c2b9-4525-9ffa-24dd70640e22">
            <path
               d="m 6.5625,-2.296875 c 0.171875,0 0.359375,0 0.359375,-0.203125 0,-0.1875 -0.1875,-0.1875 -0.359375,-0.1875 H 1.171875 c -0.171875,0 -0.34375,0 -0.34375,0.1875 0,0.203125 0.171875,0.203125 0.34375,0.203125 z m 0,0"
               id="id-53b302d3-8739-4bc8-899e-c9eda50296aa" />
          </g>
          <g
             id="id-9bd88b53-7615-4b6b-b18f-d3fe00239e0d">
            <path
               d="m 1.578125,-7.125 c 0,-0.171875 0,-0.359375 -0.1875,-0.359375 -0.203125,0 -0.203125,0.1875 -0.203125,0.359375 v 9.265625 c 0,0.171875 0,0.359375 0.203125,0.359375 0.1875,0 0.1875,-0.1875 0.1875,-0.359375 z m 0,0"
               id="id-2d8329d4-5944-4e50-90c3-d2975096d59d" />
          </g>
          <g
             id="id-a83dd13d-5a98-4f34-8ec7-d9a953d0beb7">
            <path
               d="M 3.015625,-3.15625 H 4.71875 c 1.40625,0 2.796875,-1.03125 2.796875,-2.140625 0,-0.78125 -0.65625,-1.515625 -1.96875,-1.515625 h -3.21875 c -0.1875,0 -0.296875,0 -0.296875,0.1875 0,0.125 0.078125,0.125 0.28125,0.125 0.125,0 0.3125,0.015625 0.421875,0.015625 0.171875,0.03125 0.21875,0.046875 0.21875,0.171875 0,0.03125 0,0.0625 -0.03125,0.1875 l -1.34375,5.34375 c -0.09375,0.390625 -0.109375,0.46875 -0.90625,0.46875 -0.15625,0 -0.265625,0 -0.265625,0.1875 C 0.40625,0 0.515625,0 0.546875,0 0.828125,0 1.53125,-0.03125 1.8125,-0.03125 c 0.21875,0 0.4375,0.015625 0.640625,0.015625 0.21875,0 0.4375,0.015625 0.640625,0.015625 0.078125,0 0.203125,0 0.203125,-0.203125 0,-0.109375 -0.09375,-0.109375 -0.28125,-0.109375 -0.359375,0 -0.640625,0 -0.640625,-0.171875 0,-0.0625 0.015625,-0.109375 0.03125,-0.171875 z M 3.734375,-6.125 C 3.828125,-6.46875 3.84375,-6.5 4.28125,-6.5 h 0.953125 c 0.828125,0 1.359375,0.265625 1.359375,0.953125 0,0.390625 -0.203125,1.25 -0.59375,1.609375 -0.5,0.453125 -1.09375,0.53125 -1.53125,0.53125 H 3.0625 Z m 0,0"
               id="id-0da67c90-cd5e-4157-8c68-544d65d45a6b" />
          </g>
          <g
             id="id-49b5c5dd-2428-4fbb-aa05-85fe1087ed50">
            <path
               d="m 4.84375,-3.796875 c 0.046875,-0.140625 0.046875,-0.15625 0.046875,-0.234375 0,-0.171875 -0.140625,-0.265625 -0.296875,-0.265625 -0.09375,0 -0.25,0.0625 -0.34375,0.203125 -0.015625,0.0625 -0.109375,0.359375 -0.140625,0.546875 -0.078125,0.25 -0.140625,0.53125 -0.203125,0.796875 l -0.453125,1.796875 c -0.03125,0.140625 -0.46875,0.84375 -1.125,0.84375 -0.5,0 -0.609375,-0.4375 -0.609375,-0.8125 C 1.71875,-1.375 1.890625,-2 2.21875,-2.875 2.375,-3.28125 2.421875,-3.390625 2.421875,-3.59375 c 0,-0.4375 -0.3125,-0.8125 -0.8125,-0.8125 -0.953125,0 -1.3125,1.453125 -1.3125,1.53125 0,0.109375 0.09375,0.109375 0.109375,0.109375 0.109375,0 0.109375,-0.03125 0.15625,-0.1875 0.28125,-0.9375 0.671875,-1.234375 1.015625,-1.234375 0.078125,0 0.25,0 0.25,0.3125 0,0.25 -0.109375,0.515625 -0.171875,0.703125 -0.40625,1.0625 -0.578125,1.625 -0.578125,2.09375 0,0.890625 0.625,1.1875 1.21875,1.1875 0.390625,0 0.71875,-0.171875 1,-0.453125 -0.125,0.515625 -0.25,1.015625 -0.640625,1.546875 -0.265625,0.328125 -0.640625,0.625 -1.09375,0.625 -0.140625,0 -0.59375,-0.03125 -0.765625,-0.421875 0.15625,0 0.296875,0 0.421875,-0.125 C 1.328125,1.203125 1.421875,1.0625 1.421875,0.875 1.421875,0.5625 1.15625,0.53125 1.0625,0.53125 0.828125,0.53125 0.5,0.6875 0.5,1.171875 c 0,0.5 0.4375,0.875 1.0625,0.875 1.015625,0 2.046875,-0.90625 2.328125,-2.03125 z m 0,0"
               id="id-fb06a326-881c-4b26-aadd-d1c8589cc898" />
          </g>
          <g
             id="id-407b7446-f2a8-4c7f-965c-7a0b19e93153">
            <path
               d="M 3.328125,-3.015625 C 3.390625,-3.265625 3.625,-4.1875 4.3125,-4.1875 c 0.046875,0 0.296875,0 0.5,0.125 C 4.53125,-4 4.34375,-3.765625 4.34375,-3.515625 c 0,0.15625 0.109375,0.34375 0.375,0.34375 0.21875,0 0.53125,-0.171875 0.53125,-0.578125 0,-0.515625 -0.578125,-0.65625 -0.921875,-0.65625 -0.578125,0 -0.921875,0.53125 -1.046875,0.75 -0.25,-0.65625 -0.78125,-0.75 -1.078125,-0.75 -1.03125,0 -1.609375,1.28125 -1.609375,1.53125 0,0.109375 0.109375,0.109375 0.125,0.109375 0.078125,0 0.109375,-0.03125 0.125,-0.109375 0.34375,-1.0625 1,-1.3125 1.34375,-1.3125 0.1875,0 0.53125,0.09375 0.53125,0.671875 0,0.3125 -0.171875,0.96875 -0.53125,2.375 -0.15625,0.609375 -0.515625,1.03125 -0.953125,1.03125 -0.0625,0 -0.28125,0 -0.5,-0.125 0.25,-0.0625 0.46875,-0.265625 0.46875,-0.546875 0,-0.265625 -0.21875,-0.34375 -0.359375,-0.34375 -0.3125,0 -0.546875,0.25 -0.546875,0.578125 0,0.453125 0.484375,0.65625 0.921875,0.65625 0.671875,0 1.03125,-0.703125 1.046875,-0.75 0.125,0.359375 0.484375,0.75 1.078125,0.75 1.03125,0 1.59375,-1.28125 1.59375,-1.53125 0,-0.109375 -0.078125,-0.109375 -0.109375,-0.109375 -0.09375,0 -0.109375,0.046875 -0.140625,0.109375 -0.328125,1.078125 -1,1.3125 -1.3125,1.3125 -0.390625,0 -0.546875,-0.3125 -0.546875,-0.65625 0,-0.21875 0.046875,-0.4375 0.15625,-0.875 z m 0,0"
               id="id-a4ff80f3-8436-4abd-aafa-73cf1ab02dbb" />
          </g>
          <g
             id="id-76bce087-45f8-48ea-b6c4-86a8c0e98da2">
            <path
               d="m 3.5625,-2.90625 c 0.40625,1.046875 0.890625,2.5625 1.046875,2.796875 0.15625,0.21875 0.25,0.21875 0.53125,0.21875 h 0.21875 c 0.09375,-0.015625 0.109375,-0.0625 0.109375,-0.09375 0,-0.03125 -0.03125,-0.0625 -0.0625,-0.09375 C 5.3125,-0.1875 5.25,-0.34375 5.1875,-0.53125 L 3.15625,-6.203125 c -0.21875,-0.578125 -0.75,-0.71875 -1.21875,-0.71875 -0.046875,0 -0.1875,0 -0.1875,0.109375 0,0.078125 0.078125,0.109375 0.09375,0.109375 C 2.171875,-6.65625 2.25,-6.59375 2.5,-5.90625 l 0.953125,2.703125 -2.75,2.734375 c -0.109375,0.125 -0.171875,0.171875 -0.171875,0.3125 0,0.171875 0.140625,0.28125 0.296875,0.28125 0.15625,0 0.25,-0.109375 0.328125,-0.203125 z m 0,0"
               id="id-e69248dc-632e-45e1-ab75-f91422cd1abd" />
          </g>
          <g
             id="id-b3c9442c-fe60-4d70-81e8-98a9ec640878">
            <path
               d="m 3.734375,-6.125 c 0.0625,-0.234375 0.09375,-0.328125 0.28125,-0.359375 C 4.109375,-6.5 4.421875,-6.5 4.625,-6.5 c 0.703125,0 1.8125,0 1.8125,0.984375 0,0.34375 -0.15625,1.03125 -0.546875,1.421875 -0.265625,0.25 -0.78125,0.578125 -1.6875,0.578125 H 3.09375 Z m 1.4375,2.734375 c 1.015625,-0.21875 2.1875,-0.921875 2.1875,-1.921875 0,-0.859375 -0.890625,-1.5 -2.203125,-1.5 H 2.328125 c -0.203125,0 -0.296875,0 -0.296875,0.203125 C 2.03125,-6.5 2.125,-6.5 2.3125,-6.5 c 0.015625,0 0.203125,0 0.375,0.015625 0.1875,0.03125 0.265625,0.03125 0.265625,0.171875 0,0.03125 0,0.0625 -0.03125,0.1875 l -1.34375,5.34375 C 1.484375,-0.390625 1.46875,-0.3125 0.671875,-0.3125 0.5,-0.3125 0.40625,-0.3125 0.40625,-0.109375 0.40625,0 0.53125,0 0.546875,0 c 0.28125,0 0.984375,-0.03125 1.25,-0.03125 0.28125,0 1,0.03125 1.28125,0.03125 0.078125,0 0.1875,0 0.1875,-0.203125 0,-0.109375 -0.078125,-0.109375 -0.28125,-0.109375 -0.359375,0 -0.640625,0 -0.640625,-0.171875 0,-0.0625 0.015625,-0.109375 0.03125,-0.171875 l 0.65625,-2.640625 h 1.1875 c 0.90625,0 1.078125,0.5625 1.078125,0.90625 0,0.140625 -0.078125,0.453125 -0.140625,0.6875 C 5.09375,-1.421875 5,-1.0625 5,-0.859375 5,0.21875 6.203125,0.21875 6.328125,0.21875 c 0.84375,0 1.203125,-1 1.203125,-1.140625 0,-0.125 -0.109375,-0.125 -0.125,-0.125 -0.09375,0 -0.109375,0.0625 -0.125,0.140625 C 7.03125,-0.171875 6.59375,0 6.375,0 6.046875,0 5.96875,-0.21875 5.96875,-0.609375 c 0,-0.3125 0.0625,-0.8125 0.109375,-1.140625 0.015625,-0.140625 0.03125,-0.328125 0.03125,-0.46875 0,-0.765625 -0.671875,-1.078125 -0.9375,-1.171875 z m 0,0"
               id="id-469083ab-54ab-4be5-bf79-a1c22ed9d0aa" />
          </g>
          <g
             id="id-0e2d6ac1-b9f5-4d4f-8b6b-9807f7c37669">
            <path
               d="m 4.53125,-4.984375 c 0,-0.65625 -0.171875,-2.046875 -1.1875,-2.046875 -1.390625,0 -2.921875,2.8125 -2.921875,5.09375 0,0.9375 0.28125,2.046875 1.1875,2.046875 1.40625,0 2.921875,-2.859375 2.921875,-5.09375 z M 1.46875,-3.625 C 1.640625,-4.25 1.84375,-5.046875 2.25,-5.765625 2.515625,-6.25 2.875,-6.8125 3.328125,-6.8125 c 0.484375,0 0.546875,0.640625 0.546875,1.203125 0,0.5 -0.078125,1 -0.3125,1.984375 z m 2,0.328125 C 3.359375,-2.84375 3.15625,-2 2.765625,-1.28125 c -0.34375,0.6875 -0.71875,1.171875 -1.15625,1.171875 -0.328125,0 -0.53125,-0.296875 -0.53125,-1.21875 0,-0.421875 0.0625,-1 0.3125,-1.96875 z m 0,0"
               id="id-0ef37b00-a06e-451a-8512-43f95a9170a0" />
          </g>
        </g>
      </defs>
      <g
         fill="#000000"
         fill-opacity="1"
         id="id-aecc7e9b-65ed-4bfa-8929-674bcd6347e0"
         transform="translate(-242.484,-135.753)">
        <g
           transform="translate(242.172,150.207)"
           id="g4552">
          <path
             d="M 1.09375,-3.421875 V -0.75 c 0,0.4375 -0.109375,0.4375 -0.78125,0.4375 V 0 c 0.359375,-0.015625 0.859375,-0.03125 1.140625,-0.03125 0.25,0 0.765625,0.015625 1.109375,0.03125 v -0.3125 c -0.671875,0 -0.78125,0 -0.78125,-0.4375 V -2.59375 C 1.78125,-3.625 2.5,-4.1875 3.125,-4.1875 c 0.640625,0 0.75,0.53125 0.75,1.109375 V -0.75 c 0,0.4375 -0.109375,0.4375 -0.78125,0.4375 V 0 c 0.34375,-0.015625 0.859375,-0.03125 1.125,-0.03125 0.25,0 0.78125,0.015625 1.109375,0.03125 v -0.3125 c -0.65625,0 -0.765625,0 -0.765625,-0.4375 v -1.84375 c 0,-1.03125 0.703125,-1.59375 1.34375,-1.59375 0.625,0 0.734375,0.53125 0.734375,1.109375 V -0.75 c 0,0.4375 -0.109375,0.4375 -0.78125,0.4375 V 0 c 0.34375,-0.015625 0.859375,-0.03125 1.125,-0.03125 0.265625,0 0.78125,0.015625 1.125,0.03125 v -0.3125 c -0.515625,0 -0.765625,0 -0.78125,-0.296875 v -1.90625 c 0,-0.859375 0,-1.15625 -0.3125,-1.515625 -0.140625,-0.171875 -0.46875,-0.375 -1.046875,-0.375 -0.828125,0 -1.28125,0.59375 -1.4375,0.984375 C 4.390625,-4.296875 3.65625,-4.40625 3.203125,-4.40625 2.46875,-4.40625 2,-3.984375 1.71875,-3.359375 V -4.40625 L 0.3125,-4.296875 v 0.3125 c 0.703125,0 0.78125,0.0625 0.78125,0.5625 z m 0,0"
             id="id-fa1e09b6-b6fe-445d-8bda-55eee4b76fc5" />
        </g>
        <g
           transform="translate(250.474,150.207)"
           id="g8898">
          <path
             d="M 1.765625,-4.40625 0.375,-4.296875 v 0.3125 c 0.640625,0 0.734375,0.0625 0.734375,0.546875 V -0.75 c 0,0.4375 -0.109375,0.4375 -0.78125,0.4375 V 0 C 0.640625,-0.015625 1.1875,-0.03125 1.421875,-0.03125 1.78125,-0.03125 2.125,-0.015625 2.46875,0 v -0.3125 c -0.671875,0 -0.703125,-0.046875 -0.703125,-0.4375 z m 0.03125,-1.734375 c 0,-0.3125 -0.234375,-0.53125 -0.515625,-0.53125 -0.3125,0 -0.53125,0.265625 -0.53125,0.53125 0,0.265625 0.21875,0.53125 0.53125,0.53125 0.28125,0 0.515625,-0.21875 0.515625,-0.53125 z m 0,0"
             id="id-81013062-e30f-42c2-b1b1-9ff9c530c3bf" />
        </g>
        <g
           transform="translate(253.241,150.207)"
           id="g6713">
          <path
             d="M 1.09375,-3.421875 V -0.75 c 0,0.4375 -0.109375,0.4375 -0.78125,0.4375 V 0 c 0.359375,-0.015625 0.859375,-0.03125 1.140625,-0.03125 0.25,0 0.765625,0.015625 1.109375,0.03125 v -0.3125 c -0.671875,0 -0.78125,0 -0.78125,-0.4375 V -2.59375 C 1.78125,-3.625 2.5,-4.1875 3.125,-4.1875 c 0.640625,0 0.75,0.53125 0.75,1.109375 V -0.75 c 0,0.4375 -0.109375,0.4375 -0.78125,0.4375 V 0 c 0.34375,-0.015625 0.859375,-0.03125 1.125,-0.03125 0.25,0 0.78125,0.015625 1.109375,0.03125 v -0.3125 c -0.515625,0 -0.765625,0 -0.765625,-0.296875 v -1.90625 c 0,-0.859375 0,-1.15625 -0.3125,-1.515625 -0.140625,-0.171875 -0.46875,-0.375 -1.046875,-0.375 C 2.46875,-4.40625 2,-3.984375 1.71875,-3.359375 V -4.40625 L 0.3125,-4.296875 v 0.3125 c 0.703125,0 0.78125,0.0625 0.78125,0.5625 z m 0,0"
             id="id-a5f2f601-281f-4fca-8d8f-f98f8080ac74" />
        </g>
      </g>
      <g
         fill="#f8980f"
         fill-opacity="1"
         id="id-e8c759e5-dd26-4062-a822-4074452dd5af"
         transform="translate(-242.484,-135.753)">
        <g
           transform="translate(248.469,156.71)"
           id="g584">
          <path
             d="m 3.5625,-3.390625 c 0,-0.734375 -0.28125,-1.515625 -0.96875,-1.515625 -1.046875,0 -2.15625,1.875 -2.15625,3.46875 0,0.828125 0.328125,1.5 0.96875,1.5 1.046875,0 2.15625,-1.890625 2.15625,-3.453125 z m -2.34375,0.84375 c 0.359375,-1.5 0.96875,-2.15625 1.375,-2.15625 0.4375,0 0.4375,0.765625 0.4375,0.890625 0,0.28125 -0.046875,0.6875 -0.1875,1.265625 z m 1.5625,0.25 C 2.578125,-1.53125 2.421875,-1.15625 2.203125,-0.8125 2,-0.453125 1.71875,-0.125 1.40625,-0.125 c -0.375,0 -0.4375,-0.53125 -0.4375,-0.90625 0,-0.453125 0.125,-1 0.1875,-1.265625 z m 0,0"
             id="id-0ba438b8-1e48-4101-9e3c-59544042dbb5" />
        </g>
      </g>
      <g
         fill="#000000"
         fill-opacity="1"
         id="id-c9d3d4a6-c93b-4212-87a8-257f9e59e214"
         transform="translate(-242.484,-135.753)">
        <g
           transform="translate(258.776,136.159)"
           id="g8781">
          <path
             d="M 2.5,23.515625 H 5.109375 V 22.96875 h -2.0625 V 0.15625 h 2.0625 v -0.5625 H 2.5 Z m 0,0"
             id="id-03494c25-d920-446e-900a-932310d595d0" />
        </g>
      </g>
      <g
         fill="#000000"
         fill-opacity="1"
         id="id-c3a6d0c7-920f-4678-b419-86b46bac1794"
         transform="translate(-242.484,-135.753)">
        <g
           transform="translate(264.034,150.207)"
           id="g4307">
          <path
             d="m 6.5625,-2.296875 c 0.171875,0 0.359375,0 0.359375,-0.203125 0,-0.1875 -0.1875,-0.1875 -0.359375,-0.1875 H 1.171875 c -0.171875,0 -0.34375,0 -0.34375,0.1875 0,0.203125 0.171875,0.203125 0.34375,0.203125 z m 0,0"
             id="id-e68606cb-e89e-4e99-8115-b9059a3be765" />
        </g>
      </g>
      <g
         fill="#000000"
         fill-opacity="1"
         id="id-bf8470aa-ce1a-4a3a-a4b0-ed0dbd744a32"
         transform="translate(-242.484,-135.753)">
        <g
           transform="translate(273.443,150.207)"
           id="g7456">
          <path
             d="M 1.765625,-6.921875 0.328125,-6.8125 V -6.5 c 0.703125,0 0.78125,0.0625 0.78125,0.5625 V -0.75 c 0,0.4375 -0.109375,0.4375 -0.78125,0.4375 V 0 C 0.65625,-0.015625 1.1875,-0.03125 1.4375,-0.03125 c 0.25,0 0.734375,0.015625 1.109375,0.03125 v -0.3125 c -0.671875,0 -0.78125,0 -0.78125,-0.4375 z m 0,0"
             id="id-1aa4a3c1-759b-4559-a039-154e297faf29" />
        </g>
        <g
           transform="translate(276.211,150.207)"
           id="g3028">
          <path
             d="M 4.6875,-2.140625 C 4.6875,-3.40625 3.703125,-4.46875 2.5,-4.46875 c -1.25,0 -2.21875,1.09375 -2.21875,2.328125 0,1.296875 1.03125,2.25 2.203125,2.25 1.203125,0 2.203125,-0.984375 2.203125,-2.25 z m -2.1875,2 c -0.4375,0 -0.875,-0.203125 -1.140625,-0.671875 -0.25,-0.4375 -0.25,-1.046875 -0.25,-1.40625 0,-0.390625 0,-0.921875 0.234375,-1.359375 C 1.609375,-4.03125 2.078125,-4.25 2.484375,-4.25 c 0.4375,0 0.859375,0.21875 1.125,0.65625 0.265625,0.421875 0.265625,1 0.265625,1.375 0,0.359375 0,0.90625 -0.21875,1.34375 C 3.421875,-0.421875 2.984375,-0.140625 2.5,-0.140625 Z m 0,0"
             id="id-d5ee0bec-a864-4383-a181-0dfef8c4757c" />
        </g>
        <g
           transform="translate(281.192,150.207)"
           id="g3480">
          <path
             d="m 2.21875,-1.71875 c -0.875,0 -0.875,-1 -0.875,-1.21875 0,-0.265625 0.015625,-0.59375 0.15625,-0.84375 0.078125,-0.109375 0.3125,-0.390625 0.71875,-0.390625 0.859375,0 0.859375,0.984375 0.859375,1.21875 0,0.265625 0,0.59375 -0.15625,0.84375 C 2.84375,-2 2.609375,-1.71875 2.21875,-1.71875 Z M 1.0625,-1.328125 c 0,-0.03125 0,-0.265625 0.15625,-0.46875 0.390625,0.28125 0.8125,0.3125 1,0.3125 0.921875,0 1.609375,-0.6875 1.609375,-1.453125 0,-0.375 -0.15625,-0.734375 -0.40625,-0.96875 C 3.78125,-4.25 4.140625,-4.296875 4.3125,-4.296875 c 0.03125,0 0.078125,0 0.109375,0.015625 C 4.3125,-4.25 4.25,-4.140625 4.25,-4.015625 c 0,0.171875 0.140625,0.28125 0.296875,0.28125 0.09375,0 0.28125,-0.0625 0.28125,-0.296875 0,-0.171875 -0.109375,-0.484375 -0.5,-0.484375 -0.203125,0 -0.640625,0.0625 -1.0625,0.46875 C 2.84375,-4.375 2.4375,-4.40625 2.21875,-4.40625 c -0.9375,0 -1.625,0.6875 -1.625,1.453125 0,0.4375 0.21875,0.8125 0.46875,1.03125 -0.125,0.140625 -0.3125,0.46875 -0.3125,0.828125 0,0.3125 0.140625,0.6875 0.453125,0.890625 -0.609375,0.15625 -0.921875,0.59375 -0.921875,0.984375 0,0.71875 0.984375,1.265625 2.203125,1.265625 1.171875,0 2.203125,-0.5 2.203125,-1.28125 0,-0.34375 -0.125,-0.859375 -0.640625,-1.140625 -0.53125,-0.265625 -1.109375,-0.265625 -1.71875,-0.265625 -0.25,0 -0.671875,0 -0.75,-0.015625 C 1.265625,-0.703125 1.0625,-1 1.0625,-1.328125 Z M 2.5,1.828125 c -1.015625,0 -1.703125,-0.515625 -1.703125,-1.046875 0,-0.453125 0.375,-0.828125 0.8125,-0.84375 h 0.59375 c 0.859375,0 1.96875,0 1.96875,0.84375 0,0.546875 -0.703125,1.046875 -1.671875,1.046875 z m 0,0"
             id="id-f015f4bf-284e-45fb-8c8c-9f415682a328" />
        </g>
      </g>
      <g
         fill="#000000"
         fill-opacity="1"
         id="id-a5d43c32-2996-40de-9284-9978028d787b"
         transform="translate(-242.484,-135.753)">
        <g
           transform="translate(287.972,150.207)"
           id="g3034">
          <path
             d="M 3.015625,-3.15625 H 4.71875 c 1.40625,0 2.796875,-1.03125 2.796875,-2.140625 0,-0.78125 -0.65625,-1.515625 -1.96875,-1.515625 h -3.21875 c -0.1875,0 -0.296875,0 -0.296875,0.1875 0,0.125 0.078125,0.125 0.28125,0.125 0.125,0 0.3125,0.015625 0.421875,0.015625 0.171875,0.03125 0.21875,0.046875 0.21875,0.171875 0,0.03125 0,0.0625 -0.03125,0.1875 l -1.34375,5.34375 c -0.09375,0.390625 -0.109375,0.46875 -0.90625,0.46875 -0.15625,0 -0.265625,0 -0.265625,0.1875 C 0.40625,0 0.515625,0 0.546875,0 0.828125,0 1.53125,-0.03125 1.8125,-0.03125 c 0.21875,0 0.4375,0.015625 0.640625,0.015625 0.21875,0 0.4375,0.015625 0.640625,0.015625 0.078125,0 0.203125,0 0.203125,-0.203125 0,-0.109375 -0.09375,-0.109375 -0.28125,-0.109375 -0.359375,0 -0.640625,0 -0.640625,-0.171875 0,-0.0625 0.015625,-0.109375 0.03125,-0.171875 z M 3.734375,-6.125 C 3.828125,-6.46875 3.84375,-6.5 4.28125,-6.5 h 0.953125 c 0.828125,0 1.359375,0.265625 1.359375,0.953125 0,0.390625 -0.203125,1.25 -0.59375,1.609375 -0.5,0.453125 -1.09375,0.53125 -1.53125,0.53125 H 3.0625 Z m 0,0"
             id="id-325e4998-d7fe-47d6-8397-85ad85fa7fd9" />
        </g>
      </g>
      <g
         fill="#f8980f"
         fill-opacity="1"
         id="id-7ccbe2af-6679-4cc6-9df1-2f80656440ba"
         transform="translate(-242.484,-135.753)">
        <g
           transform="translate(294.368,151.701)"
           id="g2494">
          <path
             d="m 3.5625,-3.390625 c 0,-0.734375 -0.28125,-1.515625 -0.96875,-1.515625 -1.046875,0 -2.15625,1.875 -2.15625,3.46875 0,0.828125 0.328125,1.5 0.96875,1.5 1.046875,0 2.15625,-1.890625 2.15625,-3.453125 z m -2.34375,0.84375 c 0.359375,-1.5 0.96875,-2.15625 1.375,-2.15625 0.4375,0 0.4375,0.765625 0.4375,0.890625 0,0.28125 -0.046875,0.6875 -0.1875,1.265625 z m 1.5625,0.25 C 2.578125,-1.53125 2.421875,-1.15625 2.203125,-0.8125 2,-0.453125 1.71875,-0.125 1.40625,-0.125 c -0.375,0 -0.4375,-0.53125 -0.4375,-0.90625 0,-0.453125 0.125,-1 0.1875,-1.265625 z m 0,0"
             id="id-c211ad4a-97ee-4104-9db8-0f50fa7529f4" />
        </g>
      </g>
      <g
         fill="#000000"
         fill-opacity="1"
         id="id-ddbb66d1-2444-4f6f-bc83-2f5b5a879c49"
         transform="translate(-242.484,-135.753)">
        <g
           transform="translate(298.876,150.207)"
           id="g980">
          <path
             d="m 3.296875,2.390625 c 0,-0.03125 0,-0.046875 -0.171875,-0.21875 C 1.890625,0.921875 1.5625,-0.96875 1.5625,-2.5 c 0,-1.734375 0.375,-3.46875 1.609375,-4.703125 0.125,-0.125 0.125,-0.140625 0.125,-0.171875 0,-0.078125 -0.03125,-0.109375 -0.09375,-0.109375 -0.109375,0 -1,0.6875 -1.59375,1.953125 -0.5,1.09375 -0.625,2.203125 -0.625,3.03125 0,0.78125 0.109375,1.984375 0.65625,3.125 C 2.25,1.84375 3.09375,2.5 3.203125,2.5 c 0.0625,0 0.09375,-0.03125 0.09375,-0.109375 z m 0,0"
             id="id-d7986294-afac-42a4-9291-1e69f2d0f470" />
        </g>
      </g>
      <g
         fill="#0f886e"
         fill-opacity="1"
         id="id-70774f5e-6475-4204-82e8-7ae89b1167b4"
         transform="translate(-242.484,-135.753)">
        <g
           transform="translate(302.75,150.207)"
           id="g4305">
          <path
             d="m 4.84375,-3.796875 c 0.046875,-0.140625 0.046875,-0.15625 0.046875,-0.234375 0,-0.171875 -0.140625,-0.265625 -0.296875,-0.265625 -0.09375,0 -0.25,0.0625 -0.34375,0.203125 -0.015625,0.0625 -0.109375,0.359375 -0.140625,0.546875 -0.078125,0.25 -0.140625,0.53125 -0.203125,0.796875 l -0.453125,1.796875 c -0.03125,0.140625 -0.46875,0.84375 -1.125,0.84375 -0.5,0 -0.609375,-0.4375 -0.609375,-0.8125 C 1.71875,-1.375 1.890625,-2 2.21875,-2.875 2.375,-3.28125 2.421875,-3.390625 2.421875,-3.59375 c 0,-0.4375 -0.3125,-0.8125 -0.8125,-0.8125 -0.953125,0 -1.3125,1.453125 -1.3125,1.53125 0,0.109375 0.09375,0.109375 0.109375,0.109375 0.109375,0 0.109375,-0.03125 0.15625,-0.1875 0.28125,-0.9375 0.671875,-1.234375 1.015625,-1.234375 0.078125,0 0.25,0 0.25,0.3125 0,0.25 -0.109375,0.515625 -0.171875,0.703125 -0.40625,1.0625 -0.578125,1.625 -0.578125,2.09375 0,0.890625 0.625,1.1875 1.21875,1.1875 0.390625,0 0.71875,-0.171875 1,-0.453125 -0.125,0.515625 -0.25,1.015625 -0.640625,1.546875 -0.265625,0.328125 -0.640625,0.625 -1.09375,0.625 -0.140625,0 -0.59375,-0.03125 -0.765625,-0.421875 0.15625,0 0.296875,0 0.421875,-0.125 C 1.328125,1.203125 1.421875,1.0625 1.421875,0.875 1.421875,0.5625 1.15625,0.53125 1.0625,0.53125 0.828125,0.53125 0.5,0.6875 0.5,1.171875 c 0,0.5 0.4375,0.875 1.0625,0.875 1.015625,0 2.046875,-0.90625 2.328125,-2.03125 z m 0,0"
             id="id-ad884294-beb2-49b6-a2d5-28b6d2c8c94c" />
        </g>
      </g>
      <g
         fill="#000000"
         fill-opacity="1"
         id="id-4ad4b335-3274-479b-a831-4c4d90c9a7a5"
         transform="translate(-242.484,-135.753)">
        <g
           transform="translate(310.759,150.207)"
           id="g1004">
          <path
             d="m 1.578125,-7.125 c 0,-0.171875 0,-0.359375 -0.1875,-0.359375 -0.203125,0 -0.203125,0.1875 -0.203125,0.359375 v 9.265625 c 0,0.171875 0,0.359375 0.203125,0.359375 0.1875,0 0.1875,-0.1875 0.1875,-0.359375 z m 0,0"
             id="id-e58dade4-af96-4215-9a50-2212be1b466e" />
        </g>
      </g>
      <g
         fill="#176fc1"
         fill-opacity="1"
         id="id-08638864-8430-4527-9ade-0e975b75b501"
         transform="translate(-242.484,-135.753)">
        <g
           transform="translate(316.294,150.207)"
           id="g5727">
          <path
             d="M 3.328125,-3.015625 C 3.390625,-3.265625 3.625,-4.1875 4.3125,-4.1875 c 0.046875,0 0.296875,0 0.5,0.125 C 4.53125,-4 4.34375,-3.765625 4.34375,-3.515625 c 0,0.15625 0.109375,0.34375 0.375,0.34375 0.21875,0 0.53125,-0.171875 0.53125,-0.578125 0,-0.515625 -0.578125,-0.65625 -0.921875,-0.65625 -0.578125,0 -0.921875,0.53125 -1.046875,0.75 -0.25,-0.65625 -0.78125,-0.75 -1.078125,-0.75 -1.03125,0 -1.609375,1.28125 -1.609375,1.53125 0,0.109375 0.109375,0.109375 0.125,0.109375 0.078125,0 0.109375,-0.03125 0.125,-0.109375 0.34375,-1.0625 1,-1.3125 1.34375,-1.3125 0.1875,0 0.53125,0.09375 0.53125,0.671875 0,0.3125 -0.171875,0.96875 -0.53125,2.375 -0.15625,0.609375 -0.515625,1.03125 -0.953125,1.03125 -0.0625,0 -0.28125,0 -0.5,-0.125 0.25,-0.0625 0.46875,-0.265625 0.46875,-0.546875 0,-0.265625 -0.21875,-0.34375 -0.359375,-0.34375 -0.3125,0 -0.546875,0.25 -0.546875,0.578125 0,0.453125 0.484375,0.65625 0.921875,0.65625 0.671875,0 1.03125,-0.703125 1.046875,-0.75 0.125,0.359375 0.484375,0.75 1.078125,0.75 1.03125,0 1.59375,-1.28125 1.59375,-1.53125 0,-0.109375 -0.078125,-0.109375 -0.109375,-0.109375 -0.09375,0 -0.109375,0.046875 -0.140625,0.109375 -0.328125,1.078125 -1,1.3125 -1.3125,1.3125 -0.390625,0 -0.546875,-0.3125 -0.546875,-0.65625 0,-0.21875 0.046875,-0.4375 0.15625,-0.875 z m 0,0"
             id="id-26a40ae9-9dad-4b4a-ace0-7914c88a03a4" />
        </g>
      </g>
      <g
         fill="#000000"
         fill-opacity="1"
         id="id-b3fcc9f8-e855-47f7-9b3a-201cf2860f25"
         transform="translate(-242.484,-135.753)">
        <g
           transform="translate(321.988,150.207)"
           id="g1604">
          <path
             d="m 2.875,-2.5 c 0,-0.765625 -0.109375,-1.96875 -0.65625,-3.109375 -0.59375,-1.21875 -1.453125,-1.875 -1.546875,-1.875 -0.0625,0 -0.109375,0.046875 -0.109375,0.109375 0,0.03125 0,0.046875 0.1875,0.234375 0.984375,0.984375 1.546875,2.5625 1.546875,4.640625 0,1.71875 -0.359375,3.46875 -1.59375,4.71875 C 0.5625,2.34375 0.5625,2.359375 0.5625,2.390625 0.5625,2.453125 0.609375,2.5 0.671875,2.5 0.765625,2.5 1.671875,1.8125 2.25,0.546875 2.765625,-0.546875 2.875,-1.65625 2.875,-2.5 Z m 0,0"
             id="id-91393b29-fec3-463b-9f93-7393603e84e8" />
        </g>
      </g>
      <g
         fill="#000000"
         fill-opacity="1"
         id="id-5c629e89-9687-4a92-b26e-a6b876e7b0f3"
         transform="translate(-242.484,-135.753)">
        <g
           transform="translate(264.034,156.882)"
           id="g9089">
          <path
             d="m 4.578125,-0.921875 c 0,-0.21875 0,-0.28125 -0.125,-0.28125 -0.609375,0 -1.609375,-0.078125 -2.5,-0.515625 C 0.875,-2.265625 0.46875,-2.890625 0.21875,-3.28125 0.1875,-3.328125 0.125,-3.328125 0,-3.328125 c -0.234375,0 -0.234375,0.015625 -0.234375,0.25 V -2.90625 C 1.109375,-0.46875 3.359375,0 4.375,0 4.578125,0 4.578125,-0.015625 4.578125,-0.28125 Z m 0,0"
             id="id-793250ad-cb21-4e0f-9715-b1c747ad2b68" />
        </g>
      </g>
      <path
         fill-rule="nonzero"
         fill="#000000"
         fill-opacity="1"
         d="m 26.031123,21.130063 h 21.94922 v -1.19531 h -21.94922 z m 0,0"
         id="id-a4b60511-b17d-4fcc-bee9-bbb3f70d20f6" />
      <g
         fill="#000000"
         fill-opacity="1"
         id="id-02f4ac6e-bcdc-4084-afa4-7d35aba9b6e0"
         transform="translate(-242.484,-135.753)">
        <g
           transform="translate(290.465,156.882)"
           id="g9464">
          <path
             d="M 4.71875,1.71875 C 3.375,-0.734375 1.125,-1.203125 0.109375,-1.203125 c -0.203125,0 -0.203125,0.015625 -0.203125,0.28125 v 0.640625 c 0,0.234375 0,0.28125 0.140625,0.28125 0.59375,0.015625 1.59375,0.09375 2.484375,0.53125 1.078125,0.53125 1.484375,1.15625 1.734375,1.546875 0.03125,0.0625 0.09375,0.0625 0.21875,0.0625 C 4.71875,2.140625 4.71875,2.125 4.71875,1.875 Z m 0,0"
             id="id-f27b8ec8-d9da-4fdb-afa9-8035c4004f67" />
        </g>
        <g
           transform="translate(294.948,156.882)"
           id="g9479">
          <path
             d="m 4.578125,-0.921875 c 0,-0.265625 0,-0.28125 -0.203125,-0.28125 -1.015625,0 -3.265625,0.484375 -4.609375,2.921875 V 1.875 c 0,0.25 0,0.265625 0.234375,0.265625 0.1875,0 0.203125,-0.015625 0.25,-0.09375 C 1.0625,0.75 2.4375,0.046875 4.46875,0 4.578125,0 4.578125,-0.0625 4.578125,-0.28125 Z m 0,0"
             id="id-e72fa96e-dfd7-4f3b-80d8-db5b2a7fdae9" />
        </g>
      </g>
      <path
         fill-rule="nonzero"
         fill="#000000"
         fill-opacity="1"
         d="m 56.949093,21.130063 h 21.94532 v -1.19531 h -21.94532 z m 0,0"
         id="id-d7d17216-23ba-42e1-8e1d-fe998ea7f7d2" />
      <g
         fill="#000000"
         fill-opacity="1"
         id="id-aa9ce025-5f85-4715-84f0-b328a198c238"
         transform="translate(-242.484,-135.753)">
        <g
           transform="translate(321.379,156.882)"
           id="g5944">
          <path
             d="m 4.71875,-3.078125 c 0,-0.234375 0,-0.25 -0.234375,-0.25 -0.1875,0 -0.203125,0.015625 -0.25,0.078125 -0.8125,1.3125 -2.1875,2.015625 -4.21875,2.046875 -0.109375,0 -0.109375,0.078125 -0.109375,0.28125 v 0.640625 c 0,0.265625 0,0.28125 0.203125,0.28125 C 1.125,0 3.375,-0.484375 4.71875,-2.90625 Z m 0,0"
             id="id-005c17f2-3942-4f24-acad-522aec00be88" />
        </g>
      </g>
      <g
         fill="#b6251c"
         fill-opacity="1"
         id="id-58c16ec8-cf0e-40b3-99f6-3544753c62cc"
         transform="translate(-242.484,-135.753)">
        <g
           transform="translate(292.215,166.296)"
           id="g4846">
          <path
             d="m 2.875,-4.1875 c 0.0625,-0.25 0.078125,-0.328125 0.71875,-0.328125 0.21875,0 0.28125,0 0.28125,-0.140625 0,-0.015625 0,-0.109375 -0.109375,-0.109375 -0.15625,0 -0.34375,0.015625 -0.515625,0.03125 -0.171875,0 -0.390625,0 -0.5625,0 -0.140625,0 -0.328125,0 -0.484375,0 -0.140625,0 -0.3125,-0.03125 -0.453125,-0.03125 -0.03125,0 -0.140625,0 -0.140625,0.15625 0,0.09375 0.078125,0.09375 0.21875,0.09375 0.015625,0 0.140625,0 0.265625,0.015625 0.15625,0.015625 0.171875,0.03125 0.171875,0.109375 0,0 0,0.046875 -0.03125,0.140625 l -0.9375,3.703125 C 1.234375,-0.3125 1.21875,-0.25 0.6875,-0.25 c -0.109375,0 -0.203125,0 -0.203125,0.140625 C 0.484375,0 0.5625,0 0.6875,0 h 3.5 c 0.1875,0 0.1875,0 0.25,-0.140625 0.0625,-0.1875 0.59375,-1.53125 0.59375,-1.59375 0,-0.015625 -0.015625,-0.09375 -0.125,-0.09375 -0.078125,0 -0.09375,0.03125 -0.140625,0.140625 C 4.5,-1.03125 4.1875,-0.25 2.921875,-0.25 H 2.125 c -0.203125,0 -0.21875,-0.015625 -0.21875,-0.078125 0,0 0,-0.03125 0.03125,-0.140625 z m 0,0"
             id="id-08a6d1da-3f23-48bb-b4b7-683ca5f87303" />
        </g>
      </g>
      <g
         fill="#000000"
         fill-opacity="1"
         id="id-3079b782-6481-42e8-be78-7b6cc2ab8aa4"
         transform="translate(-242.484,-135.753)">
        <g
           transform="translate(327.523,150.207)"
           id="g6595">
          <path
             d="m 4.078125,-2.296875 h 2.78125 C 7,-2.296875 7.1875,-2.296875 7.1875,-2.5 7.1875,-2.6875 7,-2.6875 6.859375,-2.6875 h -2.78125 v -2.796875 c 0,-0.140625 0,-0.328125 -0.203125,-0.328125 -0.203125,0 -0.203125,0.1875 -0.203125,0.328125 V -2.6875 h -2.78125 c -0.140625,0 -0.328125,0 -0.328125,0.1875 0,0.203125 0.1875,0.203125 0.328125,0.203125 h 2.78125 V 0.5 c 0,0.140625 0,0.328125 0.203125,0.328125 0.203125,0 0.203125,-0.1875 0.203125,-0.328125 z m 0,0"
             id="id-37232b4f-d9ae-435a-a155-92709eb3ff9d" />
        </g>
      </g>
      <g
         fill="#000000"
         fill-opacity="1"
         id="id-9be2b4f7-bc78-4f11-baf0-a8828fcefe0b"
         transform="translate(-242.484,-135.753)">
        <g
           transform="translate(336.467,143.467)"
           id="g3371">
          <path
             d="m 3.5625,-2.90625 c 0.40625,1.046875 0.890625,2.5625 1.046875,2.796875 0.15625,0.21875 0.25,0.21875 0.53125,0.21875 h 0.21875 c 0.09375,-0.015625 0.109375,-0.0625 0.109375,-0.09375 0,-0.03125 -0.03125,-0.0625 -0.0625,-0.09375 C 5.3125,-0.1875 5.25,-0.34375 5.1875,-0.53125 L 3.15625,-6.203125 c -0.21875,-0.578125 -0.75,-0.71875 -1.21875,-0.71875 -0.046875,0 -0.1875,0 -0.1875,0.109375 0,0.078125 0.078125,0.109375 0.09375,0.109375 C 2.171875,-6.65625 2.25,-6.59375 2.5,-5.90625 l 0.953125,2.703125 -2.75,2.734375 c -0.109375,0.125 -0.171875,0.171875 -0.171875,0.3125 0,0.171875 0.140625,0.28125 0.296875,0.28125 0.15625,0 0.25,-0.109375 0.328125,-0.203125 z m 0,0"
             id="id-603eb92d-e476-4f23-846b-f254dd2a1d34" />
        </g>
      </g>
      <path
         fill="none"
         stroke-width="0.398"
         stroke-linecap="butt"
         stroke-linejoin="miter"
         stroke="#000000"
         stroke-opacity="1"
         stroke-miterlimit="10"
         d="m 93.984253,11.962097 h 5.808594"
         id="id-78381eff-5f26-4e8b-a914-7b4a19e817a3" />
      <g
         fill="#000000"
         fill-opacity="1"
         id="id-35ce052f-3fc3-4be9-aa7e-44f60e834729"
         transform="translate(-242.484,-135.753)">
        <g
           transform="translate(336.882,157.041)"
           id="g44">
          <path
             d="m 1.265625,-0.765625 1.0625,-1.03125 c 1.546875,-1.375 2.140625,-1.90625 2.140625,-2.90625 0,-1.140625 -0.890625,-1.9375 -2.109375,-1.9375 -1.125,0 -1.859375,0.921875 -1.859375,1.8125 0,0.546875 0.5,0.546875 0.53125,0.546875 0.171875,0 0.515625,-0.109375 0.515625,-0.53125 0,-0.25 -0.1875,-0.515625 -0.53125,-0.515625 -0.078125,0 -0.09375,0 -0.125,0.015625 0.21875,-0.65625 0.765625,-1.015625 1.34375,-1.015625 0.90625,0 1.328125,0.8125 1.328125,1.625 C 3.5625,-3.90625 3.078125,-3.125 2.515625,-2.5 l -1.90625,2.125 C 0.5,-0.265625 0.5,-0.234375 0.5,0 H 4.203125 L 4.46875,-1.734375 H 4.234375 C 4.171875,-1.4375 4.109375,-1 4,-0.84375 3.9375,-0.765625 3.28125,-0.765625 3.0625,-0.765625 Z m 0,0"
             id="id-5b13ee89-7cc4-4120-ad71-e80d4d15553f" />
        </g>
      </g>
      <g
         fill="#000000"
         fill-opacity="1"
         id="id-8e015c9f-e362-4f84-898a-80ae987ac97c"
         transform="translate(-242.484,-135.753)">
        <g
           transform="translate(343.474,150.207)"
           id="g9848">
          <path
             d="m 3.734375,-6.125 c 0.0625,-0.234375 0.09375,-0.328125 0.28125,-0.359375 C 4.109375,-6.5 4.421875,-6.5 4.625,-6.5 c 0.703125,0 1.8125,0 1.8125,0.984375 0,0.34375 -0.15625,1.03125 -0.546875,1.421875 -0.265625,0.25 -0.78125,0.578125 -1.6875,0.578125 H 3.09375 Z m 1.4375,2.734375 c 1.015625,-0.21875 2.1875,-0.921875 2.1875,-1.921875 0,-0.859375 -0.890625,-1.5 -2.203125,-1.5 H 2.328125 c -0.203125,0 -0.296875,0 -0.296875,0.203125 C 2.03125,-6.5 2.125,-6.5 2.3125,-6.5 c 0.015625,0 0.203125,0 0.375,0.015625 0.1875,0.03125 0.265625,0.03125 0.265625,0.171875 0,0.03125 0,0.0625 -0.03125,0.1875 l -1.34375,5.34375 C 1.484375,-0.390625 1.46875,-0.3125 0.671875,-0.3125 0.5,-0.3125 0.40625,-0.3125 0.40625,-0.109375 0.40625,0 0.53125,0 0.546875,0 c 0.28125,0 0.984375,-0.03125 1.25,-0.03125 0.28125,0 1,0.03125 1.28125,0.03125 0.078125,0 0.1875,0 0.1875,-0.203125 0,-0.109375 -0.078125,-0.109375 -0.28125,-0.109375 -0.359375,0 -0.640625,0 -0.640625,-0.171875 0,-0.0625 0.015625,-0.109375 0.03125,-0.171875 l 0.65625,-2.640625 h 1.1875 c 0.90625,0 1.078125,0.5625 1.078125,0.90625 0,0.140625 -0.078125,0.453125 -0.140625,0.6875 C 5.09375,-1.421875 5,-1.0625 5,-0.859375 5,0.21875 6.203125,0.21875 6.328125,0.21875 c 0.84375,0 1.203125,-1 1.203125,-1.140625 0,-0.125 -0.109375,-0.125 -0.125,-0.125 -0.09375,0 -0.109375,0.0625 -0.125,0.140625 C 7.03125,-0.171875 6.59375,0 6.375,0 6.046875,0 5.96875,-0.21875 5.96875,-0.609375 c 0,-0.3125 0.0625,-0.8125 0.109375,-1.140625 0.015625,-0.140625 0.03125,-0.328125 0.03125,-0.46875 0,-0.765625 -0.671875,-1.078125 -0.9375,-1.171875 z m 0,0"
             id="id-1b95059f-41a4-486d-8a83-ac0a9d32b0d7" />
        </g>
      </g>
      <g
         fill="#000000"
         fill-opacity="1"
         id="id-f05575dd-1be5-4851-ba9d-616426ef0848"
         transform="translate(-242.484,-135.753)">
        <g
           transform="translate(351.116,150.207)"
           id="g3895">
          <path
             d="m 3.296875,2.390625 c 0,-0.03125 0,-0.046875 -0.171875,-0.21875 C 1.890625,0.921875 1.5625,-0.96875 1.5625,-2.5 c 0,-1.734375 0.375,-3.46875 1.609375,-4.703125 0.125,-0.125 0.125,-0.140625 0.125,-0.171875 0,-0.078125 -0.03125,-0.109375 -0.09375,-0.109375 -0.109375,0 -1,0.6875 -1.59375,1.953125 -0.5,1.09375 -0.625,2.203125 -0.625,3.03125 0,0.78125 0.109375,1.984375 0.65625,3.125 C 2.25,1.84375 3.09375,2.5 3.203125,2.5 c 0.0625,0 0.09375,-0.03125 0.09375,-0.109375 z m 0,0"
             id="id-d50a1ee0-3a5d-4e5f-bb35-267d477574c6" />
        </g>
      </g>
      <g
         fill="#f8980f"
         fill-opacity="1"
         id="id-62b03776-858e-447c-8817-a058df48d684"
         transform="translate(-242.484,-135.753)">
        <g
           transform="translate(354.99,150.207)"
           id="g2131">
          <path
             d="m 4.53125,-4.984375 c 0,-0.65625 -0.171875,-2.046875 -1.1875,-2.046875 -1.390625,0 -2.921875,2.8125 -2.921875,5.09375 0,0.9375 0.28125,2.046875 1.1875,2.046875 1.40625,0 2.921875,-2.859375 2.921875,-5.09375 z M 1.46875,-3.625 C 1.640625,-4.25 1.84375,-5.046875 2.25,-5.765625 2.515625,-6.25 2.875,-6.8125 3.328125,-6.8125 c 0.484375,0 0.546875,0.640625 0.546875,1.203125 0,0.5 -0.078125,1 -0.3125,1.984375 z m 2,0.328125 C 3.359375,-2.84375 3.15625,-2 2.765625,-1.28125 c -0.34375,0.6875 -0.71875,1.171875 -1.15625,1.171875 -0.328125,0 -0.53125,-0.296875 -0.53125,-1.21875 0,-0.421875 0.0625,-1 0.3125,-1.96875 z m 0,0"
             id="id-cf38a456-9851-4e8f-bdd5-c6413b58e116" />
        </g>
      </g>
      <g
         fill="#000000"
         fill-opacity="1"
         id="id-b3987864-2ebb-46c9-b8ce-f7301e79d7bc"
         transform="translate(-242.484,-135.753)">
        <g
           transform="translate(359.944,150.207)"
           id="g1053">
          <path
             d="m 2.875,-2.5 c 0,-0.765625 -0.109375,-1.96875 -0.65625,-3.109375 -0.59375,-1.21875 -1.453125,-1.875 -1.546875,-1.875 -0.0625,0 -0.109375,0.046875 -0.109375,0.109375 0,0.03125 0,0.046875 0.1875,0.234375 0.984375,0.984375 1.546875,2.5625 1.546875,4.640625 0,1.71875 -0.359375,3.46875 -1.59375,4.71875 C 0.5625,2.34375 0.5625,2.359375 0.5625,2.390625 0.5625,2.453125 0.609375,2.5 0.671875,2.5 0.765625,2.5 1.671875,1.8125 2.25,0.546875 2.765625,-0.546875 2.875,-1.65625 2.875,-2.5 Z m 0,0"
             id="id-4dcd59b7-b5d9-4512-8b19-383c57525878" />
        </g>
      </g>
      <g
         fill="#000000"
         fill-opacity="1"
         id="id-909b43ae-6d1b-4b31-b606-72f134c4c436"
         transform="translate(-242.484,-135.753)">
        <g
           transform="translate(363.818,136.159)"
           id="g5399">
          <path
             d="M 2.21875,22.96875 H 0.140625 v 0.546875 h 2.625 V -0.40625 h -2.625 v 0.5625 H 2.21875 Z m 0,0"
             id="id-19242d29-c3e5-4a59-8235-8c880bb864b1" />
        </g>
      </g>
    </g>
  </g>
</svg>
