<?xml version="1.0" encoding="UTF-8" standalone="no"?>
<!-- Created with Inkscape (http://www.inkscape.org/) -->

<svg
   width="154.38547mm"
   height="28.308472mm"
   viewBox="0 0 154.38547 28.308472"
   version="1.1"
   id="svg1"
   inkscape:version="1.3 (0e150ed, 2023-07-21)"
   sodipodi:docname="wvector.svg"
   xmlns:inkscape="http://www.inkscape.org/namespaces/inkscape"
   xmlns:sodipodi="http://sodipodi.sourceforge.net/DTD/sodipodi-0.dtd"
   xmlns="http://www.w3.org/2000/svg"
   xmlns:svg="http://www.w3.org/2000/svg"
   xmlns:ns12="http://www.iki.fi/pav/software/textext/">
  <sodipodi:namedview
     id="namedview1"
     pagecolor="#ffffff"
     bordercolor="#000000"
     borderopacity="0.25"
     inkscape:showpageshadow="2"
     inkscape:pageopacity="0.0"
     inkscape:pagecheckerboard="0"
     inkscape:deskcolor="#d1d1d1"
     inkscape:document-units="mm"
     inkscape:zoom="1.3419908"
     inkscape:cx="233.60816"
     inkscape:cy="60.358089"
     inkscape:window-width="1712"
     inkscape:window-height="967"
     inkscape:window-x="0"
     inkscape:window-y="39"
     inkscape:window-maximized="1"
     inkscape:current-layer="layer1"
     showguides="true" />
  <defs
     id="defs1">
    <marker
       style="overflow:visible"
       id="marker11"
       refX="0"
       refY="0"
       orient="auto-start-reverse"
       inkscape:stockid="Triangle arrow"
       markerWidth="1"
       markerHeight="1"
       viewBox="0 0 1 1"
       inkscape:isstock="true"
       inkscape:collect="always"
       preserveAspectRatio="xMidYMid">
      <path
         transform="scale(0.5)"
         style="fill:context-stroke;fill-rule:evenodd;stroke:context-stroke;stroke-width:1pt"
         d="M 5.77,0 -2.88,5 V -5 Z"
         id="path11" />
    </marker>
    <marker
       style="overflow:visible"
       id="marker8"
       refX="0"
       refY="0"
       orient="auto-start-reverse"
       inkscape:stockid="Triangle arrow"
       markerWidth="1"
       markerHeight="1"
       viewBox="0 0 1 1"
       inkscape:isstock="true"
       inkscape:collect="always"
       preserveAspectRatio="xMidYMid">
      <path
         transform="scale(0.5)"
         style="fill:context-stroke;fill-rule:evenodd;stroke:context-stroke;stroke-width:1pt"
         d="M 5.77,0 -2.88,5 V -5 Z"
         id="path8" />
    </marker>
    <marker
       style="overflow:visible"
       id="marker6"
       refX="0"
       refY="0"
       orient="auto-start-reverse"
       inkscape:stockid="Triangle arrow"
       markerWidth="1"
       markerHeight="1"
       viewBox="0 0 1 1"
       inkscape:isstock="true"
       inkscape:collect="always"
       preserveAspectRatio="xMidYMid">
      <path
         transform="scale(0.5)"
         style="fill:context-stroke;fill-rule:evenodd;stroke:context-stroke;stroke-width:1pt"
         d="M 5.77,0 -2.88,5 V -5 Z"
         id="path6" />
    </marker>
    <marker
       style="overflow:visible"
       id="Triangle"
       refX="0"
       refY="0"
       orient="auto-start-reverse"
       inkscape:stockid="Triangle arrow"
       markerWidth="1"
       markerHeight="1"
       viewBox="0 0 1 1"
       inkscape:isstock="true"
       inkscape:collect="always"
       preserveAspectRatio="xMidYMid">
      <path
         transform="scale(0.5)"
         style="fill:context-stroke;fill-rule:evenodd;stroke:context-stroke;stroke-width:1pt"
         d="M 5.77,0 -2.88,5 V -5 Z"
         id="path135" />
    </marker>
    <rect
       x="200.53009"
       y="104.91309"
       width="157.36964"
       height="38.512402"
       id="rect2" />
    <rect
       x="189.24197"
       y="109.56114"
       width="165.33772"
       height="43.16045"
       id="rect1" />
    <rect
       x="200.53009"
       y="104.91309"
       width="157.36964"
       height="38.512402"
       id="rect2-3" />
  </defs>
  <g
     inkscape:label="Layer 1"
     inkscape:groupmode="layer"
     id="layer1"
     transform="translate(-19.281893,-13.2529)">
    <text
       xml:space="preserve"
       transform="scale(0.26458333)"
       id="text1"
       style="white-space:pre;shape-inside:url(#rect1);display:inline;fill:#000000" />
    <g
       id="text2"
       style="font-family:'CMU Serif';-inkscape-font-specification:'CMU Serif';white-space:pre;fill:#176fc1;stroke-width:1.00059"
       transform="matrix(0.38377519,0,0,0.38377519,-38.182541,-8.8654997)"
       aria-label="multihead&#10;attention">
      <path
         style="text-align:center;text-anchor:middle"
         d="m 253.46294,116.01406 v -0.372 q 0.636,0 0.78,-0.072 0.156,-0.084 0.156,-0.468 v -3.216 q 0,-0.444 -0.156,-0.552 -0.156,-0.12 -0.78,-0.12 v -0.372 l 1.692,-0.132 v 1.26 q 0.564,-1.26 1.776,-1.26 1.404,0 1.596,1.176 0.204,-0.456 0.636,-0.816 0.432,-0.36 1.104,-0.36 0.9,0 1.26,0.444 0.264,0.3 0.312,0.636 0.06,0.336 0.06,1.2 v 2.292 q 0.012,0.252 0.204,0.312 0.192,0.048 0.732,0.048 v 0.372 q -1.224,-0.036 -1.344,-0.036 -0.096,0 -1.356,0.036 v -0.372 q 0.636,0 0.78,-0.072 0.156,-0.084 0.156,-0.468 v -2.796 q 0,-0.612 -0.192,-0.972 -0.18,-0.36 -0.696,-0.36 -0.624,0 -1.128,0.528 -0.492,0.516 -0.492,1.392 v 2.208 q 0,0.384 0.144,0.468 0.156,0.072 0.792,0.072 v 0.372 q -1.224,-0.036 -1.344,-0.036 -0.096,0 -1.356,0.036 v -0.372 q 0.636,0 0.78,-0.072 0.156,-0.084 0.156,-0.468 v -2.796 q 0,-0.612 -0.192,-0.972 -0.18,-0.36 -0.696,-0.36 -0.624,0 -1.128,0.528 -0.492,0.516 -0.492,1.392 v 2.208 q 0,0.384 0.144,0.468 0.156,0.072 0.792,0.072 v 0.372 q -1.224,-0.036 -1.344,-0.036 -0.096,0 -1.356,0.036 z m 9.65996,-4.8 v -0.372 l 1.764,-0.132 v 3.984 q 0,0.288 0.024,0.456 0.024,0.168 0.12,0.36 0.096,0.192 0.324,0.288 0.228,0.084 0.588,0.084 0.648,0 1.044,-0.528 0.408,-0.54 0.408,-1.332 v -2.136 q 0,-0.444 -0.156,-0.552 -0.156,-0.12 -0.78,-0.12 v -0.372 l 1.764,-0.132 v 4.26 q 0,0.444 0.156,0.564 0.156,0.108 0.78,0.108 v 0.372 l -1.728,0.132 v -1.08 q -0.504,1.08 -1.548,1.08 -0.528,0 -0.888,-0.132 -0.36,-0.132 -0.54,-0.3 -0.18,-0.168 -0.276,-0.492 -0.096,-0.324 -0.108,-0.516 -0.012,-0.204 -0.012,-0.588 v -1.8 q 0,-0.816 -0.12,-0.96 -0.12,-0.144 -0.816,-0.144 z m 6.67198,4.8 v -0.372 q 0.636,0 0.78,-0.072 0.156,-0.084 0.156,-0.468 v -6.24 q 0,-0.444 -0.156,-0.552 -0.156,-0.12 -0.78,-0.12 v -0.372 l 1.728,-0.132 v 7.416 q 0,0.384 0.144,0.468 0.156,0.072 0.792,0.072 v 0.372 q -0.144,0 -0.456,-0.012 -0.3,-0.012 -0.528,-0.012 -0.216,-0.012 -0.348,-0.012 -0.144,0 -1.332,0.036 z m 3.15598,-4.8 v -0.264 q 0.552,-0.024 0.912,-0.408 0.372,-0.396 0.492,-0.876 0.132,-0.48 0.144,-1.032 h 0.3 v 2.208 h 1.716 v 0.372 h -1.716 v 3.336 q 0,1.296 0.804,1.296 0.348,0 0.576,-0.348 0.228,-0.36 0.228,-0.996 v -0.66 h 0.3 v 0.684 q 0,0.648 -0.3,1.14 -0.3,0.48 -0.888,0.48 -0.216,0 -0.432,-0.06 -0.216,-0.048 -0.492,-0.192 -0.276,-0.144 -0.456,-0.492 -0.168,-0.36 -0.168,-0.876 v -3.312 z m 4.82399,4.8 v -0.372 q 0.636,0 0.78,-0.072 0.156,-0.084 0.156,-0.468 v -3.228 q 0,-0.444 -0.156,-0.552 -0.144,-0.108 -0.732,-0.108 v -0.372 l 1.68,-0.132 v 4.404 q 0,0.36 0.12,0.444 0.132,0.084 0.72,0.084 v 0.372 q -1.224,-0.036 -1.248,-0.036 -0.168,0 -1.32,0.036 z m 0.504,-7.392 q 0,-0.24 0.18,-0.432 0.192,-0.204 0.456,-0.204 0.264,0 0.444,0.18 0.192,0.18 0.192,0.456 0,0.276 -0.192,0.456 -0.18,0.18 -0.444,0.18 -0.276,0 -0.456,-0.192 -0.18,-0.192 -0.18,-0.444 z m 2.80798,7.392 v -0.372 q 0.636,0 0.78,-0.072 0.156,-0.084 0.156,-0.468 v -6.24 q 0,-0.444 -0.156,-0.552 -0.156,-0.12 -0.78,-0.12 v -0.372 l 1.728,-0.132 v 4.176 h 0.012 q 0.192,-0.432 0.624,-0.792 0.432,-0.36 1.104,-0.36 0.9,0 1.26,0.444 0.264,0.3 0.312,0.636 0.06,0.336 0.06,1.2 v 2.292 q 0.012,0.252 0.204,0.312 0.192,0.048 0.732,0.048 v 0.372 q -1.224,-0.036 -1.344,-0.036 -0.096,0 -1.356,0.036 v -0.372 q 0.636,0 0.78,-0.072 0.156,-0.084 0.156,-0.468 v -2.796 q 0,-0.612 -0.192,-0.972 -0.18,-0.36 -0.696,-0.36 -0.624,0 -1.128,0.528 -0.492,0.516 -0.492,1.392 v 2.208 q 0,0.384 0.144,0.468 0.156,0.072 0.792,0.072 v 0.372 q -1.224,-0.036 -1.344,-0.036 -0.096,0 -1.356,0.036 z m 6.61198,-2.64 q 0,-1.128 0.72,-1.932 0.732,-0.804 1.776,-0.804 1.056,0 1.596,0.684 0.552,0.684 0.552,1.668 0,0.18 -0.048,0.216 -0.048,0.036 -0.252,0.036 h -3.348 q 0,1.224 0.36,1.8 0.504,0.804 1.356,0.804 0.12,0 0.252,-0.024 0.144,-0.024 0.432,-0.12 0.288,-0.108 0.54,-0.384 0.252,-0.276 0.396,-0.708 0.036,-0.168 0.156,-0.168 0.156,0 0.156,0.144 0,0.108 -0.12,0.348 -0.108,0.228 -0.324,0.516 -0.216,0.276 -0.636,0.492 -0.42,0.204 -0.924,0.204 -1.056,0 -1.848,-0.792 -0.792,-0.804 -0.792,-1.98 z m 1.008,-0.384 h 2.844 q 0,-0.252 -0.048,-0.528 -0.036,-0.288 -0.168,-0.672 -0.12,-0.396 -0.42,-0.636 -0.288,-0.252 -0.72,-0.252 -0.192,0 -0.408,0.084 -0.204,0.084 -0.456,0.288 -0.252,0.192 -0.432,0.648 -0.168,0.444 -0.192,1.068 z m 4.48798,1.884 q 0,-1.02 1.2,-1.56 0.72,-0.348 2.208,-0.432 v -0.444 q 0,-0.744 -0.396,-1.14 -0.384,-0.396 -0.876,-0.396 -0.876,0 -1.296,0.552 0.36,0.012 0.48,0.192 0.132,0.18 0.132,0.36 0,0.24 -0.156,0.396 -0.144,0.156 -0.396,0.156 -0.24,0 -0.396,-0.144 -0.156,-0.156 -0.156,-0.42 0,-0.588 0.528,-0.972 0.528,-0.384 1.284,-0.384 0.984,0 1.644,0.66 0.204,0.204 0.3,0.468 0.108,0.264 0.12,0.444 0.012,0.168 0.012,0.504 v 2.4 q 0,0.072 0.024,0.192 0.024,0.108 0.132,0.264 0.108,0.144 0.288,0.144 0.432,0 0.432,-0.768 v -0.672 h 0.3 v 0.672 q 0,0.636 -0.336,0.888 -0.336,0.252 -0.648,0.252 -0.396,0 -0.648,-0.288 -0.252,-0.3 -0.288,-0.696 -0.18,0.456 -0.6,0.756 -0.408,0.288 -0.972,0.288 -0.432,0 -0.84,-0.108 -0.408,-0.108 -0.744,-0.408 -0.336,-0.3 -0.336,-0.756 z m 0.924,-0.012 q 0,0.444 0.312,0.732 0.324,0.288 0.768,0.288 0.504,0 0.948,-0.384 0.456,-0.396 0.456,-1.164 v -1.2 q -1.332,0.048 -1.908,0.576 -0.576,0.528 -0.576,1.152 z m 4.97998,-1.428 q 0,-1.14 0.792,-1.932 0.804,-0.792 1.884,-0.792 0.912,0 1.512,0.744 v -2.592 q 0,-0.444 -0.156,-0.552 -0.156,-0.12 -0.78,-0.12 v -0.372 l 1.728,-0.132 v 7.284 q 0,0.444 0.156,0.564 0.156,0.108 0.78,0.108 v 0.372 l -1.764,0.132 v -0.792 q -0.624,0.792 -1.608,0.792 -1.032,0 -1.788,-0.792 -0.756,-0.792 -0.756,-1.92 z m 0.996,0.012 q 0,1.116 0.348,1.668 0.48,0.768 1.26,0.768 0.888,0 1.416,-0.84 0.132,-0.204 0.132,-0.444 v -2.46 q 0,-0.24 -0.132,-0.444 -0.492,-0.72 -1.296,-0.72 -0.84,0 -1.356,0.768 -0.372,0.576 -0.372,1.704 z"
         id="path12" />
      <path
         style="text-align:center;text-anchor:middle"
         d="m 255.91694,129.87406 q 0,-1.02 1.2,-1.56 0.72,-0.348 2.208,-0.432 v -0.444 q 0,-0.744 -0.396,-1.14 -0.384,-0.396 -0.876,-0.396 -0.876,0 -1.296,0.552 0.36,0.012 0.48,0.192 0.132,0.18 0.132,0.36 0,0.24 -0.156,0.396 -0.144,0.156 -0.396,0.156 -0.24,0 -0.396,-0.144 -0.156,-0.156 -0.156,-0.42 0,-0.588 0.528,-0.972 0.528,-0.384 1.284,-0.384 0.984,0 1.644,0.66 0.204,0.204 0.3,0.468 0.108,0.264 0.12,0.444 0.012,0.168 0.012,0.504 v 2.4 q 0,0.072 0.024,0.192 0.024,0.108 0.132,0.264 0.108,0.144 0.288,0.144 0.432,0 0.432,-0.768 v -0.672 h 0.3 v 0.672 q 0,0.636 -0.336,0.888 -0.336,0.252 -0.648,0.252 -0.396,0 -0.648,-0.288 -0.252,-0.3 -0.288,-0.696 -0.18,0.456 -0.6,0.756 -0.408,0.288 -0.972,0.288 -0.432,0 -0.84,-0.108 -0.408,-0.108 -0.744,-0.408 -0.336,-0.3 -0.336,-0.756 z m 0.924,-0.012 q 0,0.444 0.312,0.732 0.324,0.288 0.768,0.288 0.504,0 0.948,-0.384 0.456,-0.396 0.456,-1.164 v -1.2 q -1.332,0.048 -1.908,0.576 -0.576,0.528 -0.576,1.152 z m 4.79998,-3.648 v -0.264 q 0.552,-0.024 0.912,-0.408 0.372,-0.396 0.492,-0.876 0.132,-0.48 0.144,-1.032 h 0.3 v 2.208 h 1.716 v 0.372 h -1.716 v 3.336 q 0,1.296 0.804,1.296 0.348,0 0.576,-0.348 0.228,-0.36 0.228,-0.996 v -0.66 h 0.3 v 0.684 q 0,0.648 -0.3,1.14 -0.3,0.48 -0.888,0.48 -0.216,0 -0.432,-0.06 -0.216,-0.048 -0.492,-0.192 -0.276,-0.144 -0.456,-0.492 -0.168,-0.36 -0.168,-0.876 v -3.312 z m 4.65598,0 v -0.264 q 0.552,-0.024 0.912,-0.408 0.372,-0.396 0.492,-0.876 0.132,-0.48 0.144,-1.032 h 0.3 v 2.208 h 1.716 v 0.372 h -1.716 v 3.336 q 0,1.296 0.804,1.296 0.348,0 0.576,-0.348 0.228,-0.36 0.228,-0.996 v -0.66 h 0.3 v 0.684 q 0,0.648 -0.3,1.14 -0.3,0.48 -0.888,0.48 -0.216,0 -0.432,-0.06 -0.216,-0.048 -0.492,-0.192 -0.276,-0.144 -0.456,-0.492 -0.168,-0.36 -0.168,-0.876 v -3.312 z m 4.76398,2.16 q 0,-1.128 0.72,-1.932 0.732,-0.804 1.776,-0.804 1.056,0 1.596,0.684 0.552,0.684 0.552,1.668 0,0.18 -0.048,0.216 -0.048,0.036 -0.252,0.036 h -3.348 q 0,1.224 0.36,1.8 0.504,0.804 1.356,0.804 0.12,0 0.252,-0.024 0.144,-0.024 0.432,-0.12 0.288,-0.108 0.54,-0.384 0.252,-0.276 0.396,-0.708 0.036,-0.168 0.156,-0.168 0.156,0 0.156,0.144 0,0.108 -0.12,0.348 -0.108,0.228 -0.324,0.516 -0.216,0.276 -0.636,0.492 -0.42,0.204 -0.924,0.204 -1.056,0 -1.848,-0.792 -0.792,-0.804 -0.792,-1.98 z m 1.008,-0.384 h 2.844 q 0,-0.252 -0.048,-0.528 -0.036,-0.288 -0.168,-0.672 -0.12,-0.396 -0.42,-0.636 -0.288,-0.252 -0.72,-0.252 -0.192,0 -0.408,0.084 -0.204,0.084 -0.456,0.288 -0.252,0.192 -0.432,0.648 -0.168,0.444 -0.192,1.068 z m 4.36798,3.024 v -0.372 q 0.636,0 0.78,-0.072 0.156,-0.084 0.156,-0.468 v -3.216 q 0,-0.444 -0.156,-0.552 -0.156,-0.12 -0.78,-0.12 v -0.372 l 1.692,-0.132 v 1.26 q 0.564,-1.26 1.776,-1.26 0.9,0 1.26,0.444 0.264,0.3 0.312,0.636 0.06,0.336 0.06,1.2 v 2.292 q 0.012,0.252 0.204,0.312 0.192,0.048 0.732,0.048 v 0.372 q -1.224,-0.036 -1.344,-0.036 -0.096,0 -1.356,0.036 v -0.372 q 0.636,0 0.78,-0.072 0.156,-0.084 0.156,-0.468 v -2.796 q 0,-0.612 -0.192,-0.972 -0.18,-0.36 -0.696,-0.36 -0.624,0 -1.128,0.528 -0.492,0.516 -0.492,1.392 v 2.208 q 0,0.384 0.144,0.468 0.156,0.072 0.792,0.072 v 0.372 q -1.224,-0.036 -1.344,-0.036 -0.096,0 -1.356,0.036 z m 6.16796,-4.8 v -0.264 q 0.552,-0.024 0.912,-0.408 0.372,-0.396 0.492,-0.876 0.132,-0.48 0.144,-1.032 h 0.3 v 2.208 h 1.716 v 0.372 h -1.716 v 3.336 q 0,1.296 0.804,1.296 0.348,0 0.576,-0.348 0.228,-0.36 0.228,-0.996 v -0.66 h 0.3 v 0.684 q 0,0.648 -0.3,1.14 -0.3,0.48 -0.888,0.48 -0.216,0 -0.432,-0.06 -0.216,-0.048 -0.492,-0.192 -0.276,-0.144 -0.456,-0.492 -0.168,-0.36 -0.168,-0.876 v -3.312 z m 4.82399,4.8 v -0.372 q 0.636,0 0.78,-0.072 0.156,-0.084 0.156,-0.468 v -3.228 q 0,-0.444 -0.156,-0.552 -0.144,-0.108 -0.732,-0.108 v -0.372 l 1.68,-0.132 v 4.404 q 0,0.36 0.12,0.444 0.132,0.084 0.72,0.084 v 0.372 q -1.224,-0.036 -1.248,-0.036 -0.168,0 -1.32,0.036 z m 0.504,-7.392 q 0,-0.24 0.18,-0.432 0.192,-0.204 0.456,-0.204 0.264,0 0.444,0.18 0.192,0.18 0.192,0.456 0,0.276 -0.192,0.456 -0.18,0.18 -0.444,0.18 -0.276,0 -0.456,-0.192 -0.18,-0.192 -0.18,-0.444 z m 3.55198,6.744 q -0.792,-0.78 -0.792,-1.92 0,-1.14 0.768,-1.968 0.78,-0.84 1.896,-0.84 1.092,0 1.872,0.828 0.78,0.828 0.78,1.98 0,1.128 -0.792,1.92 -0.78,0.78 -1.872,0.78 -1.068,0 -1.86,-0.78 z m 0.204,-2.016 q 0,1.164 0.3,1.692 0.468,0.804 1.368,0.804 0.444,0 0.816,-0.24 0.372,-0.24 0.576,-0.648 0.264,-0.528 0.264,-1.608 0,-1.152 -0.312,-1.668 -0.468,-0.78 -1.356,-0.78 -0.384,0 -0.768,0.204 -0.372,0.204 -0.6,0.6 -0.288,0.528 -0.288,1.644 z m 5.05198,2.664 v -0.372 q 0.636,0 0.78,-0.072 0.156,-0.084 0.156,-0.468 v -3.216 q 0,-0.444 -0.156,-0.552 -0.156,-0.12 -0.78,-0.12 v -0.372 l 1.692,-0.132 v 1.26 q 0.564,-1.26 1.776,-1.26 0.9,0 1.26,0.444 0.264,0.3 0.312,0.636 0.06,0.336 0.06,1.2 v 2.292 q 0.012,0.252 0.204,0.312 0.192,0.048 0.732,0.048 v 0.372 q -1.224,-0.036 -1.344,-0.036 -0.096,0 -1.356,0.036 v -0.372 q 0.636,0 0.78,-0.072 0.156,-0.084 0.156,-0.468 v -2.796 q 0,-0.612 -0.192,-0.972 -0.18,-0.36 -0.696,-0.36 -0.624,0 -1.128,0.528 -0.492,0.516 -0.492,1.392 v 2.208 q 0,0.384 0.144,0.468 0.156,0.072 0.792,0.072 v 0.372 q -1.224,-0.036 -1.344,-0.036 -0.096,0 -1.356,0.036 z"
         id="path13" />
    </g>
    <g
       id="text2-5"
       style="font-family:'CMU Serif';-inkscape-font-specification:'CMU Serif';white-space:pre;fill:#b6251c;fill-opacity:0.992157;stroke-width:1.00059"
       transform="matrix(0.38377519,0,0,0.38377519,20.937951,-8.7692341)"
       aria-label="feedforward&#10;network">
      <path
         style="text-align:center;text-anchor:middle"
         d="m 249.10696,111.21406 v -0.372 h 0.948 v -1.38 q 0,-0.888 0.576,-1.392 0.576,-0.516 1.284,-0.516 0.468,0 0.768,0.252 0.312,0.252 0.312,0.588 0,0.228 -0.144,0.384 -0.132,0.144 -0.384,0.144 -0.24,0 -0.384,-0.144 -0.132,-0.156 -0.132,-0.372 0,-0.384 0.36,-0.504 -0.18,-0.084 -0.396,-0.084 -0.432,0 -0.768,0.444 -0.336,0.444 -0.336,1.188 v 1.392 h 1.404 v 0.372 h -1.368 v 3.864 q 0,0.348 0.144,0.456 0.144,0.108 0.768,0.108 h 0.252 v 0.372 q -0.48,-0.036 -1.524,-0.036 -0.144,0 -0.372,0.012 -0.228,0 -0.528,0.012 -0.3,0.012 -0.468,0.012 v -0.372 q 0.636,0 0.78,-0.072 0.156,-0.084 0.156,-0.468 v -3.888 z m 3.59998,2.16 q 0,-1.128 0.72,-1.932 0.732,-0.804 1.776,-0.804 1.056,0 1.596,0.684 0.552,0.684 0.552,1.668 0,0.18 -0.048,0.216 -0.048,0.036 -0.252,0.036 h -3.348 q 0,1.224 0.36,1.8 0.504,0.804 1.356,0.804 0.12,0 0.252,-0.024 0.144,-0.024 0.432,-0.12 0.288,-0.108 0.54,-0.384 0.252,-0.276 0.396,-0.708 0.036,-0.168 0.156,-0.168 0.156,0 0.156,0.144 0,0.108 -0.12,0.348 -0.108,0.228 -0.324,0.516 -0.216,0.276 -0.636,0.492 -0.42,0.204 -0.924,0.204 -1.056,0 -1.848,-0.792 -0.792,-0.804 -0.792,-1.98 z m 1.008,-0.384 h 2.844 q 0,-0.252 -0.048,-0.528 -0.036,-0.288 -0.168,-0.672 -0.12,-0.396 -0.42,-0.636 -0.288,-0.252 -0.72,-0.252 -0.192,0 -0.408,0.084 -0.204,0.084 -0.456,0.288 -0.252,0.192 -0.432,0.648 -0.168,0.444 -0.192,1.068 z m 4.31998,0.384 q 0,-1.128 0.72,-1.932 0.732,-0.804 1.776,-0.804 1.056,0 1.596,0.684 0.552,0.684 0.552,1.668 0,0.18 -0.048,0.216 -0.048,0.036 -0.252,0.036 h -3.348 q 0,1.224 0.36,1.8 0.504,0.804 1.356,0.804 0.12,0 0.252,-0.024 0.144,-0.024 0.432,-0.12 0.288,-0.108 0.54,-0.384 0.252,-0.276 0.396,-0.708 0.036,-0.168 0.156,-0.168 0.156,0 0.156,0.144 0,0.108 -0.12,0.348 -0.108,0.228 -0.324,0.516 -0.216,0.276 -0.636,0.492 -0.42,0.204 -0.924,0.204 -1.056,0 -1.848,-0.792 -0.792,-0.804 -0.792,-1.98 z m 1.008,-0.384 h 2.844 q 0,-0.252 -0.048,-0.528 -0.036,-0.288 -0.168,-0.672 -0.12,-0.396 -0.42,-0.636 -0.288,-0.252 -0.72,-0.252 -0.192,0 -0.408,0.084 -0.204,0.084 -0.456,0.288 -0.252,0.192 -0.432,0.648 -0.168,0.444 -0.192,1.068 z m 4.39198,0.444 q 0,-1.14 0.792,-1.932 0.804,-0.792 1.884,-0.792 0.912,0 1.512,0.744 v -2.592 q 0,-0.444 -0.156,-0.552 -0.156,-0.12 -0.78,-0.12 v -0.372 l 1.728,-0.132 v 7.284 q 0,0.444 0.156,0.564 0.156,0.108 0.78,0.108 v 0.372 l -1.764,0.132 v -0.792 q -0.624,0.792 -1.608,0.792 -1.032,0 -1.788,-0.792 -0.756,-0.792 -0.756,-1.92 z m 0.996,0.012 q 0,1.116 0.348,1.668 0.48,0.768 1.26,0.768 0.888,0 1.416,-0.84 0.132,-0.204 0.132,-0.444 v -2.46 q 0,-0.24 -0.132,-0.444 -0.492,-0.72 -1.296,-0.72 -0.84,0 -1.356,0.768 -0.372,0.576 -0.372,1.704 z m 5.65198,-2.232 v -0.372 h 0.948 v -1.38 q 0,-0.888 0.576,-1.392 0.576,-0.516 1.284,-0.516 0.468,0 0.768,0.252 0.312,0.252 0.312,0.588 0,0.228 -0.144,0.384 -0.132,0.144 -0.384,0.144 -0.24,0 -0.384,-0.144 -0.132,-0.156 -0.132,-0.372 0,-0.384 0.36,-0.504 -0.18,-0.084 -0.396,-0.084 -0.432,0 -0.768,0.444 -0.336,0.444 -0.336,1.188 v 1.392 h 1.404 v 0.372 h -1.368 v 3.864 q 0,0.348 0.144,0.456 0.144,0.108 0.768,0.108 h 0.252 v 0.372 q -0.48,-0.036 -1.524,-0.036 -0.144,0 -0.372,0.012 -0.228,0 -0.528,0.012 -0.3,0.012 -0.468,0.012 v -0.372 q 0.636,0 0.78,-0.072 0.156,-0.084 0.156,-0.468 v -3.888 z m 4.39198,4.152 q -0.792,-0.78 -0.792,-1.92 0,-1.14 0.768,-1.968 0.78,-0.84 1.896,-0.84 1.092,0 1.872,0.828 0.78,0.828 0.78,1.98 0,1.128 -0.792,1.92 -0.78,0.78 -1.872,0.78 -1.068,0 -1.86,-0.78 z m 0.204,-2.016 q 0,1.164 0.3,1.692 0.468,0.804 1.368,0.804 0.444,0 0.816,-0.24 0.372,-0.24 0.576,-0.648 0.264,-0.528 0.264,-1.608 0,-1.152 -0.312,-1.668 -0.468,-0.78 -1.356,-0.78 -0.384,0 -0.768,0.204 -0.372,0.204 -0.6,0.6 -0.288,0.528 -0.288,1.644 z m 5.00398,2.664 v -0.372 q 0.636,0 0.78,-0.072 0.156,-0.084 0.156,-0.468 v -3.216 q 0,-0.444 -0.156,-0.552 -0.156,-0.12 -0.78,-0.12 v -0.372 l 1.668,-0.132 v 1.32 q 0.168,-0.516 0.528,-0.912 0.36,-0.408 0.948,-0.408 0.384,0 0.636,0.216 0.252,0.216 0.252,0.516 0,0.264 -0.168,0.396 -0.156,0.132 -0.348,0.132 -0.216,0 -0.372,-0.132 -0.144,-0.144 -0.144,-0.384 0,-0.144 0.06,-0.252 0.072,-0.12 0.12,-0.156 0.06,-0.048 0.096,-0.06 -0.024,-0.012 -0.132,-0.012 -0.66,0 -1.044,0.66 -0.372,0.66 -0.372,1.596 v 1.848 q 0,0.348 0.144,0.456 0.144,0.108 0.768,0.108 h 0.252 v 0.372 q -0.48,-0.036 -1.524,-0.036 -0.144,0 -0.372,0.012 -0.228,0 -0.528,0.012 -0.3,0.012 -0.468,0.012 z m 4.57199,-4.8 v -0.372 q 0.648,0.036 1.116,0.036 0.228,0 1.308,-0.036 v 0.372 q -0.708,0 -0.708,0.324 0,0.072 0.06,0.216 l 1.14,3.204 1.032,-2.904 q -0.216,-0.588 -0.276,-0.66 -0.144,-0.18 -0.756,-0.18 v -0.372 q 0.54,0.036 1.068,0.036 0.204,0 1.248,-0.036 v 0.372 q -0.708,0 -0.708,0.324 0,0.048 0.06,0.228 l 1.188,3.348 1.092,-3.072 q 0.06,-0.156 0.06,-0.252 0,-0.264 -0.192,-0.408 -0.18,-0.156 -0.504,-0.168 v -0.372 q 0.684,0.036 1.116,0.036 0.48,0 0.876,-0.036 v 0.372 q -0.744,0.024 -1.008,0.768 l -1.404,3.936 q -0.132,0.216 -0.24,0.228 -0.156,0 -0.24,-0.228 l -1.224,-3.408 -1.212,3.396 q -0.048,0.144 -0.096,0.192 -0.036,0.048 -0.144,0.048 -0.108,0 -0.156,-0.06 -0.048,-0.06 -0.096,-0.204 l -1.512,-4.248 q -0.108,-0.276 -0.264,-0.348 -0.156,-0.072 -0.624,-0.072 z m 8.61595,3.66 q 0,-1.02 1.2,-1.56 0.72,-0.348 2.208,-0.432 v -0.444 q 0,-0.744 -0.396,-1.14 -0.384,-0.396 -0.876,-0.396 -0.876,0 -1.296,0.552 0.36,0.012 0.48,0.192 0.132,0.18 0.132,0.36 0,0.24 -0.156,0.396 -0.144,0.156 -0.396,0.156 -0.24,0 -0.396,-0.144 -0.156,-0.156 -0.156,-0.42 0,-0.588 0.528,-0.972 0.528,-0.384 1.284,-0.384 0.984,0 1.644,0.66 0.204,0.204 0.3,0.468 0.108,0.264 0.12,0.444 0.012,0.168 0.012,0.504 v 2.4 q 0,0.072 0.024,0.192 0.024,0.108 0.132,0.264 0.108,0.144 0.288,0.144 0.432,0 0.432,-0.768 v -0.672 h 0.3 v 0.672 q 0,0.636 -0.336,0.888 -0.336,0.252 -0.648,0.252 -0.396,0 -0.648,-0.288 -0.252,-0.3 -0.288,-0.696 -0.18,0.456 -0.6,0.756 -0.408,0.288 -0.972,0.288 -0.432,0 -0.84,-0.108 -0.408,-0.108 -0.744,-0.408 -0.336,-0.3 -0.336,-0.756 z m 0.924,-0.012 q 0,0.444 0.312,0.732 0.324,0.288 0.768,0.288 0.504,0 0.948,-0.384 0.456,-0.396 0.456,-1.164 v -1.2 q -1.332,0.048 -1.908,0.576 -0.576,0.528 -0.576,1.152 z m 4.90798,1.152 v -0.372 q 0.636,0 0.78,-0.072 0.156,-0.084 0.156,-0.468 v -3.216 q 0,-0.444 -0.156,-0.552 -0.156,-0.12 -0.78,-0.12 v -0.372 l 1.668,-0.132 v 1.32 q 0.168,-0.516 0.528,-0.912 0.36,-0.408 0.948,-0.408 0.384,0 0.636,0.216 0.252,0.216 0.252,0.516 0,0.264 -0.168,0.396 -0.156,0.132 -0.348,0.132 -0.216,0 -0.372,-0.132 -0.144,-0.144 -0.144,-0.384 0,-0.144 0.06,-0.252 0.072,-0.12 0.12,-0.156 0.06,-0.048 0.096,-0.06 -0.024,-0.012 -0.132,-0.012 -0.66,0 -1.044,0.66 -0.372,0.66 -0.372,1.596 v 1.848 q 0,0.348 0.144,0.456 0.144,0.108 0.768,0.108 h 0.252 v 0.372 q -0.48,-0.036 -1.524,-0.036 -0.144,0 -0.372,0.012 -0.228,0 -0.528,0.012 -0.3,0.012 -0.468,0.012 z m 4.76399,-2.58 q 0,-1.14 0.792,-1.932 0.804,-0.792 1.884,-0.792 0.912,0 1.512,0.744 v -2.592 q 0,-0.444 -0.156,-0.552 -0.156,-0.12 -0.78,-0.12 v -0.372 l 1.728,-0.132 v 7.284 q 0,0.444 0.156,0.564 0.156,0.108 0.78,0.108 v 0.372 l -1.764,0.132 v -0.792 q -0.624,0.792 -1.608,0.792 -1.032,0 -1.788,-0.792 -0.756,-0.792 -0.756,-1.92 z m 0.996,0.012 q 0,1.116 0.348,1.668 0.48,0.768 1.26,0.768 0.888,0 1.416,-0.84 0.132,-0.204 0.132,-0.444 v -2.46 q 0,-0.24 -0.132,-0.444 -0.492,-0.72 -1.296,-0.72 -0.84,0 -1.356,0.768 -0.372,0.576 -0.372,1.704 z"
         id="path1" />
      <path
         style="text-align:center;text-anchor:middle"
         d="m 258.77293,131.01406 v -0.372 q 0.636,0 0.78,-0.072 0.156,-0.084 0.156,-0.468 v -3.216 q 0,-0.444 -0.156,-0.552 -0.156,-0.12 -0.78,-0.12 v -0.372 l 1.692,-0.132 v 1.26 q 0.564,-1.26 1.776,-1.26 0.9,0 1.26,0.444 0.264,0.3 0.312,0.636 0.06,0.336 0.06,1.2 v 2.292 q 0.012,0.252 0.204,0.312 0.192,0.048 0.732,0.048 v 0.372 q -1.224,-0.036 -1.344,-0.036 -0.096,0 -1.356,0.036 v -0.372 q 0.636,0 0.78,-0.072 0.156,-0.084 0.156,-0.468 v -2.796 q 0,-0.612 -0.192,-0.972 -0.18,-0.36 -0.696,-0.36 -0.624,0 -1.128,0.528 -0.492,0.516 -0.492,1.392 v 2.208 q 0,0.384 0.144,0.468 0.156,0.072 0.792,0.072 v 0.372 q -1.224,-0.036 -1.344,-0.036 -0.096,0 -1.356,0.036 z m 6.61198,-2.64 q 0,-1.128 0.72,-1.932 0.732,-0.804 1.776,-0.804 1.056,0 1.596,0.684 0.552,0.684 0.552,1.668 0,0.18 -0.048,0.216 -0.048,0.036 -0.252,0.036 h -3.348 q 0,1.224 0.36,1.8 0.504,0.804 1.356,0.804 0.12,0 0.252,-0.024 0.144,-0.024 0.432,-0.12 0.288,-0.108 0.54,-0.384 0.252,-0.276 0.396,-0.708 0.036,-0.168 0.156,-0.168 0.156,0 0.156,0.144 0,0.108 -0.12,0.348 -0.108,0.228 -0.324,0.516 -0.216,0.276 -0.636,0.492 -0.42,0.204 -0.924,0.204 -1.056,0 -1.848,-0.792 -0.792,-0.804 -0.792,-1.98 z m 1.008,-0.384 h 2.844 q 0,-0.252 -0.048,-0.528 -0.036,-0.288 -0.168,-0.672 -0.12,-0.396 -0.42,-0.636 -0.288,-0.252 -0.72,-0.252 -0.192,0 -0.408,0.084 -0.204,0.084 -0.456,0.288 -0.252,0.192 -0.432,0.648 -0.168,0.444 -0.192,1.068 z m 4.21198,-1.776 v -0.264 q 0.552,-0.024 0.912,-0.408 0.372,-0.396 0.492,-0.876 0.132,-0.48 0.144,-1.032 h 0.3 v 2.208 h 1.716 v 0.372 h -1.716 v 3.336 q 0,1.296 0.804,1.296 0.348,0 0.576,-0.348 0.228,-0.36 0.228,-0.996 v -0.66 h 0.3 v 0.684 q 0,0.648 -0.3,1.14 -0.3,0.48 -0.888,0.48 -0.216,0 -0.432,-0.06 -0.216,-0.048 -0.492,-0.192 -0.276,-0.144 -0.456,-0.492 -0.168,-0.36 -0.168,-0.876 v -3.312 z m 4.30796,0 v -0.372 q 0.648,0.036 1.116,0.036 0.228,0 1.308,-0.036 v 0.372 q -0.708,0 -0.708,0.324 0,0.072 0.06,0.216 l 1.14,3.204 1.032,-2.904 q -0.216,-0.588 -0.276,-0.66 -0.144,-0.18 -0.756,-0.18 v -0.372 q 0.54,0.036 1.068,0.036 0.204,0 1.248,-0.036 v 0.372 q -0.708,0 -0.708,0.324 0,0.048 0.06,0.228 l 1.188,3.348 1.092,-3.072 q 0.06,-0.156 0.06,-0.252 0,-0.264 -0.192,-0.408 -0.18,-0.156 -0.504,-0.168 v -0.372 q 0.684,0.036 1.116,0.036 0.48,0 0.876,-0.036 v 0.372 q -0.744,0.024 -1.008,0.768 l -1.404,3.936 q -0.132,0.216 -0.24,0.228 -0.156,0 -0.24,-0.228 l -1.224,-3.408 -1.212,3.396 q -0.048,0.144 -0.096,0.192 -0.036,0.048 -0.144,0.048 -0.108,0 -0.156,-0.06 -0.048,-0.06 -0.096,-0.204 l -1.512,-4.248 q -0.108,-0.276 -0.264,-0.348 -0.156,-0.072 -0.624,-0.072 z m 9.23996,4.152 q -0.792,-0.78 -0.792,-1.92 0,-1.14 0.768,-1.968 0.78,-0.84 1.896,-0.84 1.092,0 1.872,0.828 0.78,0.828 0.78,1.98 0,1.128 -0.792,1.92 -0.78,0.78 -1.872,0.78 -1.068,0 -1.86,-0.78 z m 0.204,-2.016 q 0,1.164 0.3,1.692 0.468,0.804 1.368,0.804 0.444,0 0.816,-0.24 0.372,-0.24 0.576,-0.648 0.264,-0.528 0.264,-1.608 0,-1.152 -0.312,-1.668 -0.468,-0.78 -1.356,-0.78 -0.384,0 -0.768,0.204 -0.372,0.204 -0.6,0.6 -0.288,0.528 -0.288,1.644 z m 5.00398,2.664 v -0.372 q 0.636,0 0.78,-0.072 0.156,-0.084 0.156,-0.468 v -3.216 q 0,-0.444 -0.156,-0.552 -0.156,-0.12 -0.78,-0.12 v -0.372 l 1.668,-0.132 v 1.32 q 0.168,-0.516 0.528,-0.912 0.36,-0.408 0.948,-0.408 0.384,0 0.636,0.216 0.252,0.216 0.252,0.516 0,0.264 -0.168,0.396 -0.156,0.132 -0.348,0.132 -0.216,0 -0.372,-0.132 -0.144,-0.144 -0.144,-0.384 0,-0.144 0.06,-0.252 0.072,-0.12 0.12,-0.156 0.06,-0.048 0.096,-0.06 -0.024,-0.012 -0.132,-0.012 -0.66,0 -1.044,0.66 -0.372,0.66 -0.372,1.596 v 1.848 q 0,0.348 0.144,0.456 0.144,0.108 0.768,0.108 h 0.252 v 0.372 q -0.48,-0.036 -1.524,-0.036 -0.144,0 -0.372,0.012 -0.228,0 -0.528,0.012 -0.3,0.012 -0.468,0.012 z m 4.69198,0 v -0.372 q 0.636,0 0.78,-0.072 0.156,-0.084 0.156,-0.468 v -6.24 q 0,-0.444 -0.156,-0.552 -0.156,-0.12 -0.78,-0.12 v -0.372 l 1.728,-0.132 v 5.76 l 1.692,-1.464 q 0.264,-0.228 0.264,-0.468 0,-0.276 -0.348,-0.3 v -0.372 q 0.504,0.036 1.344,0.036 0.492,0 0.84,-0.036 v 0.372 q -0.756,0.036 -1.512,0.648 -0.168,0.132 -0.576,0.48 -0.396,0.348 -0.396,0.384 0,0.012 0.012,0.048 0.012,0.024 0.036,0.048 0.024,0.024 0.024,0.036 l 1.524,2.148 q 0.312,0.432 0.54,0.54 0.228,0.096 0.624,0.096 v 0.372 q -0.516,-0.036 -1.044,-0.036 -0.288,0 -1.296,0.036 v -0.372 q 0.432,0 0.432,-0.276 0,-0.192 -0.972,-1.536 -0.072,-0.096 -0.228,-0.3 -0.144,-0.216 -0.228,-0.324 l -0.768,0.66 v 1.236 q 0,0.384 0.144,0.468 0.156,0.072 0.792,0.072 v 0.372 q -0.72,-0.036 -1.32,-0.036 -0.12,0 -1.308,0.036 z"
         id="path5" />
    </g>
    <path
       style="fill:none;stroke:#176fc1;stroke-width:0.288;stroke-dasharray:none;stroke-opacity:1;marker-end:url(#Triangle)"
       d="m 57.670338,33.672246 c -7.700094,-2.07091 -9.51188,-8.053541 -9.51188,-8.053541"
       id="path2" />
    <path
       style="fill:none;stroke:#176fc1;stroke-width:0.288;stroke-dasharray:none;stroke-opacity:1;marker-end:url(#marker6)"
       d="M 65.609088,31.674042 C 62.854373,26.249641 63.579299,24.403037 63.579299,24.403037"
       id="path3" />
    <path
       style="fill:none;stroke:#176fc1;stroke-width:0.288;stroke-dasharray:none;stroke-opacity:1;marker-end:url(#marker6)"
       d="m 74.574495,31.976978 c 6.843905,-5.652639 6.663802,-7.4984 6.663802,-7.4984"
       id="path4" />
    <path
       style="fill:none;stroke:#176fc1;stroke-width:0.288;stroke-dasharray:none;stroke-opacity:1;marker-end:url(#marker8)"
       d="M 79.175624,33.801978 C 96.003728,30.221529 97.599495,24.33263 97.599495,24.33263"
       id="path7" />
    <path
       style="fill:none;fill-opacity:0.992157;stroke:#b6251c;stroke-width:0.261;stroke-dasharray:none;stroke-opacity:1;marker-end:url(#marker11)"
       d="m 130.16637,32.364415 c 6.67729,-3.338645 7.35864,-8.108138 7.35864,-8.108138"
       id="path9" />
    <path
       style="fill:none;fill-opacity:0.992157;stroke:#b6251c;stroke-width:0.261;stroke-dasharray:none;stroke-opacity:1;marker-end:url(#marker11)"
       d="m 122.59528,32.152865 c -5.71678,-3.19052 -6.05707,-7.831275 -6.05707,-7.831275"
       id="path10" />
    <g
       transform="matrix(0.853002,0,0,0.853002,19.282,13.2529)"
       ns12:version="1.9.0"
       ns12:texconverter="pdflatex"
       ns12:pdfconverter="inkscape"
       ns12:text="$$\\theta=\\left[W_{{\\color{RoyalBlue}q}}^{\\color{PineGreen}{1}}, W_{{\\color{RoyalBlue}k}}^{\\color{PineGreen}{1}}, W_{{\\color{RoyalBlue}v}}^{\\color{PineGreen}{1}}, W_{{\\color{RoyalBlue}o}}^{\\color{PineGreen}{1}}, W_{\\text{\\color{BrickRed}{in}}}^{\\color{PineGreen}{1}}, W_{\\text{\\color{BrickRed}{out}}}^{\\color{PineGreen}{1}}, W_{{\\color{RoyalBlue}q}}^{\\color{OliveGreen}{2}}, \\ldots\\right]$$"
       ns12:preamble="/Users/irhum/Library/Application Support/org.inkscape.Inkscape/config/inkscape/extensions/textext/default_packages.tex"
       ns12:scale="2.417956335145616"
       ns12:alignment="middle center"
       ns12:stroke-to-path="0"
       ns12:inkscapeversion="1.3"
       id="g5810"
       ns12:jacobian_sqrt="0.853002">
      <defs
         id="id-8221f881-55c4-4094-af57-52c2b6695445">
        <g
           id="id-90de4634-f8ab-49b8-86b8-4d80baf6fa36">
          <g
             id="id-df5636ce-1ad4-446a-9e3a-56e18b7c9c7a">
            <path
               d="m 4.53125,-4.984375 c 0,-0.65625 -0.171875,-2.046875 -1.1875,-2.046875 -1.390625,0 -2.921875,2.8125 -2.921875,5.09375 0,0.9375 0.28125,2.046875 1.1875,2.046875 1.40625,0 2.921875,-2.859375 2.921875,-5.09375 z M 1.46875,-3.625 C 1.640625,-4.25 1.84375,-5.046875 2.25,-5.765625 2.515625,-6.25 2.875,-6.8125 3.328125,-6.8125 c 0.484375,0 0.546875,0.640625 0.546875,1.203125 0,0.5 -0.078125,1 -0.3125,1.984375 z m 2,0.328125 C 3.359375,-2.84375 3.15625,-2 2.765625,-1.28125 c -0.34375,0.6875 -0.71875,1.171875 -1.15625,1.171875 -0.328125,0 -0.53125,-0.296875 -0.53125,-1.21875 0,-0.421875 0.0625,-1 0.3125,-1.96875 z m 0,0"
               id="id-6c0a00d3-d575-46f8-9e70-820e20ae074c" />
          </g>
          <g
             id="id-50d7fe54-118c-43f3-b2b9-898b3f9752e4">
            <path
               d="m 9.140625,-5.65625 c 0.25,-0.4375 0.484375,-0.796875 1.125,-0.84375 0.07813,-0.015625 0.1875,-0.015625 0.1875,-0.203125 0,-0.03125 -0.04687,-0.109375 -0.125,-0.109375 -0.234375,0 -0.515625,0.03125 -0.765625,0.03125 -0.34375,0 -0.703125,-0.03125 -1.046875,-0.03125 -0.046875,0 -0.1875,0 -0.1875,0.1875 0,0.109375 0.09375,0.125 0.15625,0.125 0.234375,0.015625 0.59375,0.09375 0.59375,0.390625 0,0.109375 -0.0625,0.1875 -0.140625,0.328125 L 6.25,-1.09375 5.875,-6.03125 c 0,-0.203125 -0.015625,-0.453125 0.703125,-0.46875 0.171875,0 0.265625,0 0.265625,-0.203125 0,-0.09375 -0.109375,-0.109375 -0.140625,-0.109375 -0.40625,0 -0.828125,0.03125 -1.21875,0.03125 -0.234375,0 -0.8125,-0.03125 -1.046875,-0.03125 -0.0625,0 -0.1875,0 -0.1875,0.203125 C 4.25,-6.5 4.34375,-6.5 4.484375,-6.5 4.921875,-6.5 5,-6.4375 5.015625,-6.25 l 0.0625,0.765625 -2.53125,4.390625 -0.375,-5.046875 c 0,-0.125 0,-0.34375 0.765625,-0.359375 0.09375,0 0.203125,0 0.203125,-0.203125 C 3.140625,-6.8125 3.015625,-6.8125 3,-6.8125 c -0.390625,0 -0.8125,0.03125 -1.21875,0.03125 -0.359375,0 -0.71875,-0.03125 -1.046875,-0.03125 -0.0625,0 -0.1875,0 -0.1875,0.1875 0,0.125 0.09375,0.125 0.25,0.125 0.5,0 0.515625,0.09375 0.53125,0.375 l 0.453125,6.078125 c 0,0.1875 0.015625,0.265625 0.15625,0.265625 0.109375,0 0.140625,-0.0625 0.234375,-0.203125 l 2.9375,-5.09375 0.359375,5.03125 C 5.5,0.171875 5.515625,0.21875 5.625,0.21875 c 0.140625,0 0.203125,-0.09375 0.25,-0.1875 z m 0,0"
               id="id-ef12cbd8-4638-4092-a73b-9f914a8543e1" />
          </g>
          <g
             id="id-75a40b8a-ffde-4139-a7aa-5543f222bdc6">
            <path
               d="m 2.03125,-0.015625 c 0,-0.65625 -0.25,-1.046875 -0.640625,-1.046875 -0.328125,0 -0.53125,0.25 -0.53125,0.53125 C 0.859375,-0.265625 1.0625,0 1.390625,0 1.5,0 1.640625,-0.046875 1.734375,-0.125 1.765625,-0.15625 1.78125,-0.15625 1.78125,-0.15625 c 0.015625,0 0.015625,0 0.015625,0.140625 0,0.75 -0.34375,1.34375 -0.671875,1.671875 -0.109375,0.109375 -0.109375,0.125 -0.109375,0.15625 0,0.078125 0.046875,0.109375 0.09375,0.109375 0.109375,0 0.921875,-0.765625 0.921875,-1.9375 z m 0,0"
               id="id-a3950617-8d16-4796-8541-8090b82028d9" />
          </g>
          <g
             id="id-92b2d18b-7018-46cb-8507-c55f51a99546">
            <path
               d="m 1.90625,-0.53125 c 0,-0.28125 -0.234375,-0.53125 -0.515625,-0.53125 -0.296875,0 -0.53125,0.25 -0.53125,0.53125 C 0.859375,-0.234375 1.09375,0 1.390625,0 1.671875,0 1.90625,-0.234375 1.90625,-0.53125 Z m 0,0"
               id="id-9a692dec-c7ea-4f87-a9db-03c13d18930d" />
          </g>
          <g
             id="id-ee669411-118f-41a9-9628-da3c6aee6a43">
            <path
               d="m 6.84375,-3.265625 c 0.15625,0 0.34375,0 0.34375,-0.1875 C 7.1875,-3.65625 7,-3.65625 6.859375,-3.65625 h -5.96875 c -0.140625,0 -0.328125,0 -0.328125,0.203125 0,0.1875 0.1875,0.1875 0.328125,0.1875 z m 0.015625,1.9375 c 0.140625,0 0.328125,0 0.328125,-0.203125 0,-0.1875 -0.1875,-0.1875 -0.34375,-0.1875 H 0.890625 c -0.140625,0 -0.328125,0 -0.328125,0.1875 0,0.203125 0.1875,0.203125 0.328125,0.203125 z m 0,0"
               id="id-6898e3b0-712a-416d-9ea7-a7f04e9dfa3c" />
          </g>
          <g
             id="id-b339876e-1b3c-48e2-a1a9-c28bdca886f5">
            <path
               d="m 2.015625,11.546875 h 1.90625 V 11.15625 H 2.40625 V 0 h 1.515625 v -0.40625 h -1.90625 z m 0,0"
               id="id-c1948666-95d2-43db-875e-ea5d9c57f3d6" />
          </g>
          <g
             id="id-41292c33-1b87-4f0b-853a-38e82ed859b3">
            <path
               d="M 2.140625,11.546875 V -0.40625 H 0.21875 V 0 H 1.734375 V 11.15625 H 0.21875 v 0.390625 z m 0,0"
               id="id-cb84ca43-309c-4239-89da-b104ea5034ef" />
          </g>
          <g
             id="id-f0864be1-9fb4-4c1b-ae2c-aba36dc60df6">
            <path
               d="m 2.328125,-4.4375 c 0,-0.1875 0,-0.1875 -0.203125,-0.1875 -0.453125,0.4375 -1.078125,0.4375 -1.359375,0.4375 v 0.25 c 0.15625,0 0.625,0 1,-0.1875 v 3.546875 c 0,0.234375 0,0.328125 -0.6875,0.328125 H 0.8125 V 0 c 0.125,0 0.984375,-0.03125 1.234375,-0.03125 0.21875,0 1.09375,0.03125 1.25,0.03125 V -0.25 H 3.03125 c -0.703125,0 -0.703125,-0.09375 -0.703125,-0.328125 z m 0,0"
               id="id-53334803-ea34-412a-9ab3-2f53744a355a" />
          </g>
          <g
             id="id-28ea326f-d07f-43d2-bf7a-691611b46968">
            <path
               d="m 1.46875,-4.296875 c 0,-0.203125 -0.171875,-0.40625 -0.40625,-0.40625 -0.203125,0 -0.390625,0.171875 -0.390625,0.40625 0,0.25 0.203125,0.40625 0.390625,0.40625 0.234375,0 0.40625,-0.171875 0.40625,-0.40625 z M 0.40625,-3 v 0.25 c 0.4375,0 0.5,0.046875 0.5,0.390625 v 1.8125 C 0.90625,-0.25 0.84375,-0.25 0.390625,-0.25 V 0 c 0.015625,0 0.5,-0.03125 0.78125,-0.03125 0.25,0 0.5,0.015625 0.734375,0.03125 V -0.25 C 1.5,-0.25 1.4375,-0.25 1.4375,-0.546875 v -2.53125 z m 0,0"
               id="id-0187fe69-e67a-4e45-8ec7-f4b14adc3d14" />
          </g>
          <g
             id="id-d627ca6e-d7e2-41d2-b080-13c2387ed570">
            <path
               d="m 3.59375,-2.109375 c 0,-0.609375 -0.296875,-0.96875 -1.046875,-0.96875 -0.578125,0 -0.9375,0.3125 -1.140625,0.6875 v -0.6875 L 0.375,-3 v 0.25 c 0.46875,0 0.53125,0.046875 0.53125,0.390625 v 1.8125 C 0.90625,-0.25 0.828125,-0.25 0.375,-0.25 V 0 C 0.390625,0 0.875,-0.03125 1.171875,-0.03125 1.421875,-0.03125 1.90625,0 1.96875,0 v -0.25 c -0.453125,0 -0.515625,0 -0.515625,-0.296875 V -1.8125 c 0,-0.71875 0.578125,-1.0625 1.03125,-1.0625 0.484375,0 0.546875,0.375 0.546875,0.734375 v 1.59375 C 3.03125,-0.25 2.96875,-0.25 2.515625,-0.25 V 0 C 2.53125,0 3.015625,-0.03125 3.3125,-0.03125 3.5625,-0.03125 4.046875,0 4.109375,0 v -0.25 c -0.453125,0 -0.515625,0 -0.515625,-0.296875 z m 0,0"
               id="id-4575aca0-7ebd-4053-921e-756f034939a9" />
          </g>
          <g
             id="id-76932761-975a-4b99-a010-74ffb7b15c19">
            <path
               d="m 3.6875,-1.484375 c 0,-0.875 -0.75,-1.625 -1.703125,-1.625 -0.96875,0 -1.71875,0.75 -1.71875,1.625 0,0.859375 0.765625,1.546875 1.71875,1.546875 0.9375,0 1.703125,-0.6875 1.703125,-1.546875 z M 1.984375,-0.15625 c -0.265625,0 -0.640625,-0.078125 -0.875,-0.421875 -0.1875,-0.28125 -0.203125,-0.640625 -0.203125,-0.96875 0,-0.296875 0,-0.71875 0.25,-1.015625 0.171875,-0.203125 0.46875,-0.34375 0.828125,-0.34375 0.40625,0 0.703125,0.1875 0.859375,0.40625 0.1875,0.265625 0.203125,0.625 0.203125,0.953125 0,0.328125 -0.015625,0.703125 -0.21875,0.984375 -0.1875,0.265625 -0.5,0.40625 -0.84375,0.40625 z m 0,0"
               id="id-facbda94-de1c-48b5-89cd-81d6b6290731" />
          </g>
          <g
             id="id-52d35d1a-9409-439b-908f-fa022fa44473">
            <path
               d="m 2.515625,-3 v 0.25 c 0.46875,0 0.515625,0.046875 0.515625,0.390625 v 1.203125 c 0,0.609375 -0.390625,1.03125 -0.921875,1.03125 -0.625,0 -0.65625,-0.296875 -0.65625,-0.65625 V -3.078125 L 0.375,-3 v 0.25 c 0.53125,0 0.53125,0.03125 0.53125,0.640625 V -1.0625 c 0,0.484375 0,1.125 1.15625,1.125 0.15625,0 0.65625,0 1,-0.578125 V 0.0625 L 4.109375,0 v -0.25 c -0.46875,0 -0.515625,-0.046875 -0.515625,-0.390625 v -2.4375 z m 0,0"
               id="id-348c57ef-080e-4d8a-95bc-4cc9ba690ab5" />
          </g>
          <g
             id="id-23d7f4f6-d73c-4c28-ab89-1b3157bcf940">
            <path
               d="M 1.40625,-2.75 H 2.484375 V -3 H 1.40625 v -1.28125 h -0.25 c 0,0.625 -0.28125,1.3125 -0.953125,1.328125 V -2.75 H 0.84375 v 1.875 c 0,0.78125 0.59375,0.9375 0.984375,0.9375 0.46875,0 0.78125,-0.390625 0.78125,-0.9375 V -1.265625 H 2.375 v 0.375 c 0,0.484375 -0.21875,0.734375 -0.5,0.734375 -0.46875,0 -0.46875,-0.578125 -0.46875,-0.703125 z m 0,0"
               id="id-d35abfba-4619-4fcb-af01-3f9baf12bce0" />
          </g>
          <g
             id="id-329a3717-0d80-486c-99da-4d12c2192a0d">
            <path
               d="M 3.515625,-1.265625 H 3.28125 c -0.015625,0.15625 -0.09375,0.5625 -0.1875,0.625 C 3.046875,-0.59375 2.515625,-0.59375 2.40625,-0.59375 H 1.125 c 0.734375,-0.640625 0.984375,-0.84375 1.390625,-1.171875 0.515625,-0.40625 1,-0.84375 1,-1.5 0,-0.84375 -0.734375,-1.359375 -1.625,-1.359375 -0.859375,0 -1.453125,0.609375 -1.453125,1.25 0,0.34375 0.296875,0.390625 0.375,0.390625 0.15625,0 0.359375,-0.125 0.359375,-0.375 0,-0.125 -0.046875,-0.375 -0.40625,-0.375 C 0.984375,-4.21875 1.453125,-4.375 1.78125,-4.375 c 0.703125,0 1.0625,0.546875 1.0625,1.109375 0,0.609375 -0.4375,1.078125 -0.65625,1.328125 L 0.515625,-0.265625 C 0.4375,-0.203125 0.4375,-0.1875 0.4375,0 h 2.875 z m 0,0"
               id="id-472f7b01-6161-470a-a565-c4bc7fba1c9a" />
          </g>
          <g
             id="id-ce81d0c1-b6e3-40db-8da7-efe0e4f4953c">
            <path
               d="m 3.546875,-2.875 c 0,-0.03125 0.015625,-0.0625 0.015625,-0.09375 0,-0.046875 -0.03125,-0.109375 -0.09375,-0.109375 -0.0625,0 -0.359375,0.234375 -0.5,0.46875 -0.0625,-0.140625 -0.296875,-0.46875 -0.75,-0.46875 -0.890625,0 -1.796875,0.984375 -1.796875,1.984375 0,0.6875 0.453125,1.15625 1.0625,1.15625 0.390625,0 0.71875,-0.25 0.875,-0.375 C 2.34375,-0.296875 2.125,0.578125 2.109375,0.703125 2,1.09375 2,1.09375 1.5625,1.09375 c -0.078125,0 -0.171875,0 -0.171875,0.15625 0,0.046875 0.03125,0.109375 0.09375,0.109375 0.234375,0 0.5,-0.03125 0.734375,-0.03125 0.234375,0 0.53125,0.03125 0.75,0.03125 0.0625,0 0.125,-0.03125 0.125,-0.15625 C 3.09375,1.09375 3,1.09375 2.921875,1.09375 c -0.15625,0 -0.34375,0 -0.34375,-0.078125 0,-0.015625 0,-0.03125 0.03125,-0.15625 z M 2.5,-0.875 C 2.453125,-0.765625 2.453125,-0.75 2.375,-0.640625 2.09375,-0.3125 1.765625,-0.125 1.5,-0.125 c -0.265625,0 -0.515625,-0.1875 -0.515625,-0.671875 0,-0.375 0.203125,-1.140625 0.375,-1.421875 0.3125,-0.5625 0.671875,-0.65625 0.859375,-0.65625 0.484375,0 0.625,0.53125 0.625,0.609375 0,0.03125 -0.015625,0.078125 -0.015625,0.09375 z m 0,0"
               id="id-1407b543-17ff-4163-b5b5-4229abe05dfe" />
          </g>
          <g
             id="id-b035a783-a85e-4565-8677-97defc7ca4d5">
            <path
               d="m 2.1875,-4.625 c 0,-0.015625 0.015625,-0.109375 0.015625,-0.109375 0,-0.046875 -0.015625,-0.109375 -0.109375,-0.109375 -0.140625,0 -0.71875,0.0625 -0.890625,0.078125 -0.046875,0 -0.15625,0.015625 -0.15625,0.15625 0,0.09375 0.109375,0.09375 0.1875,0.09375 0.328125,0 0.328125,0.0625 0.328125,0.109375 0,0.046875 -0.015625,0.09375 -0.015625,0.15625 L 0.5625,-0.3125 c -0.046875,0.125 -0.046875,0.140625 -0.046875,0.15625 0,0.109375 0.09375,0.21875 0.25,0.21875 0.1875,0 0.265625,-0.125 0.3125,-0.28125 0.015625,-0.03125 0.3125,-1.265625 0.34375,-1.359375 0.5,0.046875 0.890625,0.21875 0.890625,0.578125 0,0.03125 0,0.0625 -0.015625,0.140625 -0.03125,0.09375 -0.03125,0.140625 -0.03125,0.21875 0,0.484375 0.40625,0.703125 0.75,0.703125 0.671875,0 0.875,-1.046875 0.875,-1.0625 0,-0.09375 -0.078125,-0.09375 -0.109375,-0.09375 -0.09375,0 -0.109375,0.046875 -0.140625,0.171875 C 3.5625,-0.625 3.375,-0.125 3.03125,-0.125 c -0.1875,0 -0.25,-0.171875 -0.25,-0.359375 0,-0.125 0,-0.140625 0.046875,-0.3125 0.015625,-0.03125 0.03125,-0.140625 0.03125,-0.21875 0,-0.625 -0.828125,-0.71875 -1.125,-0.734375 C 1.9375,-1.875 2.1875,-2.109375 2.3125,-2.21875 2.671875,-2.546875 3.015625,-2.875 3.40625,-2.875 c 0.078125,0 0.171875,0.015625 0.234375,0.09375 C 3.34375,-2.734375 3.28125,-2.5 3.28125,-2.390625 c 0,0.140625 0.109375,0.25 0.265625,0.25 0.203125,0 0.40625,-0.15625 0.40625,-0.4375 0,-0.234375 -0.171875,-0.5 -0.53125,-0.5 -0.40625,0 -0.765625,0.296875 -1.125,0.625 C 2,-2.1875 1.78125,-1.96875 1.484375,-1.84375 Z m 0,0"
               id="id-cfc98e54-8095-460d-893d-f7a2de5eb78c" />
          </g>
          <g
             id="id-3558ace1-435a-43c0-bdc1-ffbf86aab81c">
            <path
               d="m 3.71875,-2.53125 c 0,-0.546875 -0.328125,-0.546875 -0.34375,-0.546875 -0.1875,0 -0.375,0.1875 -0.375,0.375 0,0.109375 0.0625,0.171875 0.109375,0.203125 0.125,0.109375 0.265625,0.28125 0.265625,0.5625 0,0.3125 -0.46875,1.8125 -1.296875,1.8125 -0.5625,0 -0.5625,-0.5 -0.5625,-0.625 0,-0.3125 0.125,-0.703125 0.390625,-1.359375 C 1.953125,-2.25 2,-2.359375 2,-2.46875 2,-2.84375 1.6875,-3.078125 1.34375,-3.078125 0.640625,-3.078125 0.328125,-2.125 0.328125,-2 c 0,0.078125 0.09375,0.078125 0.125,0.078125 0.09375,0 0.09375,-0.03125 0.125,-0.109375 C 0.734375,-2.59375 1.03125,-2.875 1.3125,-2.875 c 0.125,0 0.171875,0.078125 0.171875,0.234375 0,0.171875 -0.046875,0.3125 -0.125,0.46875 -0.296875,0.78125 -0.375,1.078125 -0.375,1.328125 0,0.6875 0.546875,0.90625 1.078125,0.90625 1.171875,0 1.65625,-2.015625 1.65625,-2.59375 z m 0,0"
               id="id-b3f2b838-e889-47b0-9540-f63c9d28f461" />
          </g>
          <g
             id="id-234ed9ee-876e-41c0-927c-8eeed2cd85a9">
            <path
               d="m 3.703125,-1.859375 c 0,-0.765625 -0.578125,-1.21875 -1.265625,-1.21875 -1.03125,0 -2,0.96875 -2,1.921875 0,0.703125 0.5,1.21875 1.265625,1.21875 1,0 2,-0.90625 2,-1.921875 z m -2,1.734375 c -0.34375,0 -0.6875,-0.21875 -0.6875,-0.78125 0,-0.28125 0.125,-0.96875 0.40625,-1.359375 C 1.71875,-2.703125 2.125,-2.875 2.4375,-2.875 c 0.375,0 0.6875,0.25 0.6875,0.765625 C 3.125,-1.9375 3.046875,-1.25 2.734375,-0.765625 2.46875,-0.34375 2.0625,-0.125 1.703125,-0.125 Z m 0,0"
               id="id-7f88599e-4ef9-456c-a743-a29293fbfb48" />
          </g>
        </g>
      </defs>
      <g
         fill="#000000"
         fill-opacity="1"
         id="id-7fd502d6-f57a-4c64-9216-b941bb3e1bae"
         transform="translate(-214.334,-137.981)">
        <g
           transform="translate(213.912,146.72)"
           id="g3005">
          <path
             d="m 4.53125,-4.984375 c 0,-0.65625 -0.171875,-2.046875 -1.1875,-2.046875 -1.390625,0 -2.921875,2.8125 -2.921875,5.09375 0,0.9375 0.28125,2.046875 1.1875,2.046875 1.40625,0 2.921875,-2.859375 2.921875,-5.09375 z M 1.46875,-3.625 C 1.640625,-4.25 1.84375,-5.046875 2.25,-5.765625 2.515625,-6.25 2.875,-6.8125 3.328125,-6.8125 c 0.484375,0 0.546875,0.640625 0.546875,1.203125 0,0.5 -0.078125,1 -0.3125,1.984375 z m 2,0.328125 C 3.359375,-2.84375 3.15625,-2 2.765625,-1.28125 c -0.34375,0.6875 -0.71875,1.171875 -1.15625,1.171875 -0.328125,0 -0.53125,-0.296875 -0.53125,-1.21875 0,-0.421875 0.0625,-1 0.3125,-1.96875 z m 0,0"
             id="id-a48f0410-885f-4bb7-821f-3573bfe27d11" />
        </g>
      </g>
      <g
         fill="#000000"
         fill-opacity="1"
         id="id-dd29c6c6-37b9-4e03-992a-5d7d015f77d1"
         transform="translate(-214.334,-137.981)">
        <g
           transform="translate(221.633,146.72)"
           id="g4333">
          <path
             d="m 6.84375,-3.265625 c 0.15625,0 0.34375,0 0.34375,-0.1875 C 7.1875,-3.65625 7,-3.65625 6.859375,-3.65625 h -5.96875 c -0.140625,0 -0.328125,0 -0.328125,0.203125 0,0.1875 0.1875,0.1875 0.328125,0.1875 z m 0.015625,1.9375 c 0.140625,0 0.328125,0 0.328125,-0.203125 0,-0.1875 -0.1875,-0.1875 -0.34375,-0.1875 H 0.890625 c -0.140625,0 -0.328125,0 -0.328125,0.1875 0,0.203125 0.1875,0.203125 0.328125,0.203125 z m 0,0"
             id="id-9d1ce7cd-0a3f-4bfc-9771-f7481d6239e8" />
        </g>
      </g>
      <g
         fill="#000000"
         fill-opacity="1"
         id="id-0563a3dc-63c2-4fb1-93ab-6dffc2ff3d6e"
         transform="translate(-214.334,-137.981)">
        <g
           transform="translate(232.149,138.65)"
           id="g9637">
          <path
             d="m 2.015625,11.546875 h 1.90625 V 11.15625 H 2.40625 V 0 h 1.515625 v -0.40625 h -1.90625 z m 0,0"
             id="id-d15d95c6-9ded-41be-8f2c-ec3b9b4a3c97" />
        </g>
      </g>
      <g
         fill="#000000"
         fill-opacity="1"
         id="id-47ec6e32-16b1-4481-b908-904037585dae"
         transform="translate(-214.334,-137.981)">
        <g
           transform="translate(236.301,146.72)"
           id="g6308">
          <path
             d="m 9.140625,-5.65625 c 0.25,-0.4375 0.484375,-0.796875 1.125,-0.84375 0.07813,-0.015625 0.1875,-0.015625 0.1875,-0.203125 0,-0.03125 -0.04687,-0.109375 -0.125,-0.109375 -0.234375,0 -0.515625,0.03125 -0.765625,0.03125 -0.34375,0 -0.703125,-0.03125 -1.046875,-0.03125 -0.046875,0 -0.1875,0 -0.1875,0.1875 0,0.109375 0.09375,0.125 0.15625,0.125 0.234375,0.015625 0.59375,0.09375 0.59375,0.390625 0,0.109375 -0.0625,0.1875 -0.140625,0.328125 L 6.25,-1.09375 5.875,-6.03125 c 0,-0.203125 -0.015625,-0.453125 0.703125,-0.46875 0.171875,0 0.265625,0 0.265625,-0.203125 0,-0.09375 -0.109375,-0.109375 -0.140625,-0.109375 -0.40625,0 -0.828125,0.03125 -1.21875,0.03125 -0.234375,0 -0.8125,-0.03125 -1.046875,-0.03125 -0.0625,0 -0.1875,0 -0.1875,0.203125 C 4.25,-6.5 4.34375,-6.5 4.484375,-6.5 4.921875,-6.5 5,-6.4375 5.015625,-6.25 l 0.0625,0.765625 -2.53125,4.390625 -0.375,-5.046875 c 0,-0.125 0,-0.34375 0.765625,-0.359375 0.09375,0 0.203125,0 0.203125,-0.203125 C 3.140625,-6.8125 3.015625,-6.8125 3,-6.8125 c -0.390625,0 -0.8125,0.03125 -1.21875,0.03125 -0.359375,0 -0.71875,-0.03125 -1.046875,-0.03125 -0.0625,0 -0.1875,0 -0.1875,0.1875 0,0.125 0.09375,0.125 0.25,0.125 0.5,0 0.515625,0.09375 0.53125,0.375 l 0.453125,6.078125 c 0,0.1875 0.015625,0.265625 0.15625,0.265625 0.109375,0 0.140625,-0.0625 0.234375,-0.203125 l 2.9375,-5.09375 0.359375,5.03125 C 5.5,0.171875 5.515625,0.21875 5.625,0.21875 c 0.140625,0 0.203125,-0.09375 0.25,-0.1875 z m 0,0"
             id="id-4bb7995d-b217-40da-b4b7-0f2b1c2078da" />
        </g>
      </g>
      <g
         fill="#0f886e"
         fill-opacity="1"
         id="id-096314af-7a7a-4a13-936d-9c53c40e815f"
         transform="translate(-214.334,-137.981)">
        <g
           transform="translate(247.093,142.606)"
           id="g59">
          <path
             d="m 2.328125,-4.4375 c 0,-0.1875 0,-0.1875 -0.203125,-0.1875 -0.453125,0.4375 -1.078125,0.4375 -1.359375,0.4375 v 0.25 c 0.15625,0 0.625,0 1,-0.1875 v 3.546875 c 0,0.234375 0,0.328125 -0.6875,0.328125 H 0.8125 V 0 c 0.125,0 0.984375,-0.03125 1.234375,-0.03125 0.21875,0 1.09375,0.03125 1.25,0.03125 V -0.25 H 3.03125 c -0.703125,0 -0.703125,-0.09375 -0.703125,-0.328125 z m 0,0"
             id="id-c3bebe87-1842-4291-b586-f5c3382b8e59" />
        </g>
      </g>
      <g
         fill="#176fc1"
         fill-opacity="1"
         id="id-a8eaa765-dc59-4e6b-a157-73ae2ee45adc"
         transform="translate(-214.334,-137.981)">
        <g
           transform="translate(245.71,149.183)"
           id="g8404">
          <path
             d="m 3.546875,-2.875 c 0,-0.03125 0.015625,-0.0625 0.015625,-0.09375 0,-0.046875 -0.03125,-0.109375 -0.09375,-0.109375 -0.0625,0 -0.359375,0.234375 -0.5,0.46875 -0.0625,-0.140625 -0.296875,-0.46875 -0.75,-0.46875 -0.890625,0 -1.796875,0.984375 -1.796875,1.984375 0,0.6875 0.453125,1.15625 1.0625,1.15625 0.390625,0 0.71875,-0.25 0.875,-0.375 C 2.34375,-0.296875 2.125,0.578125 2.109375,0.703125 2,1.09375 2,1.09375 1.5625,1.09375 c -0.078125,0 -0.171875,0 -0.171875,0.15625 0,0.046875 0.03125,0.109375 0.09375,0.109375 0.234375,0 0.5,-0.03125 0.734375,-0.03125 0.234375,0 0.53125,0.03125 0.75,0.03125 0.0625,0 0.125,-0.03125 0.125,-0.15625 C 3.09375,1.09375 3,1.09375 2.921875,1.09375 c -0.15625,0 -0.34375,0 -0.34375,-0.078125 0,-0.015625 0,-0.03125 0.03125,-0.15625 z M 2.5,-0.875 C 2.453125,-0.765625 2.453125,-0.75 2.375,-0.640625 2.09375,-0.3125 1.765625,-0.125 1.5,-0.125 c -0.265625,0 -0.515625,-0.1875 -0.515625,-0.671875 0,-0.375 0.203125,-1.140625 0.375,-1.421875 0.3125,-0.5625 0.671875,-0.65625 0.859375,-0.65625 0.484375,0 0.625,0.53125 0.625,0.609375 0,0.03125 -0.015625,0.078125 -0.015625,0.09375 z m 0,0"
             id="id-d68fc970-d787-45a6-8779-ecfe0eb68693" />
        </g>
      </g>
      <g
         fill="#000000"
         fill-opacity="1"
         id="id-bba9271e-44b0-44a5-8e17-ba40db9bff7a"
         transform="translate(-214.334,-137.981)">
        <g
           transform="translate(251.563,146.72)"
           id="g8630">
          <path
             d="m 2.03125,-0.015625 c 0,-0.65625 -0.25,-1.046875 -0.640625,-1.046875 -0.328125,0 -0.53125,0.25 -0.53125,0.53125 C 0.859375,-0.265625 1.0625,0 1.390625,0 1.5,0 1.640625,-0.046875 1.734375,-0.125 1.765625,-0.15625 1.78125,-0.15625 1.78125,-0.15625 c 0.015625,0 0.015625,0 0.015625,0.140625 0,0.75 -0.34375,1.34375 -0.671875,1.671875 -0.109375,0.109375 -0.109375,0.125 -0.109375,0.15625 0,0.078125 0.046875,0.109375 0.09375,0.109375 0.109375,0 0.921875,-0.765625 0.921875,-1.9375 z m 0,0"
             id="id-a584f2ad-d146-452c-93da-d34b840192a7" />
        </g>
      </g>
      <g
         fill="#000000"
         fill-opacity="1"
         id="id-5992f9e6-d682-4131-929d-cb22d5051a95"
         transform="translate(-214.334,-137.981)">
        <g
           transform="translate(255.994,146.72)"
           id="g606">
          <path
             d="m 9.140625,-5.65625 c 0.25,-0.4375 0.484375,-0.796875 1.125,-0.84375 0.07813,-0.015625 0.1875,-0.015625 0.1875,-0.203125 0,-0.03125 -0.04687,-0.109375 -0.125,-0.109375 -0.234375,0 -0.515625,0.03125 -0.765625,0.03125 -0.34375,0 -0.703125,-0.03125 -1.046875,-0.03125 -0.046875,0 -0.1875,0 -0.1875,0.1875 0,0.109375 0.09375,0.125 0.15625,0.125 0.234375,0.015625 0.59375,0.09375 0.59375,0.390625 0,0.109375 -0.0625,0.1875 -0.140625,0.328125 L 6.25,-1.09375 5.875,-6.03125 c 0,-0.203125 -0.015625,-0.453125 0.703125,-0.46875 0.171875,0 0.265625,0 0.265625,-0.203125 0,-0.09375 -0.109375,-0.109375 -0.140625,-0.109375 -0.40625,0 -0.828125,0.03125 -1.21875,0.03125 -0.234375,0 -0.8125,-0.03125 -1.046875,-0.03125 -0.0625,0 -0.1875,0 -0.1875,0.203125 C 4.25,-6.5 4.34375,-6.5 4.484375,-6.5 4.921875,-6.5 5,-6.4375 5.015625,-6.25 l 0.0625,0.765625 -2.53125,4.390625 -0.375,-5.046875 c 0,-0.125 0,-0.34375 0.765625,-0.359375 0.09375,0 0.203125,0 0.203125,-0.203125 C 3.140625,-6.8125 3.015625,-6.8125 3,-6.8125 c -0.390625,0 -0.8125,0.03125 -1.21875,0.03125 -0.359375,0 -0.71875,-0.03125 -1.046875,-0.03125 -0.0625,0 -0.1875,0 -0.1875,0.1875 0,0.125 0.09375,0.125 0.25,0.125 0.5,0 0.515625,0.09375 0.53125,0.375 l 0.453125,6.078125 c 0,0.1875 0.015625,0.265625 0.15625,0.265625 0.109375,0 0.140625,-0.0625 0.234375,-0.203125 l 2.9375,-5.09375 0.359375,5.03125 C 5.5,0.171875 5.515625,0.21875 5.625,0.21875 c 0.140625,0 0.203125,-0.09375 0.25,-0.1875 z m 0,0"
             id="id-a03f450c-552c-486c-bfef-810e7c5f9a9b" />
        </g>
      </g>
      <g
         fill="#0f886e"
         fill-opacity="1"
         id="id-7e1b4b5a-4bdc-4ac5-901b-d44d9f5a313d"
         transform="translate(-214.334,-137.981)">
        <g
           transform="translate(266.783,142.606)"
           id="g6620">
          <path
             d="m 2.328125,-4.4375 c 0,-0.1875 0,-0.1875 -0.203125,-0.1875 -0.453125,0.4375 -1.078125,0.4375 -1.359375,0.4375 v 0.25 c 0.15625,0 0.625,0 1,-0.1875 v 3.546875 c 0,0.234375 0,0.328125 -0.6875,0.328125 H 0.8125 V 0 c 0.125,0 0.984375,-0.03125 1.234375,-0.03125 0.21875,0 1.09375,0.03125 1.25,0.03125 V -0.25 H 3.03125 c -0.703125,0 -0.703125,-0.09375 -0.703125,-0.328125 z m 0,0"
             id="id-5002eb4e-5cd8-41e7-8b0b-60a467e98407" />
        </g>
      </g>
      <g
         fill="#176fc1"
         fill-opacity="1"
         id="id-11c5f7d5-97de-4e18-9344-25d971fd4a0e"
         transform="translate(-214.334,-137.981)">
        <g
           transform="translate(265.4,149.183)"
           id="g6334">
          <path
             d="m 2.1875,-4.625 c 0,-0.015625 0.015625,-0.109375 0.015625,-0.109375 0,-0.046875 -0.015625,-0.109375 -0.109375,-0.109375 -0.140625,0 -0.71875,0.0625 -0.890625,0.078125 -0.046875,0 -0.15625,0.015625 -0.15625,0.15625 0,0.09375 0.109375,0.09375 0.1875,0.09375 0.328125,0 0.328125,0.0625 0.328125,0.109375 0,0.046875 -0.015625,0.09375 -0.015625,0.15625 L 0.5625,-0.3125 c -0.046875,0.125 -0.046875,0.140625 -0.046875,0.15625 0,0.109375 0.09375,0.21875 0.25,0.21875 0.1875,0 0.265625,-0.125 0.3125,-0.28125 0.015625,-0.03125 0.3125,-1.265625 0.34375,-1.359375 0.5,0.046875 0.890625,0.21875 0.890625,0.578125 0,0.03125 0,0.0625 -0.015625,0.140625 -0.03125,0.09375 -0.03125,0.140625 -0.03125,0.21875 0,0.484375 0.40625,0.703125 0.75,0.703125 0.671875,0 0.875,-1.046875 0.875,-1.0625 0,-0.09375 -0.078125,-0.09375 -0.109375,-0.09375 -0.09375,0 -0.109375,0.046875 -0.140625,0.171875 C 3.5625,-0.625 3.375,-0.125 3.03125,-0.125 c -0.1875,0 -0.25,-0.171875 -0.25,-0.359375 0,-0.125 0,-0.140625 0.046875,-0.3125 0.015625,-0.03125 0.03125,-0.140625 0.03125,-0.21875 0,-0.625 -0.828125,-0.71875 -1.125,-0.734375 C 1.9375,-1.875 2.1875,-2.109375 2.3125,-2.21875 2.671875,-2.546875 3.015625,-2.875 3.40625,-2.875 c 0.078125,0 0.171875,0.015625 0.234375,0.09375 C 3.34375,-2.734375 3.28125,-2.5 3.28125,-2.390625 c 0,0.140625 0.109375,0.25 0.265625,0.25 0.203125,0 0.40625,-0.15625 0.40625,-0.4375 0,-0.234375 -0.171875,-0.5 -0.53125,-0.5 -0.40625,0 -0.765625,0.296875 -1.125,0.625 C 2,-2.1875 1.78125,-1.96875 1.484375,-1.84375 Z m 0,0"
             id="id-61b4b124-004a-4021-9cd7-c186c743ef5b" />
        </g>
      </g>
      <g
         fill="#000000"
         fill-opacity="1"
         id="id-a4e1cfb9-154d-4444-8521-47e21c302308"
         transform="translate(-214.334,-137.981)">
        <g
           transform="translate(271.253,146.72)"
           id="g9761">
          <path
             d="m 2.03125,-0.015625 c 0,-0.65625 -0.25,-1.046875 -0.640625,-1.046875 -0.328125,0 -0.53125,0.25 -0.53125,0.53125 C 0.859375,-0.265625 1.0625,0 1.390625,0 1.5,0 1.640625,-0.046875 1.734375,-0.125 1.765625,-0.15625 1.78125,-0.15625 1.78125,-0.15625 c 0.015625,0 0.015625,0 0.015625,0.140625 0,0.75 -0.34375,1.34375 -0.671875,1.671875 -0.109375,0.109375 -0.109375,0.125 -0.109375,0.15625 0,0.078125 0.046875,0.109375 0.09375,0.109375 0.109375,0 0.921875,-0.765625 0.921875,-1.9375 z m 0,0"
             id="id-a2874c91-892e-4e6b-9369-986fe4de6924" />
        </g>
      </g>
      <g
         fill="#000000"
         fill-opacity="1"
         id="id-df350353-d1b2-40d4-aff0-38efc40029b1"
         transform="translate(-214.334,-137.981)">
        <g
           transform="translate(275.684,146.72)"
           id="g9357">
          <path
             d="m 9.140625,-5.65625 c 0.25,-0.4375 0.484375,-0.796875 1.125,-0.84375 0.07813,-0.015625 0.1875,-0.015625 0.1875,-0.203125 0,-0.03125 -0.04687,-0.109375 -0.125,-0.109375 -0.234375,0 -0.515625,0.03125 -0.765625,0.03125 -0.34375,0 -0.703125,-0.03125 -1.046875,-0.03125 -0.046875,0 -0.1875,0 -0.1875,0.1875 0,0.109375 0.09375,0.125 0.15625,0.125 0.234375,0.015625 0.59375,0.09375 0.59375,0.390625 0,0.109375 -0.0625,0.1875 -0.140625,0.328125 L 6.25,-1.09375 5.875,-6.03125 c 0,-0.203125 -0.015625,-0.453125 0.703125,-0.46875 0.171875,0 0.265625,0 0.265625,-0.203125 0,-0.09375 -0.109375,-0.109375 -0.140625,-0.109375 -0.40625,0 -0.828125,0.03125 -1.21875,0.03125 -0.234375,0 -0.8125,-0.03125 -1.046875,-0.03125 -0.0625,0 -0.1875,0 -0.1875,0.203125 C 4.25,-6.5 4.34375,-6.5 4.484375,-6.5 4.921875,-6.5 5,-6.4375 5.015625,-6.25 l 0.0625,0.765625 -2.53125,4.390625 -0.375,-5.046875 c 0,-0.125 0,-0.34375 0.765625,-0.359375 0.09375,0 0.203125,0 0.203125,-0.203125 C 3.140625,-6.8125 3.015625,-6.8125 3,-6.8125 c -0.390625,0 -0.8125,0.03125 -1.21875,0.03125 -0.359375,0 -0.71875,-0.03125 -1.046875,-0.03125 -0.0625,0 -0.1875,0 -0.1875,0.1875 0,0.125 0.09375,0.125 0.25,0.125 0.5,0 0.515625,0.09375 0.53125,0.375 l 0.453125,6.078125 c 0,0.1875 0.015625,0.265625 0.15625,0.265625 0.109375,0 0.140625,-0.0625 0.234375,-0.203125 l 2.9375,-5.09375 0.359375,5.03125 C 5.5,0.171875 5.515625,0.21875 5.625,0.21875 c 0.140625,0 0.203125,-0.09375 0.25,-0.1875 z m 0,0"
             id="id-84d3e4ad-7f39-4ff6-b30e-7020ee755192" />
        </g>
      </g>
      <g
         fill="#0f886e"
         fill-opacity="1"
         id="id-876d545e-0a1b-4c33-803a-fb07137bc97e"
         transform="translate(-214.334,-137.981)">
        <g
           transform="translate(286.474,142.606)"
           id="g1742">
          <path
             d="m 2.328125,-4.4375 c 0,-0.1875 0,-0.1875 -0.203125,-0.1875 -0.453125,0.4375 -1.078125,0.4375 -1.359375,0.4375 v 0.25 c 0.15625,0 0.625,0 1,-0.1875 v 3.546875 c 0,0.234375 0,0.328125 -0.6875,0.328125 H 0.8125 V 0 c 0.125,0 0.984375,-0.03125 1.234375,-0.03125 0.21875,0 1.09375,0.03125 1.25,0.03125 V -0.25 H 3.03125 c -0.703125,0 -0.703125,-0.09375 -0.703125,-0.328125 z m 0,0"
             id="id-6fd87482-19fd-4f99-902c-708650e1a15a" />
        </g>
      </g>
      <g
         fill="#176fc1"
         fill-opacity="1"
         id="id-40a97b98-f9f9-422c-90a5-3cc8c668802d"
         transform="translate(-214.334,-137.981)">
        <g
           transform="translate(285.09,149.183)"
           id="g3837">
          <path
             d="m 3.71875,-2.53125 c 0,-0.546875 -0.328125,-0.546875 -0.34375,-0.546875 -0.1875,0 -0.375,0.1875 -0.375,0.375 0,0.109375 0.0625,0.171875 0.109375,0.203125 0.125,0.109375 0.265625,0.28125 0.265625,0.5625 0,0.3125 -0.46875,1.8125 -1.296875,1.8125 -0.5625,0 -0.5625,-0.5 -0.5625,-0.625 0,-0.3125 0.125,-0.703125 0.390625,-1.359375 C 1.953125,-2.25 2,-2.359375 2,-2.46875 2,-2.84375 1.6875,-3.078125 1.34375,-3.078125 0.640625,-3.078125 0.328125,-2.125 0.328125,-2 c 0,0.078125 0.09375,0.078125 0.125,0.078125 0.09375,0 0.09375,-0.03125 0.125,-0.109375 C 0.734375,-2.59375 1.03125,-2.875 1.3125,-2.875 c 0.125,0 0.171875,0.078125 0.171875,0.234375 0,0.171875 -0.046875,0.3125 -0.125,0.46875 -0.296875,0.78125 -0.375,1.078125 -0.375,1.328125 0,0.6875 0.546875,0.90625 1.078125,0.90625 1.171875,0 1.65625,-2.015625 1.65625,-2.59375 z m 0,0"
             id="id-8dc09b51-b906-4726-b3cd-193d91e23001" />
        </g>
      </g>
      <g
         fill="#000000"
         fill-opacity="1"
         id="id-f647fa8c-8ab0-4bd1-8bbf-6bb2c3831a38"
         transform="translate(-214.334,-137.981)">
        <g
           transform="translate(290.943,146.72)"
           id="g2642">
          <path
             d="m 2.03125,-0.015625 c 0,-0.65625 -0.25,-1.046875 -0.640625,-1.046875 -0.328125,0 -0.53125,0.25 -0.53125,0.53125 C 0.859375,-0.265625 1.0625,0 1.390625,0 1.5,0 1.640625,-0.046875 1.734375,-0.125 1.765625,-0.15625 1.78125,-0.15625 1.78125,-0.15625 c 0.015625,0 0.015625,0 0.015625,0.140625 0,0.75 -0.34375,1.34375 -0.671875,1.671875 -0.109375,0.109375 -0.109375,0.125 -0.109375,0.15625 0,0.078125 0.046875,0.109375 0.09375,0.109375 0.109375,0 0.921875,-0.765625 0.921875,-1.9375 z m 0,0"
             id="id-11d539ef-6bdb-400f-b4d8-f508448ad34c" />
        </g>
      </g>
      <g
         fill="#000000"
         fill-opacity="1"
         id="id-3b7763cb-a9ea-4bfe-bf61-4019b65205b3"
         transform="translate(-214.334,-137.981)">
        <g
           transform="translate(295.374,146.72)"
           id="g4850">
          <path
             d="m 9.140625,-5.65625 c 0.25,-0.4375 0.484375,-0.796875 1.125,-0.84375 0.07813,-0.015625 0.1875,-0.015625 0.1875,-0.203125 0,-0.03125 -0.04687,-0.109375 -0.125,-0.109375 -0.234375,0 -0.515625,0.03125 -0.765625,0.03125 -0.34375,0 -0.703125,-0.03125 -1.046875,-0.03125 -0.046875,0 -0.1875,0 -0.1875,0.1875 0,0.109375 0.09375,0.125 0.15625,0.125 0.234375,0.015625 0.59375,0.09375 0.59375,0.390625 0,0.109375 -0.0625,0.1875 -0.140625,0.328125 L 6.25,-1.09375 5.875,-6.03125 c 0,-0.203125 -0.015625,-0.453125 0.703125,-0.46875 0.171875,0 0.265625,0 0.265625,-0.203125 0,-0.09375 -0.109375,-0.109375 -0.140625,-0.109375 -0.40625,0 -0.828125,0.03125 -1.21875,0.03125 -0.234375,0 -0.8125,-0.03125 -1.046875,-0.03125 -0.0625,0 -0.1875,0 -0.1875,0.203125 C 4.25,-6.5 4.34375,-6.5 4.484375,-6.5 4.921875,-6.5 5,-6.4375 5.015625,-6.25 l 0.0625,0.765625 -2.53125,4.390625 -0.375,-5.046875 c 0,-0.125 0,-0.34375 0.765625,-0.359375 0.09375,0 0.203125,0 0.203125,-0.203125 C 3.140625,-6.8125 3.015625,-6.8125 3,-6.8125 c -0.390625,0 -0.8125,0.03125 -1.21875,0.03125 -0.359375,0 -0.71875,-0.03125 -1.046875,-0.03125 -0.0625,0 -0.1875,0 -0.1875,0.1875 0,0.125 0.09375,0.125 0.25,0.125 0.5,0 0.515625,0.09375 0.53125,0.375 l 0.453125,6.078125 c 0,0.1875 0.015625,0.265625 0.15625,0.265625 0.109375,0 0.140625,-0.0625 0.234375,-0.203125 l 2.9375,-5.09375 0.359375,5.03125 C 5.5,0.171875 5.515625,0.21875 5.625,0.21875 c 0.140625,0 0.203125,-0.09375 0.25,-0.1875 z m 0,0"
             id="id-1fdef9eb-bbf2-4984-925a-ad1b4a350bcf" />
        </g>
      </g>
      <g
         fill="#0f886e"
         fill-opacity="1"
         id="id-b879ae3f-a0ad-4991-99d3-6767427d0532"
         transform="translate(-214.334,-137.981)">
        <g
           transform="translate(306.164,142.606)"
           id="g5972">
          <path
             d="m 2.328125,-4.4375 c 0,-0.1875 0,-0.1875 -0.203125,-0.1875 -0.453125,0.4375 -1.078125,0.4375 -1.359375,0.4375 v 0.25 c 0.15625,0 0.625,0 1,-0.1875 v 3.546875 c 0,0.234375 0,0.328125 -0.6875,0.328125 H 0.8125 V 0 c 0.125,0 0.984375,-0.03125 1.234375,-0.03125 0.21875,0 1.09375,0.03125 1.25,0.03125 V -0.25 H 3.03125 c -0.703125,0 -0.703125,-0.09375 -0.703125,-0.328125 z m 0,0"
             id="id-5303254e-c8ac-4014-8517-2ee81598cd04" />
        </g>
      </g>
      <g
         fill="#176fc1"
         fill-opacity="1"
         id="id-d6595c77-e47d-44f4-a454-da4c3fc8cee5"
         transform="translate(-214.334,-137.981)">
        <g
           transform="translate(304.78,149.183)"
           id="g6183">
          <path
             d="m 3.703125,-1.859375 c 0,-0.765625 -0.578125,-1.21875 -1.265625,-1.21875 -1.03125,0 -2,0.96875 -2,1.921875 0,0.703125 0.5,1.21875 1.265625,1.21875 1,0 2,-0.90625 2,-1.921875 z m -2,1.734375 c -0.34375,0 -0.6875,-0.21875 -0.6875,-0.78125 0,-0.28125 0.125,-0.96875 0.40625,-1.359375 C 1.71875,-2.703125 2.125,-2.875 2.4375,-2.875 c 0.375,0 0.6875,0.25 0.6875,0.765625 C 3.125,-1.9375 3.046875,-1.25 2.734375,-0.765625 2.46875,-0.34375 2.0625,-0.125 1.703125,-0.125 Z m 0,0"
             id="id-d0e9cfd7-5779-4c40-b18f-5e41ee24814d" />
        </g>
      </g>
      <g
         fill="#000000"
         fill-opacity="1"
         id="id-9c45c93b-73e0-45b6-8635-f2c73b9dff11"
         transform="translate(-214.334,-137.981)">
        <g
           transform="translate(310.633,146.72)"
           id="g1282">
          <path
             d="m 2.03125,-0.015625 c 0,-0.65625 -0.25,-1.046875 -0.640625,-1.046875 -0.328125,0 -0.53125,0.25 -0.53125,0.53125 C 0.859375,-0.265625 1.0625,0 1.390625,0 1.5,0 1.640625,-0.046875 1.734375,-0.125 1.765625,-0.15625 1.78125,-0.15625 1.78125,-0.15625 c 0.015625,0 0.015625,0 0.015625,0.140625 0,0.75 -0.34375,1.34375 -0.671875,1.671875 -0.109375,0.109375 -0.109375,0.125 -0.109375,0.15625 0,0.078125 0.046875,0.109375 0.09375,0.109375 0.109375,0 0.921875,-0.765625 0.921875,-1.9375 z m 0,0"
             id="id-d3a6d7cf-7f70-487e-a377-a1e01bbe26ed" />
        </g>
      </g>
      <g
         fill="#000000"
         fill-opacity="1"
         id="id-20d68022-4ddd-4b47-88d8-966eb57a34a8"
         transform="translate(-214.334,-137.981)">
        <g
           transform="translate(315.064,146.72)"
           id="g8776">
          <path
             d="m 9.140625,-5.65625 c 0.25,-0.4375 0.484375,-0.796875 1.125,-0.84375 0.07813,-0.015625 0.1875,-0.015625 0.1875,-0.203125 0,-0.03125 -0.04687,-0.109375 -0.125,-0.109375 -0.234375,0 -0.515625,0.03125 -0.765625,0.03125 -0.34375,0 -0.703125,-0.03125 -1.046875,-0.03125 -0.046875,0 -0.1875,0 -0.1875,0.1875 0,0.109375 0.09375,0.125 0.15625,0.125 0.234375,0.015625 0.59375,0.09375 0.59375,0.390625 0,0.109375 -0.0625,0.1875 -0.140625,0.328125 L 6.25,-1.09375 5.875,-6.03125 c 0,-0.203125 -0.015625,-0.453125 0.703125,-0.46875 0.171875,0 0.265625,0 0.265625,-0.203125 0,-0.09375 -0.109375,-0.109375 -0.140625,-0.109375 -0.40625,0 -0.828125,0.03125 -1.21875,0.03125 -0.234375,0 -0.8125,-0.03125 -1.046875,-0.03125 -0.0625,0 -0.1875,0 -0.1875,0.203125 C 4.25,-6.5 4.34375,-6.5 4.484375,-6.5 4.921875,-6.5 5,-6.4375 5.015625,-6.25 l 0.0625,0.765625 -2.53125,4.390625 -0.375,-5.046875 c 0,-0.125 0,-0.34375 0.765625,-0.359375 0.09375,0 0.203125,0 0.203125,-0.203125 C 3.140625,-6.8125 3.015625,-6.8125 3,-6.8125 c -0.390625,0 -0.8125,0.03125 -1.21875,0.03125 -0.359375,0 -0.71875,-0.03125 -1.046875,-0.03125 -0.0625,0 -0.1875,0 -0.1875,0.1875 0,0.125 0.09375,0.125 0.25,0.125 0.5,0 0.515625,0.09375 0.53125,0.375 l 0.453125,6.078125 c 0,0.1875 0.015625,0.265625 0.15625,0.265625 0.109375,0 0.140625,-0.0625 0.234375,-0.203125 l 2.9375,-5.09375 0.359375,5.03125 C 5.5,0.171875 5.515625,0.21875 5.625,0.21875 c 0.140625,0 0.203125,-0.09375 0.25,-0.1875 z m 0,0"
             id="id-c94c0003-43c6-4fea-8633-a28a7216b903" />
        </g>
      </g>
      <g
         fill="#0f886e"
         fill-opacity="1"
         id="id-04c2f994-c07f-40e2-80c5-9f3d402ecde4"
         transform="translate(-214.334,-137.981)">
        <g
           transform="translate(325.854,142.606)"
           id="g6563">
          <path
             d="m 2.328125,-4.4375 c 0,-0.1875 0,-0.1875 -0.203125,-0.1875 -0.453125,0.4375 -1.078125,0.4375 -1.359375,0.4375 v 0.25 c 0.15625,0 0.625,0 1,-0.1875 v 3.546875 c 0,0.234375 0,0.328125 -0.6875,0.328125 H 0.8125 V 0 c 0.125,0 0.984375,-0.03125 1.234375,-0.03125 0.21875,0 1.09375,0.03125 1.25,0.03125 V -0.25 H 3.03125 c -0.703125,0 -0.703125,-0.09375 -0.703125,-0.328125 z m 0,0"
             id="id-483dd5b8-e61b-4859-b0a2-8d71bec906ca" />
        </g>
      </g>
      <g
         fill="#b6251c"
         fill-opacity="1"
         id="id-948d11b6-cde2-4efd-b2ab-8f4723ae6fd2"
         transform="translate(-214.334,-137.981)">
        <g
           transform="translate(324.47,149.183)"
           id="g3402">
          <path
             d="m 1.46875,-4.296875 c 0,-0.203125 -0.171875,-0.40625 -0.40625,-0.40625 -0.203125,0 -0.390625,0.171875 -0.390625,0.40625 0,0.25 0.203125,0.40625 0.390625,0.40625 0.234375,0 0.40625,-0.171875 0.40625,-0.40625 z M 0.40625,-3 v 0.25 c 0.4375,0 0.5,0.046875 0.5,0.390625 v 1.8125 C 0.90625,-0.25 0.84375,-0.25 0.390625,-0.25 V 0 c 0.015625,0 0.5,-0.03125 0.78125,-0.03125 0.25,0 0.5,0.015625 0.734375,0.03125 V -0.25 C 1.5,-0.25 1.4375,-0.25 1.4375,-0.546875 v -2.53125 z m 0,0"
             id="id-323905f4-89a4-42ad-9230-37493ad27687" />
        </g>
        <g
           transform="translate(326.725,149.183)"
           id="g2487">
          <path
             d="m 3.59375,-2.109375 c 0,-0.609375 -0.296875,-0.96875 -1.046875,-0.96875 -0.578125,0 -0.9375,0.3125 -1.140625,0.6875 v -0.6875 L 0.375,-3 v 0.25 c 0.46875,0 0.53125,0.046875 0.53125,0.390625 v 1.8125 C 0.90625,-0.25 0.828125,-0.25 0.375,-0.25 V 0 C 0.390625,0 0.875,-0.03125 1.171875,-0.03125 1.421875,-0.03125 1.90625,0 1.96875,0 v -0.25 c -0.453125,0 -0.515625,0 -0.515625,-0.296875 V -1.8125 c 0,-0.71875 0.578125,-1.0625 1.03125,-1.0625 0.484375,0 0.546875,0.375 0.546875,0.734375 v 1.59375 C 3.03125,-0.25 2.96875,-0.25 2.515625,-0.25 V 0 C 2.53125,0 3.015625,-0.03125 3.3125,-0.03125 3.5625,-0.03125 4.046875,0 4.109375,0 v -0.25 c -0.453125,0 -0.515625,0 -0.515625,-0.296875 z m 0,0"
             id="id-48f67df1-1611-4a01-8989-f9b480d8c5b3" />
        </g>
      </g>
      <g
         fill="#000000"
         fill-opacity="1"
         id="id-27a5c8c3-9c78-41bc-bf9a-31aaa431393b"
         transform="translate(-214.334,-137.981)">
        <g
           transform="translate(331.624,146.72)"
           id="g718">
          <path
             d="m 2.03125,-0.015625 c 0,-0.65625 -0.25,-1.046875 -0.640625,-1.046875 -0.328125,0 -0.53125,0.25 -0.53125,0.53125 C 0.859375,-0.265625 1.0625,0 1.390625,0 1.5,0 1.640625,-0.046875 1.734375,-0.125 1.765625,-0.15625 1.78125,-0.15625 1.78125,-0.15625 c 0.015625,0 0.015625,0 0.015625,0.140625 0,0.75 -0.34375,1.34375 -0.671875,1.671875 -0.109375,0.109375 -0.109375,0.125 -0.109375,0.15625 0,0.078125 0.046875,0.109375 0.09375,0.109375 0.109375,0 0.921875,-0.765625 0.921875,-1.9375 z m 0,0"
             id="id-0eb0f422-85aa-4e38-af95-c8b9aff250be" />
        </g>
      </g>
      <g
         fill="#000000"
         fill-opacity="1"
         id="id-851ca36f-53bf-4a28-b410-03a7bdecb1cd"
         transform="translate(-214.334,-137.981)">
        <g
           transform="translate(336.055,146.72)"
           id="g8928">
          <path
             d="m 9.140625,-5.65625 c 0.25,-0.4375 0.484375,-0.796875 1.125,-0.84375 0.07813,-0.015625 0.1875,-0.015625 0.1875,-0.203125 0,-0.03125 -0.04687,-0.109375 -0.125,-0.109375 -0.234375,0 -0.515625,0.03125 -0.765625,0.03125 -0.34375,0 -0.703125,-0.03125 -1.046875,-0.03125 -0.046875,0 -0.1875,0 -0.1875,0.1875 0,0.109375 0.09375,0.125 0.15625,0.125 0.234375,0.015625 0.59375,0.09375 0.59375,0.390625 0,0.109375 -0.0625,0.1875 -0.140625,0.328125 L 6.25,-1.09375 5.875,-6.03125 c 0,-0.203125 -0.015625,-0.453125 0.703125,-0.46875 0.171875,0 0.265625,0 0.265625,-0.203125 0,-0.09375 -0.109375,-0.109375 -0.140625,-0.109375 -0.40625,0 -0.828125,0.03125 -1.21875,0.03125 -0.234375,0 -0.8125,-0.03125 -1.046875,-0.03125 -0.0625,0 -0.1875,0 -0.1875,0.203125 C 4.25,-6.5 4.34375,-6.5 4.484375,-6.5 4.921875,-6.5 5,-6.4375 5.015625,-6.25 l 0.0625,0.765625 -2.53125,4.390625 -0.375,-5.046875 c 0,-0.125 0,-0.34375 0.765625,-0.359375 0.09375,0 0.203125,0 0.203125,-0.203125 C 3.140625,-6.8125 3.015625,-6.8125 3,-6.8125 c -0.390625,0 -0.8125,0.03125 -1.21875,0.03125 -0.359375,0 -0.71875,-0.03125 -1.046875,-0.03125 -0.0625,0 -0.1875,0 -0.1875,0.1875 0,0.125 0.09375,0.125 0.25,0.125 0.5,0 0.515625,0.09375 0.53125,0.375 l 0.453125,6.078125 c 0,0.1875 0.015625,0.265625 0.15625,0.265625 0.109375,0 0.140625,-0.0625 0.234375,-0.203125 l 2.9375,-5.09375 0.359375,5.03125 C 5.5,0.171875 5.515625,0.21875 5.625,0.21875 c 0.140625,0 0.203125,-0.09375 0.25,-0.1875 z m 0,0"
             id="id-b957f140-4415-4e3e-8d4b-0303c765d5c6" />
        </g>
      </g>
      <g
         fill="#0f886e"
         fill-opacity="1"
         id="id-6b97a78c-86c4-4364-89dc-572ce63b7ba1"
         transform="translate(-214.334,-137.981)">
        <g
           transform="translate(346.844,142.606)"
           id="g9282">
          <path
             d="m 2.328125,-4.4375 c 0,-0.1875 0,-0.1875 -0.203125,-0.1875 -0.453125,0.4375 -1.078125,0.4375 -1.359375,0.4375 v 0.25 c 0.15625,0 0.625,0 1,-0.1875 v 3.546875 c 0,0.234375 0,0.328125 -0.6875,0.328125 H 0.8125 V 0 c 0.125,0 0.984375,-0.03125 1.234375,-0.03125 0.21875,0 1.09375,0.03125 1.25,0.03125 V -0.25 H 3.03125 c -0.703125,0 -0.703125,-0.09375 -0.703125,-0.328125 z m 0,0"
             id="id-9f32d538-8983-403f-b05a-96bfb84a333a" />
        </g>
      </g>
      <g
         fill="#b6251c"
         fill-opacity="1"
         id="id-4d2555fb-81b3-486f-a9ed-63a09a6f27ed"
         transform="translate(-214.334,-137.981)">
        <g
           transform="translate(345.461,149.183)"
           id="g3909">
          <path
             d="m 3.6875,-1.484375 c 0,-0.875 -0.75,-1.625 -1.703125,-1.625 -0.96875,0 -1.71875,0.75 -1.71875,1.625 0,0.859375 0.765625,1.546875 1.71875,1.546875 0.9375,0 1.703125,-0.6875 1.703125,-1.546875 z M 1.984375,-0.15625 c -0.265625,0 -0.640625,-0.078125 -0.875,-0.421875 -0.1875,-0.28125 -0.203125,-0.640625 -0.203125,-0.96875 0,-0.296875 0,-0.71875 0.25,-1.015625 0.171875,-0.203125 0.46875,-0.34375 0.828125,-0.34375 0.40625,0 0.703125,0.1875 0.859375,0.40625 0.1875,0.265625 0.203125,0.625 0.203125,0.953125 0,0.328125 -0.015625,0.703125 -0.21875,0.984375 -0.1875,0.265625 -0.5,0.40625 -0.84375,0.40625 z m 0,0"
             id="id-b46c8159-9eab-4f0d-9d2f-bd1f5db1fa7b" />
        </g>
        <g
           transform="translate(349.433,149.183)"
           id="g2418">
          <path
             d="m 2.515625,-3 v 0.25 c 0.46875,0 0.515625,0.046875 0.515625,0.390625 v 1.203125 c 0,0.609375 -0.390625,1.03125 -0.921875,1.03125 -0.625,0 -0.65625,-0.296875 -0.65625,-0.65625 V -3.078125 L 0.375,-3 v 0.25 c 0.53125,0 0.53125,0.03125 0.53125,0.640625 V -1.0625 c 0,0.484375 0,1.125 1.15625,1.125 0.15625,0 0.65625,0 1,-0.578125 V 0.0625 L 4.109375,0 v -0.25 c -0.46875,0 -0.515625,-0.046875 -0.515625,-0.390625 v -2.4375 z m 0,0"
             id="id-5a5f89de-4025-42a4-b2b7-a4d514deb658" />
        </g>
        <g
           transform="translate(353.833,149.183)"
           id="g4840">
          <path
             d="M 1.40625,-2.75 H 2.484375 V -3 H 1.40625 v -1.28125 h -0.25 c 0,0.625 -0.28125,1.3125 -0.953125,1.328125 V -2.75 H 0.84375 v 1.875 c 0,0.78125 0.59375,0.9375 0.984375,0.9375 0.46875,0 0.78125,-0.390625 0.78125,-0.9375 V -1.265625 H 2.375 v 0.375 c 0,0.484375 -0.21875,0.734375 -0.5,0.734375 -0.46875,0 -0.46875,-0.578125 -0.46875,-0.703125 z m 0,0"
             id="id-8dcd237d-4494-43f8-aaad-c60302cb9da0" />
        </g>
      </g>
      <g
         fill="#000000"
         fill-opacity="1"
         id="id-451d060f-97be-4cbf-9e6a-3ab09eb1a6ea"
         transform="translate(-214.334,-137.981)">
        <g
           transform="translate(357.444,146.72)"
           id="g9355">
          <path
             d="m 2.03125,-0.015625 c 0,-0.65625 -0.25,-1.046875 -0.640625,-1.046875 -0.328125,0 -0.53125,0.25 -0.53125,0.53125 C 0.859375,-0.265625 1.0625,0 1.390625,0 1.5,0 1.640625,-0.046875 1.734375,-0.125 1.765625,-0.15625 1.78125,-0.15625 1.78125,-0.15625 c 0.015625,0 0.015625,0 0.015625,0.140625 0,0.75 -0.34375,1.34375 -0.671875,1.671875 -0.109375,0.109375 -0.109375,0.125 -0.109375,0.15625 0,0.078125 0.046875,0.109375 0.09375,0.109375 0.109375,0 0.921875,-0.765625 0.921875,-1.9375 z m 0,0"
             id="id-7b8bf894-1d32-48cf-92c9-ac185d71a6d6" />
        </g>
      </g>
      <g
         fill="#000000"
         fill-opacity="1"
         id="id-4a6f569a-f6da-42d4-8838-5d77c52aa4f1"
         transform="translate(-214.334,-137.981)">
        <g
           transform="translate(361.875,146.72)"
           id="g520">
          <path
             d="m 9.140625,-5.65625 c 0.25,-0.4375 0.484375,-0.796875 1.125,-0.84375 0.07813,-0.015625 0.1875,-0.015625 0.1875,-0.203125 0,-0.03125 -0.04687,-0.109375 -0.125,-0.109375 -0.234375,0 -0.515625,0.03125 -0.765625,0.03125 -0.34375,0 -0.703125,-0.03125 -1.046875,-0.03125 -0.046875,0 -0.1875,0 -0.1875,0.1875 0,0.109375 0.09375,0.125 0.15625,0.125 0.234375,0.015625 0.59375,0.09375 0.59375,0.390625 0,0.109375 -0.0625,0.1875 -0.140625,0.328125 L 6.25,-1.09375 5.875,-6.03125 c 0,-0.203125 -0.015625,-0.453125 0.703125,-0.46875 0.171875,0 0.265625,0 0.265625,-0.203125 0,-0.09375 -0.109375,-0.109375 -0.140625,-0.109375 -0.40625,0 -0.828125,0.03125 -1.21875,0.03125 -0.234375,0 -0.8125,-0.03125 -1.046875,-0.03125 -0.0625,0 -0.1875,0 -0.1875,0.203125 C 4.25,-6.5 4.34375,-6.5 4.484375,-6.5 4.921875,-6.5 5,-6.4375 5.015625,-6.25 l 0.0625,0.765625 -2.53125,4.390625 -0.375,-5.046875 c 0,-0.125 0,-0.34375 0.765625,-0.359375 0.09375,0 0.203125,0 0.203125,-0.203125 C 3.140625,-6.8125 3.015625,-6.8125 3,-6.8125 c -0.390625,0 -0.8125,0.03125 -1.21875,0.03125 -0.359375,0 -0.71875,-0.03125 -1.046875,-0.03125 -0.0625,0 -0.1875,0 -0.1875,0.1875 0,0.125 0.09375,0.125 0.25,0.125 0.5,0 0.515625,0.09375 0.53125,0.375 l 0.453125,6.078125 c 0,0.1875 0.015625,0.265625 0.15625,0.265625 0.109375,0 0.140625,-0.0625 0.234375,-0.203125 l 2.9375,-5.09375 0.359375,5.03125 C 5.5,0.171875 5.515625,0.21875 5.625,0.21875 c 0.140625,0 0.203125,-0.09375 0.25,-0.1875 z m 0,0"
             id="id-9a723989-34d6-422b-b0e7-2481644ac673" />
        </g>
      </g>
      <g
         fill="#3b7d25"
         fill-opacity="1"
         id="id-35413bd7-2e2b-4c13-8eb7-af8c9291c793"
         transform="translate(-214.334,-137.981)">
        <g
           transform="translate(372.664,142.606)"
           id="g731">
          <path
             d="M 3.515625,-1.265625 H 3.28125 c -0.015625,0.15625 -0.09375,0.5625 -0.1875,0.625 C 3.046875,-0.59375 2.515625,-0.59375 2.40625,-0.59375 H 1.125 c 0.734375,-0.640625 0.984375,-0.84375 1.390625,-1.171875 0.515625,-0.40625 1,-0.84375 1,-1.5 0,-0.84375 -0.734375,-1.359375 -1.625,-1.359375 -0.859375,0 -1.453125,0.609375 -1.453125,1.25 0,0.34375 0.296875,0.390625 0.375,0.390625 0.15625,0 0.359375,-0.125 0.359375,-0.375 0,-0.125 -0.046875,-0.375 -0.40625,-0.375 C 0.984375,-4.21875 1.453125,-4.375 1.78125,-4.375 c 0.703125,0 1.0625,0.546875 1.0625,1.109375 0,0.609375 -0.4375,1.078125 -0.65625,1.328125 L 0.515625,-0.265625 C 0.4375,-0.203125 0.4375,-0.1875 0.4375,0 h 2.875 z m 0,0"
             id="id-c59091a1-6caa-421e-a7e6-c2e708f1d512" />
        </g>
      </g>
      <g
         fill="#176fc1"
         fill-opacity="1"
         id="id-0310ac96-9292-47ea-83e7-c78e07be51aa"
         transform="translate(-214.334,-137.981)">
        <g
           transform="translate(371.281,149.183)"
           id="g4964">
          <path
             d="m 3.546875,-2.875 c 0,-0.03125 0.015625,-0.0625 0.015625,-0.09375 0,-0.046875 -0.03125,-0.109375 -0.09375,-0.109375 -0.0625,0 -0.359375,0.234375 -0.5,0.46875 -0.0625,-0.140625 -0.296875,-0.46875 -0.75,-0.46875 -0.890625,0 -1.796875,0.984375 -1.796875,1.984375 0,0.6875 0.453125,1.15625 1.0625,1.15625 0.390625,0 0.71875,-0.25 0.875,-0.375 C 2.34375,-0.296875 2.125,0.578125 2.109375,0.703125 2,1.09375 2,1.09375 1.5625,1.09375 c -0.078125,0 -0.171875,0 -0.171875,0.15625 0,0.046875 0.03125,0.109375 0.09375,0.109375 0.234375,0 0.5,-0.03125 0.734375,-0.03125 0.234375,0 0.53125,0.03125 0.75,0.03125 0.0625,0 0.125,-0.03125 0.125,-0.15625 C 3.09375,1.09375 3,1.09375 2.921875,1.09375 c -0.15625,0 -0.34375,0 -0.34375,-0.078125 0,-0.015625 0,-0.03125 0.03125,-0.15625 z M 2.5,-0.875 C 2.453125,-0.765625 2.453125,-0.75 2.375,-0.640625 2.09375,-0.3125 1.765625,-0.125 1.5,-0.125 c -0.265625,0 -0.515625,-0.1875 -0.515625,-0.671875 0,-0.375 0.203125,-1.140625 0.375,-1.421875 0.3125,-0.5625 0.671875,-0.65625 0.859375,-0.65625 0.484375,0 0.625,0.53125 0.625,0.609375 0,0.03125 -0.015625,0.078125 -0.015625,0.09375 z m 0,0"
             id="id-459c5606-5f16-4efe-8b9d-1af081e48f99" />
        </g>
      </g>
      <g
         fill="#000000"
         fill-opacity="1"
         id="id-418e2d19-b1b0-477b-aa91-13928b8ffcd6"
         transform="translate(-214.334,-137.981)">
        <g
           transform="translate(377.134,146.72)"
           id="g1870">
          <path
             d="m 2.03125,-0.015625 c 0,-0.65625 -0.25,-1.046875 -0.640625,-1.046875 -0.328125,0 -0.53125,0.25 -0.53125,0.53125 C 0.859375,-0.265625 1.0625,0 1.390625,0 1.5,0 1.640625,-0.046875 1.734375,-0.125 1.765625,-0.15625 1.78125,-0.15625 1.78125,-0.15625 c 0.015625,0 0.015625,0 0.015625,0.140625 0,0.75 -0.34375,1.34375 -0.671875,1.671875 -0.109375,0.109375 -0.109375,0.125 -0.109375,0.15625 0,0.078125 0.046875,0.109375 0.09375,0.109375 0.109375,0 0.921875,-0.765625 0.921875,-1.9375 z m 0,0"
             id="id-33c2ffa6-67e0-436c-bc9d-46eef3186a55" />
        </g>
      </g>
      <g
         fill="#000000"
         fill-opacity="1"
         id="id-4b01123e-e47d-4010-803b-c21d110c61fe"
         transform="translate(-214.334,-137.981)">
        <g
           transform="translate(381.565,146.72)"
           id="g6858">
          <path
             d="m 1.90625,-0.53125 c 0,-0.28125 -0.234375,-0.53125 -0.515625,-0.53125 -0.296875,0 -0.53125,0.25 -0.53125,0.53125 C 0.859375,-0.234375 1.09375,0 1.390625,0 1.671875,0 1.90625,-0.234375 1.90625,-0.53125 Z m 0,0"
             id="id-90c5e364-e045-4636-b25b-949080fae674" />
        </g>
      </g>
      <g
         fill="#000000"
         fill-opacity="1"
         id="id-73f493ed-3b0a-4cc1-855e-4ad5f5b5758f"
         transform="translate(-214.334,-137.981)">
        <g
           transform="translate(385.987,146.72)"
           id="g459">
          <path
             d="m 1.90625,-0.53125 c 0,-0.28125 -0.234375,-0.53125 -0.515625,-0.53125 -0.296875,0 -0.53125,0.25 -0.53125,0.53125 C 0.859375,-0.234375 1.09375,0 1.390625,0 1.671875,0 1.90625,-0.234375 1.90625,-0.53125 Z m 0,0"
             id="id-bead8cbd-fb87-460e-9a48-dc1219b790d1" />
        </g>
      </g>
      <g
         fill="#000000"
         fill-opacity="1"
         id="id-9bd9a9f4-ff3d-493b-bf0c-70fc75d3744d"
         transform="translate(-214.334,-137.981)">
        <g
           transform="translate(390.418,146.72)"
           id="g9329">
          <path
             d="m 1.90625,-0.53125 c 0,-0.28125 -0.234375,-0.53125 -0.515625,-0.53125 -0.296875,0 -0.53125,0.25 -0.53125,0.53125 C 0.859375,-0.234375 1.09375,0 1.390625,0 1.671875,0 1.90625,-0.234375 1.90625,-0.53125 Z m 0,0"
             id="id-b476b75f-f4dc-48b4-a05c-794129995934" />
        </g>
      </g>
      <g
         fill="#000000"
         fill-opacity="1"
         id="id-9b86b86e-6bff-4dd6-abee-165526b9a0b6"
         transform="translate(-214.334,-137.981)">
        <g
           transform="translate(393.184,138.65)"
           id="g7517">
          <path
             d="M 2.140625,11.546875 V -0.40625 H 0.21875 V 0 H 1.734375 V 11.15625 H 0.21875 v 0.390625 z m 0,0"
             id="id-40787c0c-0698-493e-9808-3e7e62a9370f" />
        </g>
      </g>
    </g>
  </g>
</svg>
