<?xml version="1.0" encoding="UTF-8" standalone="no"?>
<svg
   width="73.780708mm"
   height="43.775139mm"
   viewBox="0 0 73.780708 43.775137"
   version="1.1"
   id="svg10970"
   inkscape:version="1.2.1 (9c6d41e410, 2022-07-14)"
   sodipodi:docname="intro.svg"
   xmlns:inkscape="http://www.inkscape.org/namespaces/inkscape"
   xmlns:sodipodi="http://sodipodi.sourceforge.net/DTD/sodipodi-0.dtd"
   xmlns="http://www.w3.org/2000/svg"
   xmlns:svg="http://www.w3.org/2000/svg"
   xmlns:rdf="http://www.w3.org/1999/02/22-rdf-syntax-ns#"
   xmlns:cc="http://creativecommons.org/ns#"
   xmlns:dc="http://purl.org/dc/elements/1.1/">
  <defs
     id="defs10964">
    <filter
       inkscape:collect="always"
       style="color-interpolation-filters:sRGB"
       id="filter2807"
       x="-0.15135395"
       width="1.3027079"
       y="-0.28194694"
       height="1.5638939">
      <feGaussianBlur
         inkscape:collect="always"
         stdDeviation="4.8685119"
         id="feGaussianBlur2809" />
    </filter>
  </defs>
  <sodipodi:namedview
     id="base"
     pagecolor="#ffffff"
     bordercolor="#666666"
     borderopacity="1.0"
     inkscape:pageopacity="0.0"
     inkscape:pageshadow="2"
     inkscape:zoom="0.5867234"
     inkscape:cx="-38.348564"
     inkscape:cy="181.51654"
     inkscape:document-units="mm"
     inkscape:current-layer="layer1"
     inkscape:document-rotation="0"
     showgrid="false"
     inkscape:window-width="1350"
     inkscape:window-height="1230"
     inkscape:window-x="641"
     inkscape:window-y="123"
     inkscape:window-maximized="0"
     inkscape:showpageshadow="2"
     inkscape:pagecheckerboard="0"
     inkscape:deskcolor="#d1d1d1" />
  <metadata
     id="metadata10967">
    <rdf:RDF>
      <cc:Work
         rdf:about="">
        <dc:format>image/svg+xml</dc:format>
        <dc:type
           rdf:resource="http://purl.org/dc/dcmitype/StillImage" />
        <dc:title />
      </cc:Work>
    </rdf:RDF>
  </metadata>
  <g
     inkscape:label="Layer 1"
     inkscape:groupmode="layer"
     id="layer1"
     transform="translate(-87.080932,1.6938169)">
    <path
       id="rect2765"
       style="opacity:0.324759;fill:#ecee80;stroke-width:0.765;filter:url(#filter2807)"
       d="M 87.08564,-1.8221642 H 164.285 V 39.619776 H 87.08564 Z" />
    <path
       style="color:#000000;fill:#4e71be;-inkscape-stroke:none"
       d="M 87.080078,6.5605469 V 6.9433594 26.009766 h 12.3125 V 6.5605469 Z m 0.765625,0.765625 H 98.628906 V 25.244141 H 87.845703 Z"
       id="rect39479-0" />
    <g
       aria-label="1"
       id="text2174-48"
       style="font-size:12.5087px;line-height:1.25;font-family:JuliaMono;-inkscape-font-specification:JuliaMono;fill:#4d71be;stroke-width:0.312716">
      <path
         d="m 91.075767,20.098368 h 2.21404 v -6.517033 q -0.506603,0.506602 -1.20709,1.000696 -0.694233,0.487839 -1.20709,0.625435 v -1.06324 q 0.625435,-0.262682 1.35094,-0.925643 0.731759,-0.662962 1.200835,-1.263379 h 0.913135 v 8.143164 h 2.051427 v 0.925644 h -5.316197 z"
         id="path259" />
    </g>
    <path
       style="color:#000000;fill:#4e71be;-inkscape-stroke:none"
       d="M 98.628906,6.5605469 V 6.9433594 26.009766 H 110.93945 V 6.5605469 Z m 0.763672,0.765625 H 110.17578 V 25.244141 H 99.392578 Z"
       id="rect39479-4-5" />
    <g
       aria-label="2"
       id="text2174-8-5"
       style="font-size:12.5087px;line-height:1.25;font-family:JuliaMono;-inkscape-font-specification:JuliaMono;fill:#4d71be;stroke-width:0.312716">
      <path
         d="m 102.66674,19.716852 q 1.05073,-0.950661 1.87631,-1.782489 0.82557,-0.838083 1.47602,-1.813762 0.65671,-0.975679 0.65671,-1.776235 0,-0.481585 -0.19388,-0.838083 -0.18763,-0.362753 -0.52537,-0.556637 -0.33773,-0.193885 -0.76928,-0.193885 -0.47534,0 -0.84434,0.218902 -0.36901,0.212648 -0.5754,0.606672 -0.2064,0.394024 -0.2064,0.913135 h -1.10076 q 0.0188,-0.850592 0.38777,-1.451009 0.36901,-0.600418 0.98819,-0.906881 0.62543,-0.306463 1.38846,-0.306463 0.70674,0 1.29465,0.268937 0.59417,0.268937 0.95066,0.81932 0.3565,0.544128 0.3565,1.338431 0,0.838083 -0.5754,1.801253 -0.56914,0.956915 -1.31967,1.776235 -0.74426,0.81932 -1.82627,1.882559 l -0.45656,0.444059 h 4.25295 v 0.925644 h -5.51633 v -1.113274 z"
         id="path263" />
    </g>
    <g
       id="rect39479-46-2">
      <path
         style="color:#000000;fill:#f0c22a;stroke-width:0.765;-inkscape-stroke:none"
         d="m 110.55781,6.9434762 h 11.54718 V 25.627213 h -11.54718 z"
         id="path358" />
      <path
         style="color:#000000;fill:#4e71be;-inkscape-stroke:none"
         d="M 110.17578,6.5605469 V 6.9433594 26.009766 h 12.3125 V 6.5605469 Z m 0.76367,0.765625 h 10.78321 V 25.244141 h -10.78321 z"
         id="path360" />
    </g>
    <g
       aria-label="3"
       id="text2174-0-1"
       style="font-size:12.5087px;line-height:1.25;font-family:JuliaMono;-inkscape-font-specification:JuliaMono;fill:#4d71be;stroke-width:0.312716">
      <path
         d="m 114.89565,18.497254 q 0,0.53162 0.25017,0.931898 0.25643,0.400279 0.66296,0.612927 0.41279,0.206393 0.87561,0.206393 0.48784,0 0.91939,-0.212648 0.43155,-0.218902 0.69423,-0.612926 0.26269,-0.400278 0.26269,-0.925644 0,-0.706741 -0.37526,-1.213344 -0.36901,-0.512857 -1.03197,-0.775539 -0.65671,-0.262683 -1.49479,-0.262683 v -0.938152 l 2.51425,-2.41418 h -4.1654 v -0.938152 h 5.47881 v 1.063239 l -2.50174,2.451706 q 1.40723,0.250174 2.03892,1.075748 0.63794,0.81932 0.63794,1.951357 0,0.838083 -0.44406,1.444755 -0.4378,0.600418 -1.13829,0.913135 -0.70049,0.306463 -1.45726,0.306463 -0.74427,0 -1.38847,-0.293954 -0.6442,-0.300209 -1.04447,-0.900627 -0.39403,-0.606672 -0.39403,-1.469772 z"
         id="path267" />
    </g>
    <path
       style="color:#000000;fill:#4e71be;-inkscape-stroke:none"
       d="M 121.72266,6.5605469 V 6.9433594 26.009766 h 12.3125 V 6.5605469 Z m 0.76562,0.765625 h 10.78125 V 25.244141 h -10.78125 z"
       id="rect39479-2-2" />
    <g
       aria-label="..."
       id="text2174-6-4"
       style="font-size:4.58611px;line-height:1.25;font-family:JuliaMono;-inkscape-font-specification:JuliaMono;fill:#4d71be;stroke-width:0.312716">
      <path
         d="m 125.36316,20.586574 q -0.19491,0 -0.30956,-0.112359 -0.11236,-0.114653 -0.11236,-0.309563 0,-0.197203 0.11236,-0.309562 0.11465,-0.11236 0.30956,-0.11236 0.1972,0 0.30956,0.11236 0.11236,0.112359 0.11236,0.309562 0,0.19491 -0.11236,0.309563 -0.11236,0.112359 -0.30956,0.112359 z"
         id="path271" />
      <path
         d="m 128.11483,20.586574 q -0.19491,0 -0.30956,-0.112359 -0.11236,-0.114653 -0.11236,-0.309563 0,-0.197203 0.11236,-0.309562 0.11465,-0.11236 0.30956,-0.11236 0.1972,0 0.30956,0.11236 0.11236,0.112359 0.11236,0.309562 0,0.19491 -0.11236,0.309563 -0.11236,0.112359 -0.30956,0.112359 z"
         id="path273" />
      <path
         d="m 130.8665,20.586574 q -0.19491,0 -0.30957,-0.112359 -0.11236,-0.114653 -0.11236,-0.309563 0,-0.197203 0.11236,-0.309562 0.11466,-0.11236 0.30957,-0.11236 0.1972,0 0.30956,0.11236 0.11236,0.112359 0.11236,0.309562 0,0.19491 -0.11236,0.309563 -0.11236,0.112359 -0.30956,0.112359 z"
         id="path275" />
    </g>
    <path
       style="color:#000000;fill:#4e71be;-inkscape-stroke:none"
       d="M 133.46094,6.5742187 V 6.9570312 26.0625 h 27.40039 V 6.5742187 Z m 0.76562,0.7636719 H 160.0957 V 25.296875 h -25.86914 z"
       id="rect39479-1-62" />
    <g
       aria-label="256"
       id="text2174-3-51"
       style="font-size:12.5087px;line-height:1.25;font-family:JuliaMono;-inkscape-font-specification:JuliaMono;fill:#4d71be;stroke-width:0.312716">
      <path
         d="m 137.30828,19.716852 q 1.05073,-0.950661 1.8763,-1.782489 0.82557,-0.838083 1.47603,-1.813762 0.6567,-0.975679 0.6567,-1.776235 0,-0.481585 -0.19388,-0.838083 -0.18763,-0.362753 -0.52537,-0.556637 -0.33773,-0.193885 -0.76928,-0.193885 -0.47533,0 -0.84434,0.218902 -0.36901,0.212648 -0.5754,0.606672 -0.20639,0.394024 -0.20639,0.913135 h -1.10077 q 0.0188,-0.850592 0.38777,-1.451009 0.36901,-0.600418 0.98819,-0.906881 0.62543,-0.306463 1.38846,-0.306463 0.70675,0 1.29466,0.268937 0.59416,0.268937 0.95066,0.81932 0.35649,0.544128 0.35649,1.338431 0,0.838083 -0.5754,1.801253 -0.56914,0.956915 -1.31966,1.776235 -0.74427,0.81932 -1.82627,1.882559 l -0.45657,0.444059 h 4.25296 v 0.925644 h -5.51634 v -1.113274 z"
         id="path279" />
      <path
         d="m 147.25895,21.13659 q -0.74427,0 -1.35094,-0.24392 -0.60667,-0.250174 -0.96942,-0.769285 -0.3565,-0.525365 -0.3565,-1.313413 h 1.10077 q 0,0.706741 0.4378,1.069494 0.44406,0.356497 1.12578,0.356497 0.56915,0 0.96317,-0.300208 0.40028,-0.306463 0.59417,-0.81932 0.19388,-0.512857 0.19388,-1.132038 0,-0.5754 -0.18138,-1.05073 -0.18137,-0.481585 -0.55038,-0.763031 -0.36275,-0.2877 -0.89437,-0.2877 -0.56915,0 -1.00695,0.356498 -0.43155,0.356498 -0.56915,0.969424 h -1.10076 l 0.65045,-5.253654 h 4.51564 v 0.96317 h -3.51494 l -0.41905,2.914527 q 0.35025,-0.444059 0.74427,-0.681724 0.40028,-0.24392 0.90063,-0.24392 0.78805,0 1.36345,0.412787 0.5754,0.406533 0.87561,1.113275 0.30021,0.706741 0.30021,1.576096 0,0.919389 -0.36276,1.632385 -0.3565,0.706742 -1.00695,1.100766 -0.6442,0.394024 -1.48228,0.394024 z"
         id="path281" />
      <path
         d="m 154.95181,21.174116 q -1.68868,0 -2.35164,-1.219598 -0.66296,-1.219599 -0.66296,-3.333569 0,-2.11397 0.70674,-3.452401 0.70674,-1.338431 2.34538,-1.338431 0.67547,0 1.16957,0.218902 0.49409,0.218902 0.86935,0.581655 l -0.7255,0.662961 q -0.45032,-0.537874 -1.33843,-0.537874 -0.80682,0 -1.23211,0.612926 -0.4253,0.612926 -0.56289,1.444755 -0.1376,0.825574 -0.15636,1.807507 0.34399,-0.744268 0.85059,-1.144546 0.51286,-0.406533 1.20084,-0.406533 0.77553,0 1.38221,0.437805 0.61292,0.43155 0.9444,1.163309 0.33774,0.725505 0.33774,1.563587 0,0.856846 -0.35024,1.526062 -0.34399,0.669215 -0.97568,1.044476 -0.63169,0.369007 -1.45101,0.369007 z m -1.77624,-2.88951 q 0,0.569146 0.2064,1.019459 0.21264,0.444059 0.60667,0.694233 0.40028,0.250174 0.93815,0.250174 0.82557,0 1.26338,-0.537874 0.4378,-0.544128 0.4378,-1.451009 0,-0.587909 -0.18137,-1.075748 -0.18138,-0.48784 -0.55664,-0.77554 -0.36901,-0.2877 -0.91314,-0.2877 -0.55038,0 -0.96317,0.293955 -0.40653,0.2877 -0.62543,0.781793 -0.21265,0.494094 -0.21265,1.088257 z"
         id="path283" />
    </g>
    <path
       style="color:#000000;fill:#4d71be;-inkscape-stroke:none"
       d="m 89.175781,28.195312 v 6.390625 h 70.126949 v -6.390625 h -0.86328 v 5.525391 H 90.041016 v -5.525391 z"
       id="path2461-7" />
    <g
       aria-label="blockIdx().x = 3"
       id="text2465-2"
       style="font-size:5.72925px;line-height:1.25;fill:#4d71be;stroke-width:0.143232">
      <path
         d="m 98.610926,40.746406 q -0.289327,0 -0.492716,-0.103126 -0.200523,-0.105992 -0.360942,-0.349485 l -0.01719,0.395319 h -0.469799 q 0.01719,-0.326568 0.01719,-0.681781 v -3.844327 h 0.481257 v 1.936487 q 0.157554,-0.277869 0.386724,-0.426829 0.22917,-0.151826 0.518498,-0.151826 0.37813,0 0.630217,0.217712 0.252087,0.217711 0.375266,0.598707 0.123179,0.380995 0.123179,0.87371 0,0.403912 -0.137502,0.756261 -0.134638,0.349484 -0.403912,0.564331 -0.269275,0.214847 -0.65027,0.214847 z m -0.859388,-1.489605 q 0,0.283598 0.07735,0.535685 0.07734,0.252087 0.249223,0.415371 0.171877,0.160419 0.435423,0.160419 0.283597,0 0.464069,-0.157555 0.180471,-0.157554 0.260681,-0.409641 0.08307,-0.254952 0.08307,-0.555737 0,-0.587248 -0.177607,-0.948191 -0.177607,-0.363808 -0.567196,-0.363808 -0.41537,0 -0.621623,0.369537 -0.203389,0.366672 -0.203389,0.95392 z"
         style="font-family:JuliaMono;-inkscape-font-specification:JuliaMono"
         id="path286" />
      <path
         d="m 102.57843,40.757865 q -0.35807,0 -0.57006,-0.09453 -0.20911,-0.0974 -0.30651,-0.30938 -0.0974,-0.214846 -0.0974,-0.575789 v -3.242756 h -1.00262 v -0.372401 h 1.48388 v 3.597969 q 0,0.240629 0.0602,0.363807 0.063,0.120315 0.18906,0.163284 0.12604,0.0401 0.35235,0.0401 0.12604,0 0.29219,-0.0401 0.16901,-0.04011 0.29792,-0.108856 v 0.452611 q -0.20912,0.07162 -0.35808,0.0974 -0.14896,0.02865 -0.34089,0.02865 z"
         style="font-family:JuliaMono;-inkscape-font-specification:JuliaMono"
         id="path288" />
      <path
         d="m 105.3829,40.723489 q -0.39245,0 -0.68178,-0.197659 -0.28932,-0.200524 -0.44688,-0.567196 -0.15469,-0.366672 -0.15469,-0.862252 0,-0.492715 0.15469,-0.856523 0.15756,-0.366672 0.44688,-0.561466 0.29219,-0.197659 0.68751,-0.197659 0.39246,0 0.67892,0.197659 0.28933,0.194794 0.44402,0.561466 0.15469,0.363808 0.15469,0.856523 0,0.49558 -0.15469,0.862252 -0.15469,0.366672 -0.44402,0.567196 -0.28933,0.197659 -0.68465,0.197659 z m -0.79063,-1.598461 q 0,0.363808 0.0945,0.633082 0.0945,0.266411 0.26927,0.409642 0.17475,0.143231 0.40965,0.143231 0.24635,0 0.42969,-0.143231 0.18334,-0.146096 0.28073,-0.415371 0.0974,-0.269274 0.0974,-0.633082 0,-0.375266 -0.0974,-0.65027 -0.0974,-0.275004 -0.28073,-0.4211 -0.18334,-0.14896 -0.42969,-0.14896 -0.2349,0 -0.40965,0.14896 -0.17474,0.148961 -0.26927,0.42683 -0.0945,0.275004 -0.0945,0.650269 z"
         style="font-family:JuliaMono;-inkscape-font-specification:JuliaMono"
         id="path290" />
      <path
         d="m 109.0439,40.71776 q -0.42683,0 -0.75626,-0.189065 -0.32657,-0.189066 -0.50991,-0.550008 -0.18333,-0.363808 -0.18333,-0.859388 0,-0.492715 0.19193,-0.859387 0.19193,-0.366672 0.52995,-0.564331 0.34089,-0.19766 0.77345,-0.19766 0.31797,0 0.57579,0.134638 0.25782,0.131773 0.39818,0.317973 l -0.30365,0.320838 q -0.1375,-0.14896 -0.28932,-0.237764 -0.15183,-0.0888 -0.37527,-0.0888 -0.29219,0 -0.52136,0.14896 -0.22631,0.146096 -0.35522,0.409642 -0.12604,0.260681 -0.12604,0.598706 0,0.332297 0.12032,0.601572 0.12031,0.26641 0.33802,0.421099 0.21771,0.151826 0.49845,0.151826 0.2263,0 0.4125,-0.114585 0.1862,-0.11745 0.34949,-0.297921 l 0.29219,0.326567 q -0.13178,0.146096 -0.26928,0.257816 -0.13463,0.11172 -0.33516,0.19193 -0.20052,0.07735 -0.45547,0.07735 z"
         style="font-family:JuliaMono;-inkscape-font-specification:JuliaMono"
         id="path292" />
      <path
         d="m 111.51893,39.271124 v 1.41799 h -0.48125 v -4.526108 h 0.48125 v 2.804468 l 1.25471,-1.429448 h 0.59584 l -1.38648,1.569815 1.49534,1.581273 h -0.61303 z"
         style="font-family:JuliaMono;-inkscape-font-specification:JuliaMono"
         id="path294" />
      <path
         d="m 114.61846,40.288066 h 0.83074 v -3.351611 h -0.72188 v -0.401048 h 1.93075 v 0.401048 h -0.70469 v 3.351611 h 0.81355 v 0.401048 h -2.14847 z"
         style="font-family:JuliaMono;-inkscape-font-specification:JuliaMono"
         id="path296" />
      <path
         d="m 119.04144,40.723489 q -0.40104,0 -0.67318,-0.237764 -0.26928,-0.240628 -0.40105,-0.615894 -0.12891,-0.378131 -0.12891,-0.796366 0,-0.389589 0.14323,-0.753396 0.14323,-0.363808 0.41824,-0.592978 0.275,-0.22917 0.64454,-0.22917 0.26927,0 0.50704,0.111721 0.24063,0.108856 0.37813,0.363807 v -1.810443 h 0.48125 v 3.838598 q 0,0.100261 0.003,0.234899 0.003,0.131773 0.006,0.203388 l 0.009,0.249223 h -0.44115 l -0.0573,-0.423965 q -0.17474,0.252087 -0.37527,0.355214 -0.20052,0.103126 -0.51277,0.103126 z m -0.72761,-1.638565 q 0,0.297921 0.0945,0.590112 0.0974,0.292192 0.28933,0.484122 0.19193,0.19193 0.46407,0.19193 0.2836,0 0.45547,-0.19193 0.17188,-0.194795 0.24063,-0.478392 0.0716,-0.283598 0.0716,-0.584384 0,-0.300785 -0.0831,-0.575789 -0.0831,-0.275004 -0.26927,-0.452611 -0.1862,-0.180472 -0.47839,-0.180472 -0.26068,0 -0.43829,0.183336 -0.17761,0.180472 -0.26355,0.45834 -0.0831,0.275004 -0.0831,0.555738 z"
         style="font-family:JuliaMono;-inkscape-font-specification:JuliaMono"
         id="path298" />
      <path
         d="m 122.30139,39.11357 -0.95105,-1.575544 h 0.53854 l 0.68179,1.168767 0.73334,-1.168767 h 0.49844 l -0.95105,1.541168 0.99689,1.60992 h -0.55001 l -0.72761,-1.220331 -0.76772,1.220331 h -0.50991 z"
         style="font-family:JuliaMono;-inkscape-font-specification:JuliaMono"
         id="path300" />
      <path
         d="m 126.5926,42.081321 q -0.39818,-0.544278 -0.66459,-0.996889 -0.26355,-0.452611 -0.41824,-0.931003 -0.15469,-0.481257 -0.15469,-0.988296 0,-0.796366 0.3323,-1.661482 0.33516,-0.865117 0.91095,-1.615649 h 0.41251 q -0.52423,0.773449 -0.80783,1.587002 -0.28073,0.813554 -0.28073,1.598461 0,0.455476 0.1375,0.982566 0.14037,0.527091 0.38672,1.048453 0.24636,0.524227 0.56434,0.976837 z"
         style="font-family:JuliaMono;-inkscape-font-specification:JuliaMono"
         id="path302" />
      <path
         d="m 128.62076,42.081321 q 0.31797,-0.45261 0.56433,-0.976837 0.24636,-0.521362 0.38386,-1.048453 0.14036,-0.52709 0.14036,-0.982566 0,-0.784907 -0.28359,-1.598461 -0.28074,-0.813553 -0.80496,-1.587002 h 0.4125 q 0.57579,0.750532 0.90809,1.615649 0.33516,0.865116 0.33516,1.661482 0,0.507039 -0.15469,0.988296 -0.15469,0.478392 -0.4211,0.931003 -0.26355,0.452611 -0.66173,0.996889 z"
         style="font-family:JuliaMono;-inkscape-font-specification:JuliaMono"
         id="path304" />
      <path
         d="m 132.88332,40.803699 q -0.24349,0 -0.38672,-0.140367 -0.14037,-0.143231 -0.14037,-0.386724 0,-0.246358 0.14037,-0.386725 0.14323,-0.140366 0.38672,-0.140366 0.24636,0 0.38673,0.140366 0.14036,0.140367 0.14036,0.386725 0,0.243493 -0.14036,0.386724 -0.14037,0.140367 -0.38673,0.140367 z"
         style="font-family:JuliaMono;-inkscape-font-specification:JuliaMono"
         id="path306" />
      <path
         d="m 136.0516,39.11357 -0.95105,-1.575544 h 0.53854 l 0.68179,1.168767 0.73334,-1.168767 h 0.49844 l -0.95105,1.541168 0.99689,1.60992 h -0.55001 l -0.72761,-1.220331 -0.76772,1.220331 h -0.50991 z"
         style="font-family:JuliaMono;-inkscape-font-specification:JuliaMono"
         id="path308" />
      <path
         d="m 141.88398,38.259912 h 2.62973 v 0.544278 h -2.62973 z m 0,1.151579 h 2.62973 v 0.544279 h -2.62973 z"
         style="font-family:JuliaMono;-inkscape-font-specification:JuliaMono"
         id="path310" />
      <path
         d="m 149.23461,39.531805 q 0,0.243493 0.11459,0.426829 0.11745,0.183336 0.30365,0.280733 0.18906,0.09453 0.40104,0.09453 0.22344,0 0.4211,-0.0974 0.19766,-0.100262 0.31798,-0.280733 0.12031,-0.183336 0.12031,-0.423965 0,-0.323702 -0.17188,-0.555737 -0.16901,-0.234899 -0.47266,-0.355214 -0.30079,-0.120314 -0.68464,-0.120314 v -0.429694 l 1.15157,-1.105745 h -1.90784 v -0.429694 h 2.50942 v 0.486987 l -1.14585,1.122933 q 0.64454,0.114585 0.93386,0.492715 0.2922,0.375266 0.2922,0.893763 0,0.38386 -0.20339,0.661728 -0.20053,0.275004 -0.52137,0.418236 -0.32083,0.140366 -0.66745,0.140366 -0.34089,0 -0.63595,-0.134637 -0.29506,-0.137502 -0.47839,-0.412506 -0.18047,-0.277869 -0.18047,-0.673187 z"
         style="font-family:JuliaMono;-inkscape-font-specification:JuliaMono"
         id="path312" />
    </g>
    <g
       aria-label="threadIdx().x"
       id="text2465-9-8"
       style="font-size:5.72925px;line-height:1.25;fill:#4d71be;stroke-width:0.143232">
      <path
         d="m 103.54321,3.1531286 q -0.41251,0 -0.61589,-0.1890653 -0.20339,-0.1890652 -0.20339,-0.5442787 V 0.36871308 h -0.83074 v -0.412506 h 0.83074 V -1.1896429 h 0.48125 v 1.14584998 h 0.87085 v 0.412506 h -0.87085 V 2.2479071 q 0,0.1890652 0.0487,0.2893271 0.0487,0.1002619 0.16042,0.1403666 0.11172,0.040105 0.31798,0.040105 0.0917,0 0.26354,-0.028646 0.17188,-0.031511 0.31511,-0.063022 v 0.435423 q -0.49558,0.091668 -0.76772,0.091668 z"
         style="font-family:JuliaMono;-inkscape-font-specification:JuliaMono"
         id="path315" />
      <path
         d="m 105.27058,-1.4188129 h 0.49845 v 1.82763073 q 0.1776,-0.24349312 0.44115,-0.37526587 0.26354,-0.13463737 0.55001,-0.13463737 0.54428,0 0.78777,0.29792099 0.24349,0.29505638 0.24349,0.85365822 v 2.0568008 h -0.49844 V 1.2682053 q 0,-0.29792097 -0.0458,-0.49844472 -0.0458,-0.20052375 -0.19193,-0.32656725 -0.14609,-0.1260435 -0.43256,-0.1260435 -0.43542,0 -0.64454,0.39531825 -0.20911,0.39245362 -0.20911,1.03126502 v 1.3635615 h -0.49845 z"
         style="font-family:JuliaMono;-inkscape-font-specification:JuliaMono"
         id="path317" />
      <path
         d="m 109.26674,1.4629998 q 0,-0.4955801 -0.0172,-0.7018331 -0.0143,-0.206253 -0.0458,-0.38672437 h -0.50417 v -0.41823525 h 0.87658 l 0.0458,0.56719575 q 0.13177,-0.31510875 0.3724,-0.4697985 0.24349,-0.15468974 0.50417,-0.15468974 0.20339,0 0.42683,0.08880337 0.22631,0.08880337 0.35808,0.21484687 l -0.26354,0.34948425 q -0.0802,-0.0859387 -0.2435,-0.160419 -0.16042,-0.0744802 -0.35807,-0.0744802 -0.2435,0 -0.38959,0.15182513 -0.1461,0.15182512 -0.21485,0.46693387 -0.0659,0.31224407 -0.0659,0.81355347 v 1.3578323 h -0.48125 z"
         style="font-family:JuliaMono;-inkscape-font-specification:JuliaMono"
         id="path319" />
      <path
         d="m 113.52644,3.1531286 q -0.41538,0 -0.73621,-0.2005238 -0.32084,-0.2005237 -0.49845,-0.5643311 -0.17474,-0.3638074 -0.17474,-0.8336059 0,-0.4783923 0.17761,-0.85365822 0.18047,-0.3781305 0.49271,-0.59011275 0.31225,-0.21198224 0.69324,-0.21198224 0.36667,0 0.64454,0.20338837 0.27787,0.20052375 0.43256,0.59870662 0.15469,0.39818292 0.15469,0.96824322 h -2.09118 q 0,0.5070386 0.22917,0.7677195 0.23204,0.2578163 0.67033,0.2578163 0.28646,0 0.52995,-0.094533 0.24349,-0.094533 0.381,-0.2033883 l 0.24063,0.3781305 q -0.10886,0.094533 -0.2922,0.183336 -0.18333,0.085939 -0.40964,0.1403666 -0.22344,0.054428 -0.44401,0.054428 z m 0.72761,-1.9192988 q 0,-0.26068085 -0.10313,-0.4612046 -0.10026,-0.20052375 -0.28073,-0.30937949 -0.17761,-0.11172038 -0.40105,-0.11172038 -0.2263,0 -0.41823,0.11172038 -0.19193,0.10885574 -0.30652,0.31224412 -0.11172,0.20052375 -0.11172,0.45833997 z"
         style="font-family:JuliaMono;-inkscape-font-specification:JuliaMono"
         id="path321" />
      <path
         d="m 116.53429,3.1645871 q -0.45834,0 -0.72475,-0.2205762 -0.26641,-0.2205761 -0.26641,-0.6445406 0,-0.618759 0.50418,-0.847929 0.50704,-0.22917 1.20314,-0.22917 h 0.3323 V 1.0676816 q 0,-0.17760677 -0.0372,-0.33516115 -0.0372,-0.15755437 -0.1948,-0.28932712 -0.15469,-0.13177275 -0.47553,-0.13177275 -0.16901,0 -0.31224,0.0401048 -0.14037,0.0372401 -0.24922,0.0945326 -0.10599,0.0572925 -0.25209,0.14896049 l -0.11745,0.0716156 -0.22344,-0.34948425 q 0.19479,-0.1260435 0.33516,-0.20052375 0.14037,-0.07734487 0.36381,-0.14036662 0.2263,-0.06588637 0.50704,-0.06588637 0.5099,0 0.75912,0.20625299 0.24923,0.20338838 0.30652,0.43828762 0.0602,0.23489925 0.0602,0.4726631 v 1.191684 q 0,0.4067768 0.0516,0.8880338 h -0.45834 q -0.006,-0.065886 -0.0115,-0.1919299 l -0.0172,-0.2377639 q -0.15182,0.2549516 -0.44974,0.3724013 -0.29506,0.114585 -0.63309,0.114585 z m -0.51563,-0.9080862 q 0,0.2721394 0.16901,0.4010475 0.16902,0.1289082 0.46694,0.1289082 0.48698,0 0.70756,-0.3151088 0.22058,-0.3179734 0.22058,-0.8536582 -0.20053,-0.011459 -0.27787,-0.011459 -0.45261,0 -0.73621,0.068751 -0.2836,0.065886 -0.41824,0.2091176 -0.13177,0.1432312 -0.13177,0.3724012 z"
         style="font-family:JuliaMono;-inkscape-font-specification:JuliaMono"
         id="path323" />
      <path
         d="m 120.16951,3.1416701 q -0.40105,0 -0.67319,-0.2377639 -0.26928,-0.2406285 -0.40105,-0.6158944 -0.12891,-0.3781305 -0.12891,-0.7963657 0,-0.389589 0.14323,-0.7533964 0.14324,-0.36380737 0.41824,-0.59297737 0.275,-0.22917 0.64454,-0.22917 0.26927,0 0.50704,0.11172038 0.24063,0.10885575 0.37813,0.36380737 V -1.4188129 h 0.48126 v 3.8385975 q 0,0.1002618 0.003,0.2348992 0.003,0.1317728 0.006,0.2033884 l 0.009,0.2492224 h -0.44115 l -0.0573,-0.4239645 q -0.17474,0.252087 -0.37527,0.3552135 -0.20052,0.1031265 -0.51276,0.1031265 z m -0.72762,-1.6385655 q 0,0.297921 0.0945,0.5901127 0.0974,0.2921918 0.28933,0.4841216 0.19193,0.1919299 0.46407,0.1919299 0.2836,0 0.45548,-0.1919299 0.17187,-0.1947945 0.24062,-0.4783923 0.0716,-0.2835979 0.0716,-0.5843835 0,-0.3007857 -0.0831,-0.57578965 -0.0831,-0.275004 -0.26928,-0.45261074 -0.1862,-0.18047138 -0.47839,-0.18047138 -0.26068,0 -0.43829,0.183336 -0.17761,0.18047137 -0.26355,0.45834 -0.0831,0.27500397 -0.0831,0.55573727 z"
         style="font-family:JuliaMono;-inkscape-font-specification:JuliaMono"
         id="path325" />
      <path
         d="m 122.62163,2.7062471 h 0.83074 v -3.35161126 h -0.72189 V -1.0464117 h 1.93076 v 0.40104754 h -0.7047 V 2.7062471 h 0.81355 v 0.4010475 h -2.14846 z"
         style="font-family:JuliaMono;-inkscape-font-specification:JuliaMono"
         id="path327" />
      <path
         d="m 127.04461,3.1416701 q -0.40105,0 -0.67319,-0.2377639 -0.26927,-0.2406285 -0.40104,-0.6158944 -0.12891,-0.3781305 -0.12891,-0.7963657 0,-0.389589 0.14323,-0.7533964 0.14323,-0.36380737 0.41823,-0.59297737 0.27501,-0.22917 0.64454,-0.22917 0.26928,0 0.50704,0.11172038 0.24063,0.10885575 0.37813,0.36380737 V -1.4188129 h 0.48126 v 3.8385975 q 0,0.1002618 0.003,0.2348992 0.003,0.1317728 0.006,0.2033884 l 0.009,0.2492224 h -0.44115 l -0.0573,-0.4239645 q -0.17474,0.252087 -0.37526,0.3552135 -0.20053,0.1031265 -0.51277,0.1031265 z M 126.317,1.5031046 q 0,0.297921 0.0945,0.5901127 0.0974,0.2921918 0.28933,0.4841216 0.19193,0.1919299 0.46406,0.1919299 0.2836,0 0.45548,-0.1919299 0.17188,-0.1947945 0.24063,-0.4783923 0.0716,-0.2835979 0.0716,-0.5843835 0,-0.3007857 -0.0831,-0.57578965 -0.0831,-0.275004 -0.26927,-0.45261074 -0.18621,-0.18047138 -0.4784,-0.18047138 -0.26068,0 -0.43828,0.183336 -0.17761,0.18047137 -0.26355,0.45834 -0.0831,0.27500397 -0.0831,0.55573727 z"
         style="font-family:JuliaMono;-inkscape-font-specification:JuliaMono"
         id="path329" />
      <path
         d="m 130.30456,1.5317508 -0.95106,-1.57554372 h 0.53855 l 0.68178,1.16876702 0.73334,-1.16876702 h 0.49845 l -0.95106,1.54116822 0.99689,1.6099193 h -0.55001 l -0.72761,-1.2203303 -0.76772,1.2203303 h -0.5099 z"
         style="font-family:JuliaMono;-inkscape-font-specification:JuliaMono"
         id="path331" />
      <path
         d="m 134.59576,4.4995023 q -0.39818,-0.5442787 -0.66459,-0.9968895 -0.26354,-0.4526107 -0.41823,-0.9310031 -0.15469,-0.481257 -0.15469,-0.9882956 0,-0.79636577 0.33229,-1.66148252 0.33516,-0.86511674 0.91095,-1.61564848 h 0.41251 q -0.52423,0.77344874 -0.80782,1.58700224 -0.28074,0.81355349 -0.28074,1.59846076 0,0.4554753 0.1375,0.9825663 0.14037,0.527091 0.38673,1.0484528 0.24636,0.5242264 0.56433,0.9768371 z"
         style="font-family:JuliaMono;-inkscape-font-specification:JuliaMono"
         id="path333" />
      <path
         d="m 136.62392,4.4995023 q 0.31798,-0.4526107 0.56433,-0.9768371 0.24636,-0.5213618 0.38386,-1.0484528 0.14037,-0.527091 0.14037,-0.9825663 0,-0.78490727 -0.2836,-1.59846076 -0.28073,-0.8135535 -0.80496,-1.58700224 h 0.41251 q 0.57579,0.75053174 0.90808,1.61564848 0.33517,0.86511675 0.33517,1.66148252 0,0.5070386 -0.15469,0.9882956 -0.15469,0.4783924 -0.4211,0.9310031 -0.26355,0.4526108 -0.66173,0.9968895 z"
         style="font-family:JuliaMono;-inkscape-font-specification:JuliaMono"
         id="path335" />
      <path
         d="m 140.88649,3.2218796 q -0.24349,0 -0.38673,-0.1403667 -0.14036,-0.1432312 -0.14036,-0.3867243 0,-0.2463578 0.14036,-0.3867244 0.14324,-0.1403666 0.38673,-0.1403666 0.24636,0 0.38672,0.1403666 0.14037,0.1403666 0.14037,0.3867244 0,0.2434931 -0.14037,0.3867243 -0.14036,0.1403667 -0.38672,0.1403667 z"
         style="font-family:JuliaMono;-inkscape-font-specification:JuliaMono"
         id="path337" />
      <path
         d="m 144.05476,1.5317508 -0.95105,-1.57554372 h 0.53855 l 0.68178,1.16876702 0.73334,-1.16876702 h 0.49845 l -0.95106,1.54116822 0.99689,1.6099193 h -0.55001 l -0.72761,-1.2203303 -0.76772,1.2203303 h -0.5099 z"
         style="font-family:JuliaMono;-inkscape-font-specification:JuliaMono"
         id="path339" />
    </g>
  </g>
</svg>
