<?xml version="1.0" encoding="UTF-8" standalone="no"?>
<!-- Created with Inkscape (http://www.inkscape.org/) -->

<svg
   width="58.874325mm"
   height="45.114944mm"
   viewBox="0 0 58.874325 45.114944"
   version="1.1"
   id="svg5"
   sodipodi:docname="embed.svg"
   inkscape:version="1.2.1 (9c6d41e410, 2022-07-14)"
   xmlns:inkscape="http://www.inkscape.org/namespaces/inkscape"
   xmlns:sodipodi="http://sodipodi.sourceforge.net/DTD/sodipodi-0.dtd"
   xmlns="http://www.w3.org/2000/svg"
   xmlns:svg="http://www.w3.org/2000/svg"
   xmlns:ns1="http://www.iki.fi/pav/software/textext/">
  <sodipodi:namedview
     id="namedview7"
     pagecolor="#ffffff"
     bordercolor="#000000"
     borderopacity="0.25"
     inkscape:showpageshadow="2"
     inkscape:pageopacity="0.0"
     inkscape:pagecheckerboard="0"
     inkscape:deskcolor="#d1d1d1"
     inkscape:document-units="mm"
     showgrid="false"
     inkscape:zoom="3.7522727"
     inkscape:cx="79.818293"
     inkscape:cy="105.26953"
     inkscape:window-width="2560"
     inkscape:window-height="1369"
     inkscape:window-x="-8"
     inkscape:window-y="-8"
     inkscape:window-maximized="1"
     inkscape:current-layer="layer1" />
  <defs
     id="defs2">
    <marker
       style="overflow:visible"
       id="marker1687"
       refX="0"
       refY="0"
       orient="auto-start-reverse"
       inkscape:stockid="TriangleStart"
       markerWidth="5.3244081"
       markerHeight="6.155385"
       viewBox="0 0 5.3244081 6.1553851"
       inkscape:isstock="true"
       inkscape:collect="always"
       preserveAspectRatio="xMidYMid">
      <path
         transform="scale(0.5)"
         style="fill:context-stroke;fill-rule:evenodd;stroke:context-stroke;stroke-width:1pt"
         d="M 5.77,0 -2.88,5 V -5 Z"
         id="path1685" />
    </marker>
    <marker
       style="overflow:visible"
       id="TriangleStart"
       refX="0"
       refY="0"
       orient="auto-start-reverse"
       inkscape:stockid="TriangleStart"
       markerWidth="5.3244081"
       markerHeight="6.155385"
       viewBox="0 0 5.3244081 6.1553851"
       inkscape:isstock="true"
       inkscape:collect="always"
       preserveAspectRatio="xMidYMid">
      <path
         transform="scale(0.5)"
         style="fill:context-stroke;fill-rule:evenodd;stroke:context-stroke;stroke-width:1pt"
         d="M 5.77,0 -2.88,5 V -5 Z"
         id="path135" />
    </marker>
  </defs>
  <g
     inkscape:label="Layer 1"
     inkscape:groupmode="layer"
     id="layer1"
     transform="translate(-67.286979,-34.303465)">
    <rect
       style="fill:none;stroke:#b6b6b6;stroke-width:0.2;stroke-opacity:1"
       id="rect790"
       width="4.4874082"
       height="4.4874082"
       x="75.986786"
       y="34.403465" />
    <rect
       style="fill:none;stroke:#b6b6b6;stroke-width:0.2;stroke-opacity:1"
       id="rect790-8"
       width="4.4874082"
       height="4.4874082"
       x="80.474197"
       y="34.403465" />
    <rect
       style="fill:none;stroke:#b6b6b6;stroke-width:0.2;stroke-opacity:1"
       id="rect790-4"
       width="4.4874082"
       height="4.4874082"
       x="84.961609"
       y="34.403465" />
    <rect
       style="fill:none;stroke:#b6b6b6;stroke-width:0.2;stroke-opacity:1"
       id="rect790-8-4"
       width="4.4874082"
       height="4.4874082"
       x="89.44902"
       y="34.403465" />
    <rect
       style="fill:none;stroke:#b6b6b6;stroke-width:0.2;stroke-opacity:1"
       id="rect790-5"
       width="4.4874082"
       height="4.4874082"
       x="93.978378"
       y="34.403465" />
    <rect
       style="fill:none;stroke:#b6b6b6;stroke-width:0.2;stroke-opacity:1"
       id="rect790-8-8"
       width="4.4874082"
       height="4.4874082"
       x="98.46579"
       y="34.403465" />
    <rect
       style="fill:none;stroke:#b6b6b6;stroke-width:0.2;stroke-opacity:1"
       id="rect790-4-7"
       width="4.4874082"
       height="4.4874082"
       x="102.9532"
       y="34.403465" />
    <rect
       style="fill:none;stroke:#b6b6b6;stroke-width:0.2;stroke-opacity:1"
       id="rect790-8-4-0"
       width="4.4874082"
       height="4.4874082"
       x="107.44061"
       y="34.403465" />
    <rect
       style="fill:none;stroke:#b6b6b6;stroke-width:0.2;stroke-opacity:1"
       id="rect790-2"
       width="4.4874082"
       height="4.4874082"
       x="75.986786"
       y="43.398148" />
    <rect
       style="fill:none;stroke:#b6b6b6;stroke-width:0.2;stroke-opacity:1"
       id="rect790-8-1"
       width="4.4874082"
       height="4.4874082"
       x="80.474197"
       y="43.398148" />
    <rect
       style="fill:none;stroke:#b6b6b6;stroke-width:0.2;stroke-opacity:1"
       id="rect790-4-6"
       width="4.4874082"
       height="4.4874082"
       x="84.961609"
       y="43.398148" />
    <rect
       style="fill:none;stroke:#b6b6b6;stroke-width:0.2;stroke-opacity:1"
       id="rect790-8-4-3"
       width="4.4874082"
       height="4.4874082"
       x="89.44902"
       y="43.398148" />
    <rect
       style="fill:none;stroke:#b6b6b6;stroke-width:0.2;stroke-opacity:1"
       id="rect790-5-5"
       width="4.4874082"
       height="4.4874082"
       x="93.978378"
       y="43.398148" />
    <rect
       style="fill:none;stroke:#b6b6b6;stroke-width:0.2;stroke-opacity:1"
       id="rect790-8-8-4"
       width="4.4874082"
       height="4.4874082"
       x="98.46579"
       y="43.398148" />
    <rect
       style="fill:none;stroke:#b6b6b6;stroke-width:0.2;stroke-opacity:1"
       id="rect790-4-7-3"
       width="4.4874082"
       height="4.4874082"
       x="102.9532"
       y="43.398148" />
    <rect
       style="fill:none;stroke:#b6b6b6;stroke-width:0.2;stroke-opacity:1"
       id="rect790-8-4-0-7"
       width="4.4874082"
       height="4.4874082"
       x="107.44061"
       y="43.398148" />
    <rect
       style="fill:none;stroke:#b6b6b6;stroke-width:0.2;stroke-opacity:1"
       id="rect790-1-5"
       width="4.4874082"
       height="4.4874082"
       x="75.986786"
       y="47.885555" />
    <rect
       style="fill:none;stroke:#b6b6b6;stroke-width:0.2;stroke-opacity:1"
       id="rect790-8-9-2"
       width="4.4874082"
       height="4.4874082"
       x="80.474197"
       y="47.885555" />
    <rect
       style="fill:none;stroke:#b6b6b6;stroke-width:0.2;stroke-opacity:1"
       id="rect790-4-9-1"
       width="4.4874082"
       height="4.4874082"
       x="84.961609"
       y="47.885555" />
    <rect
       style="fill:none;stroke:#b6b6b6;stroke-width:0.2;stroke-opacity:1"
       id="rect790-8-4-6-5"
       width="4.4874082"
       height="4.4874082"
       x="89.44902"
       y="47.885555" />
    <rect
       style="fill:none;stroke:#b6b6b6;stroke-width:0.2;stroke-opacity:1"
       id="rect790-5-8-1"
       width="4.4874082"
       height="4.4874082"
       x="93.978378"
       y="47.885555" />
    <rect
       style="fill:none;stroke:#b6b6b6;stroke-width:0.2;stroke-opacity:1"
       id="rect790-8-8-7-6"
       width="4.4874082"
       height="4.4874082"
       x="98.46579"
       y="47.885555" />
    <rect
       style="fill:none;stroke:#b6b6b6;stroke-width:0.2;stroke-opacity:1"
       id="rect790-4-7-1-4"
       width="4.4874082"
       height="4.4874082"
       x="102.9532"
       y="47.885555" />
    <rect
       style="fill:none;stroke:#b6b6b6;stroke-width:0.2;stroke-opacity:1"
       id="rect790-8-4-0-1-6"
       width="4.4874082"
       height="4.4874082"
       x="107.44061"
       y="47.885555" />
    <rect
       style="fill:none;stroke:#b6b6b6;stroke-width:0.2;stroke-opacity:1"
       id="rect790-7"
       width="4.4874082"
       height="4.4874082"
       x="75.986786"
       y="52.373516" />
    <rect
       style="fill:none;stroke:#b6b6b6;stroke-width:0.2;stroke-opacity:1"
       id="rect790-8-3"
       width="4.4874082"
       height="4.4874082"
       x="80.474197"
       y="52.373516" />
    <rect
       style="fill:none;stroke:#b6b6b6;stroke-width:0.2;stroke-opacity:1"
       id="rect790-4-5"
       width="4.4874082"
       height="4.4874082"
       x="84.961609"
       y="52.373516" />
    <rect
       style="fill:none;stroke:#b6b6b6;stroke-width:0.2;stroke-opacity:1"
       id="rect790-8-4-2"
       width="4.4874082"
       height="4.4874082"
       x="89.44902"
       y="52.373516" />
    <rect
       style="fill:none;stroke:#b6b6b6;stroke-width:0.2;stroke-opacity:1"
       id="rect790-5-3"
       width="4.4874082"
       height="4.4874082"
       x="93.978378"
       y="52.373516" />
    <rect
       style="fill:none;stroke:#b6b6b6;stroke-width:0.2;stroke-opacity:1"
       id="rect790-8-8-46"
       width="4.4874082"
       height="4.4874082"
       x="98.46579"
       y="52.373516" />
    <rect
       style="fill:none;stroke:#b6b6b6;stroke-width:0.2;stroke-opacity:1"
       id="rect790-4-7-8"
       width="4.4874082"
       height="4.4874082"
       x="102.9532"
       y="52.373516" />
    <rect
       style="fill:none;stroke:#b6b6b6;stroke-width:0.2;stroke-opacity:1"
       id="rect790-8-4-0-74"
       width="4.4874082"
       height="4.4874082"
       x="107.44061"
       y="52.373516" />
    <rect
       style="fill:none;stroke:#b6b6b6;stroke-width:0.2;stroke-opacity:1"
       id="rect790-1-9"
       width="4.4874082"
       height="4.4874082"
       x="75.986786"
       y="56.860924" />
    <rect
       style="fill:none;stroke:#b6b6b6;stroke-width:0.2;stroke-opacity:1"
       id="rect790-8-9-0"
       width="4.4874082"
       height="4.4874082"
       x="80.474197"
       y="56.860924" />
    <rect
       style="fill:none;stroke:#b6b6b6;stroke-width:0.2;stroke-opacity:1"
       id="rect790-4-9-0"
       width="4.4874082"
       height="4.4874082"
       x="84.961609"
       y="56.860924" />
    <rect
       style="fill:none;stroke:#b6b6b6;stroke-width:0.2;stroke-opacity:1"
       id="rect790-8-4-6-1"
       width="4.4874082"
       height="4.4874082"
       x="89.44902"
       y="56.860924" />
    <rect
       style="fill:none;stroke:#b6b6b6;stroke-width:0.2;stroke-opacity:1"
       id="rect790-5-8-3"
       width="4.4874082"
       height="4.4874082"
       x="93.978378"
       y="56.860924" />
    <rect
       style="fill:none;stroke:#b6b6b6;stroke-width:0.2;stroke-opacity:1"
       id="rect790-8-8-7-1"
       width="4.4874082"
       height="4.4874082"
       x="98.46579"
       y="56.860924" />
    <rect
       style="fill:none;stroke:#b6b6b6;stroke-width:0.2;stroke-opacity:1"
       id="rect790-4-7-1-7"
       width="4.4874082"
       height="4.4874082"
       x="102.9532"
       y="56.860924" />
    <rect
       style="fill:none;stroke:#b6b6b6;stroke-width:0.2;stroke-opacity:1"
       id="rect790-8-4-0-1-5"
       width="4.4874082"
       height="4.4874082"
       x="107.44061"
       y="56.860924" />
    <rect
       style="fill:none;stroke:#b6b6b6;stroke-width:0.2;stroke-opacity:1"
       id="rect790-2-3"
       width="4.4874082"
       height="4.4874082"
       x="75.986786"
       y="61.368198" />
    <rect
       style="fill:none;stroke:#b6b6b6;stroke-width:0.2;stroke-opacity:1"
       id="rect790-8-1-5"
       width="4.4874082"
       height="4.4874082"
       x="80.474197"
       y="61.368198" />
    <rect
       style="fill:none;stroke:#b6b6b6;stroke-width:0.2;stroke-opacity:1"
       id="rect790-4-6-3"
       width="4.4874082"
       height="4.4874082"
       x="84.961609"
       y="61.368198" />
    <rect
       style="fill:none;stroke:#b6b6b6;stroke-width:0.2;stroke-opacity:1"
       id="rect790-8-4-3-7"
       width="4.4874082"
       height="4.4874082"
       x="89.44902"
       y="61.368198" />
    <rect
       style="fill:none;stroke:#b6b6b6;stroke-width:0.2;stroke-opacity:1"
       id="rect790-5-5-9"
       width="4.4874082"
       height="4.4874082"
       x="93.978378"
       y="61.368198" />
    <rect
       style="fill:none;stroke:#b6b6b6;stroke-width:0.2;stroke-opacity:1"
       id="rect790-8-8-4-3"
       width="4.4874082"
       height="4.4874082"
       x="98.46579"
       y="61.368198" />
    <rect
       style="fill:none;stroke:#b6b6b6;stroke-width:0.2;stroke-opacity:1"
       id="rect790-4-7-3-1"
       width="4.4874082"
       height="4.4874082"
       x="102.9532"
       y="61.368198" />
    <rect
       style="fill:none;stroke:#b6b6b6;stroke-width:0.2;stroke-opacity:1"
       id="rect790-8-4-0-7-9"
       width="4.4874082"
       height="4.4874082"
       x="107.44061"
       y="61.368198" />
    <rect
       style="fill:none;stroke:#b6b6b6;stroke-width:0.2;stroke-opacity:1"
       id="rect790-1-5-8"
       width="4.4874082"
       height="4.4874082"
       x="75.986786"
       y="65.855614" />
    <rect
       style="fill:none;stroke:#b6b6b6;stroke-width:0.2;stroke-opacity:1"
       id="rect790-8-9-2-3"
       width="4.4874082"
       height="4.4874082"
       x="80.474197"
       y="65.855614" />
    <rect
       style="fill:none;stroke:#b6b6b6;stroke-width:0.2;stroke-opacity:1"
       id="rect790-4-9-1-2"
       width="4.4874082"
       height="4.4874082"
       x="84.961609"
       y="65.855614" />
    <rect
       style="fill:none;stroke:#b6b6b6;stroke-width:0.2;stroke-opacity:1"
       id="rect790-8-4-6-5-9"
       width="4.4874082"
       height="4.4874082"
       x="89.44902"
       y="65.855614" />
    <rect
       style="fill:none;stroke:#b6b6b6;stroke-width:0.2;stroke-opacity:1"
       id="rect790-5-8-1-6"
       width="4.4874082"
       height="4.4874082"
       x="93.978378"
       y="65.855614" />
    <rect
       style="fill:none;stroke:#b6b6b6;stroke-width:0.2;stroke-opacity:1"
       id="rect790-8-8-7-6-4"
       width="4.4874082"
       height="4.4874082"
       x="98.46579"
       y="65.855614" />
    <rect
       style="fill:none;stroke:#b6b6b6;stroke-width:0.2;stroke-opacity:1"
       id="rect790-4-7-1-4-3"
       width="4.4874082"
       height="4.4874082"
       x="102.9532"
       y="65.855614" />
    <rect
       style="fill:none;stroke:#b6b6b6;stroke-width:0.2;stroke-opacity:1"
       id="rect790-8-4-0-1-6-7"
       width="4.4874082"
       height="4.4874082"
       x="107.44061"
       y="65.855614" />
    <rect
       style="fill:none;stroke:#b6b6b6;stroke-width:0.2;stroke-opacity:1"
       id="rect790-43"
       width="4.4874082"
       height="4.4874082"
       x="75.986786"
       y="70.34359" />
    <rect
       style="fill:none;stroke:#b6b6b6;stroke-width:0.2;stroke-opacity:1"
       id="rect790-8-5"
       width="4.4874082"
       height="4.4874082"
       x="80.474197"
       y="70.34359" />
    <rect
       style="fill:none;stroke:#b6b6b6;stroke-width:0.2;stroke-opacity:1"
       id="rect790-4-96"
       width="4.4874082"
       height="4.4874082"
       x="84.961609"
       y="70.34359" />
    <rect
       style="fill:none;stroke:#b6b6b6;stroke-width:0.2;stroke-opacity:1"
       id="rect790-8-4-69"
       width="4.4874082"
       height="4.4874082"
       x="89.44902"
       y="70.34359" />
    <rect
       style="fill:none;stroke:#b6b6b6;stroke-width:0.2;stroke-opacity:1"
       id="rect790-5-37"
       width="4.4874082"
       height="4.4874082"
       x="93.978378"
       y="70.34359" />
    <rect
       style="fill:none;stroke:#b6b6b6;stroke-width:0.2;stroke-opacity:1"
       id="rect790-8-8-1"
       width="4.4874082"
       height="4.4874082"
       x="98.46579"
       y="70.34359" />
    <rect
       style="fill:none;stroke:#b6b6b6;stroke-width:0.2;stroke-opacity:1"
       id="rect790-4-7-2"
       width="4.4874082"
       height="4.4874082"
       x="102.9532"
       y="70.34359" />
    <rect
       style="fill:none;stroke:#b6b6b6;stroke-width:0.2;stroke-opacity:1"
       id="rect790-8-4-0-4"
       width="4.4874082"
       height="4.4874082"
       x="107.44061"
       y="70.34359" />
    <rect
       style="fill:none;stroke:#b6b6b6;stroke-width:0.2;stroke-opacity:1"
       id="rect790-1-1"
       width="4.4874082"
       height="4.4874082"
       x="75.986786"
       y="74.831001" />
    <rect
       style="fill:none;stroke:#b6b6b6;stroke-width:0.2;stroke-opacity:1"
       id="rect790-8-9-4"
       width="4.4874082"
       height="4.4874082"
       x="80.474197"
       y="74.831001" />
    <rect
       style="fill:none;stroke:#b6b6b6;stroke-width:0.2;stroke-opacity:1"
       id="rect790-4-9-8"
       width="4.4874082"
       height="4.4874082"
       x="84.961609"
       y="74.831001" />
    <rect
       style="fill:none;stroke:#b6b6b6;stroke-width:0.2;stroke-opacity:1"
       id="rect790-8-4-6-0"
       width="4.4874082"
       height="4.4874082"
       x="89.44902"
       y="74.831001" />
    <rect
       style="fill:none;stroke:#b6b6b6;stroke-width:0.2;stroke-opacity:1"
       id="rect790-5-8-39"
       width="4.4874082"
       height="4.4874082"
       x="93.978378"
       y="74.831001" />
    <rect
       style="fill:none;stroke:#b6b6b6;stroke-width:0.2;stroke-opacity:1"
       id="rect790-8-8-7-5"
       width="4.4874082"
       height="4.4874082"
       x="98.46579"
       y="74.831001" />
    <rect
       style="fill:none;stroke:#b6b6b6;stroke-width:0.2;stroke-opacity:1"
       id="rect790-4-7-1-8"
       width="4.4874082"
       height="4.4874082"
       x="102.9532"
       y="74.831001" />
    <rect
       style="fill:none;stroke:#b6b6b6;stroke-width:0.2;stroke-opacity:1"
       id="rect790-8-4-0-1-8"
       width="4.4874082"
       height="4.4874082"
       x="107.44061"
       y="74.831001" />
    <rect
       style="fill:#36b1eb;fill-opacity:1;stroke:#000000;stroke-width:0.2;stroke-opacity:1"
       id="rect790-1"
       width="4.4874082"
       height="4.4874082"
       x="75.986786"
       y="38.890873" />
    <rect
       style="fill:#8dd3f4;fill-opacity:1;stroke:#000000;stroke-width:0.2;stroke-opacity:1"
       id="rect790-8-9"
       width="4.4874082"
       height="4.4874082"
       x="80.474197"
       y="38.890873" />
    <rect
       style="fill:#e0f3fc;fill-opacity:1;stroke:#000000;stroke-width:0.2;stroke-opacity:1"
       id="rect790-4-9"
       width="4.4874082"
       height="4.4874082"
       x="84.961609"
       y="38.890873" />
    <rect
       style="fill:#7cccf3;fill-opacity:1;stroke:#000000;stroke-width:0.2;stroke-opacity:1"
       id="rect790-8-4-6"
       width="4.4874082"
       height="4.4874082"
       x="89.44902"
       y="38.890873" />
    <rect
       style="fill:#4fbbee;fill-opacity:1;stroke:#000000;stroke-width:0.2;stroke-opacity:1"
       id="rect790-5-8"
       width="4.4874082"
       height="4.4874082"
       x="93.978378"
       y="38.890873" />
    <rect
       style="fill:#d0edfa;fill-opacity:1;stroke:#000000;stroke-width:0.2;stroke-opacity:1"
       id="rect790-8-8-7"
       width="4.4874082"
       height="4.4874082"
       x="98.46579"
       y="38.890873" />
    <rect
       style="fill:#8dd3f4;fill-opacity:1;stroke:#000000;stroke-width:0.2;stroke-opacity:1"
       id="rect790-4-7-1"
       width="4.4874082"
       height="4.4874082"
       x="102.9532"
       y="38.890873" />
    <rect
       style="fill:#41b6ed;fill-opacity:1;stroke:#000000;stroke-width:0.2;stroke-opacity:1"
       id="rect790-8-4-0-1"
       width="4.4874082"
       height="4.4874082"
       x="107.44061"
       y="38.890873" />
    <g
       transform="matrix(0.422981,0,0,0.422981,67.287138,42.832835)"
       ns1:version="1.8.2"
       ns1:texconverter="pdflatex"
       ns1:pdfconverter="inkscape"
       ns1:text="1"
       ns1:preamble="C:\Users\irhum\AppData\Roaming\inkscape\extensions\textext\default_packages.tex"
       ns1:scale="1.199"
       ns1:alignment="middle center"
       ns1:stroke-to-path="0"
       ns1:jacobian_sqrt="0.422981"
       id="g1925">
      <defs
         id="id-d310e6d0-cf64-4736-8dc9-0de24f9e6f0d">
        <g
           id="id-be6ab2fa-e6a2-414f-990d-379c9c3984d8">
          <g
             id="id-a754687b-b097-43cb-b813-3c2ff5c531fe" />
          <g
             id="id-8e7e7c67-6198-44c3-97fb-9d8c2de1b911">
            <path
               d="m 2.9375,-6.375 c 0,-0.25 0,-0.265625 -0.234375,-0.265625 C 2.078125,-6 1.203125,-6 0.890625,-6 v 0.3125 c 0.203125,0 0.78125,0 1.296875,-0.265625 v 5.171875 c 0,0.359375 -0.03125,0.46875 -0.921875,0.46875 h -0.3125 V 0 c 0.34375,-0.03125 1.203125,-0.03125 1.609375,-0.03125 0.390625,0 1.265625,0 1.609375,0.03125 v -0.3125 h -0.3125 c -0.90625,0 -0.921875,-0.109375 -0.921875,-0.46875 z m 0,0"
               id="id-b5921350-17fb-4389-98c3-cc540ea9ef9e" />
          </g>
        </g>
      </defs>
      <g
         fill="#000000"
         fill-opacity="1"
         id="id-035f65ed-8b73-4094-aa69-e1432fbe3e32"
         transform="translate(-149.603,-128.124)">
        <g
           transform="translate(148.712,134.765)"
           id="g2215">
          <path
             d="m 2.9375,-6.375 c 0,-0.25 0,-0.265625 -0.234375,-0.265625 C 2.078125,-6 1.203125,-6 0.890625,-6 v 0.3125 c 0.203125,0 0.78125,0 1.296875,-0.265625 v 5.171875 c 0,0.359375 -0.03125,0.46875 -0.921875,0.46875 h -0.3125 V 0 c 0.34375,-0.03125 1.203125,-0.03125 1.609375,-0.03125 0.390625,0 1.265625,0 1.609375,0.03125 v -0.3125 h -0.3125 c -0.90625,0 -0.921875,-0.109375 -0.921875,-0.46875 z m 0,0"
             id="id-4a58f429-9ff8-46ae-af24-e153ed1d2a44" />
        </g>
      </g>
    </g>
    <path
       style="fill:none;fill-opacity:1;stroke:#000000;stroke-width:0.2;stroke-opacity:1;marker-start:url(#TriangleStart)"
       d="m 75.986785,41.134577 c 0,0 -2.373367,-0.01859 -3.481318,0.345146 -1.240219,0.407155 -3.367647,1.998557 -3.367647,1.998557"
       id="path2659"
       sodipodi:nodetypes="cac" />
    <g
       transform="matrix(0.422981,0,0,0.422981,124.05951,45.442473)"
       ns1:version="1.8.2"
       ns1:texconverter="pdflatex"
       ns1:pdfconverter="inkscape"
       ns1:text="$f$"
       ns1:preamble="C:\Users\irhum\AppData\Roaming\inkscape\extensions\textext\default_packages.tex"
       ns1:scale="1.199"
       ns1:alignment="middle center"
       ns1:stroke-to-path="0"
       ns1:inkscapeversion="1.2.1"
       ns1:jacobian_sqrt="0.422981"
       id="g426">
      <defs
         id="id-f41c8a7e-5f37-4009-a97e-f18780f056ee">
        <g
           id="id-5e468296-7d68-42e1-9c6b-6e1c3f0051b5">
          <g
             id="id-1b1c1c79-587a-4586-8278-2bc83cdf0f9c" />
          <g
             id="id-26593eb0-b221-4c49-8911-0e12eb6af13d">
            <path
               d="m 3.65625,-3.984375 h 0.859375 c 0.203125,0 0.296875,0 0.296875,-0.203125 0,-0.109375 -0.09375,-0.109375 -0.265625,-0.109375 H 3.71875 L 3.921875,-5.4375 c 0.046875,-0.203125 0.1875,-0.90625 0.25,-1.03125 0.078125,-0.1875 0.25,-0.34375 0.46875,-0.34375 0.03125,0 0.296875,0 0.484375,0.1875 -0.4375,0.03125 -0.546875,0.390625 -0.546875,0.53125 0,0.234375 0.1875,0.359375 0.375,0.359375 C 5.21875,-5.734375 5.5,-5.96875 5.5,-6.34375 c 0,-0.453125 -0.453125,-0.6875 -0.859375,-0.6875 -0.34375,0 -0.96875,0.1875 -1.265625,1.171875 -0.0625,0.203125 -0.09375,0.3125 -0.328125,1.5625 h -0.6875 c -0.203125,0 -0.3125,0 -0.3125,0.1875 0,0.125 0.09375,0.125 0.28125,0.125 h 0.65625 L 2.25,-0.046875 c -0.1875,0.96875 -0.359375,1.875 -0.875,1.875 -0.046875,0 -0.28125,0 -0.484375,-0.1875 C 1.359375,1.609375 1.453125,1.25 1.453125,1.109375 1.453125,0.875 1.265625,0.75 1.078125,0.75 0.8125,0.75 0.53125,0.984375 0.53125,1.359375 c 0,0.4375 0.4375,0.6875 0.84375,0.6875 0.546875,0 0.953125,-0.59375 1.125,-0.96875 0.328125,-0.625 0.546875,-1.828125 0.5625,-1.90625 z m 0,0"
               id="id-cfbdd498-dc5e-4e49-9045-b3e827dd995f" />
          </g>
        </g>
      </defs>
      <g
         fill="#000000"
         fill-opacity="1"
         id="id-0e8fac2e-8726-4ee0-841a-248091b39bc8"
         transform="translate(-149.243,-127.734)">
        <g
           transform="translate(148.712,134.765)"
           id="g423">
          <path
             d="m 3.65625,-3.984375 h 0.859375 c 0.203125,0 0.296875,0 0.296875,-0.203125 0,-0.109375 -0.09375,-0.109375 -0.265625,-0.109375 H 3.71875 L 3.921875,-5.4375 c 0.046875,-0.203125 0.1875,-0.90625 0.25,-1.03125 0.078125,-0.1875 0.25,-0.34375 0.46875,-0.34375 0.03125,0 0.296875,0 0.484375,0.1875 -0.4375,0.03125 -0.546875,0.390625 -0.546875,0.53125 0,0.234375 0.1875,0.359375 0.375,0.359375 C 5.21875,-5.734375 5.5,-5.96875 5.5,-6.34375 c 0,-0.453125 -0.453125,-0.6875 -0.859375,-0.6875 -0.34375,0 -0.96875,0.1875 -1.265625,1.171875 -0.0625,0.203125 -0.09375,0.3125 -0.328125,1.5625 h -0.6875 c -0.203125,0 -0.3125,0 -0.3125,0.1875 0,0.125 0.09375,0.125 0.28125,0.125 h 0.65625 L 2.25,-0.046875 c -0.1875,0.96875 -0.359375,1.875 -0.875,1.875 -0.046875,0 -0.28125,0 -0.484375,-0.1875 C 1.359375,1.609375 1.453125,1.25 1.453125,1.109375 1.453125,0.875 1.265625,0.75 1.078125,0.75 0.8125,0.75 0.53125,0.984375 0.53125,1.359375 c 0,0.4375 0.4375,0.6875 0.84375,0.6875 0.546875,0 0.953125,-0.59375 1.125,-0.96875 0.328125,-0.625 0.546875,-1.828125 0.5625,-1.90625 z m 0,0"
             id="id-e172d497-7fd4-41e2-b612-d532c7245e9f" />
        </g>
      </g>
    </g>
    <path
       style="fill:none;stroke:#000000;stroke-width:0.2;marker-end:url(#marker1687)"
       d="m 111.92802,41.134577 c 0,0 2.24917,-0.330017 4.23162,0.654494 1.01865,0.505878 4.10454,2.744876 5.14507,3.67827 0.93404,0.837866 2.09982,1.326112 2.09982,1.326112"
       id="path1683"
       sodipodi:nodetypes="cssc" />
  </g>
</svg>
