<?xml version="1.0" encoding="UTF-8" standalone="no"?>
<svg
   width="504pt"
   height="288pt"
   viewBox="0 0 504 288"
   version="1.1"
   id="svg56"
   sodipodi:docname="optimal.svg"
   inkscape:version="1.3 (0e150ed, 2023-07-21)"
   xmlns:inkscape="http://www.inkscape.org/namespaces/inkscape"
   xmlns:sodipodi="http://sodipodi.sourceforge.net/DTD/sodipodi-0.dtd"
   xmlns:xlink="http://www.w3.org/1999/xlink"
   xmlns="http://www.w3.org/2000/svg"
   xmlns:svg="http://www.w3.org/2000/svg"
   xmlns:rdf="http://www.w3.org/1999/02/22-rdf-syntax-ns#"
   xmlns:cc="http://creativecommons.org/ns#"
   xmlns:dc="http://purl.org/dc/elements/1.1/">
  <sodipodi:namedview
     id="namedview56"
     pagecolor="#ffffff"
     bordercolor="#000000"
     borderopacity="0.25"
     inkscape:showpageshadow="2"
     inkscape:pageopacity="0.0"
     inkscape:pagecheckerboard="0"
     inkscape:deskcolor="#d1d1d1"
     inkscape:document-units="pt"
     inkscape:zoom="1.4575902"
     inkscape:cx="326.22338"
     inkscape:cy="205.81916"
     inkscape:window-width="1712"
     inkscape:window-height="967"
     inkscape:window-x="0"
     inkscape:window-y="39"
     inkscape:window-maximized="1"
     inkscape:current-layer="svg56" />
  <metadata
     id="metadata1">
    <rdf:RDF>
      <cc:Work>
        <dc:type
           rdf:resource="http://purl.org/dc/dcmitype/StillImage" />
        <dc:date>2023-09-24T21:46:05.331008</dc:date>
        <dc:format>image/svg+xml</dc:format>
        <dc:creator>
          <cc:Agent>
            <dc:title>Matplotlib v3.7.1, https://matplotlib.org/</dc:title>
          </cc:Agent>
        </dc:creator>
      </cc:Work>
    </rdf:RDF>
  </metadata>
  <defs
     id="defs1">
    <style
       type="text/css"
       id="style1">*{stroke-linejoin: round; stroke-linecap: butt}</style>
    <rect
       x="95.650017"
       y="88.866333"
       width="192.87321"
       height="46.129089"
       id="rect42" />
    <rect
       x="95.650017"
       y="88.866333"
       width="215.15714"
       height="48.991016"
       id="rect42-0" />
    <rect
       x="95.650017"
       y="88.866333"
       width="194.50934"
       height="46.485268"
       id="rect42-0-5" />
    <marker
       style="overflow:visible"
       id="Triangle"
       refX="0"
       refY="0"
       orient="auto-start-reverse"
       inkscape:stockid="Triangle arrow"
       markerWidth="1"
       markerHeight="1"
       viewBox="0 0 1 1"
       inkscape:isstock="true"
       inkscape:collect="always"
       preserveAspectRatio="xMidYMid">
      <path
         transform="scale(0.5)"
         style="fill:context-stroke;fill-rule:evenodd;stroke:context-stroke;stroke-width:1pt"
         d="M 5.77,0 -2.88,5 V -5 Z"
         id="path135" />
    </marker>
    <marker
       style="overflow:visible"
       id="marker43"
       refX="0"
       refY="0"
       orient="auto-start-reverse"
       inkscape:stockid="Triangle arrow"
       markerWidth="1"
       markerHeight="1"
       viewBox="0 0 1 1"
       inkscape:isstock="true"
       inkscape:collect="always"
       preserveAspectRatio="xMidYMid">
      <path
         transform="scale(0.5)"
         style="fill:context-stroke;fill-rule:evenodd;stroke:context-stroke;stroke-width:1pt"
         d="M 5.77,0 -2.88,5 V -5 Z"
         id="path43" />
    </marker>
    <rect
       x="95.650017"
       y="88.866333"
       width="227.08441"
       height="41.831684"
       id="rect42-0-5-9-2" />
    <marker
       style="overflow:visible"
       id="marker43-1"
       refX="0"
       refY="0"
       orient="auto-start-reverse"
       inkscape:stockid="Triangle arrow"
       markerWidth="1"
       markerHeight="1"
       viewBox="0 0 1 1"
       inkscape:isstock="true"
       inkscape:collect="always"
       preserveAspectRatio="xMidYMid">
      <path
         transform="scale(0.5)"
         style="fill:context-stroke;fill-rule:evenodd;stroke:context-stroke;stroke-width:1pt"
         d="M 5.77,0 -2.88,5 V -5 Z"
         id="path43-5" />
    </marker>
    <rect
       x="95.650017"
       y="88.866333"
       width="227.08441"
       height="41.831684"
       id="rect42-0-5-9" />
  </defs>
  <g
     id="figure_1">
    <g
       id="patch_1">
      <path
         d="M 0 288  L 504 288  L 504 0  L 0 0  z "
         style="fill: #ffffff"
         id="path1" />
    </g>
    <g
       id="axes_1">
      <g
         id="patch_2">
        <path
           d="M 24.88 245.92  L 493.2 245.92  L 493.2 10.8  L 24.88 10.8  z "
           style="fill: #ffffff"
           id="path2" />
      </g>
      <g
         id="patch_3">
        <path
           d="M 24.88 245.92  L 24.88 10.8  L 254.251006 10.8  L 254.251006 245.92  z "
           clip-path="url(#pa49955628a)"
           style="fill: #1e90ff; opacity: 0.1; stroke: #1e90ff; stroke-linejoin: miter"
           id="path3" />
      </g>
      <g
         id="patch_4">
        <path
           d="M 254.251006 245.92  L 254.251006 10.8  L 493.2 10.8  L 493.2 245.92  z "
           clip-path="url(#pa49955628a)"
           style="fill: #dc143c; opacity: 0.1; stroke: #dc143c; stroke-linejoin: miter"
           id="path4" />
      </g>
      <g
         id="matplotlib.axis_1">
        <g
           id="xtick_1">
          <g
             id="line2d_1">
            <defs
               id="defs4">
              <path
                 id="m38383e45e5"
                 d="M 0 0  L 0 3.5  "
                 style="stroke: #000000; stroke-width: 0.8" />
            </defs>
            <g
               id="g4">
              <use
                 xlink:href="#m38383e45e5"
                 x="24.88"
                 y="245.92"
                 style="stroke: #000000; stroke-width: 0.8"
                 id="use4" />
            </g>
          </g>
          <g
             id="text_1">
            <!-- $\mathdefault{10^{9}}$ -->
            <g
               transform="translate(16.08 260.518438) scale(0.1 -0.1)"
               id="g7">
              <defs
                 id="defs5">
                <path
                   id="DejaVuSans-31"
                   d="M 794 531  L 1825 531  L 1825 4091  L 703 3866  L 703 4441  L 1819 4666  L 2450 4666  L 2450 531  L 3481 531  L 3481 0  L 794 0  L 794 531  z "
                   transform="scale(0.015625)" />
                <path
                   id="DejaVuSans-30"
                   d="M 2034 4250  Q 1547 4250 1301 3770  Q 1056 3291 1056 2328  Q 1056 1369 1301 889  Q 1547 409 2034 409  Q 2525 409 2770 889  Q 3016 1369 3016 2328  Q 3016 3291 2770 3770  Q 2525 4250 2034 4250  z M 2034 4750  Q 2819 4750 3233 4129  Q 3647 3509 3647 2328  Q 3647 1150 3233 529  Q 2819 -91 2034 -91  Q 1250 -91 836 529  Q 422 1150 422 2328  Q 422 3509 836 4129  Q 1250 4750 2034 4750  z "
                   transform="scale(0.015625)" />
                <path
                   id="DejaVuSans-39"
                   d="M 703 97  L 703 672  Q 941 559 1184 500  Q 1428 441 1663 441  Q 2288 441 2617 861  Q 2947 1281 2994 2138  Q 2813 1869 2534 1725  Q 2256 1581 1919 1581  Q 1219 1581 811 2004  Q 403 2428 403 3163  Q 403 3881 828 4315  Q 1253 4750 1959 4750  Q 2769 4750 3195 4129  Q 3622 3509 3622 2328  Q 3622 1225 3098 567  Q 2575 -91 1691 -91  Q 1453 -91 1209 -44  Q 966 3 703 97  z M 1959 2075  Q 2384 2075 2632 2365  Q 2881 2656 2881 3163  Q 2881 3666 2632 3958  Q 2384 4250 1959 4250  Q 1534 4250 1286 3958  Q 1038 3666 1038 3163  Q 1038 2656 1286 2365  Q 1534 2075 1959 2075  z "
                   transform="scale(0.015625)" />
              </defs>
              <use
                 xlink:href="#DejaVuSans-31"
                 transform="translate(0 0.765625)"
                 id="use5" />
              <use
                 xlink:href="#DejaVuSans-30"
                 transform="translate(63.623047 0.765625)"
                 id="use6" />
              <use
                 xlink:href="#DejaVuSans-39"
                 transform="translate(128.203125 39.046875) scale(0.7)"
                 id="use7" />
            </g>
          </g>
        </g>
        <g
           id="xtick_2">
          <g
             id="line2d_2">
            <defs
               id="defs7">
              <path
                 id="m833d7590bf"
                 d="M 0 0  L 0 2  "
                 style="stroke: #000000; stroke-width: 0.6" />
            </defs>
            <g
               id="g8">
              <use
                 xlink:href="#m833d7590bf"
                 x="172.618511"
                 y="245.92"
                 style="stroke: #000000; stroke-width: 0.6"
                 id="use8" />
            </g>
          </g>
          <g
             id="text_2">
            <!-- $\mathdefault{2\times10^{9}}$ -->
            <g
               transform="translate(154.518511 258.918437) scale(0.1 -0.1)"
               id="g13">
              <defs
                 id="defs8">
                <path
                   id="DejaVuSans-32"
                   d="M 1228 531  L 3431 531  L 3431 0  L 469 0  L 469 531  Q 828 903 1448 1529  Q 2069 2156 2228 2338  Q 2531 2678 2651 2914  Q 2772 3150 2772 3378  Q 2772 3750 2511 3984  Q 2250 4219 1831 4219  Q 1534 4219 1204 4116  Q 875 4013 500 3803  L 500 4441  Q 881 4594 1212 4672  Q 1544 4750 1819 4750  Q 2544 4750 2975 4387  Q 3406 4025 3406 3419  Q 3406 3131 3298 2873  Q 3191 2616 2906 2266  Q 2828 2175 2409 1742  Q 1991 1309 1228 531  z "
                   transform="scale(0.015625)" />
                <path
                   id="DejaVuSans-d7"
                   d="M 4488 3438  L 3059 2003  L 4488 575  L 4116 197  L 2681 1631  L 1247 197  L 878 575  L 2303 2003  L 878 3438  L 1247 3816  L 2681 2381  L 4116 3816  L 4488 3438  z "
                   transform="scale(0.015625)" />
              </defs>
              <use
                 xlink:href="#DejaVuSans-32"
                 transform="translate(0 0.765625)"
                 id="use9" />
              <use
                 xlink:href="#DejaVuSans-d7"
                 transform="translate(83.105469 0.765625)"
                 id="use10" />
              <use
                 xlink:href="#DejaVuSans-31"
                 transform="translate(186.376953 0.765625)"
                 id="use11" />
              <use
                 xlink:href="#DejaVuSans-30"
                 transform="translate(250 0.765625)"
                 id="use12" />
              <use
                 xlink:href="#DejaVuSans-39"
                 transform="translate(314.580078 39.046875) scale(0.7)"
                 id="use13" />
            </g>
          </g>
        </g>
        <g
           id="xtick_3">
          <g
             id="line2d_3">
            <g
               id="g14">
              <use
                 xlink:href="#m833d7590bf"
                 x="259.04"
                 y="245.92"
                 style="stroke: #000000; stroke-width: 0.6"
                 id="use14" />
            </g>
          </g>
          <g
             id="text_3">
            <!-- $\mathdefault{3\times10^{9}}$ -->
            <g
               transform="translate(240.94 258.918437) scale(0.1 -0.1)"
               id="g19">
              <defs
                 id="defs14">
                <path
                   id="DejaVuSans-33"
                   d="M 2597 2516  Q 3050 2419 3304 2112  Q 3559 1806 3559 1356  Q 3559 666 3084 287  Q 2609 -91 1734 -91  Q 1441 -91 1130 -33  Q 819 25 488 141  L 488 750  Q 750 597 1062 519  Q 1375 441 1716 441  Q 2309 441 2620 675  Q 2931 909 2931 1356  Q 2931 1769 2642 2001  Q 2353 2234 1838 2234  L 1294 2234  L 1294 2753  L 1863 2753  Q 2328 2753 2575 2939  Q 2822 3125 2822 3475  Q 2822 3834 2567 4026  Q 2313 4219 1838 4219  Q 1578 4219 1281 4162  Q 984 4106 628 3988  L 628 4550  Q 988 4650 1302 4700  Q 1616 4750 1894 4750  Q 2613 4750 3031 4423  Q 3450 4097 3450 3541  Q 3450 3153 3228 2886  Q 3006 2619 2597 2516  z "
                   transform="scale(0.015625)" />
              </defs>
              <use
                 xlink:href="#DejaVuSans-33"
                 transform="translate(0 0.765625)"
                 id="use15" />
              <use
                 xlink:href="#DejaVuSans-d7"
                 transform="translate(83.105469 0.765625)"
                 id="use16" />
              <use
                 xlink:href="#DejaVuSans-31"
                 transform="translate(186.376953 0.765625)"
                 id="use17" />
              <use
                 xlink:href="#DejaVuSans-30"
                 transform="translate(250 0.765625)"
                 id="use18" />
              <use
                 xlink:href="#DejaVuSans-39"
                 transform="translate(314.580078 39.046875) scale(0.7)"
                 id="use19" />
            </g>
          </g>
        </g>
        <g
           id="xtick_4">
          <g
             id="line2d_4">
            <g
               id="g20">
              <use
                 xlink:href="#m833d7590bf"
                 x="320.357022"
                 y="245.92"
                 style="stroke: #000000; stroke-width: 0.6"
                 id="use20" />
            </g>
          </g>
          <g
             id="text_4">
            <!-- $\mathdefault{4\times10^{9}}$ -->
            <g
               transform="translate(302.257022 258.918437) scale(0.1 -0.1)"
               id="g25">
              <defs
                 id="defs20">
                <path
                   id="DejaVuSans-34"
                   d="M 2419 4116  L 825 1625  L 2419 1625  L 2419 4116  z M 2253 4666  L 3047 4666  L 3047 1625  L 3713 1625  L 3713 1100  L 3047 1100  L 3047 0  L 2419 0  L 2419 1100  L 313 1100  L 313 1709  L 2253 4666  z "
                   transform="scale(0.015625)" />
              </defs>
              <use
                 xlink:href="#DejaVuSans-34"
                 transform="translate(0 0.765625)"
                 id="use21" />
              <use
                 xlink:href="#DejaVuSans-d7"
                 transform="translate(83.105469 0.765625)"
                 id="use22" />
              <use
                 xlink:href="#DejaVuSans-31"
                 transform="translate(186.376953 0.765625)"
                 id="use23" />
              <use
                 xlink:href="#DejaVuSans-30"
                 transform="translate(250 0.765625)"
                 id="use24" />
              <use
                 xlink:href="#DejaVuSans-39"
                 transform="translate(314.580078 39.046875) scale(0.7)"
                 id="use25" />
            </g>
          </g>
        </g>
        <g
           id="xtick_5">
          <g
             id="line2d_5">
            <g
               id="g26">
              <use
                 xlink:href="#m833d7590bf"
                 x="367.9182"
                 y="245.92"
                 style="stroke: #000000; stroke-width: 0.6"
                 id="use26" />
            </g>
          </g>
        </g>
        <g
           id="xtick_6">
          <g
             id="line2d_6">
            <g
               id="g27">
              <use
                 xlink:href="#m833d7590bf"
                 x="406.778511"
                 y="245.92"
                 style="stroke: #000000; stroke-width: 0.6"
                 id="use27" />
            </g>
          </g>
          <g
             id="text_5">
            <!-- $\mathdefault{6\times10^{9}}$ -->
            <g
               transform="translate(388.678511 258.918437) scale(0.1 -0.1)"
               id="g32">
              <defs
                 id="defs27">
                <path
                   id="DejaVuSans-36"
                   d="M 2113 2584  Q 1688 2584 1439 2293  Q 1191 2003 1191 1497  Q 1191 994 1439 701  Q 1688 409 2113 409  Q 2538 409 2786 701  Q 3034 994 3034 1497  Q 3034 2003 2786 2293  Q 2538 2584 2113 2584  z M 3366 4563  L 3366 3988  Q 3128 4100 2886 4159  Q 2644 4219 2406 4219  Q 1781 4219 1451 3797  Q 1122 3375 1075 2522  Q 1259 2794 1537 2939  Q 1816 3084 2150 3084  Q 2853 3084 3261 2657  Q 3669 2231 3669 1497  Q 3669 778 3244 343  Q 2819 -91 2113 -91  Q 1303 -91 875 529  Q 447 1150 447 2328  Q 447 3434 972 4092  Q 1497 4750 2381 4750  Q 2619 4750 2861 4703  Q 3103 4656 3366 4563  z "
                   transform="scale(0.015625)" />
              </defs>
              <use
                 xlink:href="#DejaVuSans-36"
                 transform="translate(0 0.765625)"
                 id="use28" />
              <use
                 xlink:href="#DejaVuSans-d7"
                 transform="translate(83.105469 0.765625)"
                 id="use29" />
              <use
                 xlink:href="#DejaVuSans-31"
                 transform="translate(186.376953 0.765625)"
                 id="use30" />
              <use
                 xlink:href="#DejaVuSans-30"
                 transform="translate(250 0.765625)"
                 id="use31" />
              <use
                 xlink:href="#DejaVuSans-39"
                 transform="translate(314.580078 39.046875) scale(0.7)"
                 id="use32" />
            </g>
          </g>
        </g>
        <g
           id="xtick_7">
          <g
             id="line2d_7">
            <g
               id="g33">
              <use
                 xlink:href="#m833d7590bf"
                 x="439.634436"
                 y="245.92"
                 style="stroke: #000000; stroke-width: 0.6"
                 id="use33" />
            </g>
          </g>
        </g>
        <g
           id="xtick_8">
          <g
             id="line2d_8">
            <g
               id="g34">
              <use
                 xlink:href="#m833d7590bf"
                 x="468.095533"
                 y="245.92"
                 style="stroke: #000000; stroke-width: 0.6"
                 id="use34" />
            </g>
          </g>
        </g>
        <g
           id="xtick_9">
          <g
             id="line2d_9">
            <g
               id="g35">
              <use
                 xlink:href="#m833d7590bf"
                 x="493.2"
                 y="245.92"
                 style="stroke: #000000; stroke-width: 0.6"
                 id="use35" />
            </g>
          </g>
        </g>
        <g
           id="text_6">
          <!-- Model Params -->
          <g
             transform="translate(223.989219 274.196562) scale(0.1 -0.1)"
             id="g47">
            <defs
               id="defs35">
              <path
                 id="DejaVuSans-4d"
                 d="M 628 4666  L 1569 4666  L 2759 1491  L 3956 4666  L 4897 4666  L 4897 0  L 4281 0  L 4281 4097  L 3078 897  L 2444 897  L 1241 4097  L 1241 0  L 628 0  L 628 4666  z "
                 transform="scale(0.015625)" />
              <path
                 id="DejaVuSans-6f"
                 d="M 1959 3097  Q 1497 3097 1228 2736  Q 959 2375 959 1747  Q 959 1119 1226 758  Q 1494 397 1959 397  Q 2419 397 2687 759  Q 2956 1122 2956 1747  Q 2956 2369 2687 2733  Q 2419 3097 1959 3097  z M 1959 3584  Q 2709 3584 3137 3096  Q 3566 2609 3566 1747  Q 3566 888 3137 398  Q 2709 -91 1959 -91  Q 1206 -91 779 398  Q 353 888 353 1747  Q 353 2609 779 3096  Q 1206 3584 1959 3584  z "
                 transform="scale(0.015625)" />
              <path
                 id="DejaVuSans-64"
                 d="M 2906 2969  L 2906 4863  L 3481 4863  L 3481 0  L 2906 0  L 2906 525  Q 2725 213 2448 61  Q 2172 -91 1784 -91  Q 1150 -91 751 415  Q 353 922 353 1747  Q 353 2572 751 3078  Q 1150 3584 1784 3584  Q 2172 3584 2448 3432  Q 2725 3281 2906 2969  z M 947 1747  Q 947 1113 1208 752  Q 1469 391 1925 391  Q 2381 391 2643 752  Q 2906 1113 2906 1747  Q 2906 2381 2643 2742  Q 2381 3103 1925 3103  Q 1469 3103 1208 2742  Q 947 2381 947 1747  z "
                 transform="scale(0.015625)" />
              <path
                 id="DejaVuSans-65"
                 d="M 3597 1894  L 3597 1613  L 953 1613  Q 991 1019 1311 708  Q 1631 397 2203 397  Q 2534 397 2845 478  Q 3156 559 3463 722  L 3463 178  Q 3153 47 2828 -22  Q 2503 -91 2169 -91  Q 1331 -91 842 396  Q 353 884 353 1716  Q 353 2575 817 3079  Q 1281 3584 2069 3584  Q 2775 3584 3186 3129  Q 3597 2675 3597 1894  z M 3022 2063  Q 3016 2534 2758 2815  Q 2500 3097 2075 3097  Q 1594 3097 1305 2825  Q 1016 2553 972 2059  L 3022 2063  z "
                 transform="scale(0.015625)" />
              <path
                 id="DejaVuSans-6c"
                 d="M 603 4863  L 1178 4863  L 1178 0  L 603 0  L 603 4863  z "
                 transform="scale(0.015625)" />
              <path
                 id="DejaVuSans-20"
                 transform="scale(0.015625)" />
              <path
                 id="DejaVuSans-50"
                 d="M 1259 4147  L 1259 2394  L 2053 2394  Q 2494 2394 2734 2622  Q 2975 2850 2975 3272  Q 2975 3691 2734 3919  Q 2494 4147 2053 4147  L 1259 4147  z M 628 4666  L 2053 4666  Q 2838 4666 3239 4311  Q 3641 3956 3641 3272  Q 3641 2581 3239 2228  Q 2838 1875 2053 1875  L 1259 1875  L 1259 0  L 628 0  L 628 4666  z "
                 transform="scale(0.015625)" />
              <path
                 id="DejaVuSans-61"
                 d="M 2194 1759  Q 1497 1759 1228 1600  Q 959 1441 959 1056  Q 959 750 1161 570  Q 1363 391 1709 391  Q 2188 391 2477 730  Q 2766 1069 2766 1631  L 2766 1759  L 2194 1759  z M 3341 1997  L 3341 0  L 2766 0  L 2766 531  Q 2569 213 2275 61  Q 1981 -91 1556 -91  Q 1019 -91 701 211  Q 384 513 384 1019  Q 384 1609 779 1909  Q 1175 2209 1959 2209  L 2766 2209  L 2766 2266  Q 2766 2663 2505 2880  Q 2244 3097 1772 3097  Q 1472 3097 1187 3025  Q 903 2953 641 2809  L 641 3341  Q 956 3463 1253 3523  Q 1550 3584 1831 3584  Q 2591 3584 2966 3190  Q 3341 2797 3341 1997  z "
                 transform="scale(0.015625)" />
              <path
                 id="DejaVuSans-72"
                 d="M 2631 2963  Q 2534 3019 2420 3045  Q 2306 3072 2169 3072  Q 1681 3072 1420 2755  Q 1159 2438 1159 1844  L 1159 0  L 581 0  L 581 3500  L 1159 3500  L 1159 2956  Q 1341 3275 1631 3429  Q 1922 3584 2338 3584  Q 2397 3584 2469 3576  Q 2541 3569 2628 3553  L 2631 2963  z "
                 transform="scale(0.015625)" />
              <path
                 id="DejaVuSans-6d"
                 d="M 3328 2828  Q 3544 3216 3844 3400  Q 4144 3584 4550 3584  Q 5097 3584 5394 3201  Q 5691 2819 5691 2113  L 5691 0  L 5113 0  L 5113 2094  Q 5113 2597 4934 2840  Q 4756 3084 4391 3084  Q 3944 3084 3684 2787  Q 3425 2491 3425 1978  L 3425 0  L 2847 0  L 2847 2094  Q 2847 2600 2669 2842  Q 2491 3084 2119 3084  Q 1678 3084 1418 2786  Q 1159 2488 1159 1978  L 1159 0  L 581 0  L 581 3500  L 1159 3500  L 1159 2956  Q 1356 3278 1631 3431  Q 1906 3584 2284 3584  Q 2666 3584 2933 3390  Q 3200 3197 3328 2828  z "
                 transform="scale(0.015625)" />
              <path
                 id="DejaVuSans-73"
                 d="M 2834 3397  L 2834 2853  Q 2591 2978 2328 3040  Q 2066 3103 1784 3103  Q 1356 3103 1142 2972  Q 928 2841 928 2578  Q 928 2378 1081 2264  Q 1234 2150 1697 2047  L 1894 2003  Q 2506 1872 2764 1633  Q 3022 1394 3022 966  Q 3022 478 2636 193  Q 2250 -91 1575 -91  Q 1294 -91 989 -36  Q 684 19 347 128  L 347 722  Q 666 556 975 473  Q 1284 391 1588 391  Q 1994 391 2212 530  Q 2431 669 2431 922  Q 2431 1156 2273 1281  Q 2116 1406 1581 1522  L 1381 1569  Q 847 1681 609 1914  Q 372 2147 372 2553  Q 372 3047 722 3315  Q 1072 3584 1716 3584  Q 2034 3584 2315 3537  Q 2597 3491 2834 3397  z "
                 transform="scale(0.015625)" />
            </defs>
            <use
               xlink:href="#DejaVuSans-4d"
               id="use36" />
            <use
               xlink:href="#DejaVuSans-6f"
               x="86.279297"
               id="use37" />
            <use
               xlink:href="#DejaVuSans-64"
               x="147.460938"
               id="use38" />
            <use
               xlink:href="#DejaVuSans-65"
               x="210.9375"
               id="use39" />
            <use
               xlink:href="#DejaVuSans-6c"
               x="272.460938"
               id="use40" />
            <use
               xlink:href="#DejaVuSans-20"
               x="300.244141"
               id="use41" />
            <use
               xlink:href="#DejaVuSans-50"
               x="332.03125"
               id="use42" />
            <use
               xlink:href="#DejaVuSans-61"
               x="387.833984"
               id="use43" />
            <use
               xlink:href="#DejaVuSans-72"
               x="449.113281"
               id="use44" />
            <use
               xlink:href="#DejaVuSans-61"
               x="490.226562"
               id="use45" />
            <use
               xlink:href="#DejaVuSans-6d"
               x="551.505859"
               id="use46" />
            <use
               xlink:href="#DejaVuSans-73"
               x="648.917969"
               id="use47" />
          </g>
        </g>
      </g>
      <g
         id="matplotlib.axis_2">
        <g
           id="text_7">
          <!-- Loss -->
          <g
             transform="translate(18.800312 139.327188) rotate(-90) scale(0.1 -0.1)"
             id="g51">
            <defs
               id="defs47">
              <path
                 id="DejaVuSans-4c"
                 d="M 628 4666  L 1259 4666  L 1259 531  L 3531 531  L 3531 0  L 628 0  L 628 4666  z "
                 transform="scale(0.015625)" />
            </defs>
            <use
               xlink:href="#DejaVuSans-4c"
               id="use48" />
            <use
               xlink:href="#DejaVuSans-6f"
               x="53.962891"
               id="use49" />
            <use
               xlink:href="#DejaVuSans-73"
               x="115.144531"
               id="use50" />
            <use
               xlink:href="#DejaVuSans-73"
               x="167.244141"
               id="use51" />
          </g>
        </g>
      </g>
      <g
         id="line2d_10">
        <path
           d="M 24.88 21.487273  L 34.437125 38.934379  L 43.994251 55.606151  L 53.551376 71.507858  L 63.108501 86.644609  L 72.665626 101.021353  L 82.222752 114.64288  L 91.779877 127.513822  L 101.337002 139.638657  L 110.894127 151.021706  L 120.451253 161.66714  L 130.008378 171.578973  L 139.565503 180.761073  L 149.122628 189.217155  L 158.679754 196.950785  L 168.236879 203.965384  L 177.794004 210.264223  L 187.351129 215.850431  L 196.908255 220.726989  L 206.46538 224.896736  L 216.022505 228.362369  L 225.57963 231.126441  L 235.136756 233.191366  L 244.693881 234.559417  L 254.251006 235.232727  L 263.808131 235.213293  L 273.365257 234.502972  L 282.922382 233.103483  L 292.479507 231.016412  L 302.036632 228.243206  L 311.593758 224.785179  L 321.150883 220.64351  L 330.708008 215.819244  L 340.265133 210.313293  L 349.822259 204.126435  L 359.379384 197.259319  L 368.936509 189.712457  L 378.493634 181.486236  L 388.05076 172.580906  L 397.607885 162.99659  L 407.16501 152.733282  L 416.722135 141.790842  L 426.279261 130.169005  L 435.836386 117.867373  L 445.393511 104.885423  L 454.950636 91.222499  L 464.507762 76.877821  L 474.064887 61.850477  L 483.622012 46.13943  L 493.179137 29.743513  "
           clip-path="url(#pa49955628a)"
           style="fill: none; stroke: #a9a9a9; stroke-width: 1.5; stroke-linecap: square"
           id="path51" />
      </g>
      <g
         id="patch_5">
        <path
           d="M 24.88 245.92  L 24.88 10.8  "
           style="fill: none; stroke: #000000; stroke-width: 0.8; stroke-linejoin: miter; stroke-linecap: square"
           id="path52" />
      </g>
      <g
         id="patch_6">
        <path
           d="M 493.2 245.92  L 493.2 10.8  "
           style="fill: none; stroke: #000000; stroke-width: 0.8; stroke-linejoin: miter; stroke-linecap: square"
           id="path53" />
      </g>
      <g
         id="patch_7">
        <path
           d="M 24.88 245.92  L 493.2 245.92  "
           style="fill: none; stroke: #000000; stroke-width: 0.8; stroke-linejoin: miter; stroke-linecap: square"
           id="path54" />
      </g>
      <g
         id="patch_8">
        <path
           d="M 24.88 10.8  L 493.2 10.8  "
           style="fill: none; stroke: #000000; stroke-width: 0.8; stroke-linejoin: miter; stroke-linecap: square"
           id="path55" />
      </g>
      <g
         id="PathCollection_1">
        <defs
           id="defs55">
          <path
             id="m61f33eb21d"
             d="M 0 -6.123724  L -1.374862 -1.892335  L -5.824008 -1.892335  L -2.224573 0.722808  L -3.599435 4.954197  L -0 2.339054  L 3.599435 4.954197  L 2.224573 0.722808  L 5.824008 -1.892335  L 1.374862 -1.892335  z "
             style="stroke: #008000" />
        </defs>
        <g
           clip-path="url(#pa49955628a)"
           id="g55">
          <use
             xlink:href="#m61f33eb21d"
             x="254.251006"
             y="235.232727"
             style="fill: #008000; stroke: #008000"
             id="use55" />
        </g>
      </g>
    </g>
  </g>
  <defs
     id="defs56">
    <clipPath
       id="pa49955628a">
      <rect
         x="24.88"
         y="10.8"
         width="468.32"
         height="235.12"
         id="rect55" />
    </clipPath>
  </defs>
  <text
     xml:space="preserve"
     transform="matrix(0.86610539,0,0,0.86610539,-28.257638,-44.834388)"
     id="text42"
     style="font-style:normal;font-variant:normal;font-weight:normal;font-stretch:normal;font-size:17.3333px;line-height:0.8;font-family:'DejaVu Sans';-inkscape-font-specification:'DejaVu Sans';letter-spacing:0px;white-space:pre;shape-inside:url(#rect42);display:inline;fill:#457aa6;fill-opacity:1;stroke-width:1.26614;stroke-linecap:butt;stroke-linejoin:round"><tspan
       x="95.650391"
       y="100.3031"
       id="tspan16">Too small&#10;</tspan><tspan
       x="95.650391"
       y="114.16974"
       id="tspan18"><tspan
         style="font-size:12px"
         id="tspan17">(more tokens shown, but model </tspan></tspan><tspan
       x="95.650391"
       y="128.03638"
       id="tspan20"><tspan
         style="font-size:12px"
         id="tspan19">doesn't have capacity)</tspan></tspan></text>
  <text
     xml:space="preserve"
     transform="matrix(0.86610539,0,0,0.86610539,195.71756,-44.834388)"
     id="text42-6"
     style="font-style:normal;font-variant:normal;font-weight:normal;font-stretch:normal;font-size:17.3333px;line-height:0.8;font-family:'DejaVu Sans';-inkscape-font-specification:'DejaVu Sans';letter-spacing:0px;white-space:pre;shape-inside:url(#rect42-0);display:inline;fill:#a9322a;fill-opacity:1;stroke-width:1.26614;stroke-linecap:butt;stroke-linejoin:round"><tspan
       x="95.650391"
       y="100.3031"
       id="tspan21">Too big&#10;</tspan><tspan
       x="95.650391"
       y="114.16974"
       id="tspan23"><tspan
         style="font-size:12px"
         id="tspan22">(less tokens shown, model can't </tspan></tspan><tspan
       x="95.650391"
       y="128.03638"
       id="tspan25"><tspan
         style="font-size:12px"
         id="tspan24">maximally use expanded capacity)</tspan></tspan></text>
  <text
     xml:space="preserve"
     transform="matrix(0.86610539,0,0,0.86610539,103.32897,70.997519)"
     id="text42-6-4"
     style="font-style:normal;font-variant:normal;font-weight:normal;font-stretch:normal;font-size:17.3333px;line-height:0.8;font-family:'DejaVu Sans';-inkscape-font-specification:'DejaVu Sans';letter-spacing:0px;white-space:pre;shape-inside:url(#rect42-0-5);display:inline;fill:#008000;fill-opacity:1;stroke-width:1.26614;stroke-linecap:butt;stroke-linejoin:round"><tspan
       x="95.650391"
       y="100.3031"
       id="tspan26">Just right&#10;</tspan><tspan
       x="95.650391"
       y="114.16974"
       id="tspan28"><tspan
         style="font-size:12px"
         id="tspan27">(enough tokens shown that </tspan></tspan><tspan
       x="95.650391"
       y="128.03638"
       id="tspan30"><tspan
         style="font-size:12px"
         id="tspan29">model fully uses capacity)</tspan></tspan></text>
  <path
     style="fill:none;fill-opacity:1;stroke:#008000;stroke-width:1.09707;stroke-linecap:butt;stroke-linejoin:round;stroke-dasharray:none;stroke-opacity:1;marker-end:url(#Triangle)"
     d="m 253.73076,188.92636 v 34.41213"
     id="path44" />
  <text
     xml:space="preserve"
     transform="matrix(0.55890769,0,0,0.55890769,394.66063,220.26199)"
     id="text42-6-4-7"
     style="font-style:normal;font-variant:normal;font-weight:normal;font-stretch:normal;font-size:17.3333px;line-height:1;font-family:'DejaVu Sans';-inkscape-font-specification:'DejaVu Sans';letter-spacing:0px;white-space:pre;shape-inside:url(#rect42-0-5-9);display:inline;fill:#008000;fill-opacity:1;stroke-width:1.26614;stroke-linecap:butt;stroke-linejoin:round"><tspan
       x="95.650391"
       y="102.03643"
       id="tspan32"><tspan
         style="fill:#000000"
         id="tspan31">2x params, &#10;</tspan></tspan><tspan
       x="95.650391"
       y="119.36973"
       id="tspan34"><tspan
         style="fill:#000000"
         id="tspan33">1/2x tokens</tspan></tspan></text>
  <text
     xml:space="preserve"
     transform="matrix(0.55890769,0,0,0.55890769,-50.310544,220.68871)"
     id="text42-6-4-7-6"
     style="font-style:normal;font-variant:normal;font-weight:normal;font-stretch:normal;font-size:17.3333px;line-height:1;font-family:'DejaVu Sans';-inkscape-font-specification:'DejaVu Sans';letter-spacing:0px;white-space:pre;shape-inside:url(#rect42-0-5-9-2);display:inline;fill:#008000;fill-opacity:1;stroke-width:1.26614;stroke-linecap:butt;stroke-linejoin:round"><tspan
       x="95.650391"
       y="102.03643"
       id="tspan36"><tspan
         style="fill:#000000"
         id="tspan35">1/2x params, &#10;</tspan></tspan><tspan
       x="95.650391"
       y="119.36973"
       id="tspan40"><tspan
         style="fill:#000000"
         id="tspan37">2</tspan><tspan
         style="fill:#000000"
         id="tspan38">x</tspan><tspan
         style="fill:#000000"
         id="tspan39"> tokens</tspan></tspan></text>
  <path
     style="fill:none;fill-opacity:1;stroke:#000000;stroke-width:0.95;stroke-linecap:butt;stroke-linejoin:round;stroke-dasharray:none;stroke-opacity:1;marker-end:url(#marker43)"
     d="m 25.449099,271.33875 v -7.03173"
     id="path42" />
  <path
     style="fill:none;fill-opacity:1;stroke:#000000;stroke-width:0.95;stroke-linecap:butt;stroke-linejoin:round;stroke-dasharray:none;stroke-opacity:1;marker-end:url(#marker43-1)"
     d="m 493.29909,271.03855 v -7.03173"
     id="path42-5" />
</svg>
